<svg xmlns="http://www.w3.org/2000/svg" xmlns:xlink="http://www.w3.org/1999/xlink" width="276" zoomAndPan="magnify" viewBox="0 0 206.87999 207.000001" height="276" preserveAspectRatio="xMidYMid meet" version="1.0"><defs><filter x="0%" y="0%" width="100%" height="100%" id="4f7544ddc4"><feColorMatrix values="0 0 0 0 1 0 0 0 0 1 0 0 0 0 1 0 0 0 1 0" color-interpolation-filters="sRGB"/></filter><mask id="032d4aae1e"><g filter="url(#4f7544ddc4)"><rect x="-20.687999" width="248.255988" fill="#000000" y="-20.7" height="248.400001" fill-opacity="0.73"/></g></mask><clipPath id="4076c6c1b1"><path d="M 48 1 L 192.152344 1 L 192.152344 184.613281 L 48 184.613281 Z M 48 1 " clip-rule="nonzero"/></clipPath><clipPath id="c81de153e5"><path d="M 0.480469 20 L 154 20 L 154 85 L 0.480469 85 Z M 0.480469 20 " clip-rule="nonzero"/></clipPath><clipPath id="535fd84b5f"><rect x="0" width="193" y="0" height="185"/></clipPath></defs><g mask="url(#032d4aae1e)"><g transform="matrix(1, 0, 0, 1, 9, 12)"><g clip-path="url(#535fd84b5f)"><path fill="#ee9d7a" d="M 188.886719 71.875 C 189.417969 72.507812 189.339844 73.453125 188.710938 73.988281 C 188.082031 74.523438 187.136719 74.441406 186.601562 73.8125 C 183.445312 70.089844 177.398438 67.757812 171.332031 66.917969 C 165.316406 66.082031 159.238281 66.683594 155.90625 69.183594 C 155.246094 69.679688 154.304688 69.542969 153.808594 68.882812 C 153.316406 68.222656 153.449219 67.28125 154.109375 66.785156 C 157.925781 63.925781 164.851562 62.996094 171.742188 63.949219 C 178.582031 64.898438 185.328125 67.675781 188.886719 71.875 Z M 188.886719 71.875 " fill-opacity="1" fill-rule="evenodd"/><path fill="#94d3bf" d="M 154.855469 170.898438 C 155.675781 170.8125 156.414062 171.410156 156.496094 172.230469 C 156.582031 173.054688 155.984375 173.789062 155.164062 173.875 C 145.851562 174.84375 136.867188 171.578125 127.875 166.484375 C 119.148438 161.542969 110.398438 154.878906 101.277344 148.929688 C 100.585938 148.480469 100.390625 147.550781 100.839844 146.859375 C 101.292969 146.164062 102.21875 145.96875 102.914062 146.421875 C 111.980469 152.335938 120.675781 158.964844 129.351562 163.878906 C 137.761719 168.644531 146.140625 171.800781 154.855469 170.898438 Z M 154.855469 170.898438 " fill-opacity="1" fill-rule="evenodd"/><g clip-path="url(#4076c6c1b1)"><path fill="#9983bd" d="M 70.09375 23.398438 C 69.519531 23.992188 68.570312 24.003906 67.976562 23.429688 C 67.382812 22.851562 67.371094 21.902344 67.945312 21.308594 C 80.554688 8.335938 98.574219 0.992188 119.851562 0.992188 C 152.972656 0.992188 186.703125 23.398438 189.414062 68.40625 C 189.820312 75.191406 187.410156 78.941406 185.707031 81.792969 C 185.320312 82.4375 184.972656 83.027344 184.730469 83.601562 C 184.480469 84.199219 184.351562 84.761719 184.550781 85.378906 C 188.304688 96.808594 192.710938 111.976562 192.089844 121.546875 C 191.808594 125.890625 190.453125 129.152344 187.910156 130.789062 C 186.167969 131.910156 183.824219 132.339844 180.730469 131.710938 C 178.851562 131.328125 177.535156 131.367188 176.640625 131.933594 C 175.660156 132.550781 175.328125 133.753906 175.164062 135.253906 C 174.945312 137.207031 175.117188 139.617188 175.335938 142.265625 C 175.6875 146.480469 176.175781 151.253906 175.703125 155.765625 C 175.207031 160.550781 173.636719 165.039062 169.890625 168.394531 C 166.746094 171.21875 162.023438 173.265625 154.953125 173.898438 C 154.484375 173.9375 154.007812 173.972656 153.519531 174.003906 C 152.425781 174.070312 151.277344 174.101562 150.074219 174.101562 C 143.019531 174.101562 133.332031 176.511719 123.257812 178.972656 C 112.945312 181.492188 102.238281 184.066406 93.441406 184.351562 C 85.945312 184.597656 79.792969 183.128906 76.148438 178.941406 C 73.6875 176.109375 72.304688 172.011719 72.519531 166.210938 C 73.605469 136.945312 66.703125 128.644531 60.828125 121.050781 C 58.148438 117.585938 55.695312 114.242188 54.203125 109.351562 C 51.058594 99.050781 49.277344 89.261719 48.714844 80.089844 C 48.664062 79.265625 49.292969 78.554688 50.117188 78.503906 C 50.941406 78.453125 51.652344 79.082031 51.703125 79.90625 C 52.253906 88.863281 54 98.417969 57.066406 108.476562 C 58.441406 112.976562 60.730469 116.027344 63.195312 119.214844 C 69.328125 127.144531 76.644531 135.777344 75.511719 166.320312 C 75.332031 171.160156 76.355469 174.613281 78.410156 176.976562 C 81.539062 180.574219 86.90625 181.570312 93.34375 181.359375 C 110.777344 180.792969 135.761719 171.105469 150.074219 171.105469 C 151.214844 171.105469 152.304688 171.074219 153.339844 171.011719 C 153.796875 170.984375 154.246094 170.953125 154.6875 170.914062 C 160.917969 170.359375 165.121094 168.652344 167.894531 166.164062 C 171.054688 163.328125 172.304688 159.5 172.726562 155.453125 C 173.175781 151.132812 172.6875 146.554688 172.351562 142.511719 C 172.0625 139.035156 171.898438 135.925781 172.394531 133.613281 C 172.804688 131.703125 173.65625 130.269531 175.042969 129.398438 C 176.421875 128.527344 178.425781 128.183594 181.328125 128.773438 C 183.460938 129.207031 185.089844 129.042969 186.289062 128.269531 C 188.160156 127.066406 188.894531 124.550781 189.101562 121.355469 C 189.703125 112.078125 185.34375 97.394531 181.707031 86.3125 C 181.039062 84.277344 181.808594 82.476562 183.136719 80.253906 C 184.625 77.765625 186.78125 74.507812 186.421875 68.585938 C 183.828125 25.484375 151.570312 3.988281 119.851562 3.988281 C 99.464844 3.988281 82.175781 10.964844 70.09375 23.398438 Z M 70.09375 23.398438 " fill-opacity="1" fill-rule="evenodd"/></g><path fill="#dd6776" d="M 108.925781 52.707031 C 108.925781 70.441406 94.53125 84.839844 76.800781 84.839844 C 59.070312 84.839844 44.675781 70.441406 44.675781 52.707031 C 44.675781 34.976562 59.070312 20.578125 76.800781 20.578125 C 94.53125 20.578125 108.925781 34.976562 108.925781 52.707031 Z M 105.929688 52.707031 C 105.929688 36.628906 92.878906 23.574219 76.800781 23.574219 C 60.722656 23.574219 47.671875 36.628906 47.671875 52.707031 C 47.671875 68.789062 60.722656 81.84375 76.800781 81.84375 C 92.878906 81.84375 105.929688 68.789062 105.929688 52.707031 Z M 105.929688 52.707031 " fill-opacity="1" fill-rule="evenodd"/><path fill="#8fb4e0" d="M 88.707031 38.640625 C 89.335938 39.175781 89.414062 40.121094 88.882812 40.753906 C 88.347656 41.382812 87.402344 41.460938 86.769531 40.925781 C 84.082031 38.644531 80.601562 37.269531 76.800781 37.269531 C 68.28125 37.269531 61.363281 44.1875 61.363281 52.707031 C 61.363281 61.226562 68.28125 68.144531 76.800781 68.144531 C 85.320312 68.144531 92.238281 61.226562 92.238281 52.707031 C 92.238281 52.535156 92.234375 52.363281 92.226562 52.195312 C 92.203125 51.367188 92.847656 50.675781 93.675781 50.648438 C 94.5 50.621094 95.195312 51.269531 95.222656 52.097656 C 95.226562 52.300781 95.230469 52.503906 95.230469 52.707031 C 95.230469 62.882812 86.972656 71.140625 76.800781 71.140625 C 66.628906 71.140625 58.371094 62.882812 58.371094 52.707031 C 58.371094 42.535156 66.628906 34.273438 76.800781 34.273438 C 81.335938 34.273438 85.496094 35.917969 88.707031 38.640625 Z M 88.707031 38.640625 " fill-opacity="1" fill-rule="evenodd"/><path fill="#9983bd" d="M 103.914062 44.175781 C 103.914062 49.417969 99.660156 53.671875 94.421875 53.671875 C 89.179688 53.671875 84.925781 49.417969 84.925781 44.175781 C 84.925781 38.9375 89.179688 34.679688 94.421875 34.679688 C 99.660156 34.679688 103.914062 38.9375 103.914062 44.175781 Z M 100.921875 44.175781 C 100.921875 40.589844 98.007812 37.675781 94.421875 37.675781 C 90.832031 37.675781 87.921875 40.589844 87.921875 44.175781 C 87.921875 47.765625 90.832031 50.679688 94.421875 50.679688 C 98.007812 50.679688 100.921875 47.765625 100.921875 44.175781 Z M 100.921875 44.175781 " fill-opacity="1" fill-rule="evenodd"/><g clip-path="url(#c81de153e5)"><path fill="#fde266" d="M 0.929688 51.640625 C 20.460938 32.433594 47.246094 20.578125 76.800781 20.578125 C 106.355469 20.578125 133.140625 32.433594 152.671875 51.640625 C 152.960938 51.921875 153.121094 52.304688 153.121094 52.707031 C 153.121094 53.109375 152.960938 53.496094 152.671875 53.777344 C 133.140625 72.984375 106.355469 84.839844 76.800781 84.839844 C 47.246094 84.839844 20.460938 72.984375 0.929688 53.777344 C 0.640625 53.496094 0.480469 53.109375 0.480469 52.707031 C 0.480469 52.304688 0.640625 51.921875 0.929688 51.640625 Z M 4.128906 52.707031 C 23.019531 70.753906 48.613281 81.84375 76.800781 81.84375 C 104.988281 81.84375 130.582031 70.753906 149.472656 52.707031 C 130.582031 34.660156 104.988281 23.574219 76.800781 23.574219 C 48.613281 23.574219 23.019531 34.660156 4.128906 52.707031 Z M 4.128906 52.707031 " fill-opacity="1" fill-rule="evenodd"/></g></g></g></g></svg>