<svg xmlns="http://www.w3.org/2000/svg" xmlns:xlink="http://www.w3.org/1999/xlink" width="276" zoomAndPan="magnify" viewBox="0 0 206.87999 207.000001" height="276" preserveAspectRatio="xMidYMid meet" version="1.0"><defs><clipPath id="44e45e6894"><path d="M 57 13 L 201.152344 13 L 201.152344 196.613281 L 57 196.613281 Z M 57 13 " clip-rule="nonzero"/></clipPath><clipPath id="bb03144cc1"><path d="M 9.480469 32 L 163 32 L 163 97 L 9.480469 97 Z M 9.480469 32 " clip-rule="nonzero"/></clipPath></defs><path fill="#ee9d7a" d="M 197.886719 83.875 C 198.417969 84.507812 198.339844 85.453125 197.710938 85.988281 C 197.082031 86.523438 196.136719 86.441406 195.601562 85.8125 C 192.445312 82.089844 186.398438 79.757812 180.332031 78.917969 C 174.316406 78.082031 168.238281 78.683594 164.90625 81.183594 C 164.246094 81.679688 163.304688 81.542969 162.808594 80.882812 C 162.316406 80.222656 162.449219 79.28125 163.109375 78.785156 C 166.925781 75.925781 173.851562 74.996094 180.742188 75.949219 C 187.582031 76.898438 194.328125 79.675781 197.886719 83.875 Z M 197.886719 83.875 " fill-opacity="1" fill-rule="evenodd"/><path fill="#94d3bf" d="M 163.855469 182.898438 C 164.675781 182.8125 165.414062 183.410156 165.496094 184.230469 C 165.582031 185.054688 164.984375 185.789062 164.164062 185.875 C 154.851562 186.84375 145.867188 183.578125 136.875 178.484375 C 128.148438 173.542969 119.398438 166.878906 110.277344 160.929688 C 109.585938 160.480469 109.390625 159.550781 109.839844 158.859375 C 110.292969 158.164062 111.21875 157.96875 111.914062 158.421875 C 120.980469 164.335938 129.675781 170.964844 138.351562 175.878906 C 146.761719 180.644531 155.140625 183.800781 163.855469 182.898438 Z M 163.855469 182.898438 " fill-opacity="1" fill-rule="evenodd"/><g clip-path="url(#44e45e6894)"><path fill="#9983bd" d="M 79.09375 35.398438 C 78.519531 35.992188 77.570312 36.003906 76.976562 35.429688 C 76.382812 34.851562 76.371094 33.902344 76.945312 33.308594 C 89.554688 20.335938 107.574219 12.992188 128.851562 12.992188 C 161.972656 12.992188 195.703125 35.398438 198.414062 80.40625 C 198.820312 87.191406 196.410156 90.941406 194.707031 93.792969 C 194.320312 94.4375 193.972656 95.027344 193.730469 95.601562 C 193.480469 96.199219 193.351562 96.761719 193.550781 97.378906 C 197.304688 108.808594 201.710938 123.976562 201.089844 133.546875 C 200.808594 137.890625 199.453125 141.152344 196.910156 142.789062 C 195.167969 143.910156 192.824219 144.339844 189.730469 143.710938 C 187.851562 143.328125 186.535156 143.367188 185.640625 143.933594 C 184.660156 144.550781 184.328125 145.753906 184.164062 147.253906 C 183.945312 149.207031 184.117188 151.617188 184.335938 154.265625 C 184.6875 158.480469 185.175781 163.253906 184.703125 167.765625 C 184.207031 172.550781 182.636719 177.039062 178.890625 180.394531 C 175.746094 183.21875 171.023438 185.265625 163.953125 185.898438 C 163.484375 185.9375 163.007812 185.972656 162.519531 186.003906 C 161.425781 186.070312 160.277344 186.101562 159.074219 186.101562 C 152.019531 186.101562 142.332031 188.511719 132.257812 190.972656 C 121.945312 193.492188 111.238281 196.066406 102.441406 196.351562 C 94.945312 196.597656 88.792969 195.128906 85.148438 190.941406 C 82.6875 188.109375 81.304688 184.011719 81.519531 178.210938 C 82.605469 148.945312 75.703125 140.644531 69.828125 133.050781 C 67.148438 129.585938 64.695312 126.242188 63.203125 121.351562 C 60.058594 111.050781 58.277344 101.261719 57.714844 92.089844 C 57.664062 91.265625 58.292969 90.554688 59.117188 90.503906 C 59.941406 90.453125 60.652344 91.082031 60.703125 91.90625 C 61.253906 100.863281 63 110.417969 66.066406 120.476562 C 67.441406 124.976562 69.730469 128.027344 72.195312 131.214844 C 78.328125 139.144531 85.644531 147.777344 84.511719 178.320312 C 84.332031 183.160156 85.355469 186.613281 87.410156 188.976562 C 90.539062 192.574219 95.90625 193.570312 102.34375 193.359375 C 119.777344 192.792969 144.761719 183.105469 159.074219 183.105469 C 160.214844 183.105469 161.304688 183.074219 162.339844 183.011719 C 162.796875 182.984375 163.246094 182.953125 163.6875 182.914062 C 169.917969 182.359375 174.121094 180.652344 176.894531 178.164062 C 180.054688 175.328125 181.304688 171.5 181.726562 167.453125 C 182.175781 163.132812 181.6875 158.554688 181.351562 154.511719 C 181.0625 151.035156 180.898438 147.925781 181.394531 145.613281 C 181.804688 143.703125 182.65625 142.269531 184.042969 141.398438 C 185.421875 140.527344 187.425781 140.183594 190.328125 140.773438 C 192.460938 141.207031 194.089844 141.042969 195.289062 140.269531 C 197.160156 139.066406 197.894531 136.550781 198.101562 133.355469 C 198.703125 124.078125 194.34375 109.394531 190.707031 98.3125 C 190.039062 96.277344 190.808594 94.476562 192.136719 92.253906 C 193.625 89.765625 195.78125 86.507812 195.421875 80.585938 C 192.828125 37.484375 160.570312 15.988281 128.851562 15.988281 C 108.464844 15.988281 91.175781 22.964844 79.09375 35.398438 Z M 79.09375 35.398438 " fill-opacity="1" fill-rule="evenodd"/></g><path fill="#dd6776" d="M 117.925781 64.707031 C 117.925781 82.441406 103.53125 96.839844 85.800781 96.839844 C 68.070312 96.839844 53.675781 82.441406 53.675781 64.707031 C 53.675781 46.976562 68.070312 32.578125 85.800781 32.578125 C 103.53125 32.578125 117.925781 46.976562 117.925781 64.707031 Z M 114.929688 64.707031 C 114.929688 48.628906 101.878906 35.574219 85.800781 35.574219 C 69.722656 35.574219 56.671875 48.628906 56.671875 64.707031 C 56.671875 80.789062 69.722656 93.84375 85.800781 93.84375 C 101.878906 93.84375 114.929688 80.789062 114.929688 64.707031 Z M 114.929688 64.707031 " fill-opacity="1" fill-rule="evenodd"/><path fill="#8fb4e0" d="M 97.707031 50.640625 C 98.335938 51.175781 98.414062 52.121094 97.882812 52.753906 C 97.347656 53.382812 96.402344 53.460938 95.769531 52.925781 C 93.082031 50.644531 89.601562 49.269531 85.800781 49.269531 C 77.28125 49.269531 70.363281 56.1875 70.363281 64.707031 C 70.363281 73.226562 77.28125 80.144531 85.800781 80.144531 C 94.320312 80.144531 101.238281 73.226562 101.238281 64.707031 C 101.238281 64.535156 101.234375 64.363281 101.226562 64.195312 C 101.203125 63.367188 101.847656 62.675781 102.675781 62.648438 C 103.5 62.621094 104.195312 63.269531 104.222656 64.097656 C 104.226562 64.300781 104.230469 64.503906 104.230469 64.707031 C 104.230469 74.882812 95.972656 83.140625 85.800781 83.140625 C 75.628906 83.140625 67.371094 74.882812 67.371094 64.707031 C 67.371094 54.535156 75.628906 46.273438 85.800781 46.273438 C 90.335938 46.273438 94.496094 47.917969 97.707031 50.640625 Z M 97.707031 50.640625 " fill-opacity="1" fill-rule="evenodd"/><path fill="#9983bd" d="M 112.914062 56.175781 C 112.914062 61.417969 108.660156 65.671875 103.421875 65.671875 C 98.179688 65.671875 93.925781 61.417969 93.925781 56.175781 C 93.925781 50.9375 98.179688 46.679688 103.421875 46.679688 C 108.660156 46.679688 112.914062 50.9375 112.914062 56.175781 Z M 109.921875 56.175781 C 109.921875 52.589844 107.007812 49.675781 103.421875 49.675781 C 99.832031 49.675781 96.921875 52.589844 96.921875 56.175781 C 96.921875 59.765625 99.832031 62.679688 103.421875 62.679688 C 107.007812 62.679688 109.921875 59.765625 109.921875 56.175781 Z M 109.921875 56.175781 " fill-opacity="1" fill-rule="evenodd"/><g clip-path="url(#bb03144cc1)"><path fill="#fde266" d="M 9.929688 63.640625 C 29.460938 44.433594 56.246094 32.578125 85.800781 32.578125 C 115.355469 32.578125 142.140625 44.433594 161.671875 63.640625 C 161.960938 63.921875 162.121094 64.304688 162.121094 64.707031 C 162.121094 65.109375 161.960938 65.496094 161.671875 65.777344 C 142.140625 84.984375 115.355469 96.839844 85.800781 96.839844 C 56.246094 96.839844 29.460938 84.984375 9.929688 65.777344 C 9.640625 65.496094 9.480469 65.109375 9.480469 64.707031 C 9.480469 64.304688 9.640625 63.921875 9.929688 63.640625 Z M 13.128906 64.707031 C 32.019531 82.753906 57.613281 93.84375 85.800781 93.84375 C 113.988281 93.84375 139.582031 82.753906 158.472656 64.707031 C 139.582031 46.660156 113.988281 35.574219 85.800781 35.574219 C 57.613281 35.574219 32.019531 46.660156 13.128906 64.707031 Z M 13.128906 64.707031 " fill-opacity="1" fill-rule="evenodd"/></g></svg>