<svg xmlns="http://www.w3.org/2000/svg" xmlns:xlink="http://www.w3.org/1999/xlink" width="276" zoomAndPan="magnify" viewBox="0 0 206.87999 207.000001" height="276" preserveAspectRatio="xMidYMid meet" version="1.0"><defs><filter x="0%" y="0%" width="100%" height="100%" id="b4dc7d01f1"><feColorMatrix values="0 0 0 0 1 0 0 0 0 1 0 0 0 0 1 0 0 0 1 0" color-interpolation-filters="sRGB"/></filter><mask id="f09924c7ae"><g filter="url(#b4dc7d01f1)"><rect x="-20.687999" width="248.255988" fill="#000000" y="-20.7" height="248.400001" fill-opacity="0.53"/></g></mask><clipPath id="fc9de0675b"><path d="M 0.144531 0.601562 L 200.175781 0.601562 L 200.175781 201.382812 L 0.144531 201.382812 Z M 0.144531 0.601562 " clip-rule="nonzero"/></clipPath><clipPath id="0042d8d34e"><rect x="0" width="201" y="0" height="202"/></clipPath></defs><g mask="url(#f09924c7ae)"><g transform="matrix(1, 0, 0, 1, 3, 2)"><g clip-path="url(#0042d8d34e)"><g clip-path="url(#fc9de0675b)"><path fill="#7a6200" d="M 96.496094 0.707031 C 97.300781 0.65625 98.101562 0.625 98.90625 0.617188 C 99.722656 0.609375 100.535156 0.609375 101.351562 0.621094 C 102.167969 0.628906 102.980469 0.648438 103.796875 0.679688 C 104.613281 0.710938 105.425781 0.75 106.238281 0.800781 C 107.054688 0.851562 107.867188 0.910156 108.679688 0.980469 C 109.492188 1.050781 110.300781 1.128906 111.113281 1.21875 C 111.921875 1.308594 112.730469 1.40625 113.539062 1.515625 C 114.347656 1.625 115.152344 1.742188 115.960938 1.871094 C 116.765625 2 117.566406 2.136719 118.371094 2.285156 C 119.171875 2.433594 119.972656 2.589844 120.769531 2.757812 C 121.566406 2.925781 122.363281 3.101562 123.15625 3.289062 C 123.949219 3.476562 124.742188 3.671875 125.53125 3.878906 C 126.320312 4.082031 127.105469 4.296875 127.890625 4.523438 C 128.671875 4.746094 129.453125 4.980469 130.230469 5.222656 C 131.011719 5.46875 131.785156 5.71875 132.558594 5.984375 C 133.328125 6.246094 134.097656 6.515625 134.863281 6.796875 C 135.628906 7.078125 136.390625 7.367188 137.148438 7.667969 C 137.90625 7.964844 138.660156 8.273438 139.414062 8.59375 C 140.164062 8.910156 140.910156 9.234375 141.652344 9.570312 C 142.394531 9.90625 143.136719 10.25 143.871094 10.605469 C 144.605469 10.957031 145.335938 11.320312 146.058594 11.691406 C 146.785156 12.0625 147.507812 12.441406 148.222656 12.832031 C 148.941406 13.21875 149.652344 13.617188 150.359375 14.023438 C 151.066406 14.429688 151.769531 14.84375 152.464844 15.265625 C 153.164062 15.6875 153.855469 16.121094 154.542969 16.558594 C 155.230469 17 155.910156 17.445312 156.585938 17.902344 C 157.261719 18.359375 157.933594 18.820312 158.597656 19.292969 C 159.261719 19.765625 159.917969 20.246094 160.574219 20.734375 C 161.226562 21.222656 161.871094 21.71875 162.511719 22.222656 C 163.15625 22.726562 163.789062 23.238281 164.417969 23.757812 C 165.046875 24.277344 165.667969 24.800781 166.285156 25.335938 C 166.902344 25.871094 167.511719 26.414062 168.113281 26.960938 C 168.714844 27.511719 169.3125 28.066406 169.902344 28.628906 C 170.386719 29.097656 170.867188 29.566406 171.339844 30.042969 C 171.816406 30.519531 172.289062 31 172.753906 31.488281 C 173.21875 31.972656 173.679688 32.460938 174.136719 32.957031 C 174.589844 33.453125 175.042969 33.953125 175.488281 34.457031 C 175.933594 34.960938 176.375 35.46875 176.808594 35.980469 C 177.246094 36.492188 177.675781 37.011719 178.101562 37.53125 C 178.527344 38.054688 178.945312 38.578125 179.359375 39.109375 C 179.773438 39.640625 180.183594 40.171875 180.589844 40.710938 C 180.992188 41.25 181.390625 41.792969 181.785156 42.339844 C 182.175781 42.882812 182.5625 43.433594 182.945312 43.988281 C 183.328125 44.542969 183.703125 45.101562 184.074219 45.660156 C 184.445312 46.222656 184.808594 46.789062 185.167969 47.359375 C 185.527344 47.925781 185.882812 48.5 186.230469 49.074219 C 186.578125 49.652344 186.917969 50.230469 187.253906 50.8125 C 187.589844 51.394531 187.921875 51.984375 188.246094 52.570312 C 188.570312 53.160156 188.886719 53.753906 189.199219 54.351562 C 189.511719 54.945312 189.820312 55.546875 190.121094 56.148438 C 190.421875 56.75 190.714844 57.355469 191.003906 57.960938 C 191.289062 58.570312 191.574219 59.179688 191.847656 59.796875 C 192.125 60.410156 192.394531 61.023438 192.65625 61.644531 C 192.921875 62.261719 193.179688 62.886719 193.429688 63.507812 C 193.679688 64.132812 193.925781 64.761719 194.164062 65.390625 C 194.402344 66.019531 194.632812 66.652344 194.859375 67.285156 C 195.085938 67.917969 195.304688 68.554688 195.515625 69.191406 C 195.730469 69.832031 195.9375 70.472656 196.136719 71.113281 C 196.335938 71.757812 196.527344 72.402344 196.714844 73.046875 C 196.902344 73.691406 197.082031 74.339844 197.257812 74.992188 C 197.429688 75.640625 197.597656 76.292969 197.757812 76.945312 C 197.921875 77.601562 198.074219 78.253906 198.222656 78.910156 C 198.371094 79.566406 198.511719 80.226562 198.644531 80.886719 C 198.78125 81.542969 198.90625 82.203125 199.027344 82.867188 C 199.148438 83.527344 199.265625 84.191406 199.371094 84.855469 C 200.136719 89.796875 200.375 94.722656 200.46875 99.710938 C 200.484375 100.527344 200.496094 101.339844 200.492188 102.15625 C 200.492188 102.96875 200.480469 103.785156 200.460938 104.597656 C 200.4375 105.414062 200.40625 106.226562 200.363281 107.042969 C 200.324219 107.855469 200.269531 108.667969 200.207031 109.480469 C 200.148438 110.292969 200.074219 111.105469 199.992188 111.914062 C 199.910156 112.726562 199.816406 113.535156 199.714844 114.34375 C 199.613281 115.152344 199.5 115.957031 199.378906 116.761719 C 199.257812 117.566406 199.125 118.371094 198.980469 119.175781 C 198.839844 119.976562 198.6875 120.777344 198.523438 121.574219 C 198.363281 122.375 198.191406 123.167969 198.007812 123.964844 C 197.828125 124.757812 197.632812 125.550781 197.433594 126.339844 C 197.230469 127.128906 197.019531 127.914062 196.796875 128.699219 C 196.578125 129.484375 196.347656 130.265625 196.105469 131.042969 C 195.863281 131.820312 195.613281 132.59375 195.355469 133.367188 C 195.09375 134.140625 194.824219 134.910156 194.546875 135.675781 C 194.265625 136.4375 193.976562 137.199219 193.679688 137.960938 C 193.382812 138.71875 193.074219 139.472656 192.757812 140.222656 C 192.441406 140.972656 192.113281 141.71875 191.78125 142.460938 C 191.445312 143.203125 191.097656 143.941406 190.746094 144.675781 C 190.390625 145.410156 190.03125 146.140625 189.65625 146.863281 C 189.285156 147.589844 188.90625 148.308594 188.515625 149.023438 C 188.125 149.738281 187.726562 150.449219 187.320312 151.15625 C 186.910156 151.863281 186.496094 152.5625 186.070312 153.257812 C 185.644531 153.953125 185.210938 154.640625 184.769531 155.328125 C 184.328125 156.011719 183.878906 156.6875 183.417969 157.363281 C 182.960938 158.035156 182.492188 158.703125 182.019531 159.363281 C 181.542969 160.027344 181.058594 160.679688 180.566406 161.332031 C 180.074219 161.980469 179.574219 162.625 179.066406 163.261719 C 178.558594 163.898438 178.042969 164.527344 177.519531 165.152344 C 176.996094 165.777344 176.464844 166.394531 175.929688 167.007812 C 175.390625 167.617188 174.84375 168.222656 174.289062 168.820312 C 173.734375 169.417969 173.175781 170.007812 172.605469 170.589844 C 172.1875 171.015625 171.761719 171.4375 171.335938 171.855469 C 170.910156 172.273438 170.480469 172.6875 170.046875 173.097656 C 169.613281 173.511719 169.175781 173.917969 168.734375 174.320312 C 168.292969 174.722656 167.851562 175.121094 167.402344 175.515625 C 166.953125 175.914062 166.503906 176.304688 166.046875 176.691406 C 165.59375 177.078125 165.136719 177.460938 164.675781 177.839844 C 164.210938 178.222656 163.746094 178.597656 163.28125 178.96875 C 162.8125 179.339844 162.339844 179.707031 161.867188 180.070312 C 161.390625 180.433594 160.914062 180.792969 160.433594 181.144531 C 159.953125 181.5 159.46875 181.851562 158.984375 182.195312 C 158.496094 182.542969 158.007812 182.886719 157.515625 183.222656 C 157.019531 183.5625 156.527344 183.894531 156.027344 184.222656 C 155.527344 184.550781 155.027344 184.875 154.523438 185.195312 C 154.019531 185.515625 153.511719 185.832031 153.003906 186.144531 C 152.492188 186.457031 151.980469 186.761719 151.464844 187.066406 C 150.949219 187.367188 150.433594 187.664062 149.910156 187.960938 C 149.390625 188.253906 148.867188 188.542969 148.34375 188.824219 C 147.816406 189.109375 147.289062 189.390625 146.761719 189.664062 C 146.230469 189.941406 145.699219 190.210938 145.164062 190.476562 C 144.628906 190.742188 144.089844 191.003906 143.550781 191.257812 C 143.011719 191.515625 142.46875 191.765625 141.925781 192.015625 C 141.382812 192.261719 140.835938 192.503906 140.289062 192.742188 C 139.738281 192.976562 139.1875 193.210938 138.636719 193.4375 C 138.085938 193.664062 137.53125 193.890625 136.976562 194.105469 C 136.417969 194.324219 135.859375 194.539062 135.300781 194.746094 C 134.742188 194.953125 134.179688 195.160156 133.617188 195.355469 C 133.050781 195.554688 132.488281 195.75 131.921875 195.9375 C 131.355469 196.125 130.785156 196.308594 130.214844 196.488281 C 129.644531 196.667969 129.074219 196.839844 128.5 197.007812 C 127.929688 197.179688 127.355469 197.34375 126.777344 197.5 C 126.203125 197.660156 125.625 197.8125 125.046875 197.960938 C 124.46875 198.109375 123.886719 198.253906 123.308594 198.390625 C 117.113281 199.925781 110.65625 200.996094 104.265625 201.113281 C 103.457031 201.136719 102.648438 201.15625 101.839844 201.164062 C 101.03125 201.171875 100.222656 201.167969 99.414062 201.15625 C 98.605469 201.144531 97.796875 201.121094 96.992188 201.089844 C 96.183594 201.058594 95.375 201.019531 94.566406 200.96875 C 93.761719 200.917969 92.953125 200.855469 92.148438 200.785156 C 91.34375 200.714844 90.539062 200.636719 89.734375 200.546875 C 88.933594 200.457031 88.128906 200.355469 87.328125 200.246094 C 86.527344 200.140625 85.726562 200.019531 84.929688 199.890625 C 84.128906 199.765625 83.332031 199.625 82.539062 199.476562 C 81.742188 199.332031 80.949219 199.171875 80.160156 199.007812 C 79.367188 198.839844 78.578125 198.664062 77.792969 198.480469 C 77.003906 198.292969 76.21875 198.097656 75.4375 197.894531 C 74.65625 197.6875 73.875 197.476562 73.097656 197.25 C 72.320312 197.027344 71.546875 196.796875 70.773438 196.554688 C 70.003906 196.3125 69.234375 196.0625 68.46875 195.800781 C 67.703125 195.539062 66.941406 195.269531 66.183594 194.992188 C 65.421875 194.710938 64.667969 194.425781 63.917969 194.128906 C 63.164062 193.832031 62.414062 193.523438 61.671875 193.210938 C 60.925781 192.894531 60.183594 192.570312 59.449219 192.238281 C 58.710938 191.90625 57.980469 191.5625 57.25 191.210938 C 56.519531 190.863281 55.796875 190.503906 55.078125 190.132812 C 54.355469 189.765625 53.640625 189.390625 52.929688 189.003906 C 52.21875 188.621094 51.511719 188.226562 50.8125 187.824219 C 50.109375 187.421875 49.414062 187.011719 48.722656 186.589844 C 48.03125 186.171875 47.34375 185.746094 46.664062 185.308594 C 45.980469 184.875 45.304688 184.429688 44.636719 183.980469 C 43.964844 183.527344 43.300781 183.066406 42.640625 182.597656 C 41.980469 182.132812 41.328125 181.65625 40.679688 181.171875 C 40.03125 180.6875 39.386719 180.195312 38.753906 179.699219 C 38.117188 179.199219 37.484375 178.691406 36.863281 178.175781 C 36.238281 177.664062 35.621094 177.140625 35.007812 176.613281 C 34.398438 176.082031 33.792969 175.546875 33.195312 175.003906 C 29.382812 171.511719 25.789062 167.886719 22.503906 163.890625 C 22.09375 163.394531 21.6875 162.894531 21.289062 162.386719 C 20.886719 161.882812 20.492188 161.371094 20.101562 160.859375 C 19.714844 160.347656 19.328125 159.828125 18.949219 159.308594 C 18.566406 158.785156 18.195312 158.261719 17.824219 157.734375 C 17.457031 157.207031 17.089844 156.671875 16.730469 156.136719 C 16.375 155.601562 16.019531 155.0625 15.671875 154.519531 C 15.324219 153.976562 14.980469 153.429688 14.644531 152.882812 C 14.308594 152.332031 13.976562 151.78125 13.648438 151.222656 C 13.324219 150.667969 13.003906 150.109375 12.6875 149.546875 C 12.371094 148.984375 12.0625 148.417969 11.757812 147.847656 C 11.453125 147.28125 11.15625 146.707031 10.863281 146.132812 C 10.570312 145.558594 10.285156 144.980469 10.003906 144.402344 C 9.722656 143.820312 9.449219 143.238281 9.179688 142.652344 C 8.910156 142.066406 8.644531 141.480469 8.386719 140.886719 C 8.128906 140.296875 7.878906 139.703125 7.632812 139.105469 C 7.386719 138.511719 7.148438 137.914062 6.914062 137.3125 C 6.679688 136.710938 6.449219 136.109375 6.230469 135.503906 C 6.007812 134.898438 5.789062 134.289062 5.582031 133.679688 C 5.371094 133.070312 5.167969 132.460938 4.96875 131.847656 C 4.773438 131.230469 4.582031 130.617188 4.394531 130 C 4.210938 129.382812 4.03125 128.761719 3.855469 128.140625 C 3.683594 127.519531 3.515625 126.898438 3.355469 126.273438 C 3.195312 125.648438 3.039062 125.023438 2.890625 124.394531 C 2.742188 123.769531 2.601562 123.140625 2.464844 122.507812 C 2.328125 121.878906 2.199219 121.246094 2.078125 120.613281 C 1.953125 119.980469 1.835938 119.347656 1.726562 118.710938 C 1.617188 118.078125 1.511719 117.441406 1.414062 116.804688 C 1.316406 116.167969 1.222656 115.527344 1.136719 114.890625 C 1.054688 114.25 0.972656 113.609375 0.902344 112.96875 C 0.828125 112.328125 0.761719 111.6875 0.703125 111.046875 C 0.644531 110.40625 0.589844 109.761719 0.542969 109.117188 C 0.496094 108.476562 0.453125 107.832031 0.421875 107.1875 C 0.140625 100.949219 0.199219 94.746094 0.910156 88.535156 C 0.988281 87.894531 1.070312 87.257812 1.15625 86.621094 C 1.242188 85.984375 1.339844 85.351562 1.4375 84.714844 C 1.539062 84.082031 1.644531 83.449219 1.757812 82.816406 C 1.871094 82.183594 1.988281 81.550781 2.113281 80.921875 C 2.242188 80.289062 2.371094 79.660156 2.507812 79.035156 C 2.648438 78.40625 2.789062 77.78125 2.941406 77.15625 C 3.089844 76.53125 3.246094 75.90625 3.410156 75.285156 C 3.570312 74.664062 3.738281 74.042969 3.914062 73.425781 C 4.089844 72.808594 4.269531 72.191406 4.457031 71.578125 C 4.640625 70.960938 4.835938 70.347656 5.035156 69.738281 C 5.234375 69.128906 5.4375 68.519531 5.648438 67.910156 C 5.859375 67.304688 6.074219 66.699219 6.296875 66.097656 C 6.519531 65.492188 6.75 64.894531 6.984375 64.296875 C 7.21875 63.699219 7.457031 63.101562 7.703125 62.507812 C 7.949219 61.914062 8.203125 61.324219 8.460938 60.734375 C 8.71875 60.148438 8.980469 59.5625 9.25 58.976562 C 9.519531 58.394531 9.796875 57.8125 10.074219 57.234375 C 10.355469 56.65625 10.644531 56.082031 10.933594 55.511719 C 11.226562 54.9375 11.523438 54.367188 11.828125 53.800781 C 12.132812 53.234375 12.441406 52.671875 12.753906 52.113281 C 13.070312 51.550781 13.390625 50.996094 13.714844 50.441406 C 14.039062 49.886719 14.371094 49.335938 14.707031 48.789062 C 15.042969 48.242188 15.382812 47.699219 15.730469 47.15625 C 16.078125 46.617188 16.429688 46.078125 16.789062 45.546875 C 17.144531 45.011719 17.507812 44.480469 17.875 43.953125 C 18.246094 43.425781 18.617188 42.90625 18.996094 42.386719 C 19.375 41.867188 19.757812 41.351562 20.144531 40.839844 C 20.535156 40.328125 20.929688 39.820312 21.328125 39.316406 C 21.726562 38.8125 22.128906 38.3125 22.535156 37.816406 C 22.945312 37.320312 23.359375 36.828125 23.777344 36.339844 C 24.195312 35.851562 24.617188 35.367188 25.042969 34.886719 C 25.472656 34.40625 25.902344 33.933594 26.339844 33.460938 C 26.898438 32.847656 27.460938 32.238281 28.03125 31.640625 C 28.601562 31.039062 29.179688 30.445312 29.765625 29.859375 C 30.351562 29.273438 30.945312 28.695312 31.542969 28.125 C 32.144531 27.554688 32.75 26.992188 33.363281 26.433594 C 33.980469 25.878906 34.597656 25.332031 35.226562 24.789062 C 35.855469 24.25 36.488281 23.71875 37.128906 23.191406 C 37.769531 22.667969 38.417969 22.152344 39.070312 21.640625 C 39.726562 21.132812 40.386719 20.632812 41.050781 20.140625 C 41.71875 19.648438 42.390625 19.164062 43.070312 18.691406 C 43.746094 18.214844 44.433594 17.746094 45.121094 17.289062 C 45.8125 16.832031 46.507812 16.382812 47.207031 15.941406 C 47.910156 15.5 48.617188 15.066406 49.328125 14.644531 C 50.039062 14.21875 50.757812 13.804688 51.480469 13.402344 C 52.203125 12.996094 52.929688 12.597656 53.660156 12.210938 C 54.394531 11.824219 55.128906 11.445312 55.871094 11.078125 C 56.613281 10.707031 57.359375 10.347656 58.109375 9.996094 C 58.859375 9.648438 59.617188 9.304688 60.375 8.972656 C 61.132812 8.644531 61.898438 8.320312 62.664062 8.007812 C 63.429688 7.695312 64.203125 7.390625 64.976562 7.097656 C 65.75 6.804688 66.527344 6.523438 67.3125 6.246094 C 68.09375 5.972656 68.878906 5.710938 69.664062 5.453125 C 70.453125 5.199219 71.246094 4.957031 72.039062 4.722656 C 72.835938 4.488281 73.632812 4.261719 74.429688 4.046875 C 75.230469 3.832031 76.035156 3.625 76.839844 3.433594 C 77.644531 3.238281 78.453125 3.050781 79.261719 2.878906 C 80.070312 2.703125 80.882812 2.539062 81.695312 2.382812 C 82.511719 2.230469 83.324219 2.085938 84.144531 1.949219 C 84.960938 1.816406 85.777344 1.691406 86.601562 1.578125 C 87.421875 1.464844 88.242188 1.359375 89.066406 1.269531 C 89.886719 1.175781 90.710938 1.089844 91.539062 1.019531 C 92.363281 0.945312 93.1875 0.882812 94.015625 0.832031 C 94.839844 0.777344 95.667969 0.738281 96.496094 0.707031 Z M 97.625 2.441406 C 91.363281 2.839844 85.230469 3.460938 79.09375 4.796875 C 78.457031 4.941406 77.824219 5.089844 77.191406 5.246094 C 76.558594 5.402344 75.925781 5.566406 75.296875 5.734375 C 74.667969 5.902344 74.039062 6.078125 73.414062 6.261719 C 72.785156 6.441406 72.160156 6.628906 71.539062 6.820312 C 70.917969 7.015625 70.296875 7.214844 69.679688 7.421875 C 69.058594 7.625 68.441406 7.839844 67.828125 8.054688 C 67.214844 8.273438 66.601562 8.5 65.992188 8.726562 C 65.382812 8.957031 64.773438 9.195312 64.167969 9.4375 C 63.5625 9.679688 62.960938 9.925781 62.359375 10.179688 C 61.761719 10.433594 61.164062 10.695312 60.566406 10.960938 C 59.972656 11.226562 59.378906 11.496094 58.789062 11.773438 C 58.199219 12.050781 57.613281 12.335938 57.027344 12.625 C 56.445312 12.914062 55.863281 13.207031 55.285156 13.507812 C 54.707031 13.808594 54.128906 14.113281 53.558594 14.425781 C 52.984375 14.738281 52.414062 15.054688 51.851562 15.378906 C 51.285156 15.703125 50.71875 16.03125 50.160156 16.363281 C 49.601562 16.699219 49.046875 17.039062 48.492188 17.382812 C 47.9375 17.730469 47.390625 18.078125 46.84375 18.4375 C 46.296875 18.792969 45.753906 19.152344 45.214844 19.519531 C 44.675781 19.886719 44.140625 20.257812 43.609375 20.636719 C 43.078125 21.011719 42.550781 21.394531 42.027344 21.785156 C 41.503906 22.171875 40.984375 22.566406 40.46875 22.960938 C 39.949219 23.359375 39.4375 23.765625 38.929688 24.171875 C 38.421875 24.582031 37.917969 24.992188 37.417969 25.410156 C 36.917969 25.828125 36.421875 26.253906 35.929688 26.679688 C 35.4375 27.109375 34.949219 27.542969 34.46875 27.980469 C 33.984375 28.417969 33.503906 28.859375 33.03125 29.304688 C 32.554688 29.753906 32.085938 30.203125 31.621094 30.660156 C 31.15625 31.117188 30.695312 31.578125 30.238281 32.042969 C 29.78125 32.507812 29.328125 32.976562 28.882812 33.453125 C 28.433594 33.925781 27.992188 34.40625 27.554688 34.886719 C 27.117188 35.371094 26.683594 35.859375 26.257812 36.351562 C 25.890625 36.769531 25.527344 37.191406 25.164062 37.617188 C 24.804688 38.042969 24.449219 38.46875 24.097656 38.902344 C 23.746094 39.332031 23.394531 39.765625 23.050781 40.203125 C 22.703125 40.640625 22.363281 41.082031 22.027344 41.523438 C 21.6875 41.96875 21.355469 42.414062 21.023438 42.863281 C 20.695312 43.3125 20.367188 43.761719 20.046875 44.21875 C 19.722656 44.671875 19.402344 45.128906 19.089844 45.589844 C 18.773438 46.046875 18.464844 46.511719 18.15625 46.976562 C 17.851562 47.441406 17.546875 47.910156 17.25 48.378906 C 16.949219 48.847656 16.65625 49.320312 16.363281 49.796875 C 16.074219 50.273438 15.785156 50.75 15.503906 51.230469 C 15.222656 51.710938 14.941406 52.191406 14.667969 52.675781 C 14.394531 53.160156 14.125 53.648438 13.859375 54.136719 C 13.589844 54.628906 13.328125 55.121094 13.070312 55.613281 C 12.8125 56.105469 12.5625 56.601562 12.3125 57.101562 C 12.0625 57.601562 11.816406 58.101562 11.578125 58.601562 C 11.335938 59.105469 11.097656 59.609375 10.867188 60.117188 C 10.632812 60.621094 10.40625 61.128906 10.183594 61.640625 C 9.960938 62.152344 9.742188 62.664062 9.527344 63.175781 C 9.3125 63.691406 9.101562 64.207031 8.894531 64.726562 C 8.6875 65.242188 8.488281 65.761719 8.289062 66.28125 C 8.09375 66.804688 7.898438 67.328125 7.710938 67.851562 C 7.523438 68.375 7.339844 68.902344 7.160156 69.429688 C 6.980469 69.957031 6.804688 70.484375 6.636719 71.015625 C 6.464844 71.546875 6.300781 72.078125 6.136719 72.609375 C 5.976562 73.144531 5.820312 73.679688 5.667969 74.214844 C 5.515625 74.75 5.367188 75.289062 5.226562 75.828125 C 5.082031 76.367188 4.945312 76.90625 4.8125 77.445312 C 4.675781 77.988281 4.546875 78.527344 4.421875 79.070312 C 4.296875 79.613281 4.179688 80.160156 4.0625 80.703125 C 3.949219 81.25 3.835938 81.792969 3.730469 82.339844 C 3.625 82.886719 3.523438 83.4375 3.425781 83.984375 C 2.703125 87.96875 1.964844 92.839844 2.128906 96.882812 C 4.746094 95.582031 7.246094 94.050781 9.832031 92.691406 C 13.527344 90.742188 17.3125 88.953125 21.054688 87.101562 C 23.554688 85.863281 26.480469 85.199219 28.785156 83.628906 C 30.101562 82.734375 31.320312 81.613281 32.542969 80.585938 C 34.785156 78.699219 37.027344 76.789062 39.164062 74.785156 C 40.527344 73.507812 41.863281 72.035156 43.347656 70.90625 C 43.628906 70.691406 43.929688 70.574219 44.261719 70.460938 C 47.304688 71.242188 48.875 73.605469 51.351562 75.273438 C 53.5625 76.757812 56.296875 77.476562 58.625 78.792969 C 60.496094 73.726562 62.617188 65.597656 66.476562 61.710938 C 68.257812 59.914062 70.285156 59.832031 71.925781 57.46875 C 73.117188 55.761719 74.242188 54.011719 75.4375 52.308594 C 76.425781 50.894531 77.5 49.519531 78.453125 48.082031 C 79.496094 46.511719 80.226562 44.742188 81.582031 43.386719 C 83.300781 41.664062 85.832031 41.257812 87.65625 39.652344 C 90.070312 37.527344 91.363281 34.570312 93.308594 32.070312 C 95.808594 28.867188 98.765625 26.386719 100.78125 22.757812 C 101.113281 22.089844 101.613281 20.730469 102.324219 20.429688 C 102.523438 20.34375 102.667969 20.363281 102.851562 20.464844 C 103.625 20.882812 104.378906 22.035156 104.988281 22.6875 C 106.40625 24.21875 107.945312 25.621094 109.285156 27.226562 C 110.691406 28.902344 111.90625 30.738281 113.359375 32.371094 C 114.757812 33.941406 116.246094 35.417969 117.90625 36.710938 C 119.304688 37.804688 120.902344 38.757812 122.089844 40.09375 C 123.082031 41.207031 123.644531 42.609375 124.472656 43.835938 C 125.132812 44.816406 126.007812 45.636719 126.679688 46.609375 C 128.707031 49.546875 129.039062 53.367188 131.355469 56.125 C 133.410156 58.570312 137.015625 59.328125 138.828125 61.730469 C 139.992188 63.273438 140.667969 65.234375 141.578125 66.933594 C 143.347656 70.242188 146.242188 74.496094 148.859375 77.226562 C 152.117188 75.847656 155.382812 74.863281 158.339844 72.847656 C 160.878906 71.117188 162.757812 68.445312 165.621094 67.234375 C 167.40625 68.671875 168.859375 70.558594 170.375 72.265625 C 172.558594 74.730469 174.976562 77.070312 177.703125 78.933594 C 181.089844 81.25 184.992188 82.867188 188.640625 84.714844 C 190.769531 85.792969 192.789062 87.050781 194.796875 88.335938 C 195.957031 89.078125 197.203125 89.832031 198.261719 90.71875 C 198.253906 90.683594 198.242188 90.652344 198.234375 90.621094 C 197.835938 88.933594 197.796875 87.082031 197.519531 85.363281 C 196.898438 81.355469 196.035156 77.402344 194.929688 73.5 C 194.71875 72.785156 194.503906 72.074219 194.28125 71.367188 C 194.058594 70.65625 193.824219 69.953125 193.585938 69.25 C 193.34375 68.546875 193.097656 67.84375 192.84375 67.148438 C 192.585938 66.449219 192.324219 65.753906 192.050781 65.0625 C 191.78125 64.371094 191.5 63.683594 191.214844 62.996094 C 190.925781 62.3125 190.632812 61.628906 190.332031 60.953125 C 190.027344 60.273438 189.71875 59.597656 189.402344 58.925781 C 189.082031 58.253906 188.757812 57.585938 188.425781 56.921875 C 188.09375 56.257812 187.753906 55.597656 187.40625 54.941406 C 187.058594 54.285156 186.703125 53.632812 186.339844 52.980469 C 185.976562 52.332031 185.609375 51.6875 185.230469 51.046875 C 184.855469 50.410156 184.472656 49.773438 184.078125 49.140625 C 183.6875 48.507812 183.289062 47.882812 182.886719 47.257812 C 182.480469 46.636719 182.066406 46.019531 181.648438 45.40625 C 181.226562 44.792969 180.800781 44.183594 180.371094 43.578125 C 179.9375 42.976562 179.496094 42.378906 179.050781 41.785156 C 178.601562 41.1875 178.148438 40.601562 177.691406 40.015625 C 177.230469 39.433594 176.765625 38.855469 176.289062 38.28125 C 175.816406 37.710938 175.339844 37.140625 174.851562 36.578125 C 174.367188 36.015625 173.875 35.460938 173.375 34.910156 C 172.878906 34.359375 172.375 33.8125 171.863281 33.273438 C 171.351562 32.734375 170.835938 32.199219 170.3125 31.671875 C 169.789062 31.144531 169.261719 30.621094 168.726562 30.105469 C 168.191406 29.589844 167.652344 29.078125 167.105469 28.574219 C 166.558594 28.070312 166.007812 27.574219 165.453125 27.082031 C 164.894531 26.589844 164.332031 26.105469 163.761719 25.628906 C 163.195312 25.148438 162.621094 24.675781 162.042969 24.210938 C 161.464844 23.746094 160.878906 23.285156 160.289062 22.832031 C 159.703125 22.378906 159.105469 21.933594 158.507812 21.496094 C 157.910156 21.054688 157.304688 20.625 156.695312 20.199219 C 156.085938 19.773438 155.472656 19.355469 154.855469 18.941406 C 154.234375 18.53125 153.613281 18.125 152.984375 17.730469 C 152.148438 17.203125 151.304688 16.6875 150.453125 16.1875 C 149.597656 15.6875 148.738281 15.199219 147.875 14.722656 C 147.007812 14.246094 146.132812 13.785156 145.253906 13.335938 C 144.371094 12.882812 143.484375 12.449219 142.59375 12.023438 C 141.699219 11.601562 140.800781 11.191406 139.894531 10.796875 C 138.988281 10.398438 138.078125 10.015625 137.160156 9.648438 C 136.242188 9.277344 135.320312 8.925781 134.394531 8.582031 C 133.464844 8.242188 132.53125 7.914062 131.59375 7.597656 C 130.65625 7.285156 129.714844 6.984375 128.769531 6.699219 C 127.824219 6.414062 126.871094 6.144531 125.917969 5.886719 C 124.964844 5.628906 124.007812 5.386719 123.042969 5.15625 C 122.082031 4.929688 121.117188 4.714844 120.148438 4.515625 C 119.179688 4.316406 118.210938 4.128906 117.238281 3.960938 C 116.261719 3.789062 115.289062 3.632812 114.308594 3.492188 C 113.332031 3.347656 112.351562 3.222656 111.367188 3.109375 C 110.386719 2.996094 109.402344 2.898438 108.417969 2.816406 C 104.964844 2.492188 101.082031 2.132812 97.625 2.441406 Z M 115.320312 77.574219 C 115.679688 77.703125 116.027344 77.832031 116.292969 78.125 C 117.644531 79.625 117.257812 84.015625 117.527344 85.992188 C 117.914062 88.835938 123.015625 103.363281 124.648438 105.300781 C 125.707031 106.554688 127.84375 105.917969 128.710938 107.417969 C 129.132812 108.152344 129.296875 109.027344 129.53125 109.832031 C 130.070312 111.695312 130.867188 114.089844 132.566406 115.21875 C 134.585938 116.554688 139.113281 115.375 140.148438 116.910156 C 140.699219 117.730469 140.433594 120.085938 140.617188 121.171875 C 140.824219 122.398438 141.292969 123.601562 141.917969 124.675781 C 144.445312 129.042969 147.453125 127.472656 149.023438 129.496094 C 150.238281 131.066406 150.050781 133.464844 150.894531 135.25 C 151.621094 136.785156 152.964844 138.128906 153.953125 139.519531 C 154.894531 140.847656 155.601562 142.332031 156.53125 143.675781 C 157.953125 145.722656 159.738281 147.472656 161.480469 149.246094 L 161.484375 149.410156 L 161.675781 149.492188 C 161.617188 149.464844 161.527344 149.421875 161.46875 149.386719 C 159.871094 148.414062 156.578125 145.265625 155.492188 143.746094 C 154.777344 142.753906 154.242188 141.652344 153.476562 140.683594 C 152.324219 139.230469 150.941406 137.984375 150.085938 136.3125 C 149.507812 135.183594 149.339844 133.914062 149.015625 132.699219 C 147.941406 128.660156 146.421875 130.035156 143.875 128.496094 C 141.453125 127.035156 139.617188 123.558594 139.351562 120.792969 C 139.261719 119.878906 139.460938 118.6875 139.160156 117.824219 C 138.6875 116.464844 134.222656 117.476562 132.269531 116.402344 C 129.605469 114.9375 128.464844 110.238281 127.632812 107.53125 C 126.78125 107.402344 125.828125 107.296875 125.035156 106.957031 C 124.292969 106.636719 123.859375 106.085938 123.441406 105.421875 C 121.46875 102.296875 120.425781 98.429688 119.1875 94.972656 C 118.375 92.710938 117.398438 90.40625 116.878906 88.058594 C 116.195312 84.949219 116.65625 81.898438 115.382812 78.875 C 114.480469 78.921875 113.40625 79.085938 112.519531 78.929688 C 111.15625 78.691406 110.5625 77.355469 109.851562 76.324219 C 108.761719 75.835938 107.449219 75.734375 106.445312 75.082031 C 105.46875 74.445312 105.367188 73.378906 105.117188 72.34375 C 104.597656 70.191406 103.105469 70.308594 101.511719 69.304688 C 96.769531 66.324219 96.746094 62.9375 95.652344 57.929688 C 94.332031 59.1875 92.949219 60.328125 91.851562 61.800781 C 91.765625 65.210938 92.609375 68.667969 93.121094 72.019531 C 93.421875 73.988281 93.546875 75.980469 94.015625 77.917969 C 94.253906 78.902344 94.597656 79.894531 95.089844 80.785156 C 96.042969 82.511719 98.003906 83.546875 98.839844 85.3125 C 100.027344 87.816406 99.4375 90.828125 100.578125 93.421875 C 101.644531 95.851562 103.796875 97.75 105.195312 100.003906 C 107.589844 103.871094 108.734375 108.324219 110.175781 112.589844 L 110.148438 112.582031 L 110.1875 112.742188 C 109.289062 111.160156 108.558594 109.433594 107.765625 107.796875 C 106.445312 105.082031 105.042969 102.355469 103.527344 99.746094 C 103.15625 99.101562 102.765625 98.429688 102.300781 97.84375 C 101.316406 96.609375 100.09375 95.628906 99.488281 94.125 C 98.441406 91.527344 99.042969 88.570312 97.957031 86.019531 C 97.167969 84.164062 94.941406 83.566406 93.957031 81.839844 C 92.367188 79.046875 92.507812 75.410156 92.007812 72.308594 C 91.574219 69.621094 90.988281 66.96875 90.585938 64.273438 C 89.332031 66.925781 88.160156 69.613281 87.066406 72.332031 C 85.976562 75.054688 84.96875 77.808594 84.042969 80.589844 C 83.066406 83.53125 81.589844 84.75 79.402344 86.796875 C 79.003906 87.171875 78.539062 87.796875 78.0625 88.035156 C 77.902344 88.75 77.953125 89.539062 77.949219 90.269531 C 77.96875 91.59375 78.023438 92.917969 78.277344 94.222656 C 78.617188 95.960938 79.292969 97.679688 80.453125 99.042969 C 81.457031 100.222656 82.910156 100.714844 84.046875 101.722656 C 84.960938 102.53125 85.667969 103.558594 86.589844 104.359375 C 87.523438 105.175781 88.707031 105.699219 89.578125 106.589844 C 90.429688 107.460938 90.839844 108.664062 91.746094 109.511719 C 92.652344 110.355469 93.890625 110.785156 94.832031 111.605469 C 96.210938 112.808594 96.578125 114.972656 98.175781 115.933594 C 99.742188 116.875 102.019531 116.167969 103.753906 116.878906 C 105.375 117.542969 105.53125 119.511719 106.917969 120.3125 C 109.160156 121.605469 111.800781 120.738281 114.832031 122.992188 C 118.660156 125.835938 120.390625 130.496094 124.402344 133.210938 C 125.148438 133.1875 125.898438 133.152344 126.644531 133.234375 C 130.695312 133.699219 129.519531 136.101562 131.84375 137.996094 C 133.207031 139.101562 135.460938 138.925781 137.019531 139.84375 C 138.753906 140.867188 138.859375 142.582031 140.097656 143.929688 C 140.929688 144.828125 142.214844 144.691406 143.140625 145.386719 C 144.492188 146.398438 145.515625 148.570312 146.597656 149.941406 C 148.5 150.308594 150.425781 150.601562 152.304688 151.070312 C 155.363281 151.832031 158.558594 153.171875 161.753906 153.082031 C 164.480469 153.003906 174.929688 145.671875 177.957031 143.929688 C 181.394531 141.949219 187.148438 139.304688 191.082031 139.042969 C 191.671875 137.140625 192.585938 135.304688 193.261719 133.425781 C 191.535156 131.730469 189.652344 130.191406 187.933594 128.480469 C 186.105469 126.660156 184.378906 124.730469 182.550781 122.90625 C 180.597656 120.949219 178.457031 119.03125 176.347656 117.25 C 173.921875 115.199219 171.125 113.660156 168.699219 111.621094 C 167.15625 110.328125 166.285156 108.398438 164.6875 107.1875 C 162.988281 105.898438 160.667969 105.671875 158.90625 104.46875 C 157.71875 103.65625 156.703125 102.570312 155.664062 101.585938 C 154.347656 100.332031 152.984375 99.136719 151.5 98.085938 C 147 94.890625 141.96875 92.5625 137.316406 89.617188 C 137.320312 89.78125 137.324219 89.945312 137.339844 90.109375 C 137.644531 93.300781 138.152344 97.632812 141.128906 99.472656 C 142.148438 100.101562 143.382812 100.492188 144.191406 101.417969 C 145.625 103.066406 145.210938 105.640625 146.746094 107.242188 C 147.804688 108.34375 149.46875 108.589844 150.722656 109.414062 C 152.253906 110.421875 153.15625 112.15625 154.808594 112.992188 C 156.933594 114.066406 159.402344 114.285156 161.660156 114.984375 C 164.160156 115.757812 166.386719 117.242188 168.683594 118.457031 C 169.925781 119.117188 171.394531 119.691406 172.496094 120.570312 C 174.488281 122.164062 174.210938 125.265625 175.953125 127.136719 C 177.789062 129.105469 180.929688 129.234375 183.015625 130.910156 C 184.289062 131.933594 184.703125 133.527344 185.667969 134.785156 C 186.652344 136.066406 188 137.085938 189.226562 138.125 C 186.953125 137.101562 185.464844 136.101562 184.054688 134.023438 C 183.417969 133.085938 182.804688 132.230469 181.875 131.558594 C 179.792969 130.0625 176.953125 129.824219 175.128906 127.9375 C 173.738281 126.5 173.515625 124.5 172.601562 122.808594 C 172.320312 122.289062 171.941406 121.765625 171.480469 121.394531 C 169.636719 119.921875 163.050781 116.714844 160.699219 115.839844 C 159.378906 115.351562 157.976562 115.050781 156.625 114.648438 C 154.507812 114.019531 153.449219 113.515625 151.921875 111.90625 C 151.375 111.332031 150.847656 110.765625 150.171875 110.339844 C 148.941406 109.5625 147.375 109.488281 146.28125 108.464844 C 144.6875 106.972656 144.933594 104.519531 143.683594 102.828125 C 141.914062 100.421875 139.148438 100.171875 137.785156 97.113281 C 136.429688 94.0625 137.070312 89.925781 134.871094 87.316406 C 133.054688 85.164062 130.574219 83.65625 128.535156 81.71875 C 127.207031 80.457031 126.257812 78.71875 124.769531 77.640625 C 123.394531 76.640625 121.539062 76.480469 120.253906 75.335938 C 118.910156 74.140625 118.46875 72.304688 117.0625 71.167969 C 115.433594 69.847656 112.515625 70.035156 111.335938 68.210938 C 110.578125 67.039062 110.792969 65.355469 110.347656 64.039062 C 109.574219 61.753906 108.109375 59.757812 107.28125 57.492188 C 106.628906 55.714844 106.304688 53.867188 105.824219 52.042969 C 105.3125 50.089844 104.492188 47.949219 103.515625 46.171875 L 103.449219 46.054688 C 102.753906 46.875 102.226562 47.867188 101.570312 48.722656 C 100.554688 50.050781 99.425781 51.285156 98.4375 52.632812 C 97.058594 54.523438 96.558594 55.722656 96.9375 58.070312 C 97.113281 59.136719 97.390625 60.195312 97.65625 61.242188 C 98.371094 64.078125 99.222656 66.847656 102.03125 68.261719 C 103.097656 68.796875 104.410156 69.136719 105.257812 70.007812 C 106.246094 71.023438 105.929688 72.546875 106.710938 73.632812 C 107.628906 74.902344 109.363281 74.53125 110.554688 75.34375 C 111.367188 75.902344 111.519531 77.023438 112.320312 77.558594 C 113.136719 78.105469 114.429688 77.742188 115.320312 77.574219 Z M 76.679688 89.257812 C 75.789062 90.441406 74.746094 91.488281 73.894531 92.710938 C 72.328125 94.964844 71.152344 97.507812 69.171875 99.449219 C 66.53125 102.035156 63.148438 103.773438 60.738281 106.59375 C 59.035156 108.582031 59.097656 111.382812 57.5 113.394531 C 56.367188 114.816406 54.820312 115.84375 53.628906 117.207031 C 52.542969 118.449219 51.875 120.050781 50.648438 121.160156 C 49.464844 122.222656 47.890625 122.738281 46.789062 123.894531 C 45.136719 125.636719 44.207031 127.957031 42.605469 129.753906 C 41.0625 131.488281 38.800781 132.421875 37.121094 134.015625 C 35.476562 135.578125 34.324219 137.582031 32.683594 139.175781 C 33.332031 139.984375 34.605469 141.234375 34.523438 142.320312 C 34.28125 142.574219 34 142.53125 33.65625 142.539062 C 33.863281 143.527344 35.800781 144.269531 35.488281 145.453125 C 35.246094 145.664062 35.03125 145.714844 34.714844 145.683594 C 34.300781 145.636719 33.9375 145.425781 33.570312 145.246094 C 33.542969 145.234375 33.511719 145.21875 33.484375 145.207031 C 34.574219 146.429688 35.601562 147.496094 37.023438 148.347656 C 37.652344 148.097656 38.285156 147.851562 38.921875 147.617188 C 38.371094 147.515625 37.582031 147.46875 37.207031 147.003906 C 37.039062 146.792969 37.011719 146.570312 37.0625 146.3125 C 37.070312 146.277344 37.082031 146.246094 37.09375 146.214844 C 37.359375 145.5 38.128906 144.921875 38.691406 144.433594 C 40.039062 143.257812 41.363281 142.265625 42.050781 140.550781 C 42.386719 139.714844 42.644531 138.863281 43.101562 138.082031 C 43.207031 137.898438 43.320312 137.664062 43.515625 137.5625 C 43.59375 137.519531 43.609375 137.523438 43.691406 137.574219 C 44.308594 137.957031 45.175781 141.109375 45.710938 141.976562 C 46.398438 143.082031 47.476562 143.90625 48.433594 144.761719 C 49.011719 144.382812 49.628906 144.011719 50.132812 143.535156 C 51.8125 141.949219 52.074219 139.242188 52.625 137.09375 C 52.71875 136.710938 52.863281 136.117188 53.296875 136.046875 C 54.214844 137.011719 54.484375 139.863281 55.394531 141.253906 C 56.480469 142.921875 58.394531 143.769531 59.726562 145.21875 C 58.453125 145.113281 57.382812 144.769531 56.222656 144.234375 C 57.53125 145.84375 59.210938 147.65625 60.066406 149.558594 C 58.484375 149.722656 57.394531 149.324219 56.15625 148.335938 C 55.601562 147.890625 54.027344 146.589844 53.90625 145.910156 C 54.40625 145.8125 54.960938 145.949219 55.460938 146.03125 C 56.289062 146.722656 57.058594 147.472656 57.910156 148.132812 C 57.894531 148.105469 57.878906 148.078125 57.859375 148.054688 C 57.21875 147.015625 56.121094 146.335938 55.464844 145.277344 C 54.449219 143.644531 54.082031 141.597656 53.230469 139.863281 C 52.59375 142.707031 51.855469 143.851562 49.777344 145.824219 C 51.160156 146.167969 52.328125 146.058594 53.71875 145.867188 C 52.707031 146.773438 51.980469 147.929688 50.996094 148.816406 C 50.535156 149.238281 49.851562 149.363281 49.457031 149.859375 C 49.488281 150.121094 49.519531 150.09375 49.691406 150.273438 C 50.542969 150.351562 51.507812 150.042969 52.375 149.988281 C 53.601562 149.914062 58.09375 150.304688 59.015625 150.886719 L 59.171875 151.132812 C 59.113281 151.390625 59.035156 151.519531 58.804688 151.667969 C 58.613281 151.792969 58.386719 151.886719 58.175781 151.984375 L 58.304688 152.066406 C 58.773438 152.378906 59.460938 152.859375 59.648438 153.40625 C 59.683594 153.507812 59.671875 153.5625 59.667969 153.660156 C 59.449219 153.898438 59.261719 153.984375 58.9375 154.007812 C 58.550781 154.039062 58.167969 153.980469 57.789062 153.925781 C 58.464844 154.410156 59.128906 154.875 59.910156 155.179688 C 61.269531 153.890625 62.019531 152.164062 63.386719 150.902344 C 62.613281 151.238281 61.386719 151.730469 60.535156 151.472656 C 60.433594 151.441406 60.386719 151.398438 60.304688 151.339844 C 60.257812 151.089844 60.285156 150.949219 60.4375 150.734375 C 60.789062 150.238281 63.921875 148.960938 64.667969 148.511719 C 65.179688 148.207031 65.644531 147.828125 66.121094 147.472656 C 66.597656 147.117188 67.636719 146.125 68.171875 146.09375 C 68.238281 146.089844 68.304688 146.097656 68.371094 146.101562 C 68.449219 146.289062 68.480469 146.335938 68.398438 146.535156 C 67.753906 148.128906 64.726562 149.6875 63.476562 150.886719 C 64.839844 150.140625 66.089844 149.441406 67.625 149.097656 C 66.53125 150.917969 64.546875 151.964844 63.070312 153.441406 L 62.625 153.886719 C 65.433594 152.867188 68.238281 151.992188 71.089844 151.125 C 70.019531 150.429688 69.042969 149.691406 68.109375 148.8125 C 70.121094 149.25 71.941406 149.957031 73.832031 150.738281 C 74.125 150.34375 74.398438 149.96875 74.621094 149.527344 C 74.402344 149.523438 74.527344 149.507812 74.28125 149.597656 C 73.816406 149.761719 73.335938 149.726562 72.886719 149.515625 C 71.765625 148.996094 70.976562 147.636719 70.414062 146.578125 C 71.886719 147.40625 73.511719 147.964844 74.835938 149.039062 C 75.519531 148.082031 76.257812 147.167969 77.046875 146.296875 C 77.914062 145.339844 80.097656 143.628906 80.484375 142.503906 L 80.410156 142.320312 C 79.1875 141.957031 76.96875 144.289062 76.007812 143.0625 C 76.160156 142.710938 76.542969 142.421875 76.828125 142.171875 C 77.519531 141.5625 78.289062 141.039062 79.003906 140.453125 C 80.050781 139.582031 81.054688 138.664062 82.007812 137.691406 C 80.773438 137.824219 77.390625 138.613281 76.507812 138.398438 C 76.5 138.082031 76.738281 137.863281 76.949219 137.640625 C 78.429688 136.074219 81.296875 134.683594 82.167969 132.691406 C 82.433594 132.078125 82.703125 131.445312 82.890625 130.800781 C 83.089844 130.113281 83.371094 127.433594 84 127.269531 C 84.65625 127.855469 85.265625 131.351562 86.109375 132.640625 C 87.429688 134.648438 89.882812 135.800781 91.179688 137.804688 C 91.140625 137.976562 91.179688 137.96875 91.046875 138.058594 C 90.273438 138.589844 88.171875 138.355469 87.25 138.265625 C 88.316406 139.140625 92.457031 142.023438 92.664062 143.089844 C 91.933594 143.605469 88.933594 143 87.941406 142.9375 C 88.757812 143.421875 92.746094 145.964844 92.964844 146.636719 C 92.503906 147.277344 91.210938 147.707031 90.484375 147.96875 C 91.65625 148.671875 94.972656 150.644531 95.496094 151.710938 L 95.445312 151.890625 C 95.113281 152.039062 94.820312 151.960938 94.492188 151.832031 C 92.023438 150.890625 85.457031 146.679688 83.65625 144.671875 L 83.597656 144.605469 C 86.222656 146.082031 87.589844 146.996094 90.695312 146.742188 C 88.886719 144.953125 86.96875 143.496094 85.523438 141.359375 C 86.941406 141.675781 88.355469 141.996094 89.78125 142.253906 C 87.832031 140.664062 86.351562 138.992188 85 136.878906 C 86.121094 136.898438 87.285156 136.933594 88.398438 137.101562 C 86.664062 135.269531 85.28125 133.402344 83.914062 131.285156 C 82.988281 133.644531 81.976562 135.292969 80.003906 136.914062 C 81.25 136.683594 82.640625 136.5625 83.910156 136.613281 C 83.148438 138.710938 81.703125 140.148438 79.960938 141.484375 C 80.957031 141.367188 81.964844 141.214844 82.96875 141.214844 C 82.226562 142.355469 81.40625 143.527344 80.507812 144.550781 C 79.824219 145.320312 79.054688 146.015625 78.386719 146.796875 C 77.507812 147.828125 76.746094 148.964844 75.875 150.011719 L 75.9375 150.078125 C 76.625 149.75 77.097656 149.113281 77.628906 148.585938 C 78.945312 147.277344 81.15625 146.679688 82.949219 146.511719 C 82.558594 146.84375 82.171875 147.195312 81.75 147.488281 C 80.53125 148.230469 79.164062 148.890625 78.085938 149.824219 C 80.363281 149.605469 82.738281 149.441406 85.007812 149.777344 C 88.984375 150.363281 92.722656 152.09375 96.722656 152.738281 C 97.9375 151.398438 99.46875 150.363281 100.589844 148.949219 C 99.566406 149.203125 97.066406 150.039062 96.140625 149.75 C 96.035156 149.59375 96.007812 149.625 96.03125 149.464844 C 96.191406 148.292969 99.445312 146.058594 100.335938 144.921875 C 101.046875 144.011719 101.488281 142.925781 101.917969 141.863281 C 100.992188 142.179688 98.171875 143.363281 97.28125 143.101562 C 97.207031 142.828125 97.257812 142.699219 97.398438 142.453125 C 98.503906 140.488281 100.664062 139.25 101.914062 137.367188 C 103.140625 135.519531 103.378906 133.113281 104.472656 131.625 C 105.859375 132.890625 106.191406 135.125 107.398438 136.632812 C 108.753906 138.320312 111.253906 139.804688 112.1875 141.695312 L 112.191406 141.90625 C 111.589844 142.222656 109.171875 141.671875 108.378906 141.554688 C 109.273438 142.292969 110.160156 143.027344 111.15625 143.632812 C 111.925781 144.097656 115.335938 145.460938 115.675781 146.078125 C 115.5 146.230469 115.191406 146.1875 114.960938 146.167969 C 113.171875 146.035156 111.460938 145.703125 109.65625 145.859375 C 110.617188 146.59375 111.585938 147.332031 112.59375 148.003906 C 113.542969 148.636719 114.675781 149.199219 115.476562 150.011719 C 115.5 150.035156 115.523438 150.058594 115.550781 150.082031 C 114.492188 150.382812 113.40625 150.546875 112.328125 150.738281 C 113.824219 151.570312 115.210938 152.285156 116.972656 151.773438 C 117.578125 151.597656 118.167969 151.304688 118.722656 151 C 118.433594 150.792969 118.148438 150.632812 118 150.292969 C 118.0625 150.070312 118.070312 150.046875 118.289062 149.933594 C 118.972656 149.585938 120.234375 149.546875 120.589844 148.792969 C 119.84375 148.183594 118.410156 148.863281 117.703125 148.148438 C 117.753906 147.902344 117.789062 147.816406 117.972656 147.632812 C 118.980469 146.613281 120.148438 146.0625 120.980469 144.804688 C 121.695312 143.730469 122.382812 140.78125 123.03125 140.347656 C 123.3125 140.363281 123.40625 140.433594 123.589844 140.65625 C 124.332031 141.5625 124.300781 143.109375 124.925781 144.125 C 125.742188 145.453125 127.078125 146.253906 128.085938 147.40625 C 127.625 147.679688 127.175781 147.933594 126.683594 148.144531 C 127.625 148.804688 129.289062 149.652344 129.847656 150.660156 L 129.808594 150.835938 C 129.199219 151.113281 128.15625 150.730469 127.550781 150.503906 C 127.148438 150.347656 126.746094 150.183594 126.351562 150.007812 C 127.050781 150.523438 129.476562 151.996094 129.59375 152.855469 C 129.617188 153.015625 129.53125 153.058594 129.441406 153.179688 C 128.292969 153.707031 126.183594 153.394531 124.933594 153.214844 C 126.230469 153.738281 127.511719 154.304688 128.835938 154.757812 C 130.070312 154.144531 131.46875 153.734375 132.765625 153.257812 C 136.664062 151.824219 140.722656 150.195312 144.9375 150.058594 C 144.191406 149.003906 143.460938 147.535156 142.429688 146.746094 C 141.449219 145.996094 140.148438 145.835938 139.261719 144.929688 C 138.015625 143.648438 137.75 141.867188 136.035156 140.910156 C 134.445312 140.023438 132.378906 140.324219 130.910156 139.1875 C 129.121094 137.804688 129.773438 135.410156 126.984375 134.867188 C 126.855469 134.84375 126.730469 134.824219 126.601562 134.8125 C 125.523438 134.679688 124.488281 134.804688 123.453125 134.375 C 119.957031 132.921875 116.964844 125.816406 112.820312 123.570312 C 112.058594 123.160156 111.21875 122.851562 110.378906 122.652344 C 108.597656 122.234375 106.183594 122.246094 105.011719 120.644531 C 104.027344 119.296875 103.707031 118.085938 101.839844 117.769531 C 99.511719 117.375 97.902344 118.304688 96.203125 116.019531 C 95.433594 114.984375 94.921875 113.738281 93.941406 112.871094 C 92.964844 112.007812 91.644531 111.621094 90.730469 110.679688 C 89.953125 109.871094 89.597656 108.75 88.851562 107.917969 C 87.976562 106.941406 86.699219 106.460938 85.722656 105.613281 C 84.523438 104.574219 83.605469 103.253906 82.40625 102.207031 C 82.335938 102.148438 82.269531 102.085938 82.199219 102.023438 C 82.078125 104.285156 81.714844 106.535156 83.34375 108.390625 C 84.105469 109.257812 85.027344 109.984375 85.625 110.980469 C 86.925781 113.15625 86.582031 116.96875 87.632812 118.511719 C 88.570312 119.890625 90.828125 119.152344 92.070312 120.09375 C 93.019531 120.8125 92.90625 122.144531 93.707031 122.976562 C 94.714844 124.023438 96.449219 123.847656 97.613281 124.738281 C 98.828125 125.675781 99.15625 127.160156 100.140625 128.222656 C 100.664062 128.789062 101.402344 129.21875 102.015625 129.683594 C 102.308594 129.902344 102.550781 130.109375 102.660156 130.472656 C 102.492188 130.65625 102.335938 130.667969 102.09375 130.675781 C 101.28125 130.707031 100.480469 130 99.953125 129.449219 C 98.863281 128.320312 98.402344 126.554688 97.195312 125.621094 C 95.921875 124.632812 94.097656 125.011719 92.902344 123.921875 C 91.933594 123.039062 92.164062 121.4375 90.972656 120.671875 C 89.855469 119.953125 88 120.585938 87.03125 119.601562 C 85.488281 118.035156 85.855469 114.785156 85.160156 112.789062 C 84.128906 109.835938 80.996094 109.25 81.09375 105.535156 C 81.117188 104.625 81.5 102.332031 80.847656 101.625 C 80.347656 101.820312 79.878906 102.332031 79.492188 102.703125 C 78.414062 103.730469 77.410156 104.839844 76.578125 106.078125 C 75.558594 107.585938 74.742188 109.199219 73.453125 110.511719 C 71.449219 112.539062 68.679688 113.855469 67.476562 116.582031 C 66.824219 118.0625 66.738281 119.792969 65.875 121.179688 C 65.070312 122.46875 63.699219 123.222656 62.757812 124.382812 C 62.027344 125.277344 61.773438 126.503906 60.902344 127.242188 C 59.96875 128.035156 58.730469 128.296875 57.84375 129.171875 C 57.199219 129.8125 56.722656 130.589844 56.21875 131.339844 C 55.007812 133.140625 53.503906 134.40625 51.476562 135.207031 C 50.953125 135.414062 50.367188 135.601562 49.800781 135.539062 L 49.703125 135.394531 C 50.289062 134.222656 52.65625 133.417969 53.738281 132.652344 C 55.46875 131.4375 55.917969 129.503906 57.347656 128.105469 C 58.226562 127.246094 59.601562 127.082031 60.429688 126.175781 C 61.140625 125.398438 61.207031 124.246094 61.910156 123.453125 C 63.15625 122.046875 64.597656 121.8125 65.421875 119.867188 C 66.148438 118.152344 66.113281 116.164062 67.140625 114.566406 C 68.464844 112.5 70.910156 111.289062 72.546875 109.472656 C 75.511719 106.183594 76.265625 103.316406 80.039062 100.292969 C 78.140625 97.753906 77.292969 95.347656 76.980469 92.191406 C 76.882812 91.230469 76.90625 90.195312 76.679688 89.257812 Z M 72.578125 163.636719 C 59.269531 164.613281 47.585938 170.441406 34.914062 173.929688 L 35.015625 174.007812 C 36.535156 175.15625 37.921875 176.496094 39.414062 177.683594 C 42.394531 180.0625 45.585938 182.300781 48.8125 184.335938 C 51.144531 185.808594 53.574219 187.109375 56.023438 188.371094 C 56.558594 188.65625 57.09375 188.929688 57.632812 189.203125 C 58.171875 189.472656 58.714844 189.742188 59.261719 190.003906 C 59.804688 190.261719 60.351562 190.519531 60.902344 190.769531 C 61.449219 191.019531 62 191.265625 62.554688 191.507812 C 63.109375 191.746094 63.664062 191.984375 64.222656 192.210938 C 64.78125 192.441406 65.34375 192.667969 65.90625 192.886719 C 66.46875 193.105469 67.035156 193.316406 67.601562 193.527344 C 68.167969 193.734375 68.734375 193.9375 69.304688 194.136719 C 69.878906 194.332031 70.449219 194.523438 71.023438 194.710938 C 71.597656 194.898438 72.175781 195.078125 72.753906 195.253906 C 73.332031 195.429688 73.910156 195.601562 74.492188 195.765625 C 75.070312 195.929688 75.65625 196.085938 76.238281 196.242188 C 76.824219 196.394531 77.40625 196.542969 77.996094 196.683594 C 78.582031 196.828125 79.171875 196.964844 79.757812 197.09375 C 80.347656 197.226562 80.941406 197.351562 81.53125 197.46875 C 82.125 197.589844 82.714844 197.703125 83.3125 197.8125 C 83.90625 197.921875 84.5 198.023438 85.097656 198.121094 C 85.691406 198.21875 86.289062 198.308594 86.886719 198.394531 C 87.484375 198.480469 88.082031 198.558594 88.683594 198.632812 C 89.28125 198.707031 89.882812 198.777344 90.480469 198.839844 C 91.082031 198.902344 91.683594 198.960938 92.285156 199.011719 C 92.886719 199.0625 93.488281 199.109375 94.09375 199.148438 C 94.695312 199.1875 95.296875 199.222656 95.902344 199.25 C 96.503906 199.277344 97.105469 199.300781 97.710938 199.320312 C 98.3125 199.335938 98.917969 199.347656 99.523438 199.351562 C 100.125 199.355469 100.730469 199.355469 101.332031 199.351562 C 101.9375 199.34375 102.542969 199.332031 103.144531 199.316406 C 103.75 199.296875 104.351562 199.273438 104.953125 199.246094 C 105.558594 199.214844 106.160156 199.179688 106.761719 199.140625 C 107.367188 199.097656 107.96875 199.054688 108.570312 199 C 109.171875 198.949219 109.773438 198.890625 110.371094 198.828125 C 110.972656 198.761719 111.574219 198.695312 112.171875 198.617188 C 113.011719 198.503906 113.851562 198.382812 114.6875 198.25 C 115.527344 198.113281 116.359375 197.972656 117.195312 197.816406 C 118.027344 197.664062 118.859375 197.5 119.691406 197.324219 C 120.519531 197.152344 121.347656 196.964844 122.171875 196.773438 C 122.996094 196.578125 123.820312 196.371094 124.640625 196.15625 C 125.460938 195.945312 126.277344 195.71875 127.09375 195.484375 C 127.90625 195.25 128.71875 195.003906 129.527344 194.75 C 130.335938 194.496094 131.140625 194.234375 131.945312 193.960938 C 132.746094 193.683594 133.542969 193.402344 134.339844 193.109375 C 135.136719 192.816406 135.925781 192.511719 136.714844 192.199219 C 137.503906 191.886719 138.289062 191.5625 139.066406 191.230469 C 139.847656 190.902344 140.625 190.558594 141.394531 190.207031 C 142.167969 189.859375 142.933594 189.496094 143.699219 189.128906 C 144.460938 188.757812 145.21875 188.378906 145.972656 187.992188 C 146.726562 187.605469 147.476562 187.207031 148.21875 186.800781 C 148.964844 186.394531 149.703125 185.980469 150.4375 185.554688 C 153.082031 184.003906 155.78125 182.328125 158.128906 180.351562 C 147.550781 180.515625 137.105469 182.308594 127.398438 186.648438 C 124.644531 187.878906 121.964844 189.785156 119.292969 190.863281 C 121.589844 189.214844 123.941406 187.554688 126.445312 186.242188 C 133.644531 182.464844 142.921875 180.390625 150.984375 179.761719 C 153.90625 179.53125 156.804688 179.574219 159.71875 179.429688 C 163.042969 177 166.347656 174.226562 169.191406 171.246094 C 168.691406 171.265625 168.230469 171.203125 167.742188 171.132812 C 161.390625 170.945312 155.113281 170.648438 148.757812 171 C 124.738281 172.332031 102.394531 180.277344 81.816406 192.464844 C 80.875 193.023438 79.277344 194.316406 78.128906 193.902344 L 78.019531 193.757812 C 78.152344 193.03125 78.976562 192.503906 79.550781 192.101562 C 81.175781 190.96875 83 190.0625 84.730469 189.101562 C 88.203125 187.144531 91.738281 185.308594 95.335938 183.59375 C 97.992188 182.359375 100.867188 181.300781 103.355469 179.746094 C 100.496094 179.183594 97.6875 178.46875 94.796875 178.058594 C 80.121094 175.980469 69.894531 179.011719 56.605469 184.714844 C 59.261719 183.09375 62.089844 181.898438 64.976562 180.757812 C 77.332031 175.867188 89.820312 174.898438 102.765625 178.09375 C 103.691406 178.316406 104.597656 178.609375 105.476562 178.964844 C 108.605469 177.671875 111.988281 176.402344 115.292969 175.675781 C 113.574219 174.695312 111.785156 173.847656 110.003906 172.996094 C 108.878906 172.453125 107.742188 171.933594 106.597656 171.433594 C 105.453125 170.9375 104.296875 170.460938 103.132812 170.003906 C 101.96875 169.550781 100.796875 169.121094 99.617188 168.710938 C 98.433594 168.300781 97.246094 167.917969 96.050781 167.554688 C 94.855469 167.191406 93.652344 166.851562 92.445312 166.535156 C 91.238281 166.214844 90.023438 165.921875 88.800781 165.652344 C 87.582031 165.382812 86.359375 165.136719 85.128906 164.914062 C 83.898438 164.691406 82.664062 164.492188 81.429688 164.316406 C 78.488281 163.882812 75.5625 163.445312 72.578125 163.636719 Z M 189.96875 141.171875 C 179.121094 142.757812 169.859375 152.730469 159.246094 156.246094 C 155.746094 157.40625 152.191406 157.996094 148.511719 158.148438 C 146.109375 158.246094 143.71875 158.207031 141.324219 158.4375 C 137.527344 158.808594 133.753906 159.703125 130.046875 160.570312 C 121.421875 162.597656 112.980469 164.988281 105.167969 169.265625 C 109.390625 171.070312 113.441406 172.757812 117.355469 175.183594 C 119.191406 174.585938 121.0625 174.125 122.929688 173.648438 C 124.070312 173.359375 125.222656 173.007812 126.375 172.785156 C 138.898438 169.414062 152.003906 168.96875 164.882812 169.632812 C 166.804688 169.734375 168.75 169.78125 170.667969 169.9375 C 173.515625 166.894531 176.378906 163.929688 178.890625 160.59375 C 180.492188 158.46875 181.816406 156.148438 183.414062 154.03125 C 177.972656 155.859375 172.625 157.882812 167.710938 160.886719 C 168.261719 160.257812 168.832031 159.882812 169.492188 159.398438 C 173.851562 156.207031 178.992188 154.332031 184.125 152.785156 C 185.234375 150.867188 189.957031 142.929688 190.058594 141.222656 Z M 103.757812 23.832031 C 103.617188 25.261719 103.636719 26.582031 104.199219 27.921875 C 105.679688 31.453125 108.726562 34.160156 110.554688 37.507812 C 112.132812 40.394531 112.851562 44.882812 114.796875 47.257812 C 116.136719 48.894531 118.542969 49.289062 119.65625 51.132812 C 120.570312 52.644531 120.882812 54.621094 121.414062 56.296875 C 122.070312 58.375 122.886719 60.472656 123.351562 62.601562 C 123.621094 63.824219 123.566406 65.09375 123.953125 66.296875 C 124.625 68.375 126.441406 69.890625 127.324219 71.875 C 127.820312 72.984375 128.097656 74.199219 128.550781 75.328125 C 129.058594 76.59375 129.753906 77.785156 130.246094 79.054688 C 130.6875 80.183594 130.898438 81.679688 131.691406 82.609375 C 132.578125 83.644531 133.773438 84.382812 134.796875 85.261719 C 136.160156 86.429688 137.371094 87.734375 138.851562 88.761719 C 140.59375 89.972656 142.574219 90.902344 144.441406 91.90625 C 146.644531 93.074219 148.78125 94.355469 150.851562 95.746094 C 152.496094 96.855469 154.105469 97.996094 155.570312 99.335938 C 156.859375 100.515625 158.050781 101.882812 159.457031 102.917969 C 161.324219 104.289062 163.746094 104.542969 165.628906 105.878906 C 167.179688 106.980469 167.90625 108.871094 169.339844 110.121094 C 170.972656 111.542969 172.886719 112.625 174.632812 113.902344 C 176.1875 115.046875 177.691406 116.257812 179.140625 117.53125 C 180.589844 118.808594 181.984375 120.140625 183.320312 121.535156 C 182.242188 116.769531 178.824219 115.386719 176.195312 111.804688 C 174.390625 109.355469 173.601562 106.363281 171.984375 103.800781 C 170.460938 101.390625 168.5 99.324219 166.691406 97.136719 C 164.605469 94.609375 162.628906 92.007812 160.402344 89.589844 C 158.402344 87.410156 156.183594 85.296875 153.890625 83.425781 C 151.558594 81.519531 149.109375 79.777344 147.054688 77.554688 C 146.207031 76.636719 145.429688 75.664062 144.71875 74.636719 C 143.53125 72.917969 142.523438 70.613281 140.714844 69.480469 C 138.730469 68.242188 136.292969 67.824219 134.363281 66.476562 C 132.589844 65.242188 132.351562 62.914062 130.933594 61.398438 C 129.273438 59.625 126.820312 60.421875 126.113281 57.410156 C 125.898438 56.484375 125.871094 55.5 125.566406 54.601562 C 124.796875 52.339844 122.414062 51.570312 121.300781 49.601562 C 120.710938 48.550781 120.285156 47.40625 119.769531 46.3125 C 119.234375 45.171875 118.609375 44.0625 118.152344 42.886719 C 117.511719 41.246094 117.070312 39.46875 116.21875 37.917969 C 115.152344 35.976562 113.148438 34.660156 111.714844 33.007812 C 110.496094 31.597656 109.484375 30.019531 108.355469 28.542969 C 107.0625 26.847656 105.429688 25.148438 103.757812 23.832031 Z M 44.570312 72.5625 C 43.761719 75.777344 41.171875 77.871094 39.664062 80.695312 C 38.449219 82.972656 38.75 85.578125 37.738281 87.871094 C 36.925781 89.722656 34.980469 90.746094 34.3125 92.660156 C 33.964844 93.652344 34.046875 94.847656 34.039062 95.886719 C 34.058594 96.515625 34.039062 97.15625 33.855469 97.765625 C 33.855469 97.867188 33.859375 97.882812 33.84375 98 C 33.628906 99.515625 32.742188 101.132812 32.171875 102.550781 C 31.371094 104.539062 30.660156 106.644531 29.640625 108.535156 C 29.296875 109.171875 28.867188 109.875 28.296875 110.328125 C 26.605469 111.671875 24.449219 112.164062 23.089844 113.96875 C 22.011719 115.40625 21.765625 118.386719 20.5 119.222656 C 19.582031 119.828125 18.394531 119.515625 17.398438 119.316406 C 15.386719 120.652344 14.039062 122.738281 12.28125 124.355469 C 10.339844 126.140625 8.089844 127.585938 6.339844 129.578125 C 6.238281 130.902344 8.566406 136.492188 9.269531 137.960938 C 12.210938 134.515625 15.328125 132.066406 18.539062 128.964844 C 21.195312 126.402344 23.65625 123.535156 26.507812 121.195312 C 28.734375 119.367188 32.023438 117.726562 33.894531 115.882812 C 35.144531 114.65625 35.675781 112.851562 36.773438 111.5 C 37.808594 110.222656 39.320312 109.40625 40.300781 108.074219 C 41.203125 106.851562 41.59375 105.335938 42.71875 104.257812 C 43.816406 103.214844 45.285156 102.996094 46.578125 102.3125 C 46.609375 102.292969 46.640625 102.277344 46.675781 102.257812 C 47.519531 99.96875 49.128906 98.285156 50.148438 96.125 C 50.722656 94.917969 50.886719 93.707031 51.121094 92.410156 C 51.476562 90.488281 52.597656 89.074219 53.78125 87.582031 C 51.726562 85.082031 49.605469 82.304688 47.996094 79.492188 C 46.726562 77.269531 45.683594 74.871094 44.570312 72.5625 Z M 43 73.726562 C 40.058594 75.90625 37.554688 78.464844 34.773438 80.824219 C 32.871094 82.4375 30.824219 83.875 28.902344 85.460938 C 28 86.21875 27.132812 87.007812 26.296875 87.832031 C 25.460938 88.660156 24.660156 89.519531 23.894531 90.410156 C 22.628906 91.871094 21.503906 93.457031 20.292969 94.964844 C 19.105469 96.445312 17.78125 97.8125 16.761719 99.421875 C 15.742188 101.035156 15.273438 103.042969 14.054688 104.511719 C 12.566406 106.304688 10.050781 106.839844 8.464844 108.632812 C 6.359375 111.011719 6.140625 112.695312 3.203125 114.742188 L 3.289062 114.757812 L 3.097656 114.8125 C 3.195312 117.597656 3.859375 120.480469 4.503906 123.183594 C 4.71875 124.097656 5.085938 125.105469 5.210938 126.027344 C 5.40625 126.679688 5.570312 127.394531 5.871094 128.003906 C 5.996094 127.867188 6.113281 127.726562 6.246094 127.601562 L 6.28125 127.679688 C 7.867188 126.28125 9.652344 125.128906 11.214844 123.726562 C 13.007812 122.125 15.050781 118.167969 17.800781 118.324219 C 18.332031 118.355469 19.320312 118.597656 19.753906 118.289062 C 20.785156 117.554688 21.144531 114.628906 22.039062 113.425781 C 23.566406 111.378906 26.03125 110.890625 27.789062 109.226562 C 28.207031 108.832031 28.527344 108.386719 28.789062 107.875 C 29.59375 106.3125 30.074219 104.578125 30.722656 102.945312 C 31.332031 101.414062 32.132812 99.914062 32.613281 98.339844 C 32.8125 97.6875 32.910156 97.019531 32.929688 96.339844 C 32.976562 94.914062 32.820312 93.40625 33.308594 92.042969 C 33.960938 90.21875 35.851562 89.152344 36.726562 87.40625 C 37.164062 86.542969 37.339844 85.625 37.488281 84.675781 C 37.992188 81.542969 38.3125 80.414062 40.265625 77.839844 C 40.871094 77.042969 42.917969 74.574219 43 73.726562 Z M 57.011719 110.09375 C 52.023438 112.261719 46.066406 113.496094 40.851562 115.328125 C 34.910156 117.417969 29.597656 120.082031 25.046875 124.519531 C 23.511719 126.019531 22.152344 127.703125 20.59375 129.175781 C 18.703125 130.960938 16.578125 132.484375 14.699219 134.269531 C 12.945312 135.933594 11.46875 137.832031 9.863281 139.625 C 10.59375 140.96875 11.277344 142.332031 11.917969 143.722656 C 12.628906 142.242188 14.203125 141.039062 15.300781 139.835938 C 15.636719 139.464844 15.949219 139.074219 16.238281 138.664062 C 16.527344 138.253906 16.789062 137.828125 17.027344 137.382812 L 17.074219 137.273438 C 17.492188 136.285156 17.886719 134.15625 18.871094 133.621094 C 19.148438 133.691406 19.214844 133.792969 19.347656 134.046875 C 19.683594 134.691406 19.871094 135.433594 20.121094 136.117188 C 20.621094 137.496094 21.640625 138.714844 22.816406 139.582031 C 23.96875 138.394531 25.121094 137.152344 25.886719 135.675781 C 26.53125 134.441406 26.941406 132.417969 27.445312 131.542969 C 27.566406 131.335938 27.679688 131.292969 27.882812 131.183594 C 28.101562 131.226562 28.203125 131.402344 28.324219 131.582031 C 28.882812 132.410156 29.132812 133.480469 29.523438 134.394531 C 30.105469 135.753906 30.933594 136.976562 31.816406 138.152344 C 33.496094 136.441406 34.722656 134.328125 36.441406 132.675781 C 38.179688 131.003906 40.355469 129.917969 41.992188 128.097656 C 43.402344 126.53125 44.214844 124.523438 45.664062 122.988281 C 46.816406 121.765625 48.425781 121.179688 49.65625 120.0625 C 50.828125 119.003906 51.394531 117.574219 52.386719 116.390625 C 53.734375 114.777344 57.359375 112.675781 57.308594 110.371094 C 57.304688 110.25 57.296875 110.238281 57.265625 110.136719 Z M 80.105469 151.285156 C 75.886719 151.707031 71.773438 152.285156 67.738281 153.625 C 63.15625 155.140625 58.761719 157.152344 54.304688 158.980469 C 52.394531 159.765625 50.359375 160.777344 48.351562 161.230469 C 47.214844 161.488281 46.109375 161.453125 44.949219 161.414062 C 47.144531 162.636719 49.394531 163.460938 51.796875 164.164062 C 53.132812 164.558594 54.625 164.871094 55.878906 165.480469 C 59.753906 164.320312 63.609375 163.238281 67.625 162.679688 C 75.195312 161.441406 80.582031 162.769531 87.921875 164.113281 L 99.730469 157.019531 C 101.019531 156.257812 102.285156 155.410156 103.601562 154.691406 C 100.476562 154.8125 97.414062 154.46875 94.375 153.738281 C 89.035156 152.453125 85.882812 150.859375 80.105469 151.285156 Z M 83.289062 77.859375 C 83.25 77.882812 83.210938 77.90625 83.175781 77.929688 C 80.8125 79.347656 78.8125 81.273438 76.394531 82.660156 C 73.703125 84.199219 70.464844 84.703125 67.648438 86.058594 C 65.460938 87.113281 63.53125 88.589844 61.445312 89.816406 C 58.609375 91.488281 55.523438 92.789062 52.429688 93.902344 C 52.144531 94.960938 51.835938 96.015625 51.417969 97.03125 C 55.667969 96.265625 59.253906 94.085938 62.984375 92.0625 C 64.980469 90.976562 67.003906 89.949219 69.058594 88.980469 C 70.398438 88.347656 71.828125 87.542969 73.261719 87.1875 C 72.824219 87.691406 72.371094 88.066406 71.808594 88.425781 C 69.535156 89.878906 66.992188 91.050781 64.621094 92.347656 C 61.832031 93.867188 59.109375 95.582031 56.171875 96.816406 C 54.441406 97.542969 52.527344 98.023438 50.6875 98.398438 C 50.324219 98.996094 48.683594 101.390625 48.609375 101.910156 C 50.964844 101.898438 56.402344 99.304688 58.769531 98.40625 C 60.765625 97.648438 62.8125 96.992188 64.785156 96.175781 C 65.195312 96.007812 67.613281 94.792969 67.8125 94.828125 C 67.871094 94.839844 67.921875 94.878906 67.972656 94.90625 C 67.992188 95.3125 67.792969 95.644531 67.511719 95.9375 C 66.261719 97.230469 61.996094 98.285156 60.191406 98.941406 C 59.035156 99.363281 57.90625 99.839844 56.777344 100.328125 C 55.003906 101.117188 53.167969 102.003906 51.300781 102.550781 C 48.847656 103.273438 45.390625 103.40625 43.535156 105.355469 C 43.042969 105.875 42.703125 106.546875 42.363281 107.171875 C 42.085938 107.683594 41.761719 108.226562 41.558594 108.773438 C 41.546875 108.796875 41.542969 108.828125 41.539062 108.851562 L 41.535156 108.851562 L 41.632812 108.890625 L 41.523438 108.746094 C 41.871094 108.953125 42.078125 108.855469 42.460938 108.753906 C 45.613281 107.925781 48.960938 107.085938 52.039062 106.039062 C 54.261719 105.285156 56.472656 104.199219 58.734375 103.617188 C 56.121094 106.269531 48.890625 108.152344 45.253906 109.109375 C 43.421875 109.589844 41.308594 109.9375 39.699219 110.976562 C 38.058594 112.039062 36.863281 113.882812 36.140625 115.664062 C 39.046875 114.808594 41.84375 113.597656 44.753906 112.726562 C 48.488281 111.609375 53.21875 111.089844 56.59375 109.246094 C 58.164062 108.386719 58.816406 106.476562 60.089844 105.257812 C 62.9375 102.535156 66.53125 100.507812 69.054688 97.476562 C 71.066406 95.054688 72.410156 92.160156 74.402344 89.714844 C 76.75 86.839844 80.34375 84.964844 82.15625 81.644531 C 82.71875 80.613281 83.449219 79.0625 83.289062 77.859375 Z M 166.089844 69.960938 C 166.117188 70.394531 166.125 70.878906 166.25 71.296875 C 166.5625 72.339844 167.128906 73.316406 167.496094 74.339844 C 167.890625 75.441406 168.042969 76.667969 168.542969 77.726562 C 169.265625 79.25 170.246094 80.625 170.945312 82.171875 C 171.988281 84.484375 172.121094 86.789062 174.121094 88.550781 C 176.171875 90.355469 177.003906 90.910156 177.703125 93.667969 C 177.898438 94.429688 178.058594 95.195312 178.410156 95.902344 C 179.226562 97.550781 181.042969 98.425781 181.835938 100.085938 C 182.945312 102.40625 182.761719 105.183594 183.835938 107.515625 C 184.21875 108.34375 184.800781 108.964844 185.554688 109.464844 C 187.507812 110.765625 190 111.484375 192.152344 112.417969 C 193.90625 113.179688 195.945312 114.421875 197.785156 114.820312 C 197.960938 114.632812 197.929688 114.550781 197.96875 114.304688 C 198.242188 112.652344 198.378906 110.988281 198.488281 109.320312 C 198.546875 108.410156 198.539062 107.476562 198.683594 106.574219 C 195.566406 103.972656 193.679688 100.847656 190.910156 98.003906 C 189.066406 96.117188 186.902344 94.847656 185.210938 93.128906 C 184.894531 92.800781 184.59375 92.453125 184.316406 92.089844 C 184.039062 91.726562 183.785156 91.347656 183.550781 90.953125 C 182.609375 89.351562 181.96875 87.527344 181.367188 85.769531 C 181.058594 84.867188 180.839844 83.484375 180.300781 82.734375 C 179.441406 81.535156 177.574219 80.695312 176.363281 79.867188 C 175.425781 79.222656 174.488281 78.511719 173.628906 77.761719 C 172.164062 76.484375 170.738281 75.035156 169.429688 73.59375 C 168.507812 72.578125 167.242188 70.707031 166.171875 70.007812 C 166.144531 69.992188 166.117188 69.976562 166.089844 69.960938 Z M 171.695312 87.898438 C 170.601562 89.503906 169.976562 91.265625 169.152344 93.007812 C 168.683594 94.003906 168.117188 94.949219 167.546875 95.890625 C 169.34375 98.335938 171.613281 100.421875 173.199219 103.019531 C 174.65625 105.40625 175.355469 108.113281 177.003906 110.417969 C 178.765625 112.875 181.300781 114.675781 182.976562 117.21875 C 184.648438 119.753906 184.800781 122.347656 186.855469 124.933594 C 188.253906 126.691406 189.910156 128.226562 191.582031 129.722656 C 192.328125 130.390625 193.140625 131.039062 193.828125 131.765625 C 194.183594 131.480469 194.402344 130.351562 194.546875 129.882812 C 195.414062 127.042969 196.148438 124.171875 196.746094 121.265625 C 197.074219 119.660156 197.265625 117.9375 197.707031 116.371094 C 194.613281 114.984375 191.46875 113.714844 188.382812 112.304688 C 187.097656 111.714844 185.511719 111.15625 184.417969 110.242188 C 183.589844 109.550781 183.066406 108.613281 182.683594 107.617188 C 181.863281 105.492188 181.738281 103.164062 180.890625 101.054688 C 180.246094 99.449219 178.660156 98.519531 177.742188 97.085938 C 177.117188 96.105469 176.820312 94.898438 176.484375 93.792969 C 175.652344 91.074219 173.675781 89.757812 171.695312 87.898438 Z M 105.589844 33.1875 C 104.125 36.367188 103.417969 37.898438 103.835938 41.476562 C 103.984375 42.785156 104.222656 44.070312 104.679688 45.308594 C 105.382812 47.21875 106.253906 49.046875 106.828125 51.007812 C 107.359375 52.820312 107.542969 54.769531 108.21875 56.53125 C 109.050781 58.683594 110.449219 60.605469 111.226562 62.765625 C 111.707031 64.105469 111.691406 66.082031 112.324219 67.191406 C 112.722656 67.898438 113.625 68.398438 114.347656 68.71875 C 115.621094 69.285156 117.09375 69.625 118.238281 70.425781 C 119.511719 71.3125 119.886719 73.085938 121.019531 74.132812 C 122.1875 75.214844 123.703125 75.523438 125.054688 76.257812 C 126.535156 77.0625 127.5625 78.433594 128.582031 79.726562 C 128.898438 80.078125 129.21875 80.421875 129.558594 80.75 C 128.804688 79.285156 128.113281 77.792969 127.488281 76.269531 C 126.863281 74.726562 126.320312 73.148438 125.589844 71.652344 C 124.867188 70.160156 123.617188 68.902344 123.109375 67.308594 C 122.667969 65.929688 122.882812 64.433594 122.542969 63.03125 C 122.011719 60.804688 120.917969 58.792969 120.148438 56.652344 C 119.605469 55.140625 119.363281 53.472656 118.644531 52.03125 C 117.542969 49.828125 114.378906 49.296875 113.074219 46.761719 C 112.21875 45.105469 111.632812 43.339844 110.957031 41.609375 C 109.703125 38.410156 107.949219 35.679688 105.589844 33.1875 Z M 113.894531 153.433594 C 111.769531 153.605469 109.511719 153.675781 107.472656 154.347656 C 105.910156 154.859375 104.496094 155.808594 103.089844 156.640625 C 100.972656 157.898438 98.867188 159.179688 96.777344 160.484375 C 94.589844 161.816406 92.320312 163.015625 90.15625 164.378906 C 91.59375 164.972656 93.171875 165.324219 94.671875 165.75 C 97.628906 166.585938 100.578125 167.414062 103.414062 168.609375 C 105.316406 167.507812 107.261719 166.457031 109.289062 165.601562 C 115.140625 162.824219 121.515625 161.078125 127.789062 159.558594 C 130.550781 158.890625 133.289062 158.207031 136.109375 157.828125 C 133.246094 157.25 130.378906 156.765625 127.527344 156.117188 C 123.796875 155.265625 117.496094 152.976562 113.894531 153.433594 Z M 102.269531 38.367188 C 99.175781 40.082031 95.859375 41.261719 93.09375 43.535156 C 90.242188 45.871094 88.015625 49.070312 84.910156 51.074219 C 83.558594 51.945312 82.105469 52.726562 80.59375 53.285156 C 79.054688 53.851562 77.03125 54.105469 75.699219 55.074219 C 74.671875 55.820312 74.070312 57.066406 73.515625 58.171875 C 77.710938 57.1875 85.222656 53.765625 88.683594 51.226562 C 89.875 50.351562 90.953125 49.324219 92.097656 48.390625 C 94.8125 46.179688 97.71875 43.957031 100.730469 42.179688 C 99.136719 44.519531 96.96875 45.917969 94.769531 47.609375 C 89.605469 51.582031 85.050781 54.882812 79.023438 57.535156 C 77.867188 58.046875 76.65625 58.457031 75.441406 58.808594 C 74.503906 59.078125 73.421875 59.246094 72.554688 59.691406 C 71.820312 60.070312 71.117188 60.546875 70.414062 60.988281 C 68.703125 62.070312 67.5625 62.828125 66.472656 64.570312 C 67.949219 64.394531 69.460938 64.257812 70.921875 63.980469 C 74.808594 63.304688 78.230469 62.296875 81.457031 59.945312 C 83.082031 58.757812 84.65625 57.488281 86.390625 56.457031 C 88.933594 54.941406 91.652344 53.910156 94.445312 52.957031 C 91.757812 55.214844 88.347656 56.328125 85.34375 58.085938 C 82.019531 60.027344 79.183594 62.734375 75.480469 64.015625 C 72.511719 65.039062 68.308594 64.972656 65.761719 66.40625 C 64.574219 67.078125 64.085938 68.257812 63.746094 69.511719 C 66.214844 67.195312 68.070312 66.984375 71.308594 66.628906 C 72.960938 66.449219 74.601562 66.1875 76.203125 65.734375 C 79.644531 64.761719 82.5 63.007812 85.382812 60.957031 C 86.519531 60.148438 87.609375 59.253906 88.851562 58.617188 C 90.582031 57.722656 93.855469 57.1875 95.179688 55.984375 C 96.175781 55.074219 96.175781 53.285156 96.925781 52.152344 C 98.851562 49.246094 101.289062 47.285156 103.011719 44.046875 C 102.925781 43.492188 102.328125 38.417969 102.269531 38.367188 Z M 88.011719 66.277344 C 84.210938 67.929688 81.054688 70.601562 77.300781 72.304688 C 75.761719 73.003906 74.210938 73.261719 72.546875 73.472656 C 69.214844 73.890625 66.585938 74.4375 64.167969 76.953125 C 63.304688 77.851562 62.527344 78.835938 61.664062 79.734375 C 60.597656 80.84375 59.105469 81.492188 58.523438 82.96875 C 58.292969 83.546875 58.097656 84.195312 57.792969 84.738281 C 57.277344 85.65625 56.519531 86.46875 55.835938 87.261719 C 54.398438 88.925781 53.382812 90.417969 52.605469 92.484375 C 55.410156 91.65625 58.3125 90.488281 60.835938 89.011719 C 62.65625 87.945312 64.367188 86.707031 66.25 85.75 C 68.503906 84.601562 70.953125 83.929688 73.273438 82.949219 C 77.085938 81.347656 81.070312 78.421875 83.96875 75.460938 C 85.003906 73.898438 85.726562 72.273438 86.449219 70.558594 C 83.347656 72.226562 80.273438 73.945312 77.226562 75.714844 C 75.625 76.644531 74.054688 77.648438 72.425781 78.523438 C 69.378906 80.164062 66.148438 81.433594 63.167969 83.207031 C 60.636719 84.710938 58.703125 86.980469 56.109375 88.367188 C 58.410156 86.246094 60.117188 83.96875 62.796875 82.21875 C 65.617188 80.378906 68.757812 79.175781 71.710938 77.59375 C 74.296875 76.207031 76.6875 74.492188 79.265625 73.09375 C 81.664062 71.792969 84.46875 70.65625 86.546875 68.863281 C 87.355469 68.164062 87.875 67.351562 88.210938 66.34375 Z M 18.40625 155.179688 C 19.4375 156.996094 22.058594 160.78125 23.730469 161.894531 C 24.722656 162.550781 25.984375 162.90625 27.101562 163.3125 C 26.976562 163.503906 26.882812 163.625 26.828125 163.84375 C 27.425781 164.179688 28.03125 164.472656 28.660156 164.75 C 28.683594 164.699219 28.707031 164.648438 28.734375 164.597656 C 28.914062 164.296875 29.132812 164.320312 29.453125 164.246094 C 30.070312 164.328125 30.882812 164.761719 31.480469 165 C 34.824219 166.324219 38.867188 167.8125 41.558594 170.257812 C 44.074219 169.476562 46.566406 168.625 49.070312 167.796875 C 50.632812 167.28125 52.230469 166.839844 53.753906 166.21875 C 48.917969 164.925781 44.425781 162.746094 39.832031 160.820312 C 37.09375 159.675781 34.261719 158.742188 31.480469 157.703125 C 29.1875 156.84375 26.941406 155.875 24.539062 155.355469 C 22.488281 154.914062 20.464844 154.71875 18.40625 155.179688 Z M 20.421875 92.265625 C 18.957031 93.0625 17.398438 93.691406 15.871094 94.355469 C 11.4375 96.289062 6.773438 98.136719 2.117188 99.453125 C 2.070312 101.691406 2.101562 103.925781 2.210938 106.160156 C 2.320312 108.394531 2.503906 110.625 2.761719 112.84375 L 2.886719 113.121094 C 3.398438 113.125 3.878906 112.550781 4.21875 112.214844 C 5.773438 110.683594 6.601562 108.511719 8.199219 107.082031 C 9.117188 106.257812 10.273438 105.695312 11.339844 105.085938 C 12 104.710938 12.609375 104.328125 13.109375 103.742188 C 14.125 102.5625 14.574219 100.886719 15.257812 99.503906 C 15.714844 98.585938 16.367188 97.71875 16.988281 96.90625 C 17.589844 96.125 20.398438 93.078125 20.507812 92.347656 Z M 182.039062 83.355469 C 182.804688 85.804688 183.476562 88.234375 184.914062 90.402344 C 186.789062 93.226562 189.667969 94.882812 191.980469 97.273438 C 193.820312 99.179688 196.34375 103.226562 198.375 104.46875 C 198.445312 104.511719 198.574219 104.5625 198.660156 104.566406 C 198.699219 100.949219 198.875 96.351562 198.433594 92.824219 C 196.554688 91.609375 194.78125 90.234375 192.898438 89.03125 C 190.597656 87.558594 188.21875 86.289062 185.777344 85.070312 C 184.574219 84.46875 183.328125 83.753906 182.039062 83.355469 Z M 27.945312 134.179688 C 26.859375 137.105469 26.019531 138.414062 23.792969 140.613281 C 24.476562 140.285156 26.121094 139.328125 26.832031 139.589844 C 26.863281 139.601562 26.890625 139.621094 26.921875 139.640625 C 26.972656 139.972656 26.820312 140.171875 26.628906 140.441406 C 25.535156 141.945312 23.890625 142.984375 22.3125 143.902344 L 22.519531 143.882812 C 23.59375 143.785156 26.34375 142.777344 27.144531 143.089844 C 27.195312 143.304688 27.21875 143.222656 27.109375 143.394531 C 26.71875 144.007812 25.644531 144.621094 25.074219 145.097656 C 23.902344 146.085938 22.910156 147.289062 21.699219 148.226562 C 23.890625 147.699219 26.078125 147.148438 28.257812 146.574219 C 27.347656 147.113281 26.53125 147.789062 25.632812 148.355469 C 24.0625 149.34375 22.453125 150.230469 20.929688 151.304688 C 22.101562 151.0625 26.042969 149.695312 26.84375 149.851562 L 26.917969 150.019531 C 26.242188 151.1875 23.257812 151.960938 22.011719 152.292969 C 20.941406 152.582031 19.0625 153.109375 18.023438 152.550781 C 17.898438 152.484375 17.828125 152.394531 17.746094 152.28125 C 17.765625 152.015625 17.808594 151.921875 18.023438 151.753906 C 19.042969 150.9375 20.464844 150.621094 21.546875 149.800781 L 21.40625 149.816406 C 20.511719 149.90625 19.582031 149.769531 18.703125 149.941406 C 17.703125 150.140625 16.726562 150.777344 15.746094 151.101562 C 16.285156 151.992188 16.886719 152.84375 17.472656 153.707031 C 18.949219 153.613281 20.390625 153.53125 21.867188 153.671875 C 23.042969 153.777344 24.269531 154 25.449219 153.871094 C 26.351562 153.773438 27.246094 153.441406 28.152344 153.429688 C 29.863281 153.410156 31.84375 154.027344 33.488281 154.480469 C 34.402344 154.730469 36.160156 155.425781 36.996094 154.835938 L 37.027344 154.640625 C 36.511719 154.1875 35.675781 154.203125 35.480469 153.464844 C 35.679688 152.835938 36.148438 152.601562 36.683594 152.285156 C 33.957031 151.648438 30.71875 151.507812 28.601562 149.472656 C 30.8125 149.792969 33.015625 150.175781 35.144531 150.875 C 33.019531 149.292969 30.296875 148.660156 28.246094 146.714844 C 30.503906 147.042969 32.703125 147.453125 34.878906 148.15625 C 33.597656 147.109375 32.4375 145.917969 31.15625 144.871094 C 30.242188 144.125 29.234375 143.492188 28.238281 142.863281 C 29.800781 142.941406 31.335938 143.320312 32.808594 143.839844 C 32 142.976562 29.472656 140.742188 29.363281 139.703125 C 29.503906 139.527344 29.425781 139.550781 29.628906 139.53125 C 30.722656 139.429688 32.160156 140.847656 33.023438 141.445312 C 32.023438 140.367188 30.894531 139.3125 30.082031 138.085938 C 29.40625 137.070312 28.71875 134.902344 27.945312 134.179688 Z M 165.6875 73.464844 C 164.832031 75.117188 163.34375 76.605469 162.699219 78.332031 C 162.246094 79.542969 162.480469 80.839844 162.222656 82.078125 C 161.855469 83.828125 160.980469 85.542969 160.359375 87.214844 C 161.832031 88.253906 164.949219 92.664062 166.261719 94.257812 L 166.644531 94.699219 L 166.566406 94.667969 C 166.894531 94.605469 166.96875 94.414062 167.152344 94.136719 C 168.761719 91.679688 168.96875 88.746094 171.207031 86.648438 C 170.71875 85.007812 170.195312 83.433594 169.398438 81.90625 C 168.648438 80.464844 167.726562 79.105469 167.109375 77.601562 C 166.558594 76.265625 166.78125 74.550781 165.6875 73.464844 Z M 43.585938 140.472656 C 43.566406 140.5 43.542969 140.527344 43.523438 140.554688 C 42.832031 141.445312 42.386719 142.496094 41.691406 143.382812 C 40.847656 144.460938 39.726562 145.292969 38.773438 146.269531 C 40.324219 146.007812 41.570312 145.269531 43.050781 144.828125 C 41.894531 147.113281 40.550781 147.472656 38.6875 148.984375 C 40.414062 149.1875 41.988281 148.988281 43.636719 148.421875 C 42.644531 149.421875 41.464844 150.089844 40.324219 150.902344 C 39.164062 151.726562 38.046875 152.628906 36.855469 153.410156 C 39.328125 152.945312 41.792969 152.5625 44.226562 151.898438 C 42.261719 153.148438 39.90625 154.25 38.25 155.882812 C 39.140625 155.789062 40.023438 155.65625 40.898438 155.480469 C 41.777344 155.300781 42.644531 155.082031 43.5 154.824219 C 41.785156 156.628906 39.402344 157.273438 37.195312 158.273438 C 38.082031 158.609375 38.964844 158.949219 39.84375 159.304688 C 41.238281 158.660156 43.296875 157.910156 44.839844 158.367188 C 46.121094 158.628906 47.246094 159.132812 48.480469 159.542969 C 49.3125 159.1875 50.050781 158.671875 50.867188 158.308594 C 49.414062 157.660156 45.195312 156.25 44.429688 155.042969 C 44.835938 154.824219 46.277344 155.320312 46.726562 155.453125 C 48.132812 155.871094 49.507812 156.402344 50.894531 156.878906 C 49.886719 156.085938 48.859375 155.296875 47.78125 154.597656 C 46.414062 153.714844 45.078125 153.0625 43.878906 151.9375 C 45.667969 152.679688 49.484375 153.289062 51.484375 153.621094 C 50.109375 152.78125 48.871094 151.785156 47.542969 150.882812 C 46.507812 150.175781 45.128906 149.5625 44.277344 148.65625 L 44.25 148.441406 C 44.894531 148.050781 48.035156 148.828125 48.902344 148.972656 C 47.082031 147.757812 45.375 146.484375 43.992188 144.773438 C 44.960938 144.964844 45.925781 145.164062 46.890625 145.367188 C 46.167969 144.652344 45.53125 143.96875 45 143.101562 C 44.597656 142.441406 44.078125 140.929688 43.585938 140.472656 Z M 104.554688 134.914062 C 103.425781 137.222656 102.179688 139.296875 100.375 141.15625 C 101.675781 140.503906 102.914062 139.949219 104.371094 139.757812 C 102.578125 144.195312 102.109375 145.042969 98.613281 148.246094 C 100.398438 147.9375 101.890625 148.007812 103.058594 146.355469 C 103.386719 145.894531 103.671875 145.410156 103.949219 144.917969 C 103.953125 145.453125 104.011719 146.085938 103.855469 146.601562 C 103.347656 148.292969 101.335938 150.007812 100.101562 151.269531 C 99.492188 151.894531 98.820312 152.464844 98.183594 153.0625 C 100.945312 152.84375 101.078125 152.773438 103.417969 151.285156 C 103.101562 152.136719 102.792969 152.589844 102.105469 153.179688 C 104.367188 153.214844 106.515625 152.855469 108.75 152.609375 C 109.96875 152.472656 111.191406 152.355469 112.398438 152.140625 C 110.171875 150.5 107.457031 149.410156 105.683594 147.21875 C 107.039062 147.804688 111.066406 149.695312 112.328125 149.679688 L 112.464844 149.574219 C 111.925781 148.945312 111.148438 148.414062 110.488281 147.914062 C 108.757812 146.605469 106.722656 145.285156 105.304688 143.628906 C 106.902344 144.289062 108.359375 144.488281 110.023438 144.851562 C 108.4375 143.382812 106.652344 141.925781 105.566406 140.023438 L 105.613281 139.925781 C 106.507812 139.863281 108.367188 140.523438 109.433594 140.664062 C 108.3125 139.496094 107.199219 138.3125 106.183594 137.050781 C 105.644531 136.378906 105.171875 135.5 104.554688 134.914062 Z M 145.449219 151.484375 C 141.425781 151.679688 137.863281 152.929688 134.128906 154.292969 C 133.03125 154.691406 131.894531 155.039062 130.824219 155.492188 C 132.820312 155.78125 134.792969 156.226562 136.800781 156.46875 C 139.496094 156.796875 142.167969 156.765625 144.875 156.691406 C 148.199219 156.570312 151.582031 156.386719 154.84375 155.671875 C 156.363281 155.335938 157.832031 154.808594 159.34375 154.464844 C 155.769531 153.433594 148.898438 151.140625 145.449219 151.484375 Z M 102.464844 27.507812 C 100.847656 30.382812 98.570312 32.476562 96.511719 34.988281 C 95.644531 36.050781 95.03125 37.246094 94.226562 38.339844 C 95.910156 37.175781 97.542969 35.902344 99.117188 34.597656 C 100.445312 33.492188 101.691406 32.351562 103.140625 31.398438 C 101.160156 36.148438 92.507812 41.027344 88.226562 44.035156 C 86.832031 45.011719 85.496094 46.121094 84.234375 47.257812 C 83.363281 48.003906 82.503906 48.753906 81.519531 49.34375 C 79.0625 50.824219 78.671875 50.40625 76.953125 53.082031 C 79.265625 52.382812 81.457031 51.8125 83.546875 50.519531 C 85.441406 49.347656 87.179688 47.90625 88.765625 46.34375 C 90.3125 44.828125 91.644531 43.285156 93.429688 42.023438 C 95.746094 40.382812 101.855469 38.101562 103.050781 35.953125 C 103.769531 34.65625 104.136719 33.046875 104.445312 31.605469 C 104.007812 30.828125 102.851562 27.800781 102.464844 27.507812 Z M 118.125 38.84375 C 118.585938 41.613281 119.980469 43.90625 121.230469 46.367188 C 121.765625 47.417969 122.171875 48.492188 122.910156 49.421875 C 124.136719 50.960938 125.582031 52.070312 126.539062 53.847656 C 127.269531 55.207031 126.777344 57.34375 128.167969 58.3125 C 129.183594 59.019531 130.554688 59.046875 131.523438 59.875 C 132.253906 60.5 132.6875 61.375 133.117188 62.214844 C 135.179688 66.207031 136.488281 65.960938 140.167969 67.765625 C 139.402344 66.136719 138.660156 64.125 137.507812 62.730469 C 135.785156 60.644531 132.328125 59.902344 130.144531 57.179688 C 128.308594 54.894531 127.59375 52.164062 126.4375 49.535156 C 125.625 47.6875 124.328125 46.15625 123.214844 44.492188 C 122.402344 43.28125 121.71875 41.980469 120.71875 40.902344 C 119.949219 40.078125 119.066406 39.457031 118.125 38.84375 Z M 46.011719 73.054688 C 46.859375 76.070312 50.195312 80.777344 52.09375 83.292969 C 52.90625 84.371094 53.863281 85.410156 54.570312 86.554688 C 55.085938 85.949219 55.613281 85.34375 56.078125 84.699219 C 56.867188 83.320312 57.347656 81.863281 57.796875 80.347656 C 55.554688 78.839844 52.988281 78.058594 50.71875 76.628906 C 49.03125 75.566406 47.800781 73.976562 46.011719 73.054688 Z M 24.324219 162.886719 C 25.863281 164.421875 27.195312 166.191406 28.6875 167.777344 C 30.335938 169.53125 32.140625 171.128906 33.78125 172.875 C 36.101562 172.132812 38.574219 171.445312 40.773438 170.402344 C 37.828125 168.90625 34.914062 167.496094 31.890625 166.164062 C 30.824219 165.695312 29.75 165.15625 28.660156 164.75 C 28.03125 164.472656 27.425781 164.179688 26.828125 163.84375 C 25.988281 163.535156 25.15625 163.214844 24.324219 162.886719 Z M 90.113281 61.949219 C 86.203125 64.316406 82.703125 67.371094 78.425781 69.082031 C 72.925781 71.28125 68.402344 69.53125 63.5625 73.503906 C 61.511719 75.183594 60.425781 77.347656 59.8125 79.90625 C 59.769531 80.082031 59.738281 80.253906 59.722656 80.433594 L 59.804688 80.527344 L 59.914062 80.425781 C 62.230469 78.273438 63.78125 75.371094 66.53125 73.675781 C 66.5625 73.65625 66.59375 73.636719 66.621094 73.621094 C 69.433594 71.992188 73.027344 72.710938 76.007812 71.5 C 80.65625 69.613281 84.300781 65.785156 89.132812 64.324219 C 89.574219 63.644531 90.03125 62.964844 90.226562 62.167969 C 90.144531 61.96875 90.203125 62.027344 90.113281 61.949219 Z M 102.152344 23.707031 C 101.265625 25.160156 100.371094 26.527344 99.25 27.816406 C 97.734375 29.5625 95.996094 31.121094 94.570312 32.945312 C 92.683594 35.363281 91.300781 38.316406 89.140625 40.496094 C 88.265625 41.378906 87.292969 41.949219 86.191406 42.511719 C 82.785156 44.246094 82.132812 45.113281 80.164062 48.453125 C 80.296875 48.582031 80.226562 48.546875 80.359375 48.582031 C 82.609375 47.554688 84.316406 45.433594 86.277344 43.964844 C 87.738281 42.867188 89.574219 42.027344 90.875 40.753906 C 92.570312 39.097656 93.445312 36.789062 94.835938 34.910156 C 97.097656 31.851562 100.785156 29.414062 102.121094 25.761719 C 102.316406 25.230469 102.546875 24.308594 102.226562 23.78125 C 102.207031 23.75 102.175781 23.730469 102.152344 23.707031 Z M 92.328125 58.679688 C 88.65625 59.773438 86.441406 61.867188 83.296875 63.796875 C 80.90625 65.261719 78.175781 66.359375 75.480469 67.132812 C 71.109375 68.390625 68.632812 67.246094 64.617188 70.320312 C 63.980469 70.808594 63.210938 71.308594 62.8125 72.011719 C 62.6875 72.226562 62.636719 72.292969 62.660156 72.542969 L 62.769531 72.5625 C 63.757812 71.773438 64.738281 71.066406 65.898438 70.554688 C 68.078125 69.59375 70.542969 69.496094 72.875 69.203125 C 74.777344 68.960938 76.730469 68.578125 78.523438 67.886719 C 82.007812 66.542969 84.785156 63.835938 87.902344 61.855469 C 88.878906 61.230469 91.0625 60.34375 91.710938 59.789062 C 92.03125 59.515625 92.246094 59.167969 92.457031 58.808594 L 92.410156 58.683594 Z M 18.847656 136.738281 C 18.664062 137.0625 18.507812 137.375 18.363281 137.71875 C 17.777344 139.132812 16.789062 140.367188 15.800781 141.519531 C 16.351562 141.164062 17.652344 140.269531 18.335938 140.421875 C 18.371094 140.429688 18.402344 140.445312 18.433594 140.457031 C 18.523438 140.710938 18.5 140.832031 18.386719 141.078125 C 17.96875 141.984375 17.144531 142.777344 16.441406 143.460938 C 17.132812 143.484375 17.9375 143.464844 18.558594 143.800781 L 18.566406 143.925781 L 18.480469 143.996094 L 18.421875 143.878906 L 18.390625 143.878906 C 18.375 143.921875 18.371094 143.964844 18.351562 144.003906 C 18.214844 144.296875 15.34375 146.734375 14.816406 147.324219 C 15.707031 147.265625 16.59375 147.140625 17.480469 147.085938 C 19.886719 146.691406 21.125 147.089844 23.140625 145.363281 C 22.257812 145.289062 20.289062 144.65625 19.726562 143.945312 C 19.597656 143.78125 19.636719 143.855469 19.671875 143.621094 C 20.238281 143.199219 21.171875 143.289062 21.855469 143.1875 C 21.070312 142.296875 20.15625 141.539062 19.4375 140.59375 C 20.058594 140.609375 20.6875 140.613281 21.308594 140.648438 C 20.648438 139.667969 19.636719 137.398438 18.847656 136.738281 Z M 164.527344 69.78125 C 163.28125 70.976562 162.890625 72.308594 162.074219 73.773438 C 160.167969 77.183594 157.03125 79.410156 153.800781 81.4375 L 154.75 82.1875 C 155.035156 82.34375 155.136719 82.398438 155.457031 82.300781 C 156.261719 82.050781 157.03125 81.496094 157.738281 81.035156 C 161.148438 78.816406 162.710938 76.53125 164.421875 72.890625 C 164.796875 72.089844 165.148438 71.167969 164.855469 70.285156 C 164.792969 70.09375 164.6875 69.902344 164.527344 69.78125 Z M 24.53125 87.328125 C 22.195312 88.332031 6.734375 95.621094 5.839844 96.707031 L 5.960938 96.800781 L 6.066406 96.753906 C 7.324219 96.195312 8.660156 95.796875 9.941406 95.300781 C 11.964844 94.519531 13.953125 93.613281 15.945312 92.746094 C 17.996094 91.855469 20.144531 91.003906 22.046875 89.816406 C 23.003906 89.21875 23.976562 88.511719 24.621094 87.574219 L 24.636719 87.402344 Z M 160.621094 73.382812 C 159.117188 74.429688 157.535156 75.476562 155.855469 76.21875 C 153.941406 77.0625 151.851562 77.621094 149.863281 78.28125 C 150.355469 78.765625 150.839844 79.257812 151.382812 79.6875 L 152.640625 80.695312 C 154.777344 79.238281 159.695312 75.769531 160.765625 73.492188 Z M 122.96875 148.09375 C 122.019531 149.921875 121.179688 151.195312 119.355469 152.273438 C 121.238281 152.972656 123.207031 153.492188 125.128906 154.066406 C 124.453125 153.363281 123.722656 152.671875 123.125 151.898438 C 122.679688 151.328125 122.367188 150.785156 122.117188 150.101562 C 124.460938 152.074219 124.6875 151.980469 127.585938 152.5 C 125.84375 151.183594 124.613281 149.46875 122.96875 148.09375 Z M 160.859375 80.511719 C 159.359375 81.535156 157.84375 82.425781 156.246094 83.289062 C 156.773438 83.808594 157.308594 84.3125 157.859375 84.800781 L 159.285156 85.957031 C 160.054688 84.589844 161.195312 82.335938 161.097656 80.773438 L 160.960938 80.527344 Z M 53.164062 153.269531 C 52.757812 153.867188 52.453125 154.347656 51.695312 154.5 C 51.003906 154.640625 50.082031 154.4375 49.375 154.363281 C 50.324219 155.050781 51.269531 155.789062 52.269531 156.40625 C 52.746094 156.097656 53.257812 155.898438 53.816406 155.785156 C 55.230469 155.847656 56.644531 155.878906 58.058594 155.878906 C 56.738281 155.058594 54.617188 153.75 53.164062 153.269531 Z M 53.226562 150.1875 C 52.597656 150.976562 51.722656 151.265625 50.886719 151.773438 C 51.613281 152.402344 52.429688 153.050781 53.4375 153.007812 C 54.082031 152.980469 54.609375 152.964844 55.257812 153.054688 C 55.980469 153.101562 56.84375 153.066406 57.5 153.394531 L 57.558594 153.34375 C 57.394531 153.085938 53.878906 150.6875 53.226562 150.1875 Z M 123.070312 143.894531 C 122.335938 145.335938 121.480469 146.636719 120.484375 147.914062 C 121.320312 147.648438 123.035156 146.726562 123.863281 147.210938 C 124.136719 147.371094 124.402344 147.664062 124.632812 147.886719 C 125.222656 148.523438 125.832031 149.035156 126.527344 149.550781 C 125.871094 148.050781 124.109375 145.183594 123.070312 143.894531 Z M 18.953125 147.421875 C 17.785156 147.898438 15.894531 148.441406 15.027344 149.355469 L 15.054688 149.507812 C 15.601562 149.667969 15.964844 149.601562 16.507812 149.453125 C 17.96875 149.117188 19.3125 148.617188 20.675781 148.003906 C 20.105469 147.785156 19.539062 147.589844 18.953125 147.421875 Z M 31.347656 156.09375 C 32.773438 156.722656 34.210938 157.246094 35.683594 157.746094 C 35.988281 157.472656 36.285156 157.214844 36.621094 156.980469 C 36.816406 156.882812 37 156.789062 37.179688 156.664062 C 36.363281 156.074219 32.46875 156 31.347656 156.09375 Z M 35.480469 149.601562 L 35.226562 149.757812 C 35.394531 150.175781 35.886719 150.367188 36.285156 150.542969 C 36.976562 150.847656 37.632812 151.109375 38.371094 150.855469 L 38.730469 150.515625 C 38.710938 150.285156 38.703125 150.277344 38.53125 150.132812 C 37.90625 149.621094 36.269531 149.535156 35.480469 149.601562 Z M 12.050781 144.117188 C 12.367188 144.757812 12.707031 145.386719 13.0625 146 C 13.570312 145.765625 13.890625 145.488281 14.300781 145.121094 C 14.578125 144.804688 14.785156 144.476562 14.992188 144.109375 C 14.082031 144.140625 12.941406 144.3125 12.050781 144.117188 Z M 77.800781 91.5 C 77.84375 91.089844 77.878906 90.675781 77.949219 90.269531 C 77.953125 89.539062 77.902344 88.75 78.0625 88.035156 C 77.921875 88.082031 77.804688 88.078125 77.722656 88.210938 C 77.367188 88.769531 77.757812 90.792969 77.800781 91.5 Z M 33.855469 97.765625 C 34.039062 97.15625 34.058594 96.515625 34.039062 95.886719 C 34.035156 95.851562 34.03125 95.816406 34.027344 95.785156 C 33.933594 95.144531 33.921875 94.496094 33.898438 93.851562 C 33.859375 94.609375 33.578125 97.214844 33.855469 97.765625 Z M 33.855469 97.765625 " fill-opacity="1" fill-rule="nonzero"/></g><path fill="#7a6200" d="M 33.855469 97.765625 C 33.578125 97.214844 33.859375 94.609375 33.898438 93.851562 C 33.921875 94.496094 33.933594 95.144531 34.027344 95.785156 C 34.03125 95.816406 34.035156 95.851562 34.039062 95.886719 C 34.058594 96.515625 34.039062 97.15625 33.855469 97.765625 Z M 33.855469 97.765625 " fill-opacity="1" fill-rule="nonzero"/><path fill="#7a6200" d="M 77.800781 91.5 C 77.757812 90.792969 77.367188 88.769531 77.722656 88.210938 C 77.804688 88.078125 77.921875 88.082031 78.0625 88.035156 C 77.902344 88.75 77.953125 89.539062 77.949219 90.269531 C 77.878906 90.675781 77.84375 91.089844 77.800781 91.5 Z M 77.800781 91.5 " fill-opacity="1" fill-rule="nonzero"/><path fill="#7a6200" d="M 27.101562 163.3125 C 27.890625 163.605469 28.675781 163.917969 29.453125 164.246094 C 29.132812 164.320312 28.914062 164.296875 28.734375 164.597656 C 28.707031 164.648438 28.683594 164.699219 28.660156 164.75 C 28.03125 164.472656 27.425781 164.179688 26.828125 163.84375 C 26.882812 163.625 26.976562 163.503906 27.101562 163.3125 Z M 27.101562 163.3125 " fill-opacity="1" fill-rule="nonzero"/><path fill="#7a6200" d="M 78.5625 59 L 78.8125 59.019531 L 78.796875 59.191406 C 77.265625 60.800781 72.574219 62.625 70.355469 62.996094 C 70.226562 62.976562 70.140625 62.941406 70.023438 62.894531 C 69.972656 62.707031 69.929688 62.710938 70.042969 62.535156 C 70.835938 61.285156 76.914062 59.433594 78.5625 59 Z M 78.5625 59 " fill-opacity="1" fill-rule="nonzero"/><path fill="#7a6200" d="M 69.164062 144.148438 C 70.425781 144.339844 71.769531 145.042969 72.871094 145.65625 C 73.839844 146.203125 75.199219 146.921875 75.511719 148.050781 C 75.121094 148.054688 74.710938 148.066406 74.324219 148 C 72.332031 147.648438 70.308594 145.710938 69.164062 144.148438 Z M 69.164062 144.148438 " fill-opacity="1" fill-rule="nonzero"/><path fill="#7a6200" d="M 67.851562 143.902344 C 68.121094 143.914062 68.183594 143.894531 68.398438 144.054688 C 68.382812 144.164062 68.386719 144.183594 68.324219 144.292969 C 67.617188 145.535156 62.757812 147.78125 61.273438 148.101562 C 61.0625 148.050781 60.941406 147.996094 60.765625 147.867188 L 60.785156 147.65625 C 61.699219 146.261719 66.132812 144.601562 67.851562 143.902344 Z M 67.851562 143.902344 " fill-opacity="1" fill-rule="nonzero"/><path fill="#7a6200" d="M 68.058594 135.425781 C 68.25 135.433594 68.421875 135.46875 68.609375 135.507812 C 69.941406 136.554688 70.300781 139.925781 71.476562 141.589844 C 72.597656 143.183594 74.683594 143.765625 75.492188 145.25 L 75.425781 145.464844 C 74.863281 145.65625 73.820312 145.242188 73.28125 145.011719 C 70.855469 143.980469 69.597656 141.585938 68.679688 139.257812 C 68.648438 139.175781 68.585938 139.109375 68.539062 139.042969 C 67.851562 139.722656 67.683594 141.035156 67.023438 141.832031 C 66.085938 142.96875 64.472656 143.601562 63.703125 144.835938 L 63.894531 145.097656 C 63.746094 145.148438 63.605469 145.195312 63.453125 145.21875 C 62.941406 145.289062 62.128906 145.363281 61.699219 145.070312 C 61.480469 144.113281 64.839844 142.289062 65.574219 141.542969 C 66.816406 140.277344 67.207031 138.792969 67.570312 137.109375 C 67.695312 136.53125 67.789062 135.960938 68.058594 135.425781 Z M 68.058594 135.425781 " fill-opacity="1" fill-rule="nonzero"/></g></g></g></svg>