<svg xmlns="http://www.w3.org/2000/svg" xmlns:xlink="http://www.w3.org/1999/xlink" width="276" zoomAndPan="magnify" viewBox="0 0 206.87999 207.000001" height="276" preserveAspectRatio="xMidYMid meet" version="1.0"><defs><filter x="0%" y="0%" width="100%" height="100%" id="a19d74a5ac"><feColorMatrix values="0 0 0 0 1 0 0 0 0 1 0 0 0 0 1 0 0 0 1 0" color-interpolation-filters="sRGB"/></filter><mask id="1ff69b9868"><g filter="url(#a19d74a5ac)"><rect x="-20.687999" width="248.255988" fill="#000000" y="-20.7" height="248.400001" fill-opacity="0.53"/></g></mask><clipPath id="c25d089b9f"><path d="M 1.039062 0.515625 L 165.992188 0.515625 L 165.992188 165.46875 L 1.039062 165.46875 Z M 1.039062 0.515625 " clip-rule="nonzero"/></clipPath><clipPath id="0b6be72083"><rect x="0" width="167" y="0" height="166"/></clipPath></defs><g mask="url(#1ff69b9868)"><g transform="matrix(1, 0, 0, 1, 20, 20)"><g clip-path="url(#0b6be72083)"><g clip-path="url(#c25d089b9f)"><path fill="#2e6417" d="M 80.289062 0.597656 C 80.949219 0.558594 81.613281 0.535156 82.273438 0.527344 C 82.945312 0.519531 83.613281 0.519531 84.285156 0.527344 C 84.953125 0.535156 85.625 0.554688 86.296875 0.578125 C 86.964844 0.601562 87.636719 0.636719 88.304688 0.675781 C 88.972656 0.71875 89.640625 0.765625 90.308594 0.824219 C 90.976562 0.882812 91.644531 0.949219 92.3125 1.019531 C 92.980469 1.09375 93.644531 1.175781 94.308594 1.265625 C 94.972656 1.355469 95.636719 1.453125 96.296875 1.558594 C 96.960938 1.664062 97.621094 1.777344 98.28125 1.898438 C 98.941406 2.019531 99.597656 2.148438 100.253906 2.289062 C 100.910156 2.425781 101.566406 2.570312 102.21875 2.722656 C 102.871094 2.875 103.523438 3.039062 104.171875 3.207031 C 104.820312 3.375 105.464844 3.554688 106.109375 3.738281 C 106.753906 3.921875 107.398438 4.113281 108.039062 4.316406 C 108.679688 4.515625 109.316406 4.722656 109.949219 4.9375 C 110.585938 5.15625 111.21875 5.378906 111.847656 5.609375 C 112.476562 5.839844 113.101562 6.078125 113.726562 6.324219 C 114.351562 6.570312 114.972656 6.824219 115.589844 7.085938 C 116.207031 7.347656 116.820312 7.613281 117.433594 7.890625 C 118.042969 8.167969 118.652344 8.449219 119.253906 8.742188 C 119.859375 9.03125 120.460938 9.328125 121.058594 9.636719 C 121.652344 9.941406 122.246094 10.253906 122.835938 10.570312 C 123.425781 10.890625 124.011719 11.21875 124.59375 11.550781 C 125.175781 11.886719 125.753906 12.226562 126.324219 12.574219 C 126.898438 12.921875 127.46875 13.277344 128.03125 13.636719 C 128.597656 14 129.15625 14.367188 129.714844 14.742188 C 130.269531 15.117188 130.820312 15.5 131.367188 15.886719 C 131.914062 16.277344 132.457031 16.671875 132.992188 17.074219 C 133.53125 17.472656 134.0625 17.882812 134.589844 18.296875 C 135.117188 18.710938 135.640625 19.132812 136.15625 19.558594 C 136.671875 19.984375 137.183594 20.417969 137.691406 20.859375 C 138.199219 21.296875 138.699219 21.742188 139.195312 22.195312 C 139.691406 22.644531 140.179688 23.101562 140.664062 23.566406 C 141.0625 23.949219 141.460938 24.335938 141.851562 24.730469 C 142.242188 25.121094 142.628906 25.515625 143.011719 25.914062 C 143.394531 26.316406 143.773438 26.71875 144.148438 27.125 C 144.523438 27.53125 144.894531 27.941406 145.261719 28.359375 C 145.628906 28.773438 145.988281 29.191406 146.347656 29.613281 C 146.707031 30.035156 147.058594 30.460938 147.410156 30.886719 C 147.761719 31.316406 148.105469 31.75 148.445312 32.1875 C 148.785156 32.621094 149.125 33.0625 149.457031 33.503906 C 149.789062 33.945312 150.117188 34.390625 150.4375 34.839844 C 150.761719 35.289062 151.082031 35.742188 151.394531 36.199219 C 151.707031 36.652344 152.019531 37.113281 152.324219 37.574219 C 152.628906 38.035156 152.929688 38.5 153.222656 38.96875 C 153.519531 39.4375 153.808594 39.910156 154.097656 40.382812 C 154.382812 40.855469 154.664062 41.332031 154.9375 41.8125 C 155.214844 42.292969 155.488281 42.773438 155.753906 43.257812 C 156.019531 43.742188 156.28125 44.230469 156.539062 44.722656 C 156.796875 45.210938 157.046875 45.703125 157.296875 46.199219 C 157.542969 46.695312 157.785156 47.191406 158.023438 47.691406 C 158.257812 48.191406 158.492188 48.695312 158.71875 49.199219 C 158.945312 49.703125 159.167969 50.210938 159.382812 50.71875 C 159.597656 51.230469 159.8125 51.742188 160.015625 52.253906 C 160.222656 52.769531 160.425781 53.285156 160.621094 53.800781 C 160.816406 54.320312 161.007812 54.839844 161.195312 55.359375 C 161.378906 55.878906 161.558594 56.402344 161.734375 56.929688 C 161.910156 57.453125 162.078125 57.980469 162.242188 58.507812 C 162.40625 59.039062 162.566406 59.566406 162.722656 60.097656 C 162.875 60.628906 163.023438 61.164062 163.167969 61.699219 C 163.308594 62.234375 163.445312 62.769531 163.578125 63.304688 C 163.710938 63.84375 163.839844 64.382812 163.960938 64.921875 C 164.082031 65.460938 164.199219 66.003906 164.308594 66.546875 C 164.417969 67.085938 164.523438 67.632812 164.621094 68.175781 C 164.722656 68.71875 164.816406 69.265625 164.90625 69.8125 C 165.535156 73.875 165.730469 77.925781 165.804688 82.03125 C 165.820312 82.699219 165.828125 83.371094 165.828125 84.039062 C 165.828125 84.710938 165.816406 85.378906 165.800781 86.050781 C 165.78125 86.71875 165.757812 87.390625 165.722656 88.058594 C 165.6875 88.726562 165.644531 89.398438 165.59375 90.066406 C 165.542969 90.734375 165.484375 91.402344 165.414062 92.066406 C 165.347656 92.734375 165.273438 93.398438 165.1875 94.0625 C 165.105469 94.730469 165.011719 95.390625 164.910156 96.054688 C 164.808594 96.71875 164.703125 97.378906 164.585938 98.039062 C 164.46875 98.699219 164.34375 99.355469 164.207031 100.011719 C 164.074219 100.667969 163.933594 101.324219 163.785156 101.976562 C 163.632812 102.628906 163.476562 103.28125 163.308594 103.929688 C 163.144531 104.582031 162.96875 105.226562 162.789062 105.871094 C 162.605469 106.515625 162.417969 107.160156 162.21875 107.800781 C 162.019531 108.441406 161.816406 109.078125 161.601562 109.710938 C 161.386719 110.347656 161.164062 110.980469 160.9375 111.609375 C 160.707031 112.238281 160.46875 112.867188 160.222656 113.488281 C 159.980469 114.113281 159.726562 114.734375 159.464844 115.351562 C 159.203125 115.96875 158.9375 116.582031 158.660156 117.191406 C 158.382812 117.804688 158.101562 118.410156 157.808594 119.011719 C 157.519531 119.617188 157.222656 120.21875 156.914062 120.8125 C 156.609375 121.410156 156.296875 122 155.976562 122.589844 C 155.65625 123.179688 155.328125 123.761719 154.992188 124.34375 C 154.65625 124.921875 154.316406 125.5 153.964844 126.070312 C 153.617188 126.644531 153.257812 127.210938 152.894531 127.773438 C 152.53125 128.335938 152.160156 128.894531 151.785156 129.449219 C 151.40625 130 151.023438 130.550781 150.632812 131.09375 C 150.242188 131.640625 149.84375 132.179688 149.4375 132.710938 C 149.035156 133.246094 148.625 133.777344 148.207031 134.300781 C 147.789062 134.824219 147.363281 135.34375 146.933594 135.855469 C 146.503906 136.371094 146.066406 136.878906 145.621094 137.378906 C 145.179688 137.882812 144.730469 138.378906 144.273438 138.871094 C 143.820312 139.363281 143.359375 139.847656 142.890625 140.328125 C 142.546875 140.679688 142.199219 141.023438 141.847656 141.367188 C 141.496094 141.714844 141.140625 142.054688 140.785156 142.390625 C 140.429688 142.730469 140.070312 143.0625 139.707031 143.394531 C 139.34375 143.726562 138.976562 144.054688 138.609375 144.378906 C 138.242188 144.707031 137.871094 145.027344 137.496094 145.347656 C 137.121094 145.664062 136.746094 145.980469 136.367188 146.292969 C 135.988281 146.605469 135.605469 146.914062 135.21875 147.21875 C 134.835938 147.523438 134.449219 147.824219 134.058594 148.125 C 133.667969 148.421875 133.273438 148.71875 132.878906 149.007812 C 132.484375 149.300781 132.085938 149.589844 131.6875 149.875 C 131.285156 150.160156 130.882812 150.441406 130.476562 150.71875 C 130.074219 150.996094 129.664062 151.269531 129.253906 151.539062 C 128.84375 151.8125 128.433594 152.078125 128.015625 152.34375 C 127.601562 152.605469 127.1875 152.863281 126.765625 153.121094 C 126.347656 153.378906 125.925781 153.628906 125.503906 153.878906 C 125.078125 154.128906 124.652344 154.371094 124.226562 154.613281 C 123.796875 154.855469 123.367188 155.09375 122.933594 155.328125 C 122.503906 155.558594 122.070312 155.789062 121.632812 156.015625 C 121.195312 156.242188 120.757812 156.464844 120.320312 156.683594 C 119.878906 156.902344 119.4375 157.117188 118.992188 157.328125 C 118.550781 157.539062 118.105469 157.746094 117.65625 157.949219 C 117.207031 158.152344 116.757812 158.351562 116.308594 158.546875 C 115.859375 158.742188 115.40625 158.933594 114.953125 159.121094 C 114.496094 159.308594 114.042969 159.492188 113.582031 159.671875 C 113.125 159.847656 112.667969 160.023438 112.207031 160.195312 C 111.746094 160.367188 111.285156 160.535156 110.820312 160.699219 C 110.359375 160.863281 109.894531 161.019531 109.425781 161.175781 C 108.960938 161.332031 108.492188 161.480469 108.023438 161.628906 C 107.554688 161.777344 107.085938 161.917969 106.613281 162.058594 C 106.144531 162.195312 105.671875 162.332031 105.199219 162.460938 C 104.722656 162.59375 104.25 162.71875 103.773438 162.839844 C 103.296875 162.960938 102.820312 163.082031 102.34375 163.195312 C 97.25 164.457031 91.9375 165.335938 86.679688 165.429688 C 86.015625 165.453125 85.351562 165.46875 84.6875 165.472656 C 84.023438 165.480469 83.355469 165.476562 82.691406 165.46875 C 82.027344 165.457031 81.363281 165.441406 80.695312 165.414062 C 80.03125 165.390625 79.367188 165.355469 78.703125 165.3125 C 78.039062 165.273438 77.378906 165.222656 76.714844 165.164062 C 76.050781 165.105469 75.390625 165.039062 74.730469 164.964844 C 74.070312 164.894531 73.410156 164.8125 72.75 164.722656 C 72.089844 164.632812 71.433594 164.535156 70.777344 164.429688 C 70.121094 164.324219 69.464844 164.210938 68.808594 164.089844 C 68.15625 163.964844 67.503906 163.835938 66.851562 163.699219 C 66.203125 163.5625 65.554688 163.417969 64.90625 163.265625 C 64.257812 163.113281 63.613281 162.953125 62.96875 162.785156 C 62.328125 162.617188 61.683594 162.441406 61.046875 162.257812 C 60.40625 162.074219 59.769531 161.882812 59.136719 161.683594 C 58.5 161.484375 57.867188 161.277344 57.238281 161.0625 C 56.609375 160.847656 55.980469 160.628906 55.359375 160.398438 C 54.734375 160.167969 54.113281 159.929688 53.492188 159.6875 C 52.875 159.441406 52.257812 159.191406 51.648438 158.933594 C 51.035156 158.671875 50.425781 158.40625 49.820312 158.132812 C 49.214844 157.859375 48.609375 157.578125 48.011719 157.289062 C 47.410156 157 46.816406 156.707031 46.222656 156.402344 C 45.632812 156.101562 45.042969 155.789062 44.457031 155.472656 C 43.875 155.15625 43.292969 154.832031 42.714844 154.503906 C 42.136719 154.171875 41.566406 153.832031 40.996094 153.488281 C 40.429688 153.144531 39.863281 152.792969 39.304688 152.433594 C 38.742188 152.078125 38.1875 151.710938 37.636719 151.339844 C 37.082031 150.96875 36.535156 150.589844 35.996094 150.203125 C 35.453125 149.820312 34.914062 149.429688 34.382812 149.03125 C 33.847656 148.632812 33.320312 148.230469 32.796875 147.820312 C 32.273438 147.40625 31.753906 146.992188 31.242188 146.570312 C 30.730469 146.144531 30.21875 145.714844 29.71875 145.28125 C 29.214844 144.847656 28.71875 144.40625 28.226562 143.957031 C 25.089844 141.085938 22.136719 138.105469 19.433594 134.820312 C 19.09375 134.410156 18.761719 133.996094 18.433594 133.582031 C 18.101562 133.164062 17.777344 132.746094 17.457031 132.324219 C 17.136719 131.902344 16.820312 131.476562 16.507812 131.046875 C 16.195312 130.621094 15.886719 130.1875 15.582031 129.753906 C 15.28125 129.320312 14.980469 128.882812 14.683594 128.441406 C 14.390625 128 14.097656 127.558594 13.8125 127.109375 C 13.527344 126.664062 13.246094 126.214844 12.96875 125.761719 C 12.691406 125.3125 12.417969 124.855469 12.148438 124.398438 C 11.878906 123.941406 11.617188 123.480469 11.359375 123.019531 C 11.097656 122.554688 10.84375 122.089844 10.59375 121.625 C 10.34375 121.15625 10.097656 120.683594 9.859375 120.210938 C 9.617188 119.738281 9.382812 119.265625 9.152344 118.789062 C 8.921875 118.3125 8.695312 117.832031 8.472656 117.347656 C 8.25 116.867188 8.035156 116.382812 7.820312 115.898438 C 7.609375 115.410156 7.402344 114.921875 7.199219 114.433594 C 7 113.941406 6.800781 113.449219 6.609375 112.957031 C 6.417969 112.460938 6.230469 111.964844 6.046875 111.46875 C 5.863281 110.972656 5.6875 110.472656 5.511719 109.96875 C 5.339844 109.46875 5.171875 108.964844 5.011719 108.460938 C 4.847656 107.957031 4.691406 107.449219 4.539062 106.941406 C 4.386719 106.433594 4.238281 105.925781 4.09375 105.414062 C 3.953125 104.902344 3.816406 104.390625 3.683594 103.878906 C 3.550781 103.363281 3.421875 102.847656 3.300781 102.332031 C 3.179688 101.816406 3.0625 101.300781 2.949219 100.78125 C 2.839844 100.261719 2.734375 99.742188 2.632812 99.222656 C 2.53125 98.703125 2.433594 98.179688 2.34375 97.660156 C 2.25 97.136719 2.164062 96.613281 2.085938 96.089844 C 2.003906 95.566406 1.929688 95.039062 1.859375 94.515625 C 1.789062 93.988281 1.722656 93.460938 1.664062 92.933594 C 1.605469 92.410156 1.550781 91.882812 1.5 91.351562 C 1.453125 90.824219 1.40625 90.296875 1.367188 89.769531 C 1.332031 89.238281 1.296875 88.710938 1.269531 88.179688 C 1.039062 83.046875 1.085938 77.945312 1.671875 72.835938 C 1.734375 72.3125 1.800781 71.789062 1.875 71.265625 C 1.945312 70.742188 2.023438 70.21875 2.105469 69.695312 C 2.1875 69.175781 2.277344 68.652344 2.367188 68.132812 C 2.460938 67.613281 2.558594 67.09375 2.664062 66.574219 C 2.765625 66.058594 2.875 65.539062 2.988281 65.023438 C 3.101562 64.507812 3.21875 63.992188 3.34375 63.480469 C 3.464844 62.964844 3.59375 62.453125 3.726562 61.941406 C 3.859375 61.429688 4 60.917969 4.140625 60.410156 C 4.285156 59.902344 4.433594 59.394531 4.589844 58.890625 C 4.742188 58.382812 4.898438 57.878906 5.0625 57.378906 C 5.226562 56.875 5.394531 56.375 5.566406 55.875 C 5.742188 55.375 5.917969 54.878906 6.101562 54.382812 C 6.285156 53.886719 6.472656 53.394531 6.667969 52.902344 C 6.859375 52.410156 7.058594 51.917969 7.257812 51.429688 C 7.460938 50.941406 7.667969 50.457031 7.882812 49.972656 C 8.09375 49.488281 8.308594 49.007812 8.53125 48.527344 C 8.753906 48.046875 8.980469 47.570312 9.210938 47.09375 C 9.441406 46.617188 9.675781 46.144531 9.917969 45.675781 C 10.15625 45.203125 10.402344 44.738281 10.652344 44.269531 C 10.902344 43.804688 11.15625 43.339844 11.414062 42.878906 C 11.671875 42.417969 11.933594 41.960938 12.203125 41.503906 C 12.46875 41.050781 12.742188 40.597656 13.019531 40.148438 C 13.296875 39.695312 13.578125 39.25 13.863281 38.804688 C 14.148438 38.359375 14.4375 37.917969 14.730469 37.480469 C 15.027344 37.039062 15.324219 36.601562 15.625 36.171875 C 15.929688 35.738281 16.234375 35.308594 16.546875 34.878906 C 16.859375 34.453125 17.171875 34.027344 17.492188 33.609375 C 17.8125 33.1875 18.136719 32.769531 18.464844 32.355469 C 18.792969 31.941406 19.125 31.527344 19.460938 31.121094 C 19.796875 30.710938 20.136719 30.308594 20.480469 29.90625 C 20.824219 29.503906 21.171875 29.109375 21.523438 28.714844 C 21.875 28.320312 22.230469 27.925781 22.589844 27.539062 C 23.046875 27.035156 23.507812 26.535156 23.976562 26.042969 C 24.449219 25.546875 24.921875 25.058594 25.40625 24.578125 C 25.886719 24.097656 26.375 23.621094 26.867188 23.152344 C 27.359375 22.679688 27.859375 22.21875 28.363281 21.761719 C 28.871094 21.304688 29.378906 20.851562 29.898438 20.40625 C 30.414062 19.964844 30.933594 19.523438 31.460938 19.09375 C 31.988281 18.660156 32.523438 18.238281 33.058594 17.820312 C 33.597656 17.402344 34.140625 16.988281 34.6875 16.585938 C 35.238281 16.179688 35.789062 15.78125 36.347656 15.390625 C 36.90625 15 37.46875 14.617188 38.035156 14.238281 C 38.601562 13.863281 39.175781 13.492188 39.75 13.128906 C 40.328125 12.765625 40.910156 12.410156 41.496094 12.0625 C 42.082031 11.714844 42.671875 11.375 43.265625 11.039062 C 43.859375 10.707031 44.457031 10.378906 45.058594 10.0625 C 45.660156 9.742188 46.265625 9.433594 46.878906 9.128906 C 47.488281 8.824219 48.101562 8.527344 48.71875 8.242188 C 49.335938 7.953125 49.957031 7.671875 50.582031 7.398438 C 51.203125 7.125 51.832031 6.863281 52.464844 6.605469 C 53.09375 6.347656 53.730469 6.097656 54.367188 5.855469 C 55.003906 5.617188 55.644531 5.382812 56.285156 5.15625 C 56.929688 4.929688 57.574219 4.714844 58.222656 4.503906 C 58.871094 4.296875 59.523438 4.09375 60.175781 3.902344 C 60.828125 3.707031 61.484375 3.523438 62.140625 3.347656 C 62.800781 3.167969 63.460938 3 64.121094 2.839844 C 64.785156 2.679688 65.449219 2.527344 66.113281 2.386719 C 66.78125 2.242188 67.449219 2.105469 68.117188 1.980469 C 68.785156 1.851562 69.457031 1.734375 70.128906 1.621094 C 70.800781 1.511719 71.476562 1.410156 72.152344 1.316406 C 72.824219 1.222656 73.5 1.136719 74.179688 1.0625 C 74.855469 0.984375 75.535156 0.914062 76.210938 0.855469 C 76.890625 0.796875 77.570312 0.746094 78.25 0.703125 C 78.929688 0.660156 79.609375 0.625 80.289062 0.597656 Z M 81.21875 2.027344 C 76.070312 2.355469 71.023438 2.863281 65.976562 3.964844 C 65.453125 4.082031 64.933594 4.207031 64.410156 4.335938 C 63.890625 4.464844 63.371094 4.597656 62.855469 4.734375 C 62.335938 4.875 61.820312 5.019531 61.304688 5.167969 C 60.789062 5.316406 60.277344 5.46875 59.765625 5.628906 C 59.25 5.789062 58.742188 5.953125 58.234375 6.121094 C 57.722656 6.292969 57.214844 6.464844 56.710938 6.644531 C 56.207031 6.824219 55.703125 7.007812 55.199219 7.195312 C 54.699219 7.386719 54.199219 7.582031 53.703125 7.78125 C 53.203125 7.976562 52.707031 8.183594 52.214844 8.390625 C 51.71875 8.601562 51.230469 8.8125 50.738281 9.03125 C 50.25 9.25 49.761719 9.472656 49.277344 9.703125 C 48.792969 9.929688 48.308594 10.164062 47.828125 10.402344 C 47.347656 10.640625 46.871094 10.882812 46.394531 11.128906 C 45.917969 11.375 45.445312 11.628906 44.972656 11.882812 C 44.503906 12.140625 44.035156 12.402344 43.570312 12.667969 C 43.101562 12.933594 42.640625 13.203125 42.179688 13.476562 C 41.71875 13.753906 41.261719 14.03125 40.808594 14.316406 C 40.351562 14.601562 39.902344 14.886719 39.453125 15.179688 C 39.003906 15.472656 38.554688 15.773438 38.113281 16.074219 C 37.667969 16.375 37.230469 16.679688 36.792969 16.992188 C 36.355469 17.300781 35.921875 17.617188 35.488281 17.933594 C 35.058594 18.253906 34.632812 18.578125 34.207031 18.90625 C 33.78125 19.230469 33.359375 19.5625 32.941406 19.898438 C 32.523438 20.234375 32.109375 20.574219 31.699219 20.917969 C 31.289062 21.261719 30.878906 21.609375 30.476562 21.960938 C 30.070312 22.316406 29.667969 22.671875 29.273438 23.03125 C 28.875 23.390625 28.480469 23.753906 28.089844 24.121094 C 27.699219 24.488281 27.3125 24.859375 26.929688 25.234375 C 26.546875 25.613281 26.167969 25.992188 25.792969 26.375 C 25.417969 26.757812 25.046875 27.140625 24.679688 27.53125 C 24.3125 27.921875 23.945312 28.316406 23.585938 28.714844 C 23.226562 29.109375 22.871094 29.511719 22.519531 29.917969 C 22.21875 30.261719 21.917969 30.609375 21.621094 30.957031 C 21.324219 31.308594 21.03125 31.660156 20.742188 32.015625 C 20.453125 32.371094 20.164062 32.726562 19.882812 33.085938 C 19.597656 33.445312 19.316406 33.808594 19.039062 34.171875 C 18.761719 34.535156 18.488281 34.902344 18.214844 35.273438 C 17.945312 35.640625 17.675781 36.011719 17.410156 36.386719 C 17.144531 36.761719 16.882812 37.136719 16.625 37.515625 C 16.363281 37.894531 16.109375 38.273438 15.855469 38.65625 C 15.605469 39.039062 15.355469 39.421875 15.109375 39.808594 C 14.863281 40.195312 14.621094 40.585938 14.382812 40.976562 C 14.144531 41.367188 13.90625 41.757812 13.675781 42.152344 C 13.441406 42.550781 13.214844 42.945312 12.988281 43.34375 C 12.761719 43.742188 12.539062 44.144531 12.320312 44.546875 C 12.101562 44.949219 11.886719 45.355469 11.675781 45.761719 C 11.460938 46.167969 11.253906 46.574219 11.050781 46.984375 C 10.84375 47.394531 10.640625 47.804688 10.445312 48.21875 C 10.246094 48.632812 10.050781 49.046875 9.859375 49.464844 C 9.667969 49.878906 9.480469 50.296875 9.296875 50.71875 C 9.113281 51.136719 8.933594 51.558594 8.757812 51.980469 C 8.582031 52.402344 8.40625 52.828125 8.238281 53.253906 C 8.070312 53.679688 7.902344 54.105469 7.742188 54.535156 C 7.578125 54.964844 7.421875 55.394531 7.265625 55.824219 C 7.109375 56.257812 6.960938 56.6875 6.8125 57.125 C 6.664062 57.558594 6.519531 57.992188 6.378906 58.429688 C 6.242188 58.863281 6.105469 59.300781 5.972656 59.742188 C 5.839844 60.179688 5.710938 60.617188 5.585938 61.058594 C 5.460938 61.5 5.339844 61.941406 5.222656 62.386719 C 5.101562 62.828125 4.988281 63.273438 4.878906 63.71875 C 4.769531 64.160156 4.664062 64.609375 4.5625 65.054688 C 4.457031 65.5 4.359375 65.949219 4.265625 66.398438 C 4.171875 66.84375 4.078125 67.292969 3.992188 67.742188 C 3.90625 68.195312 3.820312 68.644531 3.742188 69.09375 C 3.144531 72.371094 2.539062 76.378906 2.671875 79.703125 C 4.828125 78.632812 6.882812 77.375 9.011719 76.253906 C 12.050781 74.652344 15.164062 73.179688 18.242188 71.65625 C 20.296875 70.640625 22.703125 70.09375 24.597656 68.804688 C 25.683594 68.066406 26.683594 67.144531 27.6875 66.300781 C 29.53125 64.746094 31.375 63.175781 33.136719 61.527344 C 34.257812 60.476562 35.355469 59.265625 36.574219 58.339844 C 36.808594 58.160156 37.054688 58.0625 37.328125 57.972656 C 39.828125 58.613281 41.121094 60.558594 43.160156 61.929688 C 44.976562 63.152344 47.226562 63.742188 49.144531 64.824219 C 50.679688 60.660156 52.425781 53.972656 55.601562 50.773438 C 57.066406 49.296875 58.730469 49.226562 60.082031 47.289062 C 61.058594 45.882812 61.988281 44.441406 62.96875 43.039062 C 63.785156 41.878906 64.667969 40.746094 65.449219 39.566406 C 66.308594 38.273438 66.910156 36.816406 68.023438 35.703125 C 69.4375 34.289062 71.519531 33.953125 73.019531 32.632812 C 75.003906 30.882812 76.066406 28.449219 77.671875 26.394531 C 79.722656 23.761719 82.160156 21.71875 83.8125 18.738281 C 84.085938 18.1875 84.5 17.070312 85.085938 16.820312 C 85.25 16.75 85.367188 16.765625 85.519531 16.847656 C 86.15625 17.195312 86.773438 18.140625 87.273438 18.679688 C 88.441406 19.9375 89.707031 21.089844 90.8125 22.410156 C 91.964844 23.789062 92.964844 25.300781 94.160156 26.644531 C 95.3125 27.933594 96.535156 29.148438 97.898438 30.214844 C 99.050781 31.113281 100.363281 31.894531 101.339844 32.996094 C 102.15625 33.910156 102.621094 35.066406 103.300781 36.074219 C 103.84375 36.878906 104.566406 37.554688 105.117188 38.351562 C 106.785156 40.769531 107.058594 43.914062 108.964844 46.183594 C 110.652344 48.195312 113.617188 48.816406 115.109375 50.789062 C 116.066406 52.058594 116.621094 53.671875 117.371094 55.070312 C 118.828125 57.789062 121.207031 61.292969 123.359375 63.535156 C 126.039062 62.402344 128.726562 61.59375 131.15625 59.933594 C 133.242188 58.511719 134.792969 56.3125 137.144531 55.316406 C 138.613281 56.5 139.808594 58.050781 141.054688 59.457031 C 142.851562 61.484375 144.839844 63.410156 147.082031 64.941406 C 149.867188 66.847656 153.078125 68.175781 156.078125 69.695312 C 157.828125 70.582031 159.488281 71.617188 161.140625 72.671875 C 162.097656 73.28125 163.121094 73.90625 163.992188 74.632812 C 163.984375 74.605469 163.976562 74.578125 163.972656 74.554688 C 163.640625 73.167969 163.609375 71.644531 163.382812 70.230469 C 162.871094 66.933594 162.160156 63.679688 161.25 60.46875 C 161.078125 59.882812 160.902344 59.300781 160.71875 58.714844 C 160.535156 58.132812 160.34375 57.554688 160.144531 56.976562 C 159.949219 56.398438 159.746094 55.820312 159.535156 55.246094 C 159.324219 54.671875 159.109375 54.101562 158.882812 53.53125 C 158.660156 52.964844 158.429688 52.398438 158.195312 51.832031 C 157.960938 51.269531 157.71875 50.707031 157.46875 50.152344 C 157.21875 49.59375 156.964844 49.035156 156.703125 48.484375 C 156.441406 47.933594 156.175781 47.382812 155.902344 46.835938 C 155.628906 46.289062 155.347656 45.746094 155.0625 45.207031 C 154.777344 44.667969 154.484375 44.128906 154.1875 43.597656 C 153.890625 43.0625 153.585938 42.53125 153.273438 42.003906 C 152.964844 41.480469 152.648438 40.957031 152.328125 40.4375 C 152.003906 39.917969 151.679688 39.402344 151.34375 38.886719 C 151.011719 38.375 150.671875 37.867188 150.328125 37.363281 C 149.980469 36.859375 149.632812 36.359375 149.277344 35.863281 C 148.917969 35.367188 148.558594 34.875 148.191406 34.382812 C 147.824219 33.894531 147.449219 33.410156 147.070312 32.933594 C 146.695312 32.453125 146.308594 31.976562 145.921875 31.503906 C 145.53125 31.035156 145.136719 30.566406 144.738281 30.105469 C 144.339844 29.640625 143.933594 29.183594 143.523438 28.730469 C 143.113281 28.277344 142.699219 27.828125 142.28125 27.386719 C 141.859375 26.941406 141.433594 26.503906 141.003906 26.066406 C 140.574219 25.632812 140.140625 25.203125 139.699219 24.78125 C 139.261719 24.355469 138.816406 23.9375 138.367188 23.519531 C 137.917969 23.105469 137.464844 22.699219 137.007812 22.292969 C 136.546875 21.890625 136.085938 21.492188 135.617188 21.097656 C 135.148438 20.703125 134.679688 20.3125 134.203125 19.929688 C 133.726562 19.546875 133.246094 19.171875 132.761719 18.796875 C 132.277344 18.425781 131.789062 18.058594 131.292969 17.699219 C 130.800781 17.335938 130.304688 16.980469 129.804688 16.632812 C 129.304688 16.28125 128.796875 15.9375 128.289062 15.597656 C 127.78125 15.257812 127.269531 14.925781 126.75 14.601562 C 126.0625 14.167969 125.371094 13.746094 124.667969 13.332031 C 123.96875 12.917969 123.261719 12.519531 122.546875 12.125 C 121.835938 11.734375 121.117188 11.355469 120.394531 10.984375 C 119.667969 10.617188 118.9375 10.257812 118.203125 9.910156 C 117.46875 9.5625 116.730469 9.222656 115.984375 8.898438 C 115.238281 8.570312 114.492188 8.257812 113.738281 7.953125 C 112.980469 7.648438 112.222656 7.359375 111.460938 7.078125 C 110.699219 6.796875 109.929688 6.527344 109.160156 6.269531 C 108.386719 6.011719 107.613281 5.765625 106.835938 5.53125 C 106.058594 5.292969 105.273438 5.070312 104.492188 4.859375 C 103.707031 4.648438 102.917969 4.449219 102.125 4.261719 C 101.335938 4.074219 100.542969 3.894531 99.746094 3.730469 C 98.949219 3.566406 98.152344 3.414062 97.351562 3.273438 C 96.550781 3.132812 95.746094 3.003906 94.941406 2.890625 C 94.136719 2.773438 93.332031 2.667969 92.523438 2.574219 C 91.714844 2.484375 90.90625 2.402344 90.097656 2.335938 C 87.257812 2.070312 84.0625 1.773438 81.21875 2.027344 Z M 95.773438 63.824219 C 96.070312 63.929688 96.355469 64.035156 96.574219 64.277344 C 97.6875 65.511719 97.367188 69.121094 97.589844 70.746094 C 97.90625 73.085938 102.101562 85.035156 103.445312 86.628906 C 104.316406 87.65625 106.070312 87.132812 106.785156 88.371094 C 107.132812 88.972656 107.265625 89.691406 107.460938 90.355469 C 107.90625 91.886719 108.558594 93.855469 109.960938 94.785156 C 111.617188 95.882812 115.34375 94.914062 116.195312 96.175781 C 116.648438 96.851562 116.429688 98.789062 116.582031 99.683594 C 116.75 100.691406 117.136719 101.679688 117.648438 102.5625 C 119.730469 106.15625 122.203125 104.863281 123.492188 106.527344 C 124.492188 107.820312 124.335938 109.792969 125.03125 111.257812 C 125.632812 112.523438 126.738281 113.628906 127.546875 114.773438 C 128.324219 115.863281 128.902344 117.085938 129.667969 118.1875 C 130.835938 119.875 132.304688 121.3125 133.738281 122.773438 L 133.742188 122.90625 L 133.898438 122.976562 C 133.851562 122.953125 133.777344 122.917969 133.730469 122.890625 C 132.414062 122.085938 129.707031 119.496094 128.8125 118.25 C 128.226562 117.429688 127.785156 116.523438 127.15625 115.730469 C 126.210938 114.535156 125.070312 113.507812 124.367188 112.132812 C 123.890625 111.203125 123.753906 110.164062 123.488281 109.164062 C 122.605469 105.839844 121.355469 106.96875 119.257812 105.707031 C 117.265625 104.503906 115.757812 101.644531 115.539062 99.367188 C 115.464844 98.617188 115.628906 97.636719 115.382812 96.925781 C 114.992188 95.8125 111.320312 96.640625 109.714844 95.757812 C 107.523438 94.554688 106.582031 90.6875 105.898438 88.464844 C 105.199219 88.355469 104.417969 88.269531 103.765625 87.992188 C 103.152344 87.726562 102.796875 87.273438 102.453125 86.726562 C 100.832031 84.15625 99.972656 80.976562 98.953125 78.132812 C 98.285156 76.273438 97.484375 74.378906 97.058594 72.445312 C 96.492188 69.886719 96.871094 67.378906 95.824219 64.894531 C 95.082031 64.929688 94.199219 65.066406 93.46875 64.9375 C 92.347656 64.742188 91.859375 63.640625 91.273438 62.792969 C 90.378906 62.394531 89.296875 62.308594 88.472656 61.773438 C 87.667969 61.25 87.585938 60.371094 87.382812 59.519531 C 86.953125 57.75 85.726562 57.84375 84.417969 57.023438 C 80.515625 54.570312 80.496094 51.785156 79.59375 47.664062 C 78.507812 48.699219 77.375 49.640625 76.472656 50.851562 C 76.402344 53.652344 77.09375 56.5 77.515625 59.253906 C 77.761719 60.871094 77.863281 62.511719 78.25 64.105469 C 78.449219 64.914062 78.730469 65.730469 79.132812 66.460938 C 79.917969 67.882812 81.53125 68.734375 82.21875 70.1875 C 83.195312 72.246094 82.707031 74.726562 83.648438 76.859375 C 84.523438 78.855469 86.296875 80.414062 87.445312 82.273438 C 89.414062 85.453125 90.359375 89.113281 91.539062 92.621094 L 91.519531 92.617188 L 91.550781 92.746094 C 90.8125 91.449219 90.210938 90.027344 89.558594 88.679688 C 88.472656 86.449219 87.320312 84.207031 86.074219 82.058594 C 85.765625 81.527344 85.445312 80.976562 85.0625 80.496094 C 84.257812 79.476562 83.25 78.671875 82.75 77.4375 C 81.890625 75.300781 82.382812 72.867188 81.492188 70.765625 C 80.84375 69.242188 79.011719 68.75 78.203125 67.332031 C 76.894531 65.03125 77.011719 62.042969 76.597656 59.492188 C 76.242188 57.28125 75.761719 55.097656 75.429688 52.882812 C 74.398438 55.0625 73.433594 57.273438 72.535156 59.511719 C 71.636719 61.75 70.808594 64.015625 70.046875 66.304688 C 69.246094 68.722656 68.03125 69.722656 66.234375 71.40625 C 65.902344 71.71875 65.523438 72.230469 65.128906 72.429688 C 64.996094 73.015625 65.039062 73.664062 65.035156 74.265625 C 65.050781 75.355469 65.097656 76.441406 65.308594 77.515625 C 65.585938 78.945312 66.140625 80.359375 67.09375 81.480469 C 67.921875 82.453125 69.117188 82.855469 70.050781 83.6875 C 70.800781 84.351562 71.382812 85.191406 72.140625 85.851562 C 72.910156 86.523438 73.882812 86.953125 74.601562 87.6875 C 75.300781 88.402344 75.636719 89.394531 76.382812 90.089844 C 77.128906 90.785156 78.148438 91.136719 78.921875 91.8125 C 80.054688 92.804688 80.359375 94.582031 81.671875 95.375 C 82.960938 96.148438 84.832031 95.566406 86.261719 96.152344 C 87.59375 96.695312 87.722656 98.316406 88.863281 98.972656 C 90.707031 100.039062 92.878906 99.324219 95.371094 101.179688 C 98.523438 103.519531 99.941406 107.351562 103.242188 109.585938 C 103.855469 109.5625 104.476562 109.535156 105.085938 109.605469 C 108.417969 109.984375 107.453125 111.960938 109.363281 113.519531 C 110.484375 114.429688 112.339844 114.285156 113.621094 115.039062 C 115.046875 115.878906 115.132812 117.292969 116.152344 118.398438 C 116.835938 119.140625 117.890625 119.027344 118.652344 119.597656 C 119.765625 120.429688 120.609375 122.214844 121.5 123.34375 C 123.0625 123.644531 124.648438 123.886719 126.195312 124.273438 C 128.707031 124.898438 131.335938 126 133.964844 125.925781 C 136.207031 125.863281 144.800781 119.832031 147.292969 118.398438 C 150.121094 116.769531 154.851562 114.59375 158.085938 114.378906 C 158.570312 112.816406 159.324219 111.308594 159.878906 109.761719 C 158.460938 108.363281 156.910156 107.101562 155.496094 105.691406 C 153.992188 104.195312 152.574219 102.609375 151.070312 101.105469 C 149.464844 99.5 147.703125 97.921875 145.96875 96.453125 C 143.972656 94.769531 141.671875 93.503906 139.675781 91.828125 C 138.40625 90.761719 137.691406 89.175781 136.375 88.179688 C 134.980469 87.121094 133.070312 86.933594 131.621094 85.941406 C 130.644531 85.273438 129.8125 84.382812 128.957031 83.570312 C 127.871094 82.542969 126.75 81.558594 125.53125 80.691406 C 121.828125 78.066406 117.691406 76.148438 113.863281 73.730469 C 113.867188 73.863281 113.871094 73.996094 113.886719 74.132812 C 114.132812 76.757812 114.550781 80.320312 117 81.832031 C 117.839844 82.351562 118.855469 82.671875 119.519531 83.433594 C 120.699219 84.789062 120.359375 86.90625 121.621094 88.222656 C 122.492188 89.128906 123.859375 89.335938 124.890625 90.011719 C 126.148438 90.839844 126.894531 92.265625 128.25 92.953125 C 130 93.835938 132.03125 94.019531 133.886719 94.589844 C 135.945312 95.226562 137.777344 96.449219 139.664062 97.449219 C 140.6875 97.988281 141.894531 98.464844 142.800781 99.1875 C 144.4375 100.496094 144.210938 103.050781 145.644531 104.585938 C 147.152344 106.207031 149.734375 106.3125 151.453125 107.691406 C 152.5 108.53125 152.839844 109.84375 153.632812 110.878906 C 154.445312 111.929688 155.550781 112.773438 156.558594 113.625 C 154.691406 112.785156 153.464844 111.960938 152.304688 110.253906 C 151.78125 109.480469 151.277344 108.777344 150.515625 108.226562 C 148.800781 106.996094 146.464844 106.800781 144.964844 105.246094 C 143.824219 104.0625 143.636719 102.421875 142.886719 101.027344 C 142.652344 100.601562 142.34375 100.171875 141.964844 99.863281 C 140.449219 98.652344 135.03125 96.015625 133.097656 95.296875 C 132.011719 94.894531 130.859375 94.648438 129.746094 94.316406 C 128.003906 93.796875 127.136719 93.386719 125.878906 92.0625 C 125.429688 91.589844 124.992188 91.121094 124.4375 90.769531 C 123.425781 90.132812 122.136719 90.074219 121.238281 89.230469 C 119.929688 88.003906 120.128906 85.984375 119.101562 84.59375 C 117.644531 82.613281 115.371094 82.410156 114.25 79.890625 C 113.136719 77.386719 113.660156 73.980469 111.851562 71.835938 C 110.359375 70.0625 108.320312 68.824219 106.644531 67.234375 C 105.550781 66.195312 104.769531 64.761719 103.546875 63.875 C 102.414062 63.054688 100.890625 62.925781 99.828125 61.980469 C 98.726562 60.996094 98.363281 59.488281 97.207031 58.554688 C 95.863281 57.46875 93.464844 57.621094 92.496094 56.121094 C 91.871094 55.160156 92.050781 53.773438 91.683594 52.691406 C 91.046875 50.808594 89.84375 49.167969 89.160156 47.304688 C 88.625 45.84375 88.355469 44.324219 87.964844 42.824219 C 87.539062 41.214844 86.867188 39.457031 86.066406 37.996094 L 86.007812 37.898438 C 85.4375 38.570312 85.003906 39.386719 84.460938 40.09375 C 83.628906 41.183594 82.699219 42.199219 81.886719 43.308594 C 80.753906 44.863281 80.339844 45.847656 80.65625 47.78125 C 80.796875 48.660156 81.027344 49.527344 81.246094 50.390625 C 81.832031 52.722656 82.535156 55 84.84375 56.164062 C 85.722656 56.605469 86.796875 56.882812 87.496094 57.601562 C 88.3125 58.433594 88.046875 59.6875 88.691406 60.578125 C 89.449219 61.625 90.875 61.320312 91.851562 61.988281 C 92.523438 62.445312 92.644531 63.371094 93.304688 63.808594 C 93.976562 64.257812 95.042969 63.960938 95.773438 63.824219 Z M 63.992188 73.433594 C 63.257812 74.40625 62.402344 75.265625 61.703125 76.273438 C 60.410156 78.125 59.445312 80.21875 57.816406 81.816406 C 55.644531 83.941406 52.863281 85.371094 50.878906 87.691406 C 49.476562 89.328125 49.53125 91.628906 48.214844 93.285156 C 47.285156 94.453125 46.011719 95.300781 45.03125 96.421875 C 44.140625 97.441406 43.589844 98.761719 42.582031 99.671875 C 41.609375 100.546875 40.3125 100.96875 39.410156 101.921875 C 38.046875 103.355469 37.28125 105.265625 35.96875 106.742188 C 34.699219 108.167969 32.835938 108.933594 31.457031 110.246094 C 30.101562 111.53125 29.152344 113.179688 27.804688 114.488281 C 28.339844 115.15625 29.386719 116.183594 29.316406 117.074219 C 29.117188 117.285156 28.886719 117.25 28.605469 117.257812 C 28.777344 118.070312 30.371094 118.679688 30.113281 119.652344 C 29.910156 119.828125 29.734375 119.867188 29.476562 119.839844 C 29.136719 119.804688 28.835938 119.632812 28.535156 119.484375 C 28.511719 119.472656 28.488281 119.460938 28.460938 119.449219 C 29.363281 120.457031 30.203125 121.335938 31.371094 122.035156 C 31.890625 121.828125 32.410156 121.625 32.933594 121.433594 C 32.480469 121.347656 31.832031 121.308594 31.527344 120.925781 C 31.386719 120.753906 31.363281 120.570312 31.40625 120.359375 C 31.414062 120.332031 31.421875 120.304688 31.433594 120.277344 C 31.652344 119.691406 32.285156 119.214844 32.746094 118.8125 C 33.851562 117.847656 34.941406 117.03125 35.507812 115.621094 C 35.785156 114.933594 36 114.234375 36.371094 113.589844 C 36.460938 113.4375 36.554688 113.246094 36.714844 113.164062 C 36.78125 113.128906 36.792969 113.132812 36.859375 113.171875 C 37.367188 113.484375 38.078125 116.082031 38.519531 116.792969 C 39.085938 117.703125 39.972656 118.378906 40.761719 119.082031 C 41.234375 118.773438 41.742188 118.46875 42.15625 118.078125 C 43.539062 116.769531 43.753906 114.542969 44.207031 112.777344 C 44.285156 112.464844 44.402344 111.976562 44.757812 111.917969 C 45.515625 112.707031 45.738281 115.054688 46.484375 116.199219 C 47.378906 117.570312 48.953125 118.269531 50.046875 119.460938 C 49 119.371094 48.121094 119.089844 47.167969 118.648438 C 48.242188 119.972656 49.625 121.464844 50.328125 123.03125 C 49.027344 123.164062 48.128906 122.835938 47.113281 122.023438 C 46.65625 121.65625 45.359375 120.589844 45.257812 120.027344 C 45.671875 119.949219 46.128906 120.058594 46.539062 120.128906 C 47.21875 120.695312 47.851562 121.316406 48.550781 121.855469 C 48.539062 121.835938 48.527344 121.8125 48.511719 121.789062 C 47.984375 120.9375 47.082031 120.378906 46.542969 119.507812 C 45.707031 118.164062 45.40625 116.480469 44.707031 115.054688 C 44.179688 117.394531 43.574219 118.335938 41.863281 119.957031 C 43.003906 120.242188 43.960938 120.152344 45.109375 119.992188 C 44.277344 120.738281 43.675781 121.691406 42.867188 122.421875 C 42.488281 122.765625 41.925781 122.867188 41.601562 123.277344 C 41.628906 123.492188 41.652344 123.46875 41.792969 123.617188 C 42.496094 123.683594 43.289062 123.425781 44 123.382812 C 45.007812 123.324219 48.703125 123.644531 49.464844 124.121094 L 49.589844 124.324219 C 49.542969 124.535156 49.480469 124.644531 49.289062 124.765625 C 49.132812 124.867188 48.945312 124.945312 48.773438 125.023438 L 48.878906 125.09375 C 49.265625 125.347656 49.828125 125.742188 49.984375 126.195312 C 50.011719 126.277344 50.003906 126.324219 50 126.402344 C 49.820312 126.597656 49.664062 126.667969 49.398438 126.6875 C 49.082031 126.714844 48.765625 126.667969 48.453125 126.621094 C 49.011719 127.019531 49.554688 127.402344 50.199219 127.652344 C 51.316406 126.59375 51.933594 125.171875 53.058594 124.132812 C 52.421875 124.410156 51.414062 124.816406 50.714844 124.601562 C 50.628906 124.578125 50.589844 124.542969 50.523438 124.496094 C 50.484375 124.289062 50.507812 124.175781 50.632812 123.996094 C 50.921875 123.589844 53.496094 122.535156 54.113281 122.167969 C 54.53125 121.917969 54.914062 121.605469 55.304688 121.316406 C 55.699219 121.019531 56.554688 120.207031 56.992188 120.179688 C 57.046875 120.175781 57.105469 120.183594 57.160156 120.1875 C 57.222656 120.339844 57.246094 120.378906 57.179688 120.542969 C 56.648438 121.851562 54.160156 123.136719 53.132812 124.121094 C 54.253906 123.507812 55.28125 122.933594 56.542969 122.652344 C 55.644531 124.148438 54.011719 125.007812 52.796875 126.222656 L 52.429688 126.589844 C 54.742188 125.75 57.046875 125.03125 59.394531 124.320312 C 58.511719 123.746094 57.707031 123.140625 56.945312 122.414062 C 58.597656 122.777344 60.09375 123.355469 61.648438 124 C 61.890625 123.675781 62.117188 123.367188 62.296875 123.003906 C 62.121094 123 62.222656 122.988281 62.019531 123.058594 C 61.636719 123.195312 61.242188 123.167969 60.875 122.996094 C 59.949219 122.566406 59.300781 121.449219 58.839844 120.578125 C 60.050781 121.257812 61.386719 121.71875 62.472656 122.601562 C 63.039062 121.816406 63.644531 121.0625 64.292969 120.347656 C 65.007812 119.558594 66.804688 118.152344 67.121094 117.226562 L 67.058594 117.078125 C 66.054688 116.777344 64.226562 118.695312 63.4375 117.6875 C 63.5625 117.398438 63.878906 117.160156 64.113281 116.953125 C 64.679688 116.453125 65.316406 116.019531 65.902344 115.542969 C 66.765625 114.824219 67.589844 114.066406 68.375 113.269531 C 67.359375 113.378906 64.578125 114.027344 63.851562 113.851562 C 63.84375 113.589844 64.039062 113.410156 64.210938 113.226562 C 65.429688 111.9375 67.789062 110.792969 68.503906 109.15625 C 68.726562 108.652344 68.945312 108.128906 69.097656 107.601562 C 69.265625 107.035156 69.496094 104.832031 70.011719 104.695312 C 70.554688 105.179688 71.054688 108.054688 71.75 109.113281 C 72.832031 110.765625 74.851562 111.714844 75.917969 113.363281 C 75.886719 113.503906 75.917969 113.496094 75.808594 113.570312 C 75.171875 114.007812 73.445312 113.8125 72.6875 113.738281 C 73.5625 114.460938 76.96875 116.832031 77.140625 117.707031 C 76.539062 118.132812 74.070312 117.632812 73.253906 117.582031 C 73.925781 117.980469 77.207031 120.074219 77.382812 120.628906 C 77.007812 121.152344 75.941406 121.507812 75.347656 121.722656 C 76.308594 122.300781 79.035156 123.921875 79.46875 124.800781 L 79.429688 124.949219 C 79.152344 125.070312 78.910156 125.003906 78.640625 124.902344 C 76.613281 124.125 71.210938 120.660156 69.730469 119.007812 L 69.679688 118.953125 C 71.839844 120.167969 72.964844 120.921875 75.519531 120.714844 C 74.03125 119.242188 72.457031 118.042969 71.265625 116.285156 C 72.429688 116.546875 73.59375 116.808594 74.769531 117.019531 C 73.164062 115.714844 71.949219 114.339844 70.835938 112.601562 C 71.757812 112.617188 72.714844 112.644531 73.628906 112.785156 C 72.203125 111.277344 71.066406 109.738281 69.941406 108 C 69.179688 109.9375 68.347656 111.296875 66.722656 112.628906 C 67.75 112.441406 68.894531 112.339844 69.9375 112.382812 C 69.3125 114.109375 68.125 115.289062 66.691406 116.386719 C 67.511719 116.289062 68.335938 116.164062 69.164062 116.167969 C 68.554688 117.105469 67.878906 118.070312 67.140625 118.910156 C 66.578125 119.542969 65.945312 120.117188 65.394531 120.757812 C 64.671875 121.605469 64.042969 122.542969 63.332031 123.402344 L 63.382812 123.457031 C 63.949219 123.1875 64.335938 122.664062 64.773438 122.230469 C 65.855469 121.152344 67.671875 120.660156 69.148438 120.523438 C 68.828125 120.796875 68.511719 121.085938 68.160156 121.328125 C 67.160156 121.9375 66.035156 122.480469 65.148438 123.25 C 67.019531 123.066406 68.972656 122.933594 70.839844 123.207031 C 74.113281 123.691406 77.1875 125.117188 80.476562 125.644531 C 81.476562 124.542969 82.734375 123.691406 83.65625 122.527344 C 82.816406 122.738281 80.757812 123.425781 80 123.1875 C 79.910156 123.058594 79.890625 123.082031 79.90625 122.949219 C 80.039062 121.988281 82.714844 120.148438 83.449219 119.214844 C 84.03125 118.464844 84.398438 117.574219 84.75 116.699219 C 83.988281 116.960938 81.667969 117.933594 80.9375 117.71875 C 80.875 117.496094 80.917969 117.390625 81.03125 117.1875 C 81.941406 115.570312 83.71875 114.550781 84.746094 113.003906 C 85.753906 111.480469 85.953125 109.503906 86.851562 108.28125 C 87.992188 109.320312 88.261719 111.15625 89.257812 112.398438 C 90.371094 113.785156 92.429688 115.007812 93.199219 116.5625 L 93.199219 116.734375 C 92.703125 116.996094 90.714844 116.542969 90.0625 116.445312 C 90.800781 117.054688 91.527344 117.65625 92.347656 118.152344 C 92.980469 118.539062 95.785156 119.660156 96.066406 120.167969 C 95.921875 120.292969 95.667969 120.253906 95.480469 120.242188 C 94.003906 120.128906 92.597656 119.855469 91.113281 119.984375 C 91.90625 120.589844 92.703125 121.199219 93.53125 121.75 C 94.3125 122.273438 95.242188 122.730469 95.902344 123.402344 C 95.921875 123.421875 95.941406 123.441406 95.960938 123.460938 C 95.09375 123.707031 94.199219 123.84375 93.3125 124 C 94.542969 124.683594 95.683594 125.273438 97.132812 124.851562 C 97.628906 124.707031 98.117188 124.464844 98.570312 124.214844 C 98.332031 124.042969 98.097656 123.910156 97.976562 123.632812 C 98.027344 123.449219 98.035156 123.433594 98.214844 123.339844 C 98.777344 123.050781 99.8125 123.019531 100.105469 122.402344 C 99.496094 121.898438 98.3125 122.457031 97.730469 121.867188 C 97.777344 121.667969 97.804688 121.597656 97.957031 121.445312 C 98.785156 120.605469 99.742188 120.152344 100.429688 119.121094 C 101.019531 118.234375 101.582031 115.808594 102.113281 115.453125 C 102.347656 115.464844 102.425781 115.527344 102.574219 115.707031 C 103.1875 116.449219 103.160156 117.722656 103.671875 118.558594 C 104.347656 119.652344 105.445312 120.3125 106.273438 121.261719 C 105.894531 121.484375 105.527344 121.695312 105.121094 121.867188 C 105.894531 122.40625 107.261719 123.105469 107.722656 123.933594 L 107.6875 124.082031 C 107.191406 124.308594 106.328125 123.992188 105.832031 123.804688 C 105.5 123.679688 105.171875 123.542969 104.84375 123.398438 C 105.421875 123.824219 107.417969 125.035156 107.515625 125.742188 C 107.53125 125.875 107.460938 125.910156 107.386719 126.007812 C 106.445312 126.441406 104.707031 126.183594 103.679688 126.039062 C 104.746094 126.464844 105.800781 126.933594 106.890625 127.304688 C 107.902344 126.800781 109.058594 126.464844 110.121094 126.070312 C 113.328125 124.894531 116.667969 123.554688 120.132812 123.441406 C 119.519531 122.574219 118.917969 121.367188 118.070312 120.714844 C 117.265625 120.097656 116.191406 119.96875 115.464844 119.222656 C 114.441406 118.167969 114.222656 116.703125 112.8125 115.917969 C 111.503906 115.1875 109.804688 115.433594 108.597656 114.5 C 107.125 113.359375 107.660156 111.394531 105.367188 110.945312 C 105.261719 110.925781 105.160156 110.910156 105.054688 110.898438 C 104.164062 110.792969 103.3125 110.894531 102.460938 110.539062 C 99.585938 109.34375 97.125 103.503906 93.714844 101.65625 C 93.089844 101.316406 92.398438 101.0625 91.707031 100.898438 C 90.246094 100.554688 88.257812 100.566406 87.292969 99.246094 C 86.484375 98.140625 86.21875 97.144531 84.683594 96.882812 C 82.773438 96.558594 81.449219 97.324219 80.050781 95.441406 C 79.417969 94.59375 78.996094 93.570312 78.1875 92.855469 C 77.386719 92.144531 76.300781 91.828125 75.546875 91.050781 C 74.90625 90.386719 74.617188 89.464844 74.003906 88.78125 C 73.285156 87.976562 72.234375 87.582031 71.429688 86.882812 C 70.445312 86.03125 69.6875 84.941406 68.703125 84.082031 C 68.644531 84.035156 68.589844 83.984375 68.53125 83.933594 C 68.433594 85.792969 68.132812 87.644531 69.472656 89.171875 C 70.097656 89.882812 70.855469 90.476562 71.347656 91.300781 C 72.417969 93.085938 72.136719 96.226562 73 97.492188 C 73.769531 98.628906 75.628906 98.019531 76.648438 98.796875 C 77.429688 99.386719 77.335938 100.484375 77.996094 101.164062 C 78.824219 102.027344 80.25 101.882812 81.207031 102.617188 C 82.210938 103.382812 82.480469 104.605469 83.289062 105.480469 C 83.71875 105.949219 84.324219 106.300781 84.828125 106.679688 C 85.070312 106.863281 85.269531 107.03125 85.359375 107.332031 C 85.222656 107.480469 85.09375 107.492188 84.894531 107.5 C 84.226562 107.523438 83.566406 106.941406 83.132812 106.492188 C 82.238281 105.5625 81.859375 104.109375 80.867188 103.339844 C 79.820312 102.527344 78.316406 102.839844 77.332031 101.941406 C 76.539062 101.21875 76.726562 99.898438 75.75 99.269531 C 74.828125 98.675781 73.300781 99.199219 72.503906 98.390625 C 71.234375 97.101562 71.539062 94.429688 70.964844 92.785156 C 70.121094 90.359375 67.539062 89.875 67.621094 86.820312 C 67.640625 86.070312 67.957031 84.1875 67.421875 83.601562 C 67.007812 83.765625 66.621094 84.1875 66.304688 84.488281 C 65.417969 85.335938 64.59375 86.25 63.90625 87.265625 C 63.066406 88.507812 62.398438 89.835938 61.335938 90.914062 C 59.691406 92.582031 57.410156 93.664062 56.421875 95.90625 C 55.886719 97.125 55.816406 98.546875 55.101562 99.6875 C 54.441406 100.746094 53.316406 101.367188 52.539062 102.320312 C 51.941406 103.058594 51.730469 104.066406 51.015625 104.671875 C 50.246094 105.328125 49.226562 105.539062 48.5 106.261719 C 47.96875 106.785156 47.578125 107.429688 47.164062 108.042969 C 46.167969 109.527344 44.929688 110.566406 43.261719 111.226562 C 42.832031 111.394531 42.347656 111.546875 41.882812 111.5 L 41.800781 111.382812 C 42.285156 110.414062 44.230469 109.753906 45.125 109.125 C 46.542969 108.125 46.917969 106.535156 48.09375 105.386719 C 48.816406 104.679688 49.945312 104.542969 50.625 103.796875 C 51.210938 103.15625 51.265625 102.210938 51.84375 101.558594 C 52.871094 100.402344 54.054688 100.210938 54.730469 98.609375 C 55.328125 97.195312 55.300781 95.5625 56.144531 94.25 C 57.234375 92.550781 59.246094 91.550781 60.59375 90.058594 C 63.03125 87.351562 63.652344 84.996094 66.753906 82.511719 C 65.191406 80.421875 64.496094 78.441406 64.238281 75.84375 C 64.160156 75.054688 64.175781 74.203125 63.992188 73.433594 Z M 60.617188 134.609375 C 49.671875 135.410156 40.0625 140.207031 29.640625 143.074219 L 29.722656 143.136719 C 30.972656 144.082031 32.113281 145.183594 33.339844 146.164062 C 35.792969 148.117188 38.417969 149.957031 41.070312 151.632812 C 42.988281 152.84375 44.984375 153.914062 47.003906 154.953125 C 47.441406 155.1875 47.882812 155.414062 48.328125 155.636719 C 48.769531 155.859375 49.214844 156.078125 49.664062 156.292969 C 50.113281 156.507812 50.5625 156.71875 51.011719 156.925781 C 51.464844 157.132812 51.917969 157.335938 52.375 157.53125 C 52.832031 157.730469 53.289062 157.921875 53.746094 158.113281 C 54.207031 158.300781 54.667969 158.484375 55.128906 158.664062 C 55.59375 158.847656 56.058594 159.019531 56.523438 159.191406 C 56.988281 159.363281 57.457031 159.53125 57.925781 159.691406 C 58.398438 159.855469 58.867188 160.011719 59.339844 160.167969 C 59.8125 160.320312 60.285156 160.46875 60.761719 160.613281 C 61.238281 160.757812 61.714844 160.898438 62.191406 161.035156 C 62.667969 161.167969 63.148438 161.300781 63.628906 161.425781 C 64.109375 161.550781 64.589844 161.671875 65.074219 161.789062 C 65.554688 161.90625 66.039062 162.019531 66.523438 162.125 C 67.007812 162.234375 67.496094 162.339844 67.980469 162.4375 C 68.46875 162.535156 68.957031 162.628906 69.445312 162.71875 C 69.933594 162.808594 70.421875 162.890625 70.914062 162.972656 C 71.402344 163.050781 71.894531 163.125 72.386719 163.195312 C 72.878906 163.265625 73.371094 163.332031 73.863281 163.394531 C 74.355469 163.457031 74.851562 163.511719 75.34375 163.5625 C 75.839844 163.613281 76.332031 163.660156 76.828125 163.703125 C 77.320312 163.746094 77.816406 163.785156 78.3125 163.816406 C 78.808594 163.847656 79.304688 163.878906 79.800781 163.902344 C 80.296875 163.925781 80.792969 163.941406 81.289062 163.957031 C 81.785156 163.96875 82.28125 163.980469 82.78125 163.984375 C 83.277344 163.988281 83.773438 163.988281 84.269531 163.984375 C 84.765625 163.976562 85.261719 163.96875 85.757812 163.953125 C 86.253906 163.9375 86.75 163.917969 87.246094 163.894531 C 87.742188 163.871094 88.238281 163.84375 88.734375 163.808594 C 89.230469 163.777344 89.726562 163.738281 90.222656 163.695312 C 90.714844 163.652344 91.210938 163.605469 91.703125 163.550781 C 92.199219 163.5 92.691406 163.441406 93.183594 163.382812 C 93.875 163.289062 94.566406 163.1875 95.253906 163.078125 C 95.941406 162.96875 96.628906 162.847656 97.316406 162.722656 C 98 162.59375 98.683594 162.460938 99.367188 162.316406 C 100.050781 162.171875 100.730469 162.023438 101.410156 161.863281 C 102.085938 161.703125 102.765625 161.535156 103.4375 161.355469 C 104.113281 161.179688 104.785156 160.996094 105.457031 160.804688 C 106.125 160.609375 106.792969 160.410156 107.457031 160.199219 C 108.125 159.992188 108.785156 159.773438 109.445312 159.546875 C 110.105469 159.324219 110.761719 159.089844 111.417969 158.847656 C 112.070312 158.605469 112.722656 158.359375 113.371094 158.101562 C 114.019531 157.84375 114.664062 157.578125 115.304688 157.304688 C 115.945312 157.03125 116.585938 156.753906 117.21875 156.464844 C 117.855469 156.175781 118.484375 155.878906 119.113281 155.574219 C 119.742188 155.269531 120.363281 154.960938 120.984375 154.640625 C 121.605469 154.320312 122.21875 153.996094 122.832031 153.660156 C 123.445312 153.328125 124.050781 152.984375 124.65625 152.636719 C 126.832031 151.359375 129.050781 149.984375 130.984375 148.355469 C 122.285156 148.492188 113.691406 149.964844 105.707031 153.535156 C 103.441406 154.546875 101.238281 156.113281 99.042969 157 C 100.929688 155.648438 102.863281 154.28125 104.925781 153.203125 C 110.84375 150.09375 118.476562 148.386719 125.105469 147.871094 C 127.507812 147.683594 129.894531 147.714844 132.292969 147.597656 C 135.023438 145.601562 137.742188 143.316406 140.082031 140.867188 C 139.671875 140.882812 139.292969 140.832031 138.890625 140.773438 C 133.664062 140.621094 128.503906 140.375 123.273438 140.664062 C 103.519531 141.761719 85.140625 148.296875 68.214844 158.320312 C 67.441406 158.78125 66.128906 159.84375 65.183594 159.503906 L 65.09375 159.382812 C 65.203125 158.785156 65.882812 158.351562 66.351562 158.023438 C 67.691406 157.089844 69.1875 156.34375 70.613281 155.550781 C 73.46875 153.945312 76.375 152.433594 79.335938 151.023438 C 81.523438 150.007812 83.886719 149.136719 85.929688 147.859375 C 83.578125 147.394531 81.269531 146.808594 78.894531 146.472656 C 66.824219 144.761719 58.414062 147.257812 47.480469 151.945312 C 49.664062 150.613281 51.992188 149.628906 54.363281 148.691406 C 64.527344 144.667969 74.800781 143.871094 85.449219 146.496094 C 86.210938 146.683594 86.953125 146.921875 87.679688 147.214844 C 90.25 146.152344 93.03125 145.109375 95.75 144.507812 C 94.339844 143.707031 92.867188 143.007812 91.402344 142.304688 C 90.476562 141.859375 89.542969 141.433594 88.597656 141.023438 C 87.65625 140.613281 86.707031 140.21875 85.75 139.847656 C 84.792969 139.472656 83.828125 139.117188 82.855469 138.78125 C 81.886719 138.445312 80.910156 138.128906 79.925781 137.828125 C 78.941406 137.53125 77.953125 137.25 76.957031 136.992188 C 75.964844 136.730469 74.964844 136.488281 73.960938 136.265625 C 72.957031 136.046875 71.953125 135.84375 70.941406 135.660156 C 69.929688 135.476562 68.914062 135.3125 67.898438 135.167969 C 65.476562 134.8125 63.074219 134.453125 60.617188 134.609375 Z M 157.171875 116.128906 C 148.25 117.433594 140.632812 125.636719 131.902344 128.53125 C 129.023438 129.484375 126.101562 129.96875 123.070312 130.09375 C 121.097656 130.175781 119.128906 130.140625 117.160156 130.332031 C 114.039062 130.636719 110.933594 131.371094 107.886719 132.085938 C 100.792969 133.753906 93.847656 135.71875 87.421875 139.238281 C 90.894531 140.722656 94.226562 142.109375 97.445312 144.105469 C 98.957031 143.613281 100.496094 143.234375 102.03125 142.84375 C 102.96875 142.605469 103.917969 142.316406 104.867188 142.132812 C 115.164062 139.363281 125.945312 138.996094 136.539062 139.542969 C 138.117188 139.621094 139.71875 139.660156 141.296875 139.792969 C 143.636719 137.289062 145.992188 134.851562 148.058594 132.105469 C 149.375 130.355469 150.46875 128.449219 151.78125 126.707031 C 147.304688 128.210938 142.90625 129.875 138.867188 132.347656 C 139.316406 131.828125 139.785156 131.519531 140.332031 131.121094 C 143.914062 128.496094 148.140625 126.957031 152.363281 125.683594 C 153.277344 124.105469 157.160156 117.578125 157.242188 116.175781 Z M 86.261719 19.621094 C 86.148438 20.796875 86.164062 21.882812 86.625 22.984375 C 87.84375 25.890625 90.347656 28.113281 91.855469 30.867188 C 93.152344 33.242188 93.746094 36.933594 95.34375 38.886719 C 96.441406 40.230469 98.421875 40.558594 99.339844 42.074219 C 100.089844 43.320312 100.351562 44.945312 100.785156 46.320312 C 101.324219 48.03125 101.996094 49.753906 102.378906 51.507812 C 102.597656 52.511719 102.558594 53.558594 102.875 54.546875 C 103.425781 56.253906 104.921875 57.503906 105.648438 59.136719 C 106.054688 60.046875 106.28125 61.046875 106.65625 61.976562 C 107.074219 63.015625 107.644531 63.996094 108.050781 65.039062 C 108.410156 65.96875 108.585938 67.199219 109.238281 67.964844 C 109.96875 68.816406 110.949219 69.421875 111.792969 70.148438 C 112.914062 71.105469 113.910156 72.179688 115.128906 73.023438 C 116.5625 74.019531 118.191406 74.785156 119.726562 75.609375 C 121.539062 76.570312 123.296875 77.625 124.996094 78.769531 C 126.351562 79.679688 127.675781 80.621094 128.878906 81.722656 C 129.941406 82.691406 130.917969 83.816406 132.074219 84.667969 C 133.613281 85.792969 135.605469 86.003906 137.152344 87.101562 C 138.425781 88.011719 139.027344 89.5625 140.203125 90.589844 C 141.546875 91.761719 143.121094 92.652344 144.558594 93.699219 C 145.835938 94.644531 147.070312 95.640625 148.265625 96.6875 C 149.457031 97.738281 150.605469 98.835938 151.703125 99.980469 C 150.816406 96.058594 148.007812 94.921875 145.839844 91.976562 C 144.359375 89.960938 143.707031 87.5 142.378906 85.390625 C 141.128906 83.410156 139.515625 81.710938 138.027344 79.910156 C 136.308594 77.832031 134.683594 75.691406 132.855469 73.703125 C 131.207031 71.914062 129.382812 70.171875 127.5 68.632812 C 125.578125 67.066406 123.5625 65.632812 121.875 63.808594 C 121.175781 63.050781 120.535156 62.25 119.953125 61.40625 C 118.976562 59.992188 118.148438 58.097656 116.660156 57.167969 C 115.027344 56.144531 113.023438 55.804688 111.433594 54.695312 C 109.976562 53.679688 109.78125 51.765625 108.617188 50.519531 C 107.25 49.058594 105.230469 49.714844 104.652344 47.238281 C 104.472656 46.476562 104.453125 45.667969 104.199219 44.925781 C 103.566406 43.066406 101.609375 42.433594 100.695312 40.816406 C 100.207031 39.949219 99.855469 39.007812 99.433594 38.109375 C 98.992188 37.171875 98.476562 36.257812 98.101562 35.292969 C 97.578125 33.941406 97.214844 32.480469 96.511719 31.207031 C 95.632812 29.609375 93.984375 28.527344 92.808594 27.167969 C 91.808594 26.007812 90.976562 24.710938 90.046875 23.492188 C 88.984375 22.101562 87.636719 20.703125 86.261719 19.621094 Z M 37.582031 59.699219 C 36.917969 62.347656 34.785156 64.066406 33.546875 66.390625 C 32.546875 68.261719 32.792969 70.40625 31.964844 72.292969 C 31.292969 73.8125 29.695312 74.65625 29.144531 76.230469 C 28.859375 77.046875 28.925781 78.03125 28.921875 78.882812 C 28.9375 79.402344 28.917969 79.929688 28.769531 80.429688 C 28.769531 80.515625 28.773438 80.527344 28.757812 80.621094 C 28.585938 81.867188 27.851562 83.199219 27.386719 84.363281 C 26.726562 86 26.140625 87.734375 25.300781 89.289062 C 25.019531 89.8125 24.667969 90.390625 24.195312 90.765625 C 22.804688 91.867188 21.03125 92.273438 19.914062 93.757812 C 19.027344 94.9375 18.828125 97.390625 17.785156 98.078125 C 17.027344 98.574219 16.050781 98.320312 15.230469 98.15625 C 13.578125 99.253906 12.46875 100.96875 11.023438 102.300781 C 9.429688 103.769531 7.578125 104.957031 6.136719 106.597656 C 6.054688 107.683594 7.96875 112.28125 8.546875 113.492188 C 10.964844 110.65625 13.53125 108.640625 16.171875 106.09375 C 18.355469 103.980469 20.378906 101.625 22.726562 99.699219 C 24.558594 98.195312 27.261719 96.847656 28.800781 95.332031 C 29.828125 94.320312 30.269531 92.839844 31.167969 91.726562 C 32.019531 90.675781 33.265625 90.003906 34.070312 88.910156 C 34.8125 87.902344 35.132812 86.65625 36.058594 85.769531 C 36.960938 84.910156 38.167969 84.734375 39.234375 84.167969 C 39.257812 84.15625 39.285156 84.140625 39.3125 84.125 C 40.007812 82.242188 41.328125 80.855469 42.171875 79.082031 C 42.640625 78.085938 42.777344 77.089844 42.972656 76.023438 C 43.261719 74.441406 44.183594 73.28125 45.160156 72.054688 C 43.46875 69.996094 41.722656 67.714844 40.398438 65.398438 C 39.355469 63.570312 38.5 61.597656 37.582031 59.699219 Z M 36.292969 60.65625 C 33.871094 62.449219 31.8125 64.554688 29.523438 66.496094 C 27.957031 67.824219 26.277344 69.003906 24.695312 70.308594 C 23.953125 70.929688 23.238281 71.582031 22.550781 72.261719 C 21.863281 72.941406 21.207031 73.648438 20.578125 74.382812 C 19.535156 75.582031 18.609375 76.886719 17.613281 78.125 C 16.636719 79.34375 15.550781 80.46875 14.710938 81.792969 C 13.871094 83.117188 13.484375 84.769531 12.480469 85.976562 C 11.257812 87.453125 9.1875 87.894531 7.886719 89.367188 C 6.15625 91.324219 5.972656 92.710938 3.558594 94.394531 L 3.628906 94.40625 L 3.472656 94.453125 C 3.550781 96.742188 4.097656 99.113281 4.625 101.335938 C 4.804688 102.085938 5.105469 102.917969 5.210938 103.675781 C 5.371094 104.210938 5.503906 104.800781 5.753906 105.300781 C 5.855469 105.191406 5.953125 105.074219 6.0625 104.96875 L 6.089844 105.03125 C 7.394531 103.882812 8.859375 102.933594 10.148438 101.785156 C 11.625 100.464844 13.304688 97.210938 15.566406 97.339844 C 16 97.363281 16.8125 97.566406 17.171875 97.308594 C 18.019531 96.707031 18.316406 94.300781 19.050781 93.3125 C 20.308594 91.625 22.332031 91.226562 23.78125 89.855469 C 24.125 89.53125 24.386719 89.164062 24.601562 88.746094 C 25.261719 87.460938 25.660156 86.03125 26.191406 84.691406 C 26.695312 83.429688 27.351562 82.195312 27.746094 80.902344 C 27.910156 80.363281 27.988281 79.816406 28.007812 79.257812 C 28.042969 78.085938 27.917969 76.84375 28.320312 75.722656 C 28.855469 74.222656 30.410156 73.34375 31.132812 71.910156 C 31.488281 71.199219 31.632812 70.445312 31.757812 69.664062 C 32.171875 67.085938 32.4375 66.15625 34.042969 64.039062 C 34.539062 63.382812 36.222656 61.355469 36.292969 60.65625 Z M 47.816406 90.570312 C 43.714844 92.351562 38.8125 93.367188 34.523438 94.875 C 29.636719 96.59375 25.265625 98.785156 21.523438 102.4375 C 20.261719 103.667969 19.144531 105.050781 17.859375 106.261719 C 16.304688 107.730469 14.558594 108.984375 13.011719 110.453125 C 11.570312 111.824219 10.355469 113.382812 9.035156 114.859375 C 9.636719 115.964844 10.199219 117.085938 10.726562 118.226562 C 11.3125 117.011719 12.605469 116.019531 13.507812 115.03125 C 13.785156 114.726562 14.042969 114.40625 14.277344 114.066406 C 14.515625 113.730469 14.734375 113.378906 14.925781 113.015625 L 14.964844 112.925781 C 15.308594 112.113281 15.636719 110.363281 16.445312 109.917969 C 16.671875 109.980469 16.726562 110.0625 16.835938 110.269531 C 17.113281 110.800781 17.269531 111.414062 17.472656 111.972656 C 17.882812 113.109375 18.722656 114.109375 19.691406 114.824219 C 20.636719 113.847656 21.582031 112.828125 22.214844 111.609375 C 22.742188 110.597656 23.082031 108.933594 23.496094 108.210938 C 23.59375 108.042969 23.691406 108.003906 23.855469 107.917969 C 24.035156 107.949219 24.121094 108.097656 24.21875 108.242188 C 24.679688 108.925781 24.886719 109.804688 25.207031 110.558594 C 25.683594 111.675781 26.367188 112.679688 27.089844 113.648438 C 28.472656 112.242188 29.484375 110.503906 30.894531 109.144531 C 32.324219 107.765625 34.113281 106.875 35.460938 105.378906 C 36.621094 104.089844 37.289062 102.4375 38.484375 101.175781 C 39.429688 100.171875 40.753906 99.6875 41.765625 98.769531 C 42.726562 97.898438 43.195312 96.722656 44.007812 95.75 C 45.121094 94.421875 48.101562 92.695312 48.058594 90.796875 C 48.054688 90.699219 48.046875 90.6875 48.023438 90.605469 Z M 66.808594 124.449219 C 63.339844 124.796875 59.957031 125.273438 56.636719 126.371094 C 52.867188 127.621094 49.253906 129.273438 45.585938 130.777344 C 44.015625 131.421875 42.34375 132.257812 40.691406 132.628906 C 39.757812 132.839844 38.847656 132.8125 37.894531 132.78125 C 39.699219 133.785156 41.550781 134.460938 43.523438 135.042969 C 44.625 135.367188 45.851562 135.621094 46.882812 136.125 C 50.070312 135.171875 53.242188 134.28125 56.542969 133.820312 C 62.769531 132.804688 67.203125 133.894531 73.238281 135 L 82.949219 129.167969 C 84.011719 128.539062 85.050781 127.839844 86.136719 127.25 C 83.566406 127.351562 81.046875 127.070312 78.546875 126.464844 C 74.152344 125.410156 71.5625 124.097656 66.808594 124.449219 Z M 69.425781 64.058594 C 69.394531 64.078125 69.363281 64.09375 69.332031 64.113281 C 67.390625 65.28125 65.746094 66.867188 63.757812 68.003906 C 61.542969 69.273438 58.878906 69.683594 56.5625 70.800781 C 54.765625 71.667969 53.175781 72.882812 51.460938 73.890625 C 49.128906 75.265625 46.589844 76.335938 44.046875 77.253906 C 43.808594 78.121094 43.558594 78.992188 43.214844 79.828125 C 46.710938 79.195312 49.65625 77.402344 52.726562 75.738281 C 54.367188 74.84375 56.035156 74 57.722656 73.207031 C 58.824219 72.683594 60 72.019531 61.179688 71.730469 C 60.820312 72.144531 60.449219 72.453125 59.984375 72.746094 C 58.117188 73.941406 56.023438 74.90625 54.070312 75.972656 C 51.777344 77.222656 49.539062 78.632812 47.125 79.648438 C 45.703125 80.25 44.128906 80.640625 42.613281 80.949219 C 42.316406 81.441406 40.964844 83.410156 40.902344 83.839844 C 42.839844 83.828125 47.3125 81.695312 49.261719 80.957031 C 50.902344 80.332031 52.585938 79.792969 54.207031 79.121094 C 54.546875 78.984375 56.535156 77.984375 56.699219 78.011719 C 56.746094 78.023438 56.789062 78.054688 56.832031 78.078125 C 56.847656 78.414062 56.683594 78.683594 56.449219 78.925781 C 55.421875 79.988281 51.914062 80.855469 50.429688 81.394531 C 49.480469 81.742188 48.550781 82.132812 47.621094 82.539062 C 46.164062 83.183594 44.652344 83.914062 43.117188 84.367188 C 41.101562 84.960938 38.257812 85.070312 36.730469 86.675781 C 36.324219 87.101562 36.042969 87.652344 35.769531 88.164062 C 35.539062 88.589844 35.273438 89.035156 35.101562 89.484375 C 35.09375 89.503906 35.09375 89.527344 35.085938 89.550781 L 35.085938 89.546875 L 35.167969 89.582031 L 35.078125 89.460938 C 35.363281 89.632812 35.53125 89.550781 35.847656 89.46875 C 38.441406 88.785156 41.195312 88.097656 43.726562 87.234375 C 45.554688 86.613281 47.371094 85.722656 49.234375 85.242188 C 47.082031 87.425781 41.136719 88.972656 38.144531 89.757812 C 36.636719 90.15625 34.898438 90.441406 33.574219 91.296875 C 32.226562 92.167969 31.242188 93.6875 30.648438 95.152344 C 33.039062 94.445312 35.339844 93.453125 37.734375 92.734375 C 40.804688 91.816406 44.695312 91.386719 47.472656 89.871094 C 48.761719 89.167969 49.296875 87.59375 50.347656 86.59375 C 52.6875 84.355469 55.644531 82.6875 57.71875 80.191406 C 59.375 78.199219 60.480469 75.816406 62.121094 73.808594 C 64.050781 71.445312 67.003906 69.902344 68.496094 67.171875 C 68.960938 66.324219 69.5625 65.046875 69.425781 64.058594 Z M 137.53125 57.5625 C 137.554688 57.917969 137.558594 58.316406 137.660156 58.660156 C 137.917969 59.519531 138.386719 60.320312 138.6875 61.164062 C 139.011719 62.070312 139.136719 63.078125 139.546875 63.945312 C 140.144531 65.203125 140.949219 66.332031 141.527344 67.605469 C 142.382812 69.503906 142.492188 71.402344 144.136719 72.851562 C 145.820312 74.335938 146.507812 74.792969 147.082031 77.058594 C 147.242188 77.683594 147.375 78.316406 147.664062 78.898438 C 148.335938 80.253906 149.832031 80.972656 150.480469 82.335938 C 151.394531 84.246094 151.242188 86.53125 152.128906 88.449219 C 152.441406 89.128906 152.921875 89.640625 153.542969 90.054688 C 155.148438 91.121094 157.195312 91.714844 158.96875 92.480469 C 160.410156 93.105469 162.085938 94.128906 163.601562 94.457031 C 163.746094 94.304688 163.722656 94.234375 163.75 94.03125 C 163.976562 92.675781 164.089844 91.304688 164.175781 89.933594 C 164.226562 89.183594 164.21875 88.414062 164.339844 87.675781 C 161.773438 85.535156 160.222656 82.964844 157.945312 80.628906 C 156.429688 79.074219 154.648438 78.027344 153.257812 76.617188 C 152.996094 76.34375 152.75 76.0625 152.523438 75.761719 C 152.296875 75.460938 152.085938 75.152344 151.894531 74.828125 C 151.117188 73.507812 150.589844 72.007812 150.097656 70.5625 C 149.84375 69.820312 149.664062 68.683594 149.21875 68.066406 C 148.511719 67.082031 146.976562 66.390625 145.980469 65.707031 C 145.210938 65.179688 144.4375 64.59375 143.730469 63.976562 C 142.527344 62.925781 141.351562 61.734375 140.277344 60.546875 C 139.519531 59.714844 138.480469 58.175781 137.597656 57.597656 C 137.578125 57.585938 137.554688 57.574219 137.53125 57.5625 Z M 142.140625 72.316406 C 141.242188 73.632812 140.726562 75.085938 140.050781 76.515625 C 139.664062 77.335938 139.199219 78.113281 138.726562 78.886719 C 140.207031 80.898438 142.074219 82.613281 143.378906 84.753906 C 144.578125 86.714844 145.152344 88.941406 146.507812 90.835938 C 147.957031 92.859375 150.042969 94.339844 151.417969 96.429688 C 152.796875 98.515625 152.921875 100.648438 154.613281 102.777344 C 155.761719 104.222656 157.125 105.484375 158.496094 106.714844 C 159.109375 107.261719 159.78125 107.796875 160.34375 108.394531 C 160.636719 108.160156 160.816406 107.234375 160.9375 106.84375 C 161.648438 104.511719 162.253906 102.148438 162.746094 99.757812 C 163.015625 98.441406 163.175781 97.023438 163.535156 95.730469 C 160.992188 94.59375 158.40625 93.546875 155.867188 92.386719 C 154.808594 91.90625 153.503906 91.441406 152.605469 90.691406 C 151.921875 90.121094 151.496094 89.351562 151.179688 88.53125 C 150.503906 86.785156 150.402344 84.871094 149.703125 83.136719 C 149.171875 81.816406 147.867188 81.050781 147.117188 79.871094 C 146.601562 79.066406 146.359375 78.070312 146.082031 77.164062 C 145.398438 74.925781 143.769531 73.84375 142.140625 72.316406 Z M 87.769531 27.316406 C 86.566406 29.929688 85.984375 31.1875 86.324219 34.132812 C 86.449219 35.207031 86.644531 36.265625 87.019531 37.285156 C 87.601562 38.855469 88.316406 40.359375 88.789062 41.972656 C 89.226562 43.460938 89.375 45.066406 89.933594 46.515625 C 90.617188 48.285156 91.769531 49.867188 92.40625 51.644531 C 92.800781 52.746094 92.789062 54.371094 93.308594 55.28125 C 93.636719 55.863281 94.378906 56.277344 94.972656 56.539062 C 96.019531 57.003906 97.230469 57.285156 98.175781 57.941406 C 99.222656 58.671875 99.53125 60.128906 100.460938 60.992188 C 101.421875 61.882812 102.667969 62.136719 103.78125 62.742188 C 104.996094 63.402344 105.839844 64.53125 106.679688 65.59375 C 106.941406 65.882812 107.203125 66.164062 107.484375 66.433594 C 106.863281 65.230469 106.296875 64 105.78125 62.746094 C 105.265625 61.480469 104.820312 60.183594 104.222656 58.953125 C 103.625 57.726562 102.597656 56.691406 102.179688 55.378906 C 101.816406 54.242188 101.992188 53.015625 101.714844 51.863281 C 101.277344 50.03125 100.378906 48.375 99.742188 46.613281 C 99.296875 45.371094 99.097656 43.996094 98.507812 42.8125 C 97.601562 41 95 40.5625 93.925781 38.480469 C 93.222656 37.117188 92.742188 35.664062 92.183594 34.242188 C 91.152344 31.609375 89.710938 29.367188 87.769531 27.316406 Z M 94.601562 126.21875 C 92.851562 126.359375 90.996094 126.414062 89.316406 126.96875 C 88.035156 127.390625 86.871094 128.167969 85.714844 128.855469 C 83.972656 129.890625 82.242188 130.945312 80.523438 132.015625 C 78.722656 133.113281 76.855469 134.097656 75.074219 135.21875 C 76.257812 135.707031 77.554688 136 78.789062 136.347656 C 81.222656 137.03125 83.648438 137.714844 85.980469 138.699219 C 87.546875 137.792969 89.144531 136.929688 90.8125 136.226562 C 95.625 133.941406 100.871094 132.503906 106.03125 131.253906 C 108.300781 130.703125 110.550781 130.144531 112.871094 129.828125 C 110.515625 129.355469 108.15625 128.957031 105.816406 128.421875 C 102.746094 127.722656 97.5625 125.839844 94.601562 126.21875 Z M 85.039062 31.574219 C 82.496094 32.988281 79.765625 33.957031 77.492188 35.824219 C 75.148438 37.75 73.316406 40.378906 70.761719 42.023438 C 69.648438 42.742188 68.453125 43.386719 67.210938 43.84375 C 65.945312 44.3125 64.28125 44.519531 63.183594 45.316406 C 62.339844 45.929688 61.84375 46.957031 61.390625 47.863281 C 64.839844 47.054688 71.015625 44.242188 73.867188 42.152344 C 74.84375 41.433594 75.734375 40.585938 76.675781 39.820312 C 78.90625 38 81.292969 36.171875 83.773438 34.710938 C 82.460938 36.636719 80.679688 37.785156 78.867188 39.179688 C 74.621094 42.445312 70.878906 45.160156 65.921875 47.34375 C 64.96875 47.761719 63.972656 48.101562 62.972656 48.386719 C 62.203125 48.609375 61.3125 48.746094 60.597656 49.113281 C 59.996094 49.425781 59.414062 49.816406 58.839844 50.179688 C 57.429688 51.070312 56.492188 51.691406 55.59375 53.125 C 56.808594 52.984375 58.054688 52.871094 59.253906 52.640625 C 62.453125 52.085938 65.269531 51.257812 67.921875 49.324219 C 69.257812 48.347656 70.550781 47.300781 71.976562 46.453125 C 74.070312 45.207031 76.308594 44.359375 78.601562 43.574219 C 76.390625 45.433594 73.589844 46.347656 71.117188 47.792969 C 68.382812 49.390625 66.050781 51.617188 63.003906 52.667969 C 60.566406 53.511719 57.105469 53.457031 55.011719 54.636719 C 54.035156 55.191406 53.636719 56.160156 53.355469 57.191406 C 55.382812 55.285156 56.910156 55.113281 59.574219 54.820312 C 60.933594 54.671875 62.28125 54.457031 63.597656 54.082031 C 66.429688 53.285156 68.777344 51.84375 71.152344 50.15625 C 72.085938 49.492188 72.980469 48.753906 74.003906 48.230469 C 75.425781 47.496094 78.117188 47.054688 79.207031 46.0625 C 80.027344 45.316406 80.027344 43.84375 80.644531 42.914062 C 82.230469 40.523438 84.230469 38.910156 85.648438 36.246094 C 85.582031 35.789062 85.089844 31.617188 85.039062 31.574219 Z M 73.3125 54.53125 C 70.183594 55.890625 67.589844 58.085938 64.503906 59.488281 C 63.238281 60.0625 61.960938 60.277344 60.589844 60.449219 C 57.851562 60.792969 55.6875 61.242188 53.699219 63.308594 C 52.988281 64.050781 52.351562 64.859375 51.640625 65.601562 C 50.765625 66.511719 49.539062 67.042969 49.054688 68.257812 C 48.867188 68.734375 48.707031 69.269531 48.457031 69.714844 C 48.03125 70.46875 47.410156 71.136719 46.847656 71.789062 C 45.664062 73.160156 44.832031 74.386719 44.191406 76.085938 C 46.496094 75.40625 48.886719 74.445312 50.960938 73.230469 C 52.457031 72.351562 53.863281 71.332031 55.414062 70.546875 C 57.265625 69.605469 59.28125 69.046875 61.191406 68.246094 C 64.324219 66.925781 67.601562 64.519531 69.984375 62.082031 C 70.835938 60.800781 71.433594 59.464844 72.027344 58.050781 C 69.476562 59.425781 66.945312 60.839844 64.441406 62.292969 C 63.125 63.058594 61.832031 63.882812 60.492188 64.605469 C 57.984375 65.953125 55.328125 66.996094 52.878906 68.453125 C 50.796875 69.691406 49.207031 71.558594 47.074219 72.699219 C 48.964844 70.957031 50.367188 69.082031 52.574219 67.644531 C 54.890625 66.128906 57.476562 65.140625 59.90625 63.839844 C 62.03125 62.699219 64 61.285156 66.117188 60.136719 C 68.089844 59.066406 70.398438 58.132812 72.105469 56.65625 C 72.773438 56.082031 73.199219 55.414062 73.476562 54.585938 Z M 16.0625 127.652344 C 16.910156 129.144531 19.066406 132.261719 20.441406 133.175781 C 21.257812 133.714844 22.296875 134.007812 23.214844 134.34375 C 23.113281 134.5 23.035156 134.597656 22.988281 134.78125 C 23.480469 135.054688 23.980469 135.296875 24.496094 135.527344 C 24.515625 135.484375 24.535156 135.441406 24.558594 135.398438 C 24.707031 135.152344 24.882812 135.171875 25.144531 135.109375 C 25.65625 135.179688 26.324219 135.535156 26.816406 135.730469 C 29.566406 136.820312 32.890625 138.042969 35.105469 140.054688 C 37.175781 139.410156 39.222656 138.710938 41.28125 138.03125 C 42.566406 137.605469 43.882812 137.242188 45.136719 136.730469 C 41.160156 135.671875 37.464844 133.875 33.683594 132.292969 C 31.433594 131.351562 29.101562 130.582031 26.816406 129.726562 C 24.929688 129.023438 23.082031 128.222656 21.105469 127.796875 C 19.417969 127.433594 17.753906 127.273438 16.0625 127.652344 Z M 17.722656 75.90625 C 16.515625 76.558594 15.234375 77.078125 13.976562 77.625 C 10.328125 79.214844 6.492188 80.734375 2.664062 81.820312 C 2.625 83.660156 2.652344 85.496094 2.742188 87.335938 C 2.832031 89.171875 2.980469 91.003906 3.195312 92.832031 L 3.296875 93.058594 C 3.71875 93.0625 4.113281 92.589844 4.394531 92.3125 C 5.671875 91.054688 6.351562 89.269531 7.667969 88.09375 C 8.421875 87.414062 9.375 86.953125 10.25 86.453125 C 10.792969 86.144531 11.292969 85.828125 11.707031 85.347656 C 12.539062 84.375 12.910156 82.996094 13.472656 81.859375 C 13.847656 81.101562 14.382812 80.390625 14.898438 79.722656 C 15.390625 79.078125 17.699219 76.574219 17.792969 75.972656 Z M 150.652344 68.578125 C 151.277344 70.59375 151.832031 72.589844 153.015625 74.375 C 154.554688 76.695312 156.925781 78.058594 158.824219 80.023438 C 160.339844 81.59375 162.417969 84.921875 164.085938 85.941406 C 164.144531 85.976562 164.25 86.023438 164.320312 86.023438 C 164.351562 83.046875 164.496094 79.269531 164.132812 76.367188 C 162.589844 75.367188 161.128906 74.238281 159.578125 73.246094 C 157.6875 72.035156 155.730469 70.992188 153.722656 69.988281 C 152.734375 69.492188 151.707031 68.90625 150.652344 68.578125 Z M 23.90625 110.382812 C 23.015625 112.789062 22.324219 113.863281 20.492188 115.671875 C 21.054688 115.402344 22.40625 114.617188 22.992188 114.832031 C 23.015625 114.839844 23.039062 114.855469 23.066406 114.871094 C 23.109375 115.144531 22.984375 115.308594 22.824219 115.53125 C 21.925781 116.769531 20.574219 117.621094 19.273438 118.375 L 19.445312 118.359375 C 20.328125 118.28125 22.589844 117.449219 23.25 117.710938 C 23.289062 117.886719 23.308594 117.816406 23.21875 117.960938 C 22.898438 118.460938 22.015625 118.96875 21.546875 119.363281 C 20.582031 120.175781 19.769531 121.160156 18.769531 121.933594 C 20.574219 121.5 22.371094 121.046875 24.164062 120.578125 C 23.417969 121.019531 22.742188 121.574219 22.007812 122.039062 C 20.714844 122.851562 19.390625 123.582031 18.136719 124.464844 C 19.101562 124.265625 22.34375 123.140625 23.003906 123.269531 L 23.0625 123.40625 C 22.507812 124.371094 20.050781 125.003906 19.027344 125.28125 C 18.144531 125.515625 16.601562 125.949219 15.746094 125.492188 C 15.644531 125.433594 15.585938 125.359375 15.519531 125.265625 C 15.535156 125.050781 15.570312 124.972656 15.746094 124.835938 C 16.585938 124.164062 17.753906 123.902344 18.644531 123.226562 L 18.53125 123.242188 C 17.792969 123.316406 17.027344 123.203125 16.304688 123.347656 C 15.484375 123.507812 14.683594 124.03125 13.875 124.296875 C 14.316406 125.03125 14.8125 125.734375 15.292969 126.441406 C 16.507812 126.367188 17.691406 126.296875 18.90625 126.414062 C 19.875 126.496094 20.882812 126.683594 21.855469 126.578125 C 22.597656 126.496094 23.332031 126.222656 24.078125 126.214844 C 25.484375 126.199219 27.113281 126.703125 28.464844 127.078125 C 29.21875 127.285156 30.664062 127.855469 31.351562 127.367188 L 31.378906 127.207031 C 30.953125 126.835938 30.265625 126.851562 30.105469 126.242188 C 30.269531 125.722656 30.65625 125.53125 31.097656 125.273438 C 28.851562 124.75 26.1875 124.632812 24.445312 122.960938 C 26.265625 123.222656 28.078125 123.535156 29.828125 124.113281 C 28.082031 122.8125 25.84375 122.289062 24.152344 120.691406 C 26.011719 120.960938 27.820312 121.296875 29.609375 121.875 C 28.554688 121.015625 27.601562 120.035156 26.550781 119.171875 C 25.796875 118.558594 24.96875 118.039062 24.148438 117.523438 C 25.433594 117.585938 26.699219 117.898438 27.90625 118.324219 C 27.242188 117.617188 25.164062 115.777344 25.074219 114.921875 C 25.191406 114.777344 25.128906 114.796875 25.292969 114.78125 C 26.191406 114.699219 27.375 115.867188 28.082031 116.355469 C 27.261719 115.46875 26.335938 114.601562 25.667969 113.59375 C 25.109375 112.757812 24.542969 110.976562 23.90625 110.382812 Z M 137.199219 60.441406 C 136.496094 61.800781 135.273438 63.027344 134.742188 64.445312 C 134.367188 65.441406 134.5625 66.507812 134.347656 67.527344 C 134.046875 68.96875 133.328125 70.375 132.816406 71.753906 C 134.03125 72.605469 136.59375 76.230469 137.671875 77.542969 L 137.988281 77.90625 L 137.921875 77.882812 C 138.191406 77.832031 138.253906 77.671875 138.402344 77.445312 C 139.730469 75.425781 139.898438 73.011719 141.738281 71.285156 C 141.335938 69.9375 140.90625 68.640625 140.253906 67.386719 C 139.636719 66.203125 138.878906 65.082031 138.367188 63.84375 C 137.917969 62.746094 138.101562 61.335938 137.199219 60.441406 Z M 36.773438 115.554688 C 36.753906 115.578125 36.738281 115.601562 36.71875 115.625 C 36.152344 116.355469 35.785156 117.21875 35.214844 117.949219 C 34.519531 118.835938 33.597656 119.523438 32.8125 120.324219 C 34.089844 120.109375 35.117188 119.503906 36.332031 119.140625 C 35.382812 121.019531 34.277344 121.316406 32.742188 122.558594 C 34.164062 122.722656 35.457031 122.558594 36.816406 122.09375 C 35.996094 122.917969 35.027344 123.46875 34.089844 124.132812 C 33.136719 124.8125 32.214844 125.554688 31.238281 126.195312 C 33.269531 125.816406 35.296875 125.5 37.296875 124.953125 C 35.683594 125.980469 33.746094 126.886719 32.382812 128.230469 C 33.113281 128.15625 33.839844 128.042969 34.5625 127.898438 C 35.285156 127.753906 35.996094 127.574219 36.703125 127.359375 C 35.292969 128.84375 33.332031 129.375 31.515625 130.199219 C 32.246094 130.472656 32.972656 130.753906 33.695312 131.042969 C 34.839844 130.515625 36.535156 129.898438 37.800781 130.273438 C 38.859375 130.488281 39.78125 130.90625 40.796875 131.242188 C 41.480469 130.949219 42.089844 130.523438 42.761719 130.226562 C 41.566406 129.691406 38.09375 128.535156 37.464844 127.542969 C 37.800781 127.359375 38.984375 127.769531 39.355469 127.878906 C 40.511719 128.222656 41.644531 128.65625 42.78125 129.050781 C 41.953125 128.398438 41.109375 127.75 40.222656 127.175781 C 39.097656 126.445312 38 125.910156 37.011719 124.984375 C 38.484375 125.59375 41.621094 126.097656 43.269531 126.371094 C 42.140625 125.679688 41.121094 124.863281 40.027344 124.117188 C 39.175781 123.539062 38.042969 123.03125 37.339844 122.285156 L 37.320312 122.109375 C 37.851562 121.789062 40.429688 122.429688 41.144531 122.546875 C 39.648438 121.546875 38.246094 120.5 37.105469 119.09375 C 37.902344 119.25 38.699219 119.414062 39.492188 119.582031 C 38.898438 118.996094 38.371094 118.433594 37.9375 117.71875 C 37.605469 117.175781 37.179688 115.929688 36.773438 115.554688 Z M 86.917969 110.984375 C 85.992188 112.882812 84.964844 114.585938 83.480469 116.117188 C 84.550781 115.582031 85.570312 115.125 86.765625 114.96875 C 85.292969 118.621094 84.90625 119.3125 82.03125 121.949219 C 83.5 121.695312 84.726562 121.753906 85.6875 120.394531 C 85.957031 120.015625 86.191406 119.617188 86.421875 119.214844 C 86.425781 119.652344 86.46875 120.175781 86.34375 120.59375 C 85.925781 121.988281 84.273438 123.398438 83.257812 124.4375 C 82.753906 124.949219 82.203125 125.421875 81.675781 125.910156 C 83.949219 125.730469 84.058594 125.671875 85.984375 124.449219 C 85.722656 125.148438 85.46875 125.519531 84.90625 126.007812 C 86.761719 126.035156 88.53125 125.742188 90.371094 125.539062 C 91.371094 125.425781 92.378906 125.328125 93.367188 125.152344 C 91.539062 123.804688 89.308594 122.90625 87.847656 121.105469 C 88.964844 121.585938 92.273438 123.140625 93.3125 123.128906 L 93.421875 123.042969 C 92.984375 122.523438 92.339844 122.085938 91.796875 121.675781 C 90.375 120.601562 88.703125 119.515625 87.535156 118.152344 C 88.851562 118.695312 90.050781 118.859375 91.417969 119.160156 C 90.113281 117.949219 88.644531 116.75 87.75 115.1875 L 87.789062 115.105469 C 88.523438 115.054688 90.054688 115.597656 90.929688 115.714844 C 90.007812 114.753906 89.09375 113.78125 88.257812 112.742188 C 87.816406 112.191406 87.425781 111.464844 86.917969 110.984375 Z M 120.554688 124.613281 C 117.246094 124.773438 114.3125 125.804688 111.242188 126.921875 C 110.339844 127.25 109.40625 127.535156 108.523438 127.910156 C 110.167969 128.148438 111.789062 128.511719 113.441406 128.714844 C 115.65625 128.980469 117.855469 128.957031 120.082031 128.894531 C 122.816406 128.796875 125.601562 128.644531 128.28125 128.054688 C 129.53125 127.78125 130.738281 127.347656 131.984375 127.066406 C 129.042969 126.214844 123.390625 124.332031 120.554688 124.613281 Z M 85.199219 22.644531 C 83.871094 25.007812 81.996094 26.730469 80.304688 28.796875 C 79.589844 29.667969 79.085938 30.652344 78.425781 31.554688 C 79.808594 30.59375 81.152344 29.550781 82.445312 28.472656 C 83.539062 27.566406 84.5625 26.625 85.753906 25.84375 C 84.125 29.75 77.011719 33.765625 73.488281 36.234375 C 72.34375 37.039062 71.242188 37.953125 70.203125 38.886719 C 69.488281 39.5 68.78125 40.117188 67.972656 40.605469 C 65.953125 41.820312 65.628906 41.476562 64.214844 43.675781 C 66.117188 43.101562 67.921875 42.632812 69.636719 41.570312 C 71.199219 40.609375 72.628906 39.417969 73.933594 38.136719 C 75.203125 36.890625 76.300781 35.621094 77.769531 34.582031 C 79.671875 33.234375 84.699219 31.359375 85.679688 29.589844 C 86.273438 28.523438 86.574219 27.199219 86.828125 26.011719 C 86.46875 25.375 85.519531 22.886719 85.199219 22.644531 Z M 98.078125 31.964844 C 98.457031 34.246094 99.605469 36.132812 100.636719 38.15625 C 101.074219 39.019531 101.40625 39.902344 102.015625 40.667969 C 103.023438 41.933594 104.214844 42.847656 105 44.308594 C 105.601562 45.425781 105.195312 47.183594 106.339844 47.980469 C 107.175781 48.5625 108.304688 48.585938 109.101562 49.265625 C 109.699219 49.78125 110.054688 50.5 110.414062 51.1875 C 112.109375 54.472656 113.183594 54.269531 116.210938 55.757812 C 115.578125 54.417969 114.96875 52.761719 114.023438 51.613281 C 112.605469 49.898438 109.761719 49.285156 107.964844 47.050781 C 106.457031 45.167969 105.867188 42.925781 104.917969 40.761719 C 104.246094 39.242188 103.183594 37.980469 102.265625 36.613281 C 101.597656 35.617188 101.035156 34.546875 100.214844 33.660156 C 99.582031 32.980469 98.851562 32.472656 98.078125 31.964844 Z M 38.769531 60.105469 C 39.464844 62.585938 42.207031 66.457031 43.769531 68.527344 C 44.4375 69.410156 45.226562 70.269531 45.808594 71.207031 C 46.230469 70.710938 46.664062 70.210938 47.046875 69.683594 C 47.695312 68.550781 48.089844 67.351562 48.460938 66.105469 C 46.617188 64.863281 44.503906 64.21875 42.640625 63.042969 C 41.25 62.167969 40.238281 60.863281 38.769531 60.105469 Z M 20.929688 133.992188 C 22.195312 135.253906 23.289062 136.707031 24.519531 138.015625 C 25.871094 139.457031 27.355469 140.769531 28.710938 142.207031 C 30.617188 141.597656 32.648438 141.03125 34.457031 140.171875 C 32.039062 138.941406 29.640625 137.785156 27.152344 136.6875 C 26.277344 136.300781 25.394531 135.855469 24.496094 135.527344 C 23.980469 135.296875 23.480469 135.054688 22.988281 134.78125 C 22.296875 134.523438 21.613281 134.261719 20.929688 133.992188 Z M 75.039062 50.972656 C 71.824219 52.917969 68.945312 55.429688 65.425781 56.835938 C 60.902344 58.648438 57.183594 57.207031 53.203125 60.476562 C 51.515625 61.859375 50.625 63.636719 50.121094 65.738281 C 50.085938 65.886719 50.058594 66.023438 50.042969 66.175781 L 50.113281 66.25 L 50.203125 66.167969 C 52.105469 64.398438 53.382812 62.007812 55.644531 60.617188 C 55.671875 60.601562 55.695312 60.585938 55.71875 60.570312 C 58.03125 59.230469 60.988281 59.820312 63.4375 58.828125 C 67.261719 57.277344 70.257812 54.128906 74.234375 52.921875 C 74.597656 52.367188 74.972656 51.804688 75.132812 51.152344 C 75.066406 50.988281 75.113281 51.035156 75.039062 50.972656 Z M 84.941406 19.519531 C 84.214844 20.710938 83.476562 21.835938 82.554688 22.898438 C 81.308594 24.332031 79.878906 25.613281 78.707031 27.113281 C 77.152344 29.105469 76.019531 31.53125 74.238281 33.328125 C 73.519531 34.050781 72.722656 34.523438 71.816406 34.984375 C 69.011719 36.410156 68.476562 37.125 66.859375 39.871094 C 66.96875 39.976562 66.910156 39.949219 67.019531 39.976562 C 68.867188 39.132812 70.273438 37.386719 71.886719 36.179688 C 73.085938 35.277344 74.597656 34.585938 75.667969 33.539062 C 77.0625 32.175781 77.78125 30.277344 78.925781 28.730469 C 80.785156 26.214844 83.820312 24.210938 84.917969 21.207031 C 85.078125 20.769531 85.265625 20.011719 85.003906 19.578125 C 84.988281 19.554688 84.964844 19.539062 84.941406 19.519531 Z M 76.863281 48.28125 C 73.839844 49.179688 72.023438 50.902344 69.433594 52.488281 C 67.464844 53.695312 65.222656 54.597656 63.007812 55.234375 C 59.410156 56.269531 57.371094 55.328125 54.070312 57.855469 C 53.546875 58.257812 52.914062 58.667969 52.585938 59.246094 C 52.484375 59.425781 52.441406 59.476562 52.460938 59.683594 L 52.550781 59.699219 C 53.363281 59.054688 54.171875 58.46875 55.125 58.046875 C 56.917969 57.257812 58.945312 57.179688 60.863281 56.9375 C 62.425781 56.738281 64.035156 56.425781 65.507812 55.855469 C 68.375 54.75 70.660156 52.523438 73.222656 50.894531 C 74.027344 50.382812 75.824219 49.648438 76.355469 49.195312 C 76.617188 48.96875 76.792969 48.683594 76.96875 48.386719 L 76.929688 48.285156 Z M 16.425781 112.484375 C 16.277344 112.75 16.144531 113.007812 16.027344 113.289062 C 15.546875 114.457031 14.730469 115.46875 13.917969 116.417969 C 14.375 116.125 15.441406 115.390625 16.003906 115.511719 C 16.03125 115.519531 16.058594 115.53125 16.082031 115.542969 C 16.15625 115.753906 16.136719 115.851562 16.042969 116.054688 C 15.699219 116.800781 15.023438 117.449219 14.445312 118.015625 C 15.015625 118.035156 15.675781 118.019531 16.1875 118.292969 L 16.195312 118.394531 L 16.125 118.453125 L 16.074219 118.355469 L 16.046875 118.359375 C 16.039062 118.394531 16.03125 118.429688 16.015625 118.460938 C 15.90625 118.703125 13.542969 120.707031 13.109375 121.191406 C 13.839844 121.144531 14.570312 121.042969 15.300781 120.996094 C 17.28125 120.671875 18.300781 120.996094 19.957031 119.578125 C 19.230469 119.515625 17.609375 118.996094 17.148438 118.410156 C 17.042969 118.277344 17.074219 118.339844 17.105469 118.148438 C 17.570312 117.800781 18.335938 117.871094 18.898438 117.789062 C 18.253906 117.054688 17.5 116.433594 16.910156 115.65625 C 17.421875 115.667969 17.9375 115.671875 18.449219 115.699219 C 17.90625 114.894531 17.074219 113.027344 16.425781 112.484375 Z M 136.246094 57.414062 C 135.21875 58.398438 134.898438 59.492188 134.226562 60.695312 C 132.660156 63.5 130.078125 65.332031 127.425781 67 L 128.203125 67.617188 C 128.4375 67.746094 128.523438 67.792969 128.785156 67.710938 C 129.449219 67.503906 130.082031 67.046875 130.660156 66.671875 C 133.464844 64.84375 134.753906 62.964844 136.160156 59.96875 C 136.46875 59.3125 136.757812 58.550781 136.515625 57.828125 C 136.464844 57.671875 136.378906 57.515625 136.246094 57.414062 Z M 21.097656 71.84375 C 19.179688 72.671875 6.460938 78.667969 5.726562 79.558594 L 5.824219 79.636719 L 5.914062 79.597656 C 6.945312 79.136719 8.042969 78.8125 9.097656 78.402344 C 10.765625 77.757812 12.398438 77.015625 14.035156 76.300781 C 15.722656 75.566406 17.492188 74.867188 19.058594 73.890625 C 19.84375 73.402344 20.644531 72.816406 21.175781 72.046875 L 21.1875 71.90625 Z M 133.035156 60.375 C 131.796875 61.234375 130.496094 62.097656 129.113281 62.707031 C 127.539062 63.402344 125.820312 63.859375 124.183594 64.402344 C 124.589844 64.800781 124.988281 65.207031 125.433594 65.5625 L 126.46875 66.386719 C 128.226562 65.191406 132.273438 62.335938 133.152344 60.464844 Z M 102.0625 121.824219 C 101.28125 123.328125 100.589844 124.375 99.089844 125.261719 C 100.640625 125.835938 102.257812 126.265625 103.84375 126.738281 C 103.285156 126.15625 102.683594 125.589844 102.191406 124.953125 C 101.824219 124.484375 101.570312 124.035156 101.363281 123.476562 C 103.292969 125.097656 103.476562 125.023438 105.859375 125.449219 C 104.425781 124.367188 103.417969 122.953125 102.0625 121.824219 Z M 133.226562 66.238281 C 131.996094 67.082031 130.75 67.8125 129.433594 68.523438 C 129.867188 68.949219 130.308594 69.363281 130.761719 69.769531 L 131.933594 70.71875 C 132.566406 69.59375 133.503906 67.742188 133.425781 66.457031 L 133.3125 66.25 Z M 44.648438 126.082031 C 44.316406 126.570312 44.0625 126.96875 43.445312 127.09375 C 42.871094 127.210938 42.117188 127.042969 41.53125 126.980469 C 42.316406 127.546875 43.09375 128.152344 43.914062 128.660156 C 44.308594 128.410156 44.726562 128.246094 45.1875 128.152344 C 46.347656 128.203125 47.511719 128.226562 48.675781 128.226562 C 47.589844 127.550781 45.84375 126.476562 44.648438 126.082031 Z M 44.703125 123.546875 C 44.183594 124.195312 43.464844 124.433594 42.777344 124.851562 C 43.375 125.367188 44.042969 125.902344 44.875 125.867188 C 45.40625 125.84375 45.839844 125.828125 46.375 125.90625 C 46.964844 125.941406 47.675781 125.914062 48.214844 126.1875 L 48.265625 126.140625 C 48.128906 125.929688 45.238281 123.957031 44.703125 123.546875 Z M 102.148438 118.371094 C 101.542969 119.558594 100.839844 120.628906 100.019531 121.675781 C 100.710938 121.457031 102.117188 120.699219 102.800781 121.097656 C 103.023438 121.230469 103.242188 121.46875 103.433594 121.652344 C 103.917969 122.179688 104.417969 122.597656 104.992188 123.023438 C 104.453125 121.789062 103 119.429688 102.148438 118.371094 Z M 16.511719 121.273438 C 15.550781 121.664062 13.996094 122.109375 13.285156 122.863281 L 13.304688 122.988281 C 13.753906 123.121094 14.050781 123.066406 14.5 122.941406 C 15.703125 122.667969 16.808594 122.253906 17.929688 121.75 C 17.460938 121.570312 16.996094 121.410156 16.511719 121.273438 Z M 26.707031 128.40625 C 27.878906 128.921875 29.0625 129.355469 30.273438 129.765625 C 30.523438 129.539062 30.769531 129.328125 31.042969 129.132812 C 31.203125 129.050781 31.355469 128.976562 31.503906 128.875 C 30.832031 128.390625 27.628906 128.324219 26.707031 128.40625 Z M 30.105469 123.066406 L 29.898438 123.191406 C 30.035156 123.539062 30.4375 123.695312 30.769531 123.839844 C 31.335938 124.089844 31.875 124.304688 32.484375 124.097656 L 32.777344 123.816406 C 32.761719 123.625 32.757812 123.621094 32.613281 123.503906 C 32.101562 123.082031 30.753906 123.007812 30.105469 123.066406 Z M 10.835938 118.554688 C 11.09375 119.082031 11.375 119.597656 11.667969 120.105469 C 12.082031 119.910156 12.347656 119.683594 12.683594 119.378906 C 12.914062 119.117188 13.082031 118.847656 13.253906 118.546875 C 12.507812 118.574219 11.566406 118.714844 10.835938 118.554688 Z M 64.914062 75.277344 C 64.949219 74.9375 64.976562 74.597656 65.035156 74.265625 C 65.039062 73.664062 64.996094 73.015625 65.128906 72.429688 C 65.011719 72.464844 64.917969 72.460938 64.847656 72.570312 C 64.558594 73.03125 64.878906 74.695312 64.914062 75.277344 Z M 28.769531 80.429688 C 28.917969 79.929688 28.9375 79.402344 28.921875 78.882812 C 28.917969 78.855469 28.914062 78.828125 28.910156 78.800781 C 28.832031 78.273438 28.824219 77.742188 28.804688 77.210938 C 28.773438 77.832031 28.539062 79.976562 28.769531 80.429688 Z M 28.769531 80.429688 " fill-opacity="1" fill-rule="nonzero"/></g><path fill="#2e6417" d="M 28.769531 80.429688 C 28.539062 79.976562 28.773438 77.832031 28.804688 77.210938 C 28.824219 77.742188 28.832031 78.273438 28.910156 78.800781 C 28.914062 78.828125 28.917969 78.855469 28.921875 78.882812 C 28.9375 79.402344 28.917969 79.929688 28.769531 80.429688 Z M 28.769531 80.429688 " fill-opacity="1" fill-rule="nonzero"/><path fill="#2e6417" d="M 64.914062 75.277344 C 64.878906 74.695312 64.558594 73.03125 64.847656 72.570312 C 64.917969 72.460938 65.011719 72.464844 65.128906 72.429688 C 64.996094 73.015625 65.039062 73.664062 65.035156 74.265625 C 64.976562 74.597656 64.949219 74.9375 64.914062 75.277344 Z M 64.914062 75.277344 " fill-opacity="1" fill-rule="nonzero"/><path fill="#2e6417" d="M 23.214844 134.34375 C 23.863281 134.582031 24.507812 134.839844 25.144531 135.109375 C 24.882812 135.171875 24.707031 135.152344 24.558594 135.398438 C 24.535156 135.441406 24.515625 135.484375 24.496094 135.527344 C 23.980469 135.296875 23.480469 135.054688 22.988281 134.78125 C 23.035156 134.597656 23.113281 134.5 23.214844 134.34375 Z M 23.214844 134.34375 " fill-opacity="1" fill-rule="nonzero"/><path fill="#2e6417" d="M 65.539062 48.546875 L 65.746094 48.5625 L 65.734375 48.703125 C 64.476562 50.023438 60.613281 51.527344 58.789062 51.832031 C 58.683594 51.816406 58.613281 51.789062 58.519531 51.75 C 58.472656 51.59375 58.441406 51.597656 58.53125 51.453125 C 59.1875 50.421875 64.183594 48.902344 65.539062 48.546875 Z M 65.539062 48.546875 " fill-opacity="1" fill-rule="nonzero"/><path fill="#2e6417" d="M 57.8125 118.582031 C 58.847656 118.738281 59.953125 119.3125 60.859375 119.820312 C 61.65625 120.269531 62.773438 120.859375 63.03125 121.789062 C 62.707031 121.792969 62.375 121.800781 62.054688 121.746094 C 60.417969 121.457031 58.75 119.863281 57.8125 118.582031 Z M 57.8125 118.582031 " fill-opacity="1" fill-rule="nonzero"/><path fill="#2e6417" d="M 56.730469 118.378906 C 56.953125 118.386719 57.003906 118.371094 57.179688 118.503906 C 57.167969 118.589844 57.171875 118.609375 57.121094 118.699219 C 56.539062 119.722656 52.539062 121.566406 51.320312 121.832031 C 51.148438 121.789062 51.046875 121.746094 50.902344 121.636719 L 50.917969 121.464844 C 51.671875 120.316406 55.316406 118.953125 56.730469 118.378906 Z M 56.730469 118.378906 " fill-opacity="1" fill-rule="nonzero"/><path fill="#2e6417" d="M 56.902344 111.40625 C 57.058594 111.410156 57.199219 111.4375 57.351562 111.472656 C 58.449219 112.335938 58.746094 115.105469 59.710938 116.476562 C 60.636719 117.785156 62.347656 118.265625 63.015625 119.484375 L 62.960938 119.660156 C 62.5 119.820312 61.640625 119.480469 61.195312 119.289062 C 59.199219 118.441406 58.164062 116.46875 57.410156 114.554688 C 57.386719 114.492188 57.335938 114.4375 57.296875 114.378906 C 56.730469 114.941406 56.59375 116.019531 56.050781 116.675781 C 55.277344 117.609375 53.953125 118.128906 53.316406 119.144531 L 53.476562 119.359375 C 53.355469 119.402344 53.238281 119.441406 53.113281 119.457031 C 52.691406 119.519531 52.023438 119.578125 51.667969 119.335938 C 51.492188 118.550781 54.253906 117.050781 54.855469 116.4375 C 55.878906 115.394531 56.199219 114.175781 56.5 112.792969 C 56.601562 112.3125 56.679688 111.84375 56.902344 111.40625 Z M 56.902344 111.40625 " fill-opacity="1" fill-rule="nonzero"/></g></g></g></svg>