<svg xmlns="http://www.w3.org/2000/svg" xmlns:xlink="http://www.w3.org/1999/xlink" width="276" zoomAndPan="magnify" viewBox="0 0 206.87999 207.000001" height="276" preserveAspectRatio="xMidYMid meet" version="1.0"><defs><filter x="0%" y="0%" width="100%" height="100%" id="dd220a3dd6"><feColorMatrix values="0 0 0 0 1 0 0 0 0 1 0 0 0 0 1 0 0 0 1 0" color-interpolation-filters="sRGB"/></filter><clipPath id="54f70dc9ce"><path d="M 0.4375 0 L 206.324219 0 L 206.324219 206.003906 L 0.4375 206.003906 Z M 0.4375 0 " clip-rule="nonzero"/></clipPath><mask id="f58b5ed922"><g filter="url(#dd220a3dd6)"><rect x="-20.687999" width="248.255988" fill="#000000" y="-20.7" height="248.400001" fill-opacity="0.53"/></g></mask><clipPath id="b8b5cb5ce6"><path d="M 0.542969 0 L 206.324219 0 L 206.324219 206 L 0.542969 206 Z M 0.542969 0 " clip-rule="nonzero"/></clipPath><clipPath id="3873da3627"><rect x="0" width="207" y="0" height="207"/></clipPath></defs><g clip-path="url(#54f70dc9ce)"><g mask="url(#f58b5ed922)"><g transform="matrix(1, 0, 0, 1, 0, 0.00000000000000119)"><g clip-path="url(#3873da3627)"><g clip-path="url(#b8b5cb5ce6)"><path fill="#000000" d="M 99.609375 0.109375 C 100.4375 0.0585938 101.261719 0.0273438 102.089844 0.015625 C 102.925781 0.0078125 103.765625 0.0078125 104.601562 0.0195312 C 105.441406 0.03125 106.277344 0.0507812 107.117188 0.0820312 C 107.953125 0.113281 108.792969 0.15625 109.628906 0.207031 C 110.464844 0.257812 111.300781 0.320312 112.136719 0.390625 C 112.972656 0.460938 113.804688 0.542969 114.636719 0.636719 C 115.472656 0.726562 116.304688 0.828125 117.132812 0.941406 C 117.964844 1.050781 118.792969 1.175781 119.621094 1.304688 C 120.449219 1.4375 121.277344 1.578125 122.101562 1.730469 C 122.925781 1.882812 123.746094 2.046875 124.566406 2.21875 C 125.386719 2.386719 126.207031 2.570312 127.023438 2.761719 C 127.835938 2.953125 128.652344 3.15625 129.460938 3.367188 C 130.273438 3.578125 131.082031 3.796875 131.886719 4.027344 C 132.695312 4.257812 133.496094 4.5 134.296875 4.75 C 135.097656 5 135.894531 5.257812 136.6875 5.527344 C 137.480469 5.796875 138.269531 6.078125 139.058594 6.363281 C 139.84375 6.652344 140.628906 6.949219 141.40625 7.257812 C 142.1875 7.566406 142.964844 7.882812 143.734375 8.207031 C 144.507812 8.535156 145.277344 8.871094 146.039062 9.214844 C 146.804688 9.558594 147.5625 9.914062 148.320312 10.277344 C 149.074219 10.640625 149.824219 11.011719 150.570312 11.390625 C 151.316406 11.773438 152.058594 12.164062 152.796875 12.5625 C 153.53125 12.960938 154.265625 13.371094 154.992188 13.785156 C 155.71875 14.203125 156.441406 14.628906 157.15625 15.0625 C 157.875 15.496094 158.585938 15.941406 159.292969 16.390625 C 159.996094 16.84375 160.699219 17.300781 161.394531 17.769531 C 162.085938 18.238281 162.777344 18.714844 163.460938 19.199219 C 164.144531 19.683594 164.820312 20.179688 165.492188 20.679688 C 166.164062 21.179688 166.828125 21.691406 167.488281 22.207031 C 168.148438 22.726562 168.800781 23.25 169.445312 23.785156 C 170.09375 24.316406 170.730469 24.859375 171.363281 25.40625 C 172 25.953125 172.625 26.511719 173.246094 27.074219 C 173.863281 27.636719 174.476562 28.210938 175.082031 28.789062 C 175.582031 29.265625 176.074219 29.75 176.5625 30.242188 C 177.054688 30.730469 177.535156 31.222656 178.015625 31.722656 C 178.496094 32.222656 178.96875 32.726562 179.4375 33.234375 C 179.90625 33.742188 180.367188 34.253906 180.828125 34.773438 C 181.285156 35.289062 181.738281 35.8125 182.1875 36.339844 C 182.632812 36.863281 183.078125 37.394531 183.515625 37.933594 C 183.953125 38.46875 184.382812 39.007812 184.808594 39.550781 C 185.234375 40.097656 185.65625 40.644531 186.070312 41.199219 C 186.488281 41.75 186.894531 42.308594 187.300781 42.867188 C 187.703125 43.429688 188.101562 43.992188 188.496094 44.5625 C 188.886719 45.132812 189.273438 45.703125 189.65625 46.28125 C 190.035156 46.859375 190.410156 47.4375 190.78125 48.023438 C 191.152344 48.605469 191.515625 49.195312 191.871094 49.785156 C 192.230469 50.378906 192.582031 50.972656 192.925781 51.570312 C 193.273438 52.171875 193.613281 52.773438 193.945312 53.378906 C 194.277344 53.984375 194.605469 54.59375 194.925781 55.203125 C 195.246094 55.816406 195.5625 56.433594 195.871094 57.050781 C 196.179688 57.667969 196.484375 58.289062 196.777344 58.914062 C 197.074219 59.539062 197.367188 60.167969 197.648438 60.796875 C 197.933594 61.425781 198.210938 62.0625 198.480469 62.695312 C 198.75 63.332031 199.015625 63.972656 199.273438 64.613281 C 199.53125 65.253906 199.785156 65.898438 200.027344 66.542969 C 200.273438 67.191406 200.511719 67.839844 200.746094 68.488281 C 200.976562 69.140625 201.203125 69.792969 201.421875 70.449219 C 201.640625 71.105469 201.851562 71.761719 202.058594 72.421875 C 202.261719 73.082031 202.460938 73.742188 202.652344 74.40625 C 202.847656 75.070312 203.03125 75.738281 203.210938 76.40625 C 203.390625 77.074219 203.5625 77.742188 203.726562 78.414062 C 203.890625 79.082031 204.050781 79.757812 204.203125 80.429688 C 204.355469 81.105469 204.5 81.78125 204.636719 82.457031 C 204.777344 83.136719 204.90625 83.8125 205.03125 84.492188 C 205.15625 85.171875 205.273438 85.855469 205.382812 86.535156 C 206.171875 91.609375 206.414062 96.667969 206.511719 101.792969 C 206.53125 102.632812 206.539062 103.46875 206.539062 104.304688 C 206.535156 105.140625 206.523438 105.976562 206.503906 106.8125 C 206.480469 107.648438 206.449219 108.488281 206.40625 109.320312 C 206.363281 110.15625 206.308594 110.992188 206.246094 111.828125 C 206.179688 112.660156 206.105469 113.496094 206.023438 114.328125 C 205.9375 115.160156 205.84375 115.992188 205.738281 116.820312 C 205.632812 117.652344 205.515625 118.480469 205.390625 119.308594 C 205.265625 120.132812 205.128906 120.960938 204.984375 121.785156 C 204.835938 122.605469 204.679688 123.429688 204.511719 124.25 C 204.347656 125.070312 204.167969 125.886719 203.980469 126.703125 C 203.796875 127.519531 203.597656 128.332031 203.390625 129.140625 C 203.183594 129.953125 202.964844 130.761719 202.738281 131.566406 C 202.511719 132.371094 202.273438 133.171875 202.027344 133.972656 C 201.777344 134.773438 201.519531 135.566406 201.253906 136.359375 C 200.984375 137.152344 200.707031 137.945312 200.421875 138.730469 C 200.136719 139.515625 199.839844 140.296875 199.53125 141.078125 C 199.226562 141.855469 198.910156 142.628906 198.582031 143.402344 C 198.257812 144.171875 197.921875 144.9375 197.578125 145.703125 C 197.234375 146.464844 196.878906 147.222656 196.515625 147.976562 C 196.152344 148.730469 195.777344 149.480469 195.394531 150.222656 C 195.015625 150.96875 194.621094 151.707031 194.222656 152.441406 C 193.820312 153.175781 193.410156 153.90625 192.992188 154.632812 C 192.574219 155.355469 192.144531 156.074219 191.707031 156.789062 C 191.273438 157.503906 190.828125 158.210938 190.371094 158.914062 C 189.917969 159.617188 189.453125 160.3125 188.984375 161.003906 C 188.511719 161.695312 188.03125 162.382812 187.542969 163.0625 C 187.050781 163.742188 186.554688 164.414062 186.050781 165.082031 C 185.542969 165.75 185.03125 166.410156 184.507812 167.0625 C 183.988281 167.71875 183.457031 168.367188 182.917969 169.007812 C 182.378906 169.648438 181.832031 170.28125 181.28125 170.910156 C 180.726562 171.539062 180.164062 172.160156 179.59375 172.773438 C 179.027344 173.386719 178.449219 173.992188 177.863281 174.589844 C 177.433594 175.027344 177 175.460938 176.558594 175.890625 C 176.121094 176.320312 175.679688 176.746094 175.234375 177.167969 C 174.785156 177.589844 174.335938 178.007812 173.882812 178.421875 C 173.429688 178.835938 172.972656 179.246094 172.511719 179.652344 C 172.054688 180.058594 171.589844 180.460938 171.121094 180.859375 C 170.652344 181.253906 170.183594 181.648438 169.710938 182.039062 C 169.234375 182.429688 168.757812 182.8125 168.277344 183.195312 C 167.792969 183.578125 167.308594 183.953125 166.824219 184.328125 C 166.335938 184.699219 165.84375 185.066406 165.351562 185.433594 C 164.855469 185.796875 164.359375 186.15625 163.859375 186.511719 C 163.359375 186.867188 162.855469 187.21875 162.347656 187.566406 C 161.839844 187.914062 161.332031 188.253906 160.820312 188.59375 C 160.304688 188.929688 159.789062 189.265625 159.273438 189.59375 C 158.753906 189.921875 158.234375 190.246094 157.707031 190.566406 C 157.183594 190.886719 156.65625 191.203125 156.128906 191.511719 C 155.597656 191.824219 155.066406 192.128906 154.53125 192.429688 C 153.996094 192.730469 153.457031 193.027344 152.917969 193.320312 C 152.378906 193.613281 151.835938 193.898438 151.289062 194.183594 C 150.746094 194.464844 150.199219 194.742188 149.648438 195.015625 C 149.097656 195.289062 148.546875 195.554688 147.992188 195.820312 C 147.4375 196.082031 146.878906 196.339844 146.320312 196.59375 C 145.761719 196.847656 145.199219 197.097656 144.636719 197.339844 C 144.070312 197.585938 143.507812 197.824219 142.9375 198.058594 C 142.371094 198.292969 141.800781 198.519531 141.230469 198.746094 C 140.65625 198.96875 140.082031 199.1875 139.507812 199.402344 C 138.933594 199.617188 138.355469 199.824219 137.777344 200.027344 C 137.195312 200.230469 136.617188 200.429688 136.03125 200.625 C 135.449219 200.816406 134.867188 201.007812 134.28125 201.191406 C 133.695312 201.375 133.105469 201.550781 132.515625 201.726562 C 131.929688 201.898438 131.335938 202.066406 130.746094 202.230469 C 130.152344 202.394531 129.558594 202.550781 128.964844 202.703125 C 128.371094 202.855469 127.773438 203.003906 127.175781 203.144531 C 120.808594 204.722656 114.171875 205.820312 107.597656 205.9375 C 106.769531 205.964844 105.9375 205.984375 105.105469 205.992188 C 104.273438 206 103.441406 205.996094 102.613281 205.984375 C 101.78125 205.972656 100.949219 205.949219 100.117188 205.917969 C 99.289062 205.886719 98.457031 205.84375 97.628906 205.792969 C 96.796875 205.738281 95.96875 205.675781 95.140625 205.605469 C 94.3125 205.53125 93.484375 205.449219 92.660156 205.359375 C 91.832031 205.265625 91.007812 205.164062 90.183594 205.050781 C 89.359375 204.941406 88.539062 204.816406 87.71875 204.6875 C 86.894531 204.554688 86.078125 204.414062 85.257812 204.261719 C 84.441406 204.109375 83.625 203.949219 82.8125 203.777344 C 82 203.605469 81.1875 203.425781 80.378906 203.234375 C 79.570312 203.042969 78.761719 202.84375 77.957031 202.632812 C 77.152344 202.421875 76.351562 202.203125 75.554688 201.972656 C 74.753906 201.746094 73.957031 201.507812 73.164062 201.257812 C 72.371094 201.007812 71.582031 200.75 70.792969 200.484375 C 70.007812 200.214844 69.222656 199.9375 68.441406 199.652344 C 67.664062 199.367188 66.886719 199.070312 66.113281 198.765625 C 65.339844 198.460938 64.570312 198.144531 63.804688 197.824219 C 63.039062 197.5 62.277344 197.167969 61.519531 196.824219 C 60.761719 196.484375 60.007812 196.132812 59.257812 195.773438 C 58.507812 195.410156 57.765625 195.042969 57.023438 194.664062 C 56.285156 194.285156 55.546875 193.898438 54.816406 193.503906 C 54.085938 193.109375 53.359375 192.703125 52.640625 192.289062 C 51.917969 191.878906 51.203125 191.457031 50.492188 191.027344 C 49.78125 190.59375 49.074219 190.15625 48.375 189.710938 C 47.671875 189.261719 46.976562 188.804688 46.289062 188.34375 C 45.597656 187.878906 44.914062 187.40625 44.238281 186.925781 C 43.558594 186.445312 42.886719 185.957031 42.21875 185.460938 C 41.554688 184.960938 40.894531 184.457031 40.238281 183.945312 C 39.585938 183.433594 38.9375 182.910156 38.296875 182.382812 C 37.65625 181.855469 37.019531 181.320312 36.390625 180.777344 C 35.761719 180.234375 35.140625 179.683594 34.523438 179.125 C 30.605469 175.539062 26.910156 171.816406 23.535156 167.710938 C 23.113281 167.199219 22.695312 166.6875 22.285156 166.167969 C 21.871094 165.648438 21.464844 165.125 21.066406 164.597656 C 20.664062 164.070312 20.269531 163.539062 19.878906 163.003906 C 19.488281 162.46875 19.101562 161.929688 18.722656 161.386719 C 18.34375 160.84375 17.96875 160.296875 17.597656 159.746094 C 17.230469 159.199219 16.867188 158.644531 16.507812 158.085938 C 16.152344 157.527344 15.800781 156.96875 15.453125 156.402344 C 15.105469 155.839844 14.765625 155.269531 14.429688 154.699219 C 14.09375 154.128906 13.765625 153.554688 13.441406 152.976562 C 13.117188 152.398438 12.796875 151.816406 12.484375 151.234375 C 12.171875 150.648438 11.867188 150.0625 11.566406 149.472656 C 11.265625 148.882812 10.96875 148.289062 10.679688 147.695312 C 10.394531 147.097656 10.109375 146.5 9.832031 145.898438 C 9.554688 145.296875 9.285156 144.691406 9.019531 144.085938 C 8.753906 143.476562 8.496094 142.867188 8.242188 142.257812 C 7.992188 141.644531 7.742188 141.03125 7.503906 140.414062 C 7.261719 139.796875 7.027344 139.175781 6.800781 138.554688 C 6.570312 137.933594 6.351562 137.308594 6.132812 136.683594 C 5.917969 136.054688 5.707031 135.429688 5.503906 134.796875 C 5.300781 134.167969 5.105469 133.535156 4.914062 132.902344 C 4.722656 132.265625 4.539062 131.632812 4.359375 130.992188 C 4.183594 130.355469 4.011719 129.714844 3.847656 129.074219 C 3.679688 128.433594 3.523438 127.789062 3.371094 127.144531 C 3.214844 126.5 3.070312 125.855469 2.929688 125.207031 C 2.792969 124.5625 2.65625 123.914062 2.53125 123.261719 C 2.40625 122.613281 2.285156 121.960938 2.171875 121.308594 C 2.058594 120.65625 1.949219 120.003906 1.847656 119.347656 C 1.746094 118.695312 1.652344 118.039062 1.566406 117.382812 C 1.476562 116.726562 1.398438 116.070312 1.324219 115.410156 C 1.246094 114.753906 1.179688 114.09375 1.117188 113.433594 C 1.054688 112.777344 1 112.117188 0.953125 111.457031 C 0.90625 110.796875 0.863281 110.136719 0.828125 109.472656 C 0.539062 103.066406 0.597656 96.695312 1.332031 90.3125 C 1.410156 89.660156 1.492188 89.003906 1.585938 88.351562 C 1.675781 87.695312 1.769531 87.042969 1.875 86.390625 C 1.976562 85.742188 2.085938 85.089844 2.203125 84.441406 C 2.320312 83.789062 2.441406 83.140625 2.570312 82.496094 C 2.699219 81.847656 2.835938 81.203125 2.976562 80.558594 C 3.117188 79.914062 3.265625 79.269531 3.417969 78.628906 C 3.574219 77.988281 3.734375 77.347656 3.902344 76.707031 C 4.066406 76.070312 4.242188 75.433594 4.421875 74.796875 C 4.597656 74.164062 4.785156 73.527344 4.976562 72.898438 C 5.167969 72.265625 5.367188 71.636719 5.570312 71.007812 C 5.777344 70.382812 5.984375 69.757812 6.203125 69.132812 C 6.417969 68.507812 6.640625 67.886719 6.871094 67.269531 C 7.101562 66.652344 7.335938 66.035156 7.574219 65.417969 C 7.816406 64.804688 8.0625 64.191406 8.316406 63.582031 C 8.570312 62.972656 8.828125 62.367188 9.09375 61.761719 C 9.359375 61.15625 9.628906 60.554688 9.90625 59.957031 C 10.183594 59.359375 10.464844 58.761719 10.753906 58.167969 C 11.042969 57.574219 11.339844 56.984375 11.640625 56.398438 C 11.9375 55.808594 12.246094 55.222656 12.558594 54.640625 C 12.867188 54.0625 13.1875 53.480469 13.511719 52.90625 C 13.832031 52.332031 14.160156 51.757812 14.496094 51.191406 C 14.832031 50.621094 15.171875 50.054688 15.515625 49.492188 C 15.863281 48.929688 16.214844 48.371094 16.570312 47.816406 C 16.925781 47.261719 17.289062 46.710938 17.65625 46.160156 C 18.023438 45.613281 18.398438 45.070312 18.777344 44.527344 C 19.15625 43.988281 19.539062 43.449219 19.925781 42.914062 C 20.316406 42.382812 20.710938 41.851562 21.109375 41.328125 C 21.507812 40.800781 21.914062 40.28125 22.324219 39.761719 C 22.734375 39.246094 23.148438 38.730469 23.566406 38.222656 C 23.988281 37.710938 24.410156 37.207031 24.839844 36.707031 C 25.269531 36.203125 25.707031 35.707031 26.144531 35.214844 C 26.585938 34.722656 27.03125 34.234375 27.480469 33.75 C 28.050781 33.121094 28.628906 32.496094 29.214844 31.878906 C 29.804688 31.261719 30.398438 30.652344 31 30.050781 C 31.601562 29.449219 32.210938 28.855469 32.828125 28.269531 C 33.445312 27.683594 34.070312 27.105469 34.699219 26.535156 C 35.332031 25.960938 35.96875 25.398438 36.613281 24.84375 C 37.261719 24.289062 37.914062 23.742188 38.570312 23.203125 C 39.230469 22.664062 39.894531 22.132812 40.570312 21.613281 C 41.242188 21.089844 41.917969 20.574219 42.605469 20.070312 C 43.289062 19.566406 43.980469 19.066406 44.679688 18.578125 C 45.375 18.089844 46.078125 17.613281 46.789062 17.140625 C 47.5 16.671875 48.214844 16.207031 48.933594 15.753906 C 49.65625 15.300781 50.382812 14.859375 51.113281 14.425781 C 51.84375 13.988281 52.582031 13.5625 53.324219 13.148438 C 54.066406 12.730469 54.816406 12.324219 55.570312 11.925781 C 56.320312 11.527344 57.078125 11.140625 57.839844 10.761719 C 58.605469 10.382812 59.371094 10.011719 60.144531 9.652344 C 60.914062 9.292969 61.691406 8.941406 62.472656 8.601562 C 63.25 8.261719 64.035156 7.929688 64.824219 7.609375 C 65.613281 7.289062 66.40625 6.976562 67.203125 6.675781 C 68 6.375 68.800781 6.082031 69.601562 5.800781 C 70.40625 5.519531 71.214844 5.246094 72.023438 4.984375 C 72.835938 4.726562 73.648438 4.472656 74.464844 4.234375 C 75.28125 3.992188 76.101562 3.761719 76.921875 3.539062 C 77.746094 3.320312 78.570312 3.109375 79.398438 2.910156 C 80.226562 2.707031 81.058594 2.519531 81.890625 2.339844 C 82.722656 2.160156 83.554688 1.992188 84.394531 1.832031 C 85.230469 1.671875 86.070312 1.523438 86.910156 1.386719 C 87.75 1.25 88.589844 1.121094 89.433594 1.003906 C 90.277344 0.886719 91.125 0.78125 91.96875 0.6875 C 92.816406 0.589844 93.664062 0.503906 94.511719 0.429688 C 95.359375 0.355469 96.210938 0.289062 97.058594 0.238281 C 97.910156 0.183594 98.761719 0.140625 99.609375 0.109375 Z M 100.769531 1.890625 C 94.332031 2.300781 88.027344 2.9375 81.714844 4.3125 C 81.0625 4.460938 80.410156 4.613281 79.761719 4.773438 C 79.109375 4.933594 78.460938 5.101562 77.8125 5.273438 C 77.164062 5.449219 76.519531 5.628906 75.875 5.8125 C 75.230469 6 74.589844 6.191406 73.949219 6.390625 C 73.308594 6.589844 72.671875 6.792969 72.035156 7.003906 C 71.398438 7.214844 70.765625 7.433594 70.136719 7.65625 C 69.503906 7.882812 68.875 8.113281 68.246094 8.347656 C 67.621094 8.585938 66.996094 8.828125 66.371094 9.074219 C 65.75 9.324219 65.128906 9.578125 64.511719 9.839844 C 63.894531 10.101562 63.28125 10.367188 62.667969 10.640625 C 62.058594 10.914062 61.449219 11.191406 60.839844 11.476562 C 60.234375 11.761719 59.632812 12.050781 59.03125 12.347656 C 58.429688 12.644531 57.832031 12.949219 57.238281 13.257812 C 56.640625 13.566406 56.050781 13.878906 55.460938 14.199219 C 54.875 14.519531 54.289062 14.847656 53.707031 15.179688 C 53.125 15.511719 52.546875 15.847656 51.96875 16.191406 C 51.394531 16.535156 50.824219 16.882812 50.253906 17.238281 C 49.683594 17.59375 49.121094 17.953125 48.558594 18.316406 C 47.996094 18.683594 47.441406 19.054688 46.886719 19.433594 C 46.332031 19.808594 45.78125 20.191406 45.234375 20.578125 C 44.6875 20.964844 44.144531 21.359375 43.605469 21.757812 C 43.066406 22.15625 42.535156 22.558594 42.003906 22.96875 C 41.472656 23.375 40.945312 23.789062 40.421875 24.210938 C 39.898438 24.628906 39.382812 25.054688 38.867188 25.484375 C 38.351562 25.914062 37.84375 26.347656 37.335938 26.785156 C 36.832031 27.226562 36.332031 27.671875 35.835938 28.121094 C 35.335938 28.570312 34.84375 29.023438 34.355469 29.480469 C 33.871094 29.941406 33.386719 30.40625 32.90625 30.875 C 32.429688 31.34375 31.953125 31.816406 31.484375 32.292969 C 31.015625 32.773438 30.550781 33.253906 30.089844 33.742188 C 29.632812 34.230469 29.175781 34.71875 28.726562 35.214844 C 28.277344 35.710938 27.832031 36.214844 27.390625 36.71875 C 27.015625 37.148438 26.640625 37.582031 26.269531 38.019531 C 25.902344 38.457031 25.535156 38.894531 25.171875 39.339844 C 24.808594 39.78125 24.449219 40.226562 24.09375 40.675781 C 23.742188 41.125 23.390625 41.578125 23.042969 42.03125 C 22.695312 42.488281 22.351562 42.945312 22.011719 43.40625 C 21.671875 43.867188 21.335938 44.332031 21.003906 44.796875 C 20.675781 45.265625 20.347656 45.734375 20.023438 46.207031 C 19.699219 46.679688 19.378906 47.152344 19.0625 47.628906 C 18.75 48.109375 18.4375 48.589844 18.128906 49.070312 C 17.824219 49.554688 17.519531 50.039062 17.222656 50.527344 C 16.921875 51.015625 16.628906 51.507812 16.335938 52 C 16.046875 52.492188 15.757812 52.988281 15.476562 53.484375 C 15.195312 53.984375 14.917969 54.484375 14.644531 54.988281 C 14.371094 55.488281 14.101562 55.996094 13.835938 56.503906 C 13.570312 57.007812 13.308594 57.519531 13.054688 58.03125 C 12.796875 58.542969 12.546875 59.054688 12.296875 59.574219 C 12.050781 60.089844 11.808594 60.605469 11.570312 61.125 C 11.328125 61.648438 11.09375 62.167969 10.867188 62.691406 C 10.636719 63.21875 10.410156 63.742188 10.191406 64.269531 C 9.96875 64.800781 9.753906 65.328125 9.539062 65.859375 C 9.328125 66.390625 9.121094 66.925781 8.917969 67.460938 C 8.714844 67.996094 8.519531 68.53125 8.324219 69.070312 C 8.128906 69.609375 7.941406 70.148438 7.757812 70.691406 C 7.574219 71.234375 7.394531 71.777344 7.21875 72.320312 C 7.042969 72.867188 6.871094 73.414062 6.707031 73.960938 C 6.542969 74.507812 6.378906 75.058594 6.222656 75.609375 C 6.066406 76.15625 5.914062 76.710938 5.769531 77.261719 C 5.621094 77.816406 5.480469 78.371094 5.339844 78.925781 C 5.203125 79.480469 5.070312 80.039062 4.941406 80.59375 C 4.816406 81.152344 4.691406 81.710938 4.574219 82.273438 C 4.453125 82.832031 4.339844 83.390625 4.230469 83.953125 C 4.125 84.515625 4.019531 85.078125 3.917969 85.640625 C 3.175781 89.734375 2.417969 94.738281 2.585938 98.886719 C 5.277344 97.554688 7.847656 95.980469 10.503906 94.582031 C 14.304688 92.582031 18.195312 90.742188 22.046875 88.839844 C 24.613281 87.574219 27.621094 86.886719 29.992188 85.277344 C 31.347656 84.355469 32.597656 83.203125 33.851562 82.148438 C 36.160156 80.210938 38.464844 78.25 40.664062 76.191406 C 42.0625 74.878906 43.4375 73.367188 44.964844 72.210938 C 45.253906 71.988281 45.5625 71.867188 45.90625 71.75 C 49.03125 72.554688 50.648438 74.984375 53.195312 76.695312 C 55.464844 78.21875 58.277344 78.957031 60.675781 80.308594 C 62.59375 75.105469 64.777344 66.757812 68.746094 62.761719 C 70.578125 60.917969 72.660156 60.832031 74.347656 58.410156 C 75.570312 56.65625 76.730469 54.855469 77.957031 53.105469 C 78.976562 51.65625 80.082031 50.242188 81.058594 48.769531 C 82.132812 47.15625 82.882812 45.335938 84.273438 43.945312 C 86.042969 42.175781 88.648438 41.757812 90.519531 40.109375 C 93.003906 37.925781 94.332031 34.886719 96.335938 32.320312 C 98.902344 29.03125 101.945312 26.484375 104.015625 22.757812 C 104.355469 22.074219 104.871094 20.675781 105.601562 20.367188 C 105.808594 20.277344 105.957031 20.296875 106.144531 20.402344 C 106.941406 20.832031 107.714844 22.011719 108.339844 22.6875 C 109.800781 24.257812 111.378906 25.695312 112.761719 27.34375 C 114.203125 29.066406 115.457031 30.953125 116.949219 32.632812 C 118.386719 34.242188 119.917969 35.757812 121.621094 37.089844 C 123.0625 38.214844 124.703125 39.1875 125.925781 40.5625 C 126.945312 41.707031 127.527344 43.148438 128.375 44.40625 C 129.054688 45.410156 129.957031 46.253906 130.644531 47.253906 C 132.730469 50.269531 133.070312 54.195312 135.453125 57.03125 C 137.5625 59.542969 141.273438 60.316406 143.132812 62.785156 C 144.332031 64.371094 145.027344 66.382812 145.960938 68.128906 C 147.78125 71.523438 150.757812 75.898438 153.449219 78.699219 C 156.796875 77.285156 160.15625 76.273438 163.195312 74.203125 C 165.804688 72.425781 167.738281 69.679688 170.683594 68.4375 C 172.515625 69.914062 174.011719 71.851562 175.570312 73.605469 C 177.8125 76.136719 180.300781 78.542969 183.105469 80.457031 C 186.585938 82.835938 190.597656 84.492188 194.351562 86.390625 C 196.539062 87.5 198.613281 88.789062 200.679688 90.109375 C 201.875 90.871094 203.152344 91.648438 204.242188 92.558594 C 204.234375 92.523438 204.222656 92.492188 204.214844 92.457031 C 203.804688 90.726562 203.765625 88.824219 203.480469 87.058594 C 202.839844 82.941406 201.953125 78.878906 200.816406 74.871094 C 200.601562 74.140625 200.378906 73.410156 200.148438 72.679688 C 199.917969 71.953125 199.679688 71.230469 199.433594 70.507812 C 199.1875 69.785156 198.933594 69.066406 198.671875 68.347656 C 198.40625 67.632812 198.136719 66.917969 197.859375 66.207031 C 197.578125 65.496094 197.292969 64.789062 196.996094 64.085938 C 196.703125 63.382812 196.398438 62.683594 196.089844 61.984375 C 195.777344 61.289062 195.457031 60.59375 195.132812 59.90625 C 194.804688 59.214844 194.472656 58.527344 194.128906 57.847656 C 193.789062 57.164062 193.4375 56.484375 193.082031 55.8125 C 192.722656 55.136719 192.359375 54.464844 191.984375 53.800781 C 191.613281 53.132812 191.234375 52.472656 190.84375 51.8125 C 190.457031 51.15625 190.0625 50.503906 189.660156 49.855469 C 189.257812 49.207031 188.847656 48.5625 188.433594 47.921875 C 188.015625 47.28125 187.59375 46.648438 187.160156 46.019531 C 186.730469 45.386719 186.292969 44.761719 185.847656 44.144531 C 185.402344 43.523438 184.949219 42.90625 184.488281 42.296875 C 184.03125 41.6875 183.5625 41.082031 183.089844 40.484375 C 182.617188 39.882812 182.140625 39.289062 181.652344 38.703125 C 181.167969 38.113281 180.671875 37.53125 180.175781 36.953125 C 179.675781 36.375 179.167969 35.804688 178.65625 35.238281 C 178.144531 34.671875 177.625 34.113281 177.101562 33.558594 C 176.574219 33.003906 176.042969 32.453125 175.507812 31.914062 C 174.96875 31.371094 174.425781 30.835938 173.875 30.304688 C 173.328125 29.773438 172.769531 29.25 172.210938 28.734375 C 171.648438 28.214844 171.082031 27.703125 170.507812 27.199219 C 169.933594 26.695312 169.355469 26.195312 168.773438 25.703125 C 168.1875 25.210938 167.597656 24.726562 167.003906 24.25 C 166.410156 23.769531 165.808594 23.300781 165.203125 22.835938 C 164.597656 22.371094 163.984375 21.910156 163.367188 21.460938 C 162.753906 21.007812 162.132812 20.566406 161.503906 20.128906 C 160.878906 19.691406 160.246094 19.261719 159.613281 18.839844 C 158.976562 18.417969 158.335938 18 157.691406 17.59375 C 156.828125 17.050781 155.960938 16.523438 155.085938 16.007812 C 154.210938 15.492188 153.324219 14.992188 152.433594 14.503906 C 151.542969 14.015625 150.644531 13.539062 149.742188 13.078125 C 148.835938 12.617188 147.921875 12.167969 147.003906 11.734375 C 146.085938 11.300781 145.160156 10.878906 144.230469 10.472656 C 143.300781 10.066406 142.363281 9.671875 141.417969 9.292969 C 140.476562 8.914062 139.527344 8.550781 138.574219 8.199219 C 137.621094 7.847656 136.664062 7.511719 135.699219 7.1875 C 134.734375 6.867188 133.765625 6.558594 132.792969 6.265625 C 131.820312 5.972656 130.84375 5.695312 129.863281 5.429688 C 128.878906 5.164062 127.894531 4.914062 126.90625 4.679688 C 125.917969 4.445312 124.925781 4.226562 123.929688 4.019531 C 122.933594 3.816406 121.9375 3.625 120.933594 3.449219 C 119.933594 3.273438 118.929688 3.113281 117.925781 2.96875 C 116.917969 2.824219 115.910156 2.691406 114.902344 2.578125 C 113.890625 2.460938 112.878906 2.359375 111.867188 2.277344 C 108.316406 1.945312 104.324219 1.574219 100.769531 1.890625 Z M 118.964844 79.058594 C 119.335938 79.191406 119.691406 79.324219 119.964844 79.625 C 121.355469 81.164062 120.957031 85.671875 121.234375 87.703125 C 121.632812 90.625 126.875 105.542969 128.558594 107.535156 C 129.644531 108.820312 131.839844 108.167969 132.730469 109.710938 C 133.167969 110.460938 133.332031 111.359375 133.574219 112.1875 C 134.132812 114.101562 134.949219 116.5625 136.699219 117.71875 C 138.773438 119.09375 143.425781 117.878906 144.492188 119.460938 C 145.058594 120.300781 144.789062 122.71875 144.976562 123.835938 C 145.1875 125.097656 145.671875 126.332031 146.3125 127.433594 C 148.910156 131.917969 152.003906 130.308594 153.617188 132.382812 C 154.867188 133.996094 154.671875 136.460938 155.539062 138.292969 C 156.289062 139.871094 157.671875 141.253906 158.6875 142.679688 C 159.65625 144.042969 160.378906 145.570312 161.335938 146.945312 C 162.796875 149.050781 164.632812 150.847656 166.421875 152.667969 L 166.429688 152.835938 L 166.625 152.925781 C 166.566406 152.894531 166.472656 152.851562 166.414062 152.816406 C 164.769531 151.8125 161.386719 148.578125 160.265625 147.019531 C 159.535156 146 158.980469 144.867188 158.195312 143.875 C 157.011719 142.382812 155.589844 141.101562 154.710938 139.386719 C 154.117188 138.222656 153.941406 136.925781 153.609375 135.675781 C 152.503906 131.527344 150.945312 132.9375 148.324219 131.359375 C 145.832031 129.855469 143.945312 126.289062 143.671875 123.445312 C 143.582031 122.507812 143.785156 121.28125 143.476562 120.394531 C 142.988281 119 138.398438 120.039062 136.390625 118.933594 C 133.652344 117.429688 132.476562 112.605469 131.621094 109.828125 C 130.746094 109.695312 129.769531 109.585938 128.953125 109.238281 C 128.1875 108.910156 127.746094 108.34375 127.3125 107.660156 C 125.285156 104.449219 124.210938 100.480469 122.941406 96.925781 C 122.105469 94.601562 121.101562 92.238281 120.570312 89.828125 C 119.863281 86.628906 120.335938 83.5 119.03125 80.394531 C 118.101562 80.441406 116.996094 80.609375 116.085938 80.449219 C 114.683594 80.203125 114.074219 78.832031 113.339844 77.773438 C 112.21875 77.273438 110.871094 77.167969 109.839844 76.5 C 108.835938 75.84375 108.730469 74.746094 108.476562 73.683594 C 107.941406 71.476562 106.40625 71.59375 104.769531 70.566406 C 99.890625 67.503906 99.867188 64.027344 98.742188 58.878906 C 97.382812 60.175781 95.964844 61.347656 94.835938 62.859375 C 94.746094 66.359375 95.613281 69.910156 96.140625 73.351562 C 96.449219 75.371094 96.578125 77.421875 97.0625 79.410156 C 97.304688 80.421875 97.660156 81.441406 98.164062 82.355469 C 99.144531 84.128906 101.164062 85.191406 102.023438 87.007812 C 103.242188 89.578125 102.632812 92.671875 103.804688 95.335938 C 104.902344 97.828125 107.117188 99.777344 108.554688 102.09375 C 111.015625 106.066406 112.195312 110.636719 113.675781 115.019531 L 113.648438 115.015625 L 113.6875 115.175781 C 112.765625 113.554688 112.011719 111.78125 111.195312 110.097656 C 109.839844 107.308594 108.398438 104.511719 106.839844 101.828125 C 106.457031 101.167969 106.054688 100.476562 105.578125 99.875 C 104.566406 98.605469 103.308594 97.601562 102.6875 96.058594 C 101.609375 93.386719 102.226562 90.351562 101.113281 87.730469 C 100.300781 85.824219 98.011719 85.210938 97 83.4375 C 95.363281 80.566406 95.511719 76.832031 94.996094 73.648438 C 94.546875 70.890625 93.949219 68.164062 93.535156 65.398438 C 92.246094 68.121094 91.039062 70.878906 89.917969 73.675781 C 88.792969 76.46875 87.757812 79.296875 86.804688 82.15625 C 85.800781 85.175781 84.285156 86.425781 82.035156 88.53125 C 81.625 88.914062 81.148438 89.554688 80.65625 89.804688 C 80.492188 90.535156 80.542969 91.34375 80.542969 92.09375 C 80.558594 93.457031 80.617188 94.816406 80.878906 96.15625 C 81.230469 97.941406 81.925781 99.707031 83.113281 101.105469 C 84.148438 102.320312 85.640625 102.824219 86.8125 103.859375 C 87.75 104.691406 88.476562 105.742188 89.421875 106.566406 C 90.386719 107.40625 91.601562 107.941406 92.5 108.859375 C 93.371094 109.753906 93.792969 110.988281 94.726562 111.859375 C 95.65625 112.726562 96.933594 113.167969 97.898438 114.007812 C 99.316406 115.246094 99.695312 117.46875 101.335938 118.457031 C 102.945312 119.421875 105.289062 118.695312 107.074219 119.425781 C 108.738281 120.109375 108.898438 122.132812 110.324219 122.953125 C 112.632812 124.28125 115.34375 123.390625 118.464844 125.707031 C 122.398438 128.628906 124.175781 133.414062 128.300781 136.199219 C 129.070312 136.175781 129.84375 136.140625 130.605469 136.226562 C 134.769531 136.699219 133.5625 139.171875 135.953125 141.113281 C 137.355469 142.25 139.671875 142.070312 141.277344 143.011719 C 143.058594 144.0625 143.167969 145.824219 144.441406 147.207031 C 145.296875 148.132812 146.617188 147.992188 147.566406 148.703125 C 148.957031 149.746094 150.011719 151.972656 151.121094 153.382812 C 153.078125 153.757812 155.058594 154.0625 156.992188 154.542969 C 160.136719 155.328125 163.421875 156.699219 166.707031 156.605469 C 169.507812 156.527344 180.253906 149 183.367188 147.207031 C 186.902344 145.171875 192.816406 142.457031 196.859375 142.191406 C 197.46875 140.238281 198.40625 138.351562 199.101562 136.421875 C 197.328125 134.679688 195.390625 133.101562 193.625 131.34375 C 191.742188 129.46875 189.96875 127.492188 188.089844 125.613281 C 186.082031 123.605469 183.882812 121.636719 181.710938 119.804688 C 179.21875 117.699219 176.339844 116.121094 173.847656 114.027344 C 172.261719 112.699219 171.363281 110.71875 169.722656 109.472656 C 167.976562 108.148438 165.589844 107.917969 163.777344 106.679688 C 162.558594 105.847656 161.515625 104.730469 160.445312 103.71875 C 159.089844 102.433594 157.691406 101.203125 156.164062 100.121094 C 151.535156 96.84375 146.363281 94.449219 141.578125 91.429688 C 141.585938 91.597656 141.589844 91.761719 141.605469 91.929688 C 141.914062 95.207031 142.4375 99.660156 145.5 101.546875 C 146.546875 102.191406 147.820312 102.597656 148.648438 103.546875 C 150.125 105.242188 149.699219 107.882812 151.277344 109.527344 C 152.363281 110.65625 154.074219 110.914062 155.363281 111.761719 C 156.9375 112.792969 157.867188 114.574219 159.566406 115.433594 C 161.75 116.539062 164.289062 116.761719 166.609375 117.480469 C 169.183594 118.273438 171.46875 119.800781 173.832031 121.046875 C 175.109375 121.722656 176.617188 122.3125 177.75 123.21875 C 179.796875 124.851562 179.515625 128.042969 181.304688 129.960938 C 183.191406 131.984375 186.421875 132.113281 188.570312 133.839844 C 189.878906 134.886719 190.300781 136.527344 191.292969 137.816406 C 192.308594 139.132812 193.691406 140.179688 194.949219 141.25 C 192.617188 140.195312 191.085938 139.167969 189.632812 137.035156 C 188.980469 136.074219 188.351562 135.191406 187.394531 134.503906 C 185.253906 132.96875 182.332031 132.722656 180.457031 130.78125 C 179.03125 129.308594 178.796875 127.253906 177.859375 125.515625 C 177.570312 124.984375 177.183594 124.445312 176.707031 124.0625 C 174.8125 122.550781 168.042969 119.253906 165.625 118.359375 C 164.261719 117.855469 162.824219 117.546875 161.433594 117.132812 C 159.253906 116.488281 158.167969 115.972656 156.597656 114.320312 C 156.035156 113.730469 155.492188 113.144531 154.796875 112.710938 C 153.535156 111.914062 151.921875 111.835938 150.796875 110.785156 C 149.160156 109.25 149.410156 106.734375 148.128906 104.992188 C 146.308594 102.523438 143.464844 102.269531 142.0625 99.125 C 140.671875 95.992188 141.328125 91.742188 139.066406 89.0625 C 137.199219 86.851562 134.648438 85.304688 132.554688 83.316406 C 131.1875 82.019531 130.210938 80.230469 128.683594 79.125 C 127.269531 78.097656 125.359375 77.933594 124.035156 76.757812 C 122.65625 75.53125 122.199219 73.644531 120.757812 72.476562 C 119.078125 71.121094 116.082031 71.316406 114.867188 69.441406 C 114.089844 68.238281 114.3125 66.507812 113.851562 65.15625 C 113.054688 62.808594 111.550781 60.757812 110.699219 58.433594 C 110.03125 56.609375 109.695312 54.707031 109.203125 52.835938 C 108.671875 50.828125 107.832031 48.632812 106.828125 46.804688 L 106.757812 46.683594 C 106.046875 47.527344 105.5 48.542969 104.824219 49.425781 C 103.78125 50.789062 102.621094 52.054688 101.609375 53.441406 C 100.1875 55.382812 99.671875 56.613281 100.066406 59.027344 C 100.242188 60.121094 100.53125 61.207031 100.800781 62.285156 C 101.539062 65.195312 102.414062 68.042969 105.300781 69.492188 C 106.398438 70.042969 107.746094 70.390625 108.621094 71.285156 C 109.636719 72.328125 109.308594 73.894531 110.113281 75.007812 C 111.058594 76.316406 112.839844 75.933594 114.0625 76.765625 C 114.902344 77.339844 115.054688 78.492188 115.878906 79.042969 C 116.71875 79.601562 118.050781 79.230469 118.964844 79.058594 Z M 79.234375 91.058594 C 78.320312 92.273438 77.25 93.347656 76.375 94.605469 C 74.761719 96.917969 73.554688 99.53125 71.515625 101.523438 C 68.800781 104.183594 65.324219 105.96875 62.84375 108.859375 C 61.09375 110.90625 61.160156 113.78125 59.515625 115.84375 C 58.351562 117.308594 56.761719 118.363281 55.535156 119.765625 C 54.421875 121.039062 53.734375 122.683594 52.46875 123.824219 C 51.253906 124.914062 49.636719 125.441406 48.503906 126.632812 C 46.800781 128.421875 45.847656 130.804688 44.203125 132.648438 C 42.617188 134.429688 40.289062 135.390625 38.5625 137.027344 C 36.871094 138.632812 35.6875 140.6875 34 142.324219 C 34.667969 143.160156 35.976562 144.441406 35.890625 145.554688 C 35.640625 145.820312 35.351562 145.769531 35 145.78125 C 35.214844 146.796875 37.207031 147.558594 36.882812 148.773438 C 36.632812 148.992188 36.410156 149.042969 36.085938 149.007812 C 35.664062 148.964844 35.289062 148.746094 34.914062 148.5625 C 34.882812 148.546875 34.851562 148.535156 34.820312 148.519531 C 35.945312 149.777344 37 150.875 38.460938 151.746094 C 39.109375 151.488281 39.757812 151.238281 40.414062 150.996094 C 39.847656 150.890625 39.035156 150.84375 38.652344 150.363281 C 38.476562 150.148438 38.449219 149.921875 38.503906 149.65625 C 38.507812 149.621094 38.523438 149.589844 38.535156 149.554688 C 38.808594 148.824219 39.597656 148.226562 40.175781 147.726562 C 41.5625 146.519531 42.921875 145.5 43.628906 143.738281 C 43.976562 142.878906 44.242188 142.007812 44.710938 141.203125 C 44.820312 141.015625 44.9375 140.773438 45.136719 140.667969 C 45.21875 140.625 45.234375 140.632812 45.316406 140.683594 C 45.953125 141.074219 46.84375 144.3125 47.394531 145.203125 C 48.101562 146.335938 49.210938 147.183594 50.195312 148.0625 C 50.789062 147.671875 51.421875 147.292969 51.941406 146.804688 C 53.667969 145.171875 53.9375 142.394531 54.5 140.1875 C 54.601562 139.796875 54.75 139.1875 55.191406 139.113281 C 56.136719 140.101562 56.417969 143.035156 57.351562 144.460938 C 58.46875 146.171875 60.4375 147.042969 61.804688 148.53125 C 60.496094 148.425781 59.394531 148.070312 58.203125 147.519531 C 59.546875 149.175781 61.277344 151.035156 62.152344 152.992188 C 60.527344 153.160156 59.40625 152.75 58.136719 151.734375 C 57.5625 151.277344 55.945312 149.941406 55.820312 149.242188 C 56.335938 149.140625 56.90625 149.28125 57.421875 149.371094 C 58.269531 150.078125 59.0625 150.847656 59.9375 151.527344 C 59.917969 151.5 59.902344 151.472656 59.886719 151.445312 C 59.226562 150.378906 58.097656 149.679688 57.425781 148.59375 C 56.378906 146.917969 56.003906 144.816406 55.125 143.03125 C 54.472656 145.953125 53.710938 147.128906 51.574219 149.15625 C 52.996094 149.507812 54.195312 149.394531 55.628906 149.199219 C 54.589844 150.128906 53.839844 151.316406 52.828125 152.230469 C 52.351562 152.660156 51.652344 152.789062 51.246094 153.300781 C 51.277344 153.566406 51.308594 153.539062 51.488281 153.722656 C 52.363281 153.804688 53.355469 153.484375 54.246094 153.433594 C 55.503906 153.355469 60.125 153.757812 61.074219 154.355469 L 61.234375 154.609375 C 61.171875 154.871094 61.09375 155.007812 60.859375 155.15625 C 60.660156 155.285156 60.425781 155.382812 60.210938 155.480469 L 60.339844 155.566406 C 60.824219 155.886719 61.53125 156.378906 61.726562 156.941406 C 61.761719 157.046875 61.75 157.101562 61.742188 157.203125 C 61.523438 157.449219 61.324219 157.535156 60.992188 157.5625 C 60.597656 157.59375 60.203125 157.53125 59.8125 157.476562 C 60.507812 157.976562 61.1875 158.453125 61.996094 158.765625 C 63.390625 157.4375 64.160156 155.664062 65.566406 154.371094 C 64.769531 154.714844 63.511719 155.222656 62.636719 154.957031 C 62.53125 154.921875 62.480469 154.878906 62.398438 154.820312 C 62.351562 154.5625 62.378906 154.421875 62.535156 154.199219 C 62.898438 153.691406 66.117188 152.375 66.886719 151.914062 C 67.410156 151.601562 67.890625 151.214844 68.378906 150.847656 C 68.867188 150.484375 69.9375 149.464844 70.488281 149.433594 C 70.554688 149.425781 70.625 149.4375 70.695312 149.4375 C 70.773438 149.632812 70.804688 149.679688 70.722656 149.886719 C 70.058594 151.519531 66.945312 153.125 65.660156 154.351562 C 67.0625 153.585938 68.347656 152.871094 69.925781 152.519531 C 68.800781 154.386719 66.761719 155.460938 65.242188 156.980469 L 64.785156 157.433594 C 67.671875 156.390625 70.554688 155.492188 73.488281 154.601562 C 72.386719 153.882812 71.382812 153.125 70.425781 152.222656 C 72.492188 152.671875 74.363281 153.398438 76.308594 154.203125 C 76.609375 153.796875 76.890625 153.410156 77.117188 152.960938 C 76.894531 152.957031 77.023438 152.941406 76.769531 153.027344 C 76.292969 153.199219 75.796875 153.160156 75.335938 152.949219 C 74.183594 152.414062 73.371094 151.015625 72.792969 149.929688 C 74.308594 150.78125 75.980469 151.355469 77.339844 152.457031 C 78.042969 151.476562 78.800781 150.535156 79.613281 149.640625 C 80.503906 148.65625 82.75 146.898438 83.148438 145.746094 L 83.070312 145.554688 C 81.8125 145.183594 79.53125 147.578125 78.542969 146.320312 C 78.703125 145.957031 79.097656 145.664062 79.390625 145.402344 C 80.097656 144.777344 80.890625 144.238281 81.625 143.640625 C 82.703125 142.746094 83.730469 141.800781 84.714844 140.800781 C 83.445312 140.9375 79.964844 141.75 79.058594 141.527344 C 79.050781 141.203125 79.296875 140.980469 79.511719 140.75 C 81.035156 139.140625 83.984375 137.710938 84.875 135.667969 C 85.152344 135.039062 85.425781 134.386719 85.621094 133.722656 C 85.828125 133.015625 86.113281 130.265625 86.761719 130.097656 C 87.4375 130.699219 88.0625 134.289062 88.933594 135.613281 C 90.285156 137.679688 92.808594 138.859375 94.144531 140.921875 C 94.105469 141.097656 94.140625 141.085938 94.007812 141.179688 C 93.210938 141.726562 91.054688 141.484375 90.105469 141.390625 C 91.203125 142.292969 95.457031 145.253906 95.671875 146.34375 C 94.917969 146.878906 91.832031 146.253906 90.816406 146.1875 C 91.652344 146.6875 95.753906 149.300781 95.976562 149.992188 C 95.507812 150.648438 94.175781 151.089844 93.429688 151.359375 C 94.632812 152.078125 98.042969 154.105469 98.582031 155.199219 L 98.53125 155.386719 C 98.1875 155.539062 97.886719 155.457031 97.550781 155.328125 C 95.011719 154.359375 88.257812 150.035156 86.40625 147.96875 L 86.347656 147.902344 C 89.046875 149.417969 90.453125 150.359375 93.644531 150.097656 C 91.789062 148.257812 89.816406 146.765625 88.332031 144.570312 C 89.785156 144.894531 91.238281 145.222656 92.707031 145.484375 C 90.703125 143.855469 89.179688 142.140625 87.789062 139.964844 C 88.945312 139.984375 90.140625 140.023438 91.285156 140.195312 C 89.5 138.316406 88.078125 136.394531 86.671875 134.222656 C 85.71875 136.644531 84.679688 138.339844 82.652344 140 C 83.933594 139.769531 85.367188 139.640625 86.667969 139.695312 C 85.886719 141.847656 84.402344 143.324219 82.609375 144.695312 C 83.632812 144.574219 84.667969 144.417969 85.703125 144.421875 C 84.941406 145.59375 84.09375 146.796875 83.167969 147.84375 C 82.46875 148.640625 81.675781 149.351562 80.988281 150.15625 C 80.085938 151.210938 79.300781 152.382812 78.410156 153.453125 L 78.472656 153.523438 C 79.179688 153.1875 79.664062 152.53125 80.210938 151.992188 C 81.5625 150.648438 83.835938 150.03125 85.683594 149.859375 C 85.28125 150.203125 84.882812 150.5625 84.449219 150.863281 C 83.195312 151.625 81.789062 152.304688 80.679688 153.265625 C 83.023438 153.035156 85.464844 152.871094 87.796875 153.214844 C 91.886719 153.816406 95.730469 155.59375 99.84375 156.257812 C 101.089844 154.878906 102.667969 153.816406 103.820312 152.363281 C 102.765625 152.625 100.195312 153.484375 99.246094 153.1875 C 99.136719 153.027344 99.109375 153.058594 99.132812 152.890625 C 99.296875 151.6875 102.640625 149.394531 103.558594 148.226562 C 104.289062 147.292969 104.746094 146.175781 105.183594 145.085938 C 104.234375 145.414062 101.335938 146.625 100.417969 146.359375 C 100.339844 146.078125 100.394531 145.945312 100.535156 145.691406 C 101.675781 143.671875 103.894531 142.402344 105.179688 140.46875 C 106.441406 138.570312 106.6875 136.101562 107.808594 134.570312 C 109.238281 135.871094 109.578125 138.164062 110.820312 139.714844 C 112.210938 141.449219 114.78125 142.972656 115.746094 144.914062 L 115.746094 145.128906 C 115.128906 145.457031 112.640625 144.886719 111.828125 144.769531 C 112.746094 145.527344 113.660156 146.28125 114.683594 146.902344 C 115.472656 147.382812 118.980469 148.78125 119.332031 149.414062 C 119.152344 149.574219 118.832031 149.527344 118.597656 149.507812 C 116.753906 149.371094 114.996094 149.027344 113.140625 149.191406 C 114.128906 149.945312 115.125 150.703125 116.160156 151.394531 C 117.136719 152.046875 118.300781 152.621094 119.125 153.457031 C 119.148438 153.480469 119.175781 153.503906 119.199219 153.527344 C 118.113281 153.835938 116.996094 154.007812 115.886719 154.203125 C 117.425781 155.054688 118.851562 155.792969 120.660156 155.265625 C 121.285156 155.085938 121.894531 154.78125 122.460938 154.46875 C 122.164062 154.257812 121.871094 154.09375 121.71875 153.746094 C 121.78125 153.515625 121.792969 153.492188 122.019531 153.378906 C 122.722656 153.015625 124.015625 152.980469 124.382812 152.207031 C 123.617188 151.578125 122.140625 152.273438 121.414062 151.542969 C 121.46875 151.289062 121.503906 151.203125 121.691406 151.011719 C 122.726562 149.964844 123.929688 149.398438 124.785156 148.109375 C 125.519531 147.003906 126.222656 143.972656 126.890625 143.527344 C 127.183594 143.546875 127.277344 143.621094 127.464844 143.847656 C 128.230469 144.777344 128.199219 146.367188 128.839844 147.410156 C 129.679688 148.777344 131.054688 149.597656 132.089844 150.78125 C 131.617188 151.0625 131.15625 151.324219 130.648438 151.539062 C 131.617188 152.214844 133.328125 153.085938 133.902344 154.121094 L 133.859375 154.304688 C 133.234375 154.585938 132.160156 154.195312 131.542969 153.960938 C 131.125 153.800781 130.714844 153.632812 130.304688 153.453125 C 131.027344 153.984375 133.519531 155.492188 133.640625 156.375 C 133.664062 156.542969 133.578125 156.585938 133.484375 156.707031 C 132.304688 157.25 130.132812 156.929688 128.851562 156.746094 C 130.183594 157.28125 131.5 157.863281 132.859375 158.332031 C 134.128906 157.699219 135.570312 157.277344 136.902344 156.789062 C 140.910156 155.320312 145.085938 153.644531 149.414062 153.503906 C 148.648438 152.417969 147.898438 150.914062 146.835938 150.101562 C 145.828125 149.332031 144.492188 149.167969 143.582031 148.234375 C 142.300781 146.921875 142.027344 145.089844 140.265625 144.109375 C 138.628906 143.199219 136.503906 143.503906 134.996094 142.339844 C 133.15625 140.917969 133.824219 138.460938 130.957031 137.902344 C 130.828125 137.878906 130.695312 137.859375 130.566406 137.84375 C 129.457031 137.707031 128.390625 137.835938 127.324219 137.394531 C 123.734375 135.902344 120.65625 128.605469 116.394531 126.300781 C 115.613281 125.878906 114.746094 125.558594 113.882812 125.355469 C 112.054688 124.925781 109.570312 124.9375 108.367188 123.292969 C 107.355469 121.910156 107.023438 120.667969 105.101562 120.339844 C 102.710938 119.933594 101.058594 120.890625 99.308594 118.542969 C 98.519531 117.480469 97.992188 116.203125 96.984375 115.3125 C 95.980469 114.425781 94.621094 114.027344 93.683594 113.058594 C 92.882812 112.230469 92.515625 111.074219 91.75 110.222656 C 90.851562 109.222656 89.539062 108.726562 88.53125 107.855469 C 87.300781 106.789062 86.359375 105.429688 85.125 104.359375 C 85.050781 104.296875 84.984375 104.230469 84.914062 104.167969 C 84.785156 106.492188 84.414062 108.800781 86.089844 110.710938 C 86.867188 111.597656 87.816406 112.34375 88.433594 113.371094 C 89.769531 115.601562 89.417969 119.519531 90.496094 121.101562 C 91.460938 122.519531 93.78125 121.761719 95.058594 122.726562 C 96.035156 123.464844 95.917969 124.835938 96.742188 125.6875 C 97.777344 126.765625 99.558594 126.582031 100.757812 127.5 C 102.011719 128.460938 102.34375 129.984375 103.359375 131.078125 C 103.898438 131.660156 104.652344 132.101562 105.285156 132.574219 C 105.585938 132.804688 105.835938 133.015625 105.949219 133.386719 C 105.773438 133.574219 105.613281 133.589844 105.363281 133.597656 C 104.53125 133.628906 103.707031 132.902344 103.164062 132.335938 C 102.042969 131.175781 101.570312 129.363281 100.328125 128.402344 C 99.019531 127.390625 97.144531 127.78125 95.914062 126.660156 C 94.917969 125.753906 95.15625 124.109375 93.933594 123.320312 C 92.785156 122.582031 90.875 123.234375 89.878906 122.222656 C 88.292969 120.613281 88.671875 117.277344 87.953125 115.226562 C 86.894531 112.195312 83.671875 111.589844 83.773438 107.777344 C 83.796875 106.839844 84.191406 104.484375 83.523438 103.757812 C 83.007812 103.957031 82.523438 104.488281 82.128906 104.867188 C 81.019531 105.921875 79.988281 107.0625 79.128906 108.332031 C 78.082031 109.882812 77.246094 111.539062 75.917969 112.886719 C 73.859375 114.96875 71.011719 116.320312 69.773438 119.121094 C 69.101562 120.640625 69.015625 122.417969 68.125 123.84375 C 67.296875 125.167969 65.890625 125.941406 64.917969 127.132812 C 64.171875 128.050781 63.910156 129.308594 63.015625 130.070312 C 62.054688 130.882812 60.78125 131.152344 59.867188 132.054688 C 59.207031 132.707031 58.714844 133.511719 58.199219 134.277344 C 56.953125 136.128906 55.40625 137.429688 53.324219 138.25 C 52.785156 138.460938 52.179688 138.652344 51.597656 138.59375 L 51.496094 138.445312 C 52.101562 137.238281 54.535156 136.414062 55.648438 135.628906 C 57.425781 134.378906 57.890625 132.394531 59.359375 130.957031 C 60.265625 130.074219 61.675781 129.90625 62.527344 128.972656 C 63.257812 128.175781 63.328125 126.992188 64.050781 126.175781 C 65.332031 124.734375 66.8125 124.496094 67.660156 122.496094 C 68.40625 120.734375 68.375 118.691406 69.425781 117.050781 C 70.789062 114.929688 73.300781 113.683594 74.984375 111.816406 C 78.035156 108.441406 78.808594 105.5 82.691406 102.394531 C 80.738281 99.785156 79.867188 97.3125 79.542969 94.070312 C 79.445312 93.082031 79.46875 92.019531 79.234375 91.058594 Z M 75.019531 167.449219 C 61.335938 168.453125 49.324219 174.4375 36.292969 178.019531 L 36.398438 178.101562 C 37.957031 179.28125 39.386719 180.65625 40.917969 181.878906 C 43.984375 184.320312 47.265625 186.617188 50.582031 188.707031 C 52.980469 190.21875 55.476562 191.554688 57.996094 192.855469 C 58.546875 193.144531 59.097656 193.429688 59.652344 193.707031 C 60.207031 193.988281 60.765625 194.261719 61.324219 194.527344 C 61.882812 194.796875 62.445312 195.058594 63.011719 195.316406 C 63.578125 195.574219 64.144531 195.828125 64.714844 196.074219 C 65.28125 196.320312 65.855469 196.5625 66.429688 196.796875 C 67.003906 197.035156 67.578125 197.265625 68.160156 197.488281 C 68.738281 197.714844 69.316406 197.933594 69.902344 198.148438 C 70.484375 198.363281 71.066406 198.570312 71.65625 198.773438 C 72.242188 198.976562 72.832031 199.171875 73.421875 199.363281 C 74.011719 199.554688 74.605469 199.742188 75.199219 199.921875 C 75.792969 200.101562 76.386719 200.277344 76.984375 200.445312 C 77.582031 200.617188 78.179688 200.777344 78.78125 200.9375 C 79.382812 201.09375 79.984375 201.246094 80.589844 201.390625 C 81.191406 201.539062 81.796875 201.679688 82.402344 201.8125 C 83.007812 201.945312 83.617188 202.074219 84.222656 202.199219 C 84.832031 202.320312 85.441406 202.4375 86.054688 202.550781 C 86.664062 202.660156 87.277344 202.765625 87.890625 202.867188 C 88.5 202.964844 89.117188 203.058594 89.730469 203.148438 C 90.34375 203.234375 90.960938 203.316406 91.578125 203.394531 C 92.191406 203.472656 92.808594 203.542969 93.425781 203.605469 C 94.042969 203.671875 94.664062 203.730469 95.28125 203.78125 C 95.898438 203.835938 96.519531 203.882812 97.136719 203.921875 C 97.757812 203.964844 98.378906 204 98.996094 204.027344 C 99.617188 204.054688 100.238281 204.078125 100.859375 204.097656 C 101.480469 204.113281 102.101562 204.125 102.722656 204.132812 C 103.34375 204.136719 103.964844 204.136719 104.582031 204.128906 C 105.203125 204.125 105.824219 204.113281 106.445312 204.09375 C 107.066406 204.074219 107.6875 204.050781 108.308594 204.019531 C 108.925781 203.992188 109.546875 203.957031 110.167969 203.914062 C 110.785156 203.871094 111.40625 203.824219 112.023438 203.769531 C 112.644531 203.71875 113.261719 203.65625 113.878906 203.59375 C 114.496094 203.527344 115.113281 203.457031 115.726562 203.378906 C 116.59375 203.261719 117.453125 203.136719 118.316406 203 C 119.175781 202.859375 120.035156 202.714844 120.890625 202.554688 C 121.75 202.398438 122.605469 202.226562 123.457031 202.050781 C 124.308594 201.871094 125.160156 201.679688 126.007812 201.480469 C 126.859375 201.28125 127.703125 201.070312 128.546875 200.851562 C 129.390625 200.628906 130.230469 200.398438 131.066406 200.160156 C 131.90625 199.917969 132.742188 199.667969 133.570312 199.40625 C 134.402344 199.144531 135.230469 198.875 136.054688 198.59375 C 136.882812 198.3125 137.703125 198.019531 138.519531 197.71875 C 139.339844 197.417969 140.152344 197.105469 140.960938 196.785156 C 141.773438 196.464844 142.578125 196.132812 143.382812 195.792969 C 144.183594 195.453125 144.980469 195.101562 145.773438 194.742188 C 146.566406 194.378906 147.355469 194.011719 148.140625 193.632812 C 148.925781 193.25 149.707031 192.863281 150.480469 192.464844 C 151.253906 192.066406 152.027344 191.65625 152.789062 191.242188 C 153.554688 190.824219 154.316406 190.398438 155.070312 189.960938 C 157.789062 188.367188 160.5625 186.648438 162.980469 184.617188 C 152.105469 184.785156 141.363281 186.625 131.382812 191.082031 C 128.550781 192.347656 125.796875 194.304688 123.050781 195.410156 C 125.410156 193.71875 127.828125 192.015625 130.402344 190.667969 C 137.804688 186.789062 147.34375 184.65625 155.632812 184.007812 C 158.636719 183.773438 161.617188 183.816406 164.617188 183.671875 C 168.03125 181.175781 171.429688 178.324219 174.351562 175.265625 C 173.839844 175.285156 173.367188 175.222656 172.863281 175.148438 C 166.332031 174.957031 159.878906 174.652344 153.34375 175.011719 C 128.648438 176.378906 105.675781 184.542969 84.515625 197.058594 C 83.546875 197.632812 81.90625 198.960938 80.726562 198.535156 L 80.613281 198.382812 C 80.75 197.640625 81.597656 197.097656 82.1875 196.6875 C 83.859375 195.523438 85.730469 194.589844 87.515625 193.601562 C 91.082031 191.59375 94.71875 189.707031 98.417969 187.949219 C 101.148438 186.679688 104.105469 185.589844 106.660156 183.996094 C 103.722656 183.417969 100.835938 182.683594 97.863281 182.261719 C 82.773438 180.128906 72.261719 183.242188 58.597656 189.097656 C 61.324219 187.433594 64.234375 186.207031 67.203125 185.035156 C 79.90625 180.007812 92.746094 179.015625 106.058594 182.296875 C 107.007812 182.527344 107.9375 182.824219 108.84375 183.191406 C 112.058594 181.867188 115.539062 180.5625 118.9375 179.8125 C 117.171875 178.808594 115.332031 177.9375 113.5 177.0625 C 112.34375 176.503906 111.175781 175.96875 109.996094 175.457031 C 108.816406 174.945312 107.632812 174.457031 106.433594 173.992188 C 105.238281 173.523438 104.03125 173.082031 102.816406 172.660156 C 101.605469 172.242188 100.382812 171.84375 99.152344 171.472656 C 97.925781 171.097656 96.6875 170.75 95.445312 170.425781 C 94.203125 170.097656 92.953125 169.796875 91.699219 169.519531 C 90.445312 169.242188 89.1875 168.992188 87.921875 168.761719 C 86.65625 168.53125 85.390625 168.328125 84.117188 168.148438 C 81.09375 167.703125 78.085938 167.253906 75.019531 167.449219 Z M 195.71875 144.375 C 184.566406 146.003906 175.042969 156.246094 164.128906 159.859375 C 160.527344 161.050781 156.875 161.65625 153.089844 161.8125 C 150.621094 161.914062 148.164062 161.871094 145.699219 162.109375 C 141.796875 162.492188 137.917969 163.40625 134.105469 164.300781 C 125.238281 166.382812 116.558594 168.835938 108.527344 173.230469 C 112.867188 175.082031 117.03125 176.816406 121.054688 179.3125 C 122.941406 178.695312 124.867188 178.222656 126.789062 177.734375 C 127.960938 177.433594 129.148438 177.074219 130.332031 176.847656 C 143.207031 173.382812 156.683594 172.925781 169.921875 173.609375 C 171.898438 173.710938 173.902344 173.757812 175.871094 173.921875 C 178.800781 170.796875 181.742188 167.753906 184.328125 164.324219 C 185.972656 162.140625 187.335938 159.757812 188.976562 157.582031 C 183.382812 159.460938 177.886719 161.539062 172.832031 164.625 C 173.394531 163.980469 173.984375 163.59375 174.664062 163.09375 C 179.144531 159.816406 184.429688 157.890625 189.707031 156.304688 C 190.847656 154.335938 195.703125 146.179688 195.808594 144.429688 Z M 107.074219 23.863281 C 106.929688 25.328125 106.953125 26.683594 107.53125 28.0625 C 109.050781 31.6875 112.183594 34.46875 114.066406 37.90625 C 115.6875 40.875 116.429688 45.480469 118.425781 47.921875 C 119.800781 49.601562 122.277344 50.007812 123.421875 51.898438 C 124.363281 53.453125 124.6875 55.484375 125.230469 57.203125 C 125.90625 59.339844 126.742188 61.492188 127.222656 63.679688 C 127.496094 64.933594 127.445312 66.242188 127.84375 67.472656 C 128.53125 69.609375 130.398438 71.167969 131.308594 73.207031 C 131.816406 74.34375 132.101562 75.59375 132.570312 76.753906 C 133.09375 78.050781 133.804688 79.273438 134.3125 80.578125 C 134.761719 81.738281 134.980469 83.273438 135.800781 84.230469 C 136.707031 85.292969 137.9375 86.050781 138.992188 86.953125 C 140.390625 88.152344 141.636719 89.492188 143.160156 90.546875 C 144.949219 91.789062 146.988281 92.746094 148.90625 93.777344 C 151.171875 94.976562 153.371094 96.292969 155.496094 97.722656 C 157.1875 98.859375 158.84375 100.03125 160.351562 101.40625 C 161.675781 102.617188 162.898438 104.023438 164.34375 105.085938 C 166.265625 106.492188 168.757812 106.757812 170.691406 108.128906 C 172.285156 109.261719 173.035156 111.199219 174.507812 112.484375 C 176.1875 113.949219 178.15625 115.054688 179.949219 116.367188 C 181.546875 117.542969 183.089844 118.789062 184.582031 120.097656 C 186.074219 121.40625 187.507812 122.777344 188.882812 124.207031 C 187.769531 119.3125 184.257812 117.890625 181.554688 114.214844 C 179.699219 111.699219 178.886719 108.625 177.222656 105.992188 C 175.660156 103.515625 173.644531 101.398438 171.785156 99.148438 C 169.636719 96.550781 167.605469 93.878906 165.320312 91.398438 C 163.257812 89.160156 160.980469 86.988281 158.621094 85.066406 C 156.222656 83.109375 153.707031 81.320312 151.59375 79.039062 C 150.722656 78.09375 149.921875 77.09375 149.191406 76.039062 C 147.972656 74.277344 146.933594 71.910156 145.074219 70.746094 C 143.035156 69.472656 140.527344 69.042969 138.542969 67.660156 C 136.722656 66.394531 136.476562 64 135.019531 62.445312 C 133.3125 60.625 130.789062 61.4375 130.0625 58.347656 C 129.839844 57.398438 129.8125 56.386719 129.496094 55.460938 C 128.707031 53.140625 126.257812 52.351562 125.117188 50.328125 C 124.503906 49.25 124.066406 48.070312 123.539062 46.949219 C 122.992188 45.78125 122.34375 44.636719 121.875 43.433594 C 121.21875 41.746094 120.765625 39.917969 119.890625 38.328125 C 118.792969 36.335938 116.730469 34.984375 115.257812 33.285156 C 114.007812 31.835938 112.964844 30.214844 111.804688 28.699219 C 110.476562 26.957031 108.796875 25.214844 107.074219 23.863281 Z M 46.222656 73.910156 C 45.390625 77.214844 42.726562 79.363281 41.175781 82.265625 C 39.929688 84.601562 40.238281 87.277344 39.199219 89.632812 C 38.359375 91.53125 36.363281 92.585938 35.671875 94.554688 C 35.316406 95.570312 35.402344 96.796875 35.394531 97.863281 C 35.414062 98.511719 35.394531 99.171875 35.207031 99.796875 C 35.207031 99.902344 35.210938 99.914062 35.191406 100.035156 C 34.972656 101.59375 34.058594 103.253906 33.476562 104.707031 C 32.652344 106.753906 31.921875 108.914062 30.871094 110.855469 C 30.515625 111.507812 30.078125 112.234375 29.488281 112.699219 C 27.75 114.078125 25.53125 114.585938 24.136719 116.4375 C 23.027344 117.914062 22.777344 120.976562 21.472656 121.832031 C 20.527344 122.453125 19.308594 122.132812 18.28125 121.929688 C 16.214844 123.300781 14.828125 125.445312 13.023438 127.105469 C 11.027344 128.9375 8.714844 130.425781 6.914062 132.46875 C 6.808594 133.828125 9.203125 139.570312 9.929688 141.082031 C 12.949219 137.542969 16.15625 135.023438 19.457031 131.839844 C 22.1875 129.207031 24.71875 126.265625 27.648438 123.859375 C 29.941406 121.980469 33.324219 120.296875 35.246094 118.402344 C 36.527344 117.140625 37.078125 115.292969 38.207031 113.898438 C 39.269531 112.589844 40.824219 111.75 41.832031 110.382812 C 42.757812 109.125 43.160156 107.570312 44.320312 106.464844 C 45.445312 105.390625 46.957031 105.167969 48.285156 104.464844 C 48.320312 104.445312 48.351562 104.429688 48.386719 104.410156 C 49.253906 102.058594 50.90625 100.328125 51.957031 98.113281 C 52.546875 96.871094 52.714844 95.625 52.957031 94.296875 C 53.320312 92.320312 54.472656 90.867188 55.695312 89.335938 C 53.582031 86.769531 51.398438 83.917969 49.742188 81.027344 C 48.4375 78.742188 47.367188 76.28125 46.222656 73.910156 Z M 44.609375 75.105469 C 41.582031 77.34375 39.007812 79.972656 36.148438 82.398438 C 34.191406 84.050781 32.089844 85.53125 30.113281 87.160156 C 29.1875 87.933594 28.292969 88.746094 27.433594 89.59375 C 26.574219 90.441406 25.75 91.324219 24.964844 92.242188 C 23.664062 93.742188 22.503906 95.371094 21.261719 96.917969 C 20.039062 98.4375 18.679688 99.84375 17.632812 101.496094 C 16.582031 103.152344 16.101562 105.214844 14.84375 106.722656 C 13.316406 108.566406 10.726562 109.117188 9.097656 110.957031 C 6.933594 113.398438 6.707031 115.128906 3.6875 117.230469 L 3.777344 117.246094 L 3.582031 117.304688 C 3.679688 120.164062 4.363281 123.125 5.027344 125.902344 C 5.25 126.839844 5.621094 127.875 5.753906 128.824219 C 5.957031 129.492188 6.125 130.226562 6.433594 130.855469 C 6.558594 130.714844 6.683594 130.570312 6.820312 130.4375 L 6.855469 130.515625 C 8.484375 129.082031 10.316406 127.898438 11.929688 126.460938 C 13.773438 124.816406 15.871094 120.75 18.699219 120.910156 C 19.242188 120.941406 20.257812 121.191406 20.707031 120.875 C 21.765625 120.121094 22.136719 117.117188 23.058594 115.882812 C 24.625 113.777344 27.160156 113.277344 28.96875 111.566406 C 29.398438 111.160156 29.726562 110.703125 29.996094 110.179688 C 30.820312 108.574219 31.316406 106.792969 31.984375 105.117188 C 32.613281 103.542969 33.433594 102 33.929688 100.382812 C 34.132812 99.714844 34.230469 99.027344 34.253906 98.328125 C 34.300781 96.867188 34.140625 95.316406 34.644531 93.917969 C 35.316406 92.042969 37.257812 90.949219 38.160156 89.15625 C 38.605469 88.269531 38.785156 87.324219 38.941406 86.351562 C 39.457031 83.132812 39.789062 81.972656 41.796875 79.328125 C 42.417969 78.511719 44.523438 75.976562 44.609375 75.105469 Z M 59.015625 112.457031 C 53.886719 114.683594 47.761719 115.949219 42.398438 117.835938 C 36.289062 119.980469 30.824219 122.714844 26.148438 127.273438 C 24.570312 128.8125 23.171875 130.542969 21.570312 132.054688 C 19.625 133.886719 17.441406 135.453125 15.507812 137.285156 C 13.707031 138.996094 12.1875 140.945312 10.535156 142.789062 C 11.285156 144.167969 11.992188 145.570312 12.648438 146.996094 C 13.382812 145.476562 14.996094 144.238281 16.125 143.003906 C 16.472656 142.625 16.792969 142.222656 17.089844 141.800781 C 17.386719 141.378906 17.660156 140.941406 17.902344 140.484375 L 17.949219 140.371094 C 18.378906 139.355469 18.789062 137.171875 19.800781 136.621094 C 20.082031 136.695312 20.152344 136.796875 20.289062 137.058594 C 20.632812 137.71875 20.828125 138.484375 21.082031 139.183594 C 21.597656 140.601562 22.648438 141.851562 23.855469 142.742188 C 25.039062 141.523438 26.222656 140.25 27.011719 138.730469 C 27.671875 137.464844 28.09375 135.386719 28.613281 134.488281 C 28.738281 134.273438 28.855469 134.230469 29.0625 134.117188 C 29.289062 134.160156 29.394531 134.34375 29.519531 134.527344 C 30.09375 135.378906 30.351562 136.476562 30.753906 137.417969 C 31.347656 138.8125 32.199219 140.066406 33.109375 141.277344 C 34.835938 139.519531 36.097656 137.347656 37.863281 135.652344 C 39.652344 133.933594 41.886719 132.820312 43.570312 130.949219 C 45.019531 129.339844 45.859375 127.277344 47.347656 125.699219 C 48.53125 124.445312 50.183594 123.84375 51.449219 122.699219 C 52.652344 121.609375 53.238281 120.140625 54.257812 118.925781 C 55.644531 117.269531 59.371094 115.109375 59.316406 112.742188 C 59.316406 112.617188 59.304688 112.605469 59.273438 112.503906 Z M 82.757812 154.761719 C 78.421875 155.195312 74.191406 155.792969 70.042969 157.164062 C 65.332031 158.722656 60.8125 160.789062 56.230469 162.667969 C 54.265625 163.472656 52.171875 164.511719 50.109375 164.976562 C 48.941406 165.242188 47.804688 165.207031 46.613281 165.167969 C 48.867188 166.421875 51.183594 167.265625 53.648438 167.992188 C 55.023438 168.398438 56.558594 168.714844 57.847656 169.339844 C 61.832031 168.152344 65.800781 167.042969 69.925781 166.46875 C 77.707031 165.195312 83.25 166.558594 90.792969 167.9375 L 102.933594 160.652344 C 104.261719 159.871094 105.5625 159 106.917969 158.261719 C 103.703125 158.386719 100.554688 158.035156 97.429688 157.28125 C 91.9375 155.960938 88.699219 154.324219 82.757812 154.761719 Z M 86.03125 79.351562 C 85.992188 79.375 85.953125 79.398438 85.914062 79.421875 C 83.484375 80.878906 81.425781 82.859375 78.941406 84.28125 C 76.175781 85.863281 72.84375 86.378906 69.949219 87.773438 C 67.699219 88.855469 65.71875 90.371094 63.574219 91.628906 C 60.65625 93.347656 57.480469 94.683594 54.300781 95.828125 C 54.007812 96.914062 53.691406 98 53.261719 99.042969 C 57.632812 98.257812 61.316406 96.015625 65.15625 93.9375 C 67.207031 92.820312 69.289062 91.765625 71.402344 90.773438 C 72.777344 90.121094 74.246094 89.292969 75.722656 88.933594 C 75.273438 89.449219 74.804688 89.832031 74.230469 90.203125 C 71.890625 91.695312 69.277344 92.898438 66.835938 94.230469 C 63.96875 95.792969 61.167969 97.550781 58.152344 98.820312 C 56.371094 99.570312 54.402344 100.058594 52.511719 100.445312 C 52.140625 101.058594 50.449219 103.519531 50.371094 104.054688 C 52.796875 104.039062 58.386719 101.375 60.820312 100.453125 C 62.875 99.675781 64.976562 99.003906 67.003906 98.164062 C 67.425781 97.988281 69.914062 96.742188 70.121094 96.777344 C 70.179688 96.789062 70.230469 96.832031 70.285156 96.855469 C 70.304688 97.277344 70.101562 97.617188 69.808594 97.917969 C 68.523438 99.246094 64.136719 100.328125 62.28125 101.003906 C 61.09375 101.433594 59.933594 101.925781 58.773438 102.429688 C 56.949219 103.234375 55.0625 104.148438 53.144531 104.710938 C 50.621094 105.453125 47.066406 105.589844 45.15625 107.59375 C 44.652344 108.125 44.300781 108.8125 43.953125 109.457031 C 43.667969 109.984375 43.335938 110.539062 43.125 111.101562 C 43.113281 111.125 43.109375 111.15625 43.105469 111.183594 L 43.101562 111.179688 L 43.203125 111.222656 L 43.089844 111.074219 C 43.445312 111.285156 43.660156 111.1875 44.050781 111.082031 C 47.292969 110.230469 50.738281 109.371094 53.902344 108.292969 C 56.1875 107.519531 58.457031 106.402344 60.785156 105.804688 C 58.097656 108.53125 50.664062 110.460938 46.925781 111.445312 C 45.042969 111.941406 42.867188 112.296875 41.214844 113.367188 C 39.527344 114.453125 38.296875 116.347656 37.554688 118.175781 C 40.542969 117.296875 43.417969 116.054688 46.410156 115.160156 C 50.25 114.011719 55.117188 113.480469 58.585938 111.585938 C 60.199219 110.707031 60.867188 108.742188 62.179688 107.492188 C 65.105469 104.695312 68.800781 102.613281 71.394531 99.496094 C 73.464844 97.011719 74.847656 94.035156 76.894531 91.527344 C 79.308594 88.574219 83.003906 86.648438 84.867188 83.238281 C 85.445312 82.179688 86.199219 80.585938 86.03125 79.351562 Z M 171.164062 71.238281 C 171.195312 71.683594 171.199219 72.183594 171.328125 72.609375 C 171.648438 73.683594 172.230469 74.683594 172.609375 75.738281 C 173.015625 76.867188 173.171875 78.128906 173.6875 79.210938 C 174.429688 80.78125 175.441406 82.191406 176.160156 83.78125 C 177.230469 86.152344 177.367188 88.523438 179.425781 90.332031 C 181.527344 92.1875 182.382812 92.753906 183.105469 95.585938 C 183.304688 96.367188 183.472656 97.15625 183.832031 97.882812 C 184.671875 99.574219 186.539062 100.472656 187.355469 102.175781 C 188.492188 104.5625 188.304688 107.414062 189.410156 109.808594 C 189.804688 110.660156 190.402344 111.296875 191.179688 111.8125 C 193.183594 113.144531 195.746094 113.886719 197.960938 114.84375 C 199.765625 115.625 201.859375 116.902344 203.753906 117.3125 C 203.933594 117.121094 203.902344 117.03125 203.941406 116.78125 C 204.222656 115.085938 204.363281 113.375 204.472656 111.660156 C 204.535156 110.726562 204.527344 109.769531 204.675781 108.84375 C 201.46875 106.171875 199.53125 102.960938 196.683594 100.042969 C 194.789062 98.101562 192.5625 96.796875 190.824219 95.03125 C 190.496094 94.695312 190.191406 94.339844 189.90625 93.964844 C 189.621094 93.59375 189.359375 93.203125 189.117188 92.796875 C 188.148438 91.152344 187.492188 89.277344 186.875 87.476562 C 186.554688 86.550781 186.332031 85.125 185.777344 84.355469 C 184.890625 83.128906 182.972656 82.261719 181.730469 81.414062 C 180.761719 80.75 179.800781 80.023438 178.914062 79.25 C 177.410156 77.9375 175.941406 76.449219 174.597656 74.96875 C 173.652344 73.925781 172.347656 72.003906 171.25 71.285156 C 171.222656 71.269531 171.191406 71.253906 171.164062 71.238281 Z M 176.925781 89.660156 C 175.804688 91.308594 175.160156 93.121094 174.3125 94.910156 C 173.832031 95.933594 173.25 96.902344 172.660156 97.867188 C 174.511719 100.382812 176.84375 102.523438 178.476562 105.191406 C 179.972656 107.644531 180.691406 110.421875 182.386719 112.789062 C 184.195312 115.316406 186.804688 117.164062 188.527344 119.773438 C 190.246094 122.378906 190.402344 125.042969 192.515625 127.699219 C 193.953125 129.503906 195.65625 131.082031 197.375 132.617188 C 198.140625 133.300781 198.976562 133.96875 199.683594 134.714844 C 200.050781 134.421875 200.273438 133.265625 200.421875 132.78125 C 201.316406 129.867188 202.070312 126.917969 202.683594 123.933594 C 203.023438 122.285156 203.21875 120.515625 203.671875 118.902344 C 200.488281 117.480469 197.257812 116.175781 194.085938 114.726562 C 192.761719 114.125 191.132812 113.546875 190.011719 112.613281 C 189.15625 111.898438 188.621094 110.933594 188.226562 109.914062 C 187.378906 107.730469 187.253906 105.339844 186.382812 103.175781 C 185.71875 101.527344 184.085938 100.570312 183.148438 99.097656 C 182.503906 98.089844 182.199219 96.851562 181.851562 95.714844 C 181 92.921875 178.964844 91.570312 176.925781 89.660156 Z M 108.960938 33.472656 C 107.457031 36.734375 106.730469 38.304688 107.15625 41.980469 C 107.3125 43.328125 107.554688 44.644531 108.023438 45.917969 C 108.746094 47.882812 109.640625 49.757812 110.234375 51.773438 C 110.777344 53.632812 110.964844 55.632812 111.664062 57.445312 C 112.515625 59.65625 113.957031 61.628906 114.753906 63.851562 C 115.25 65.226562 115.234375 67.257812 115.882812 68.394531 C 116.296875 69.121094 117.21875 69.632812 117.964844 69.964844 C 119.273438 70.542969 120.789062 70.894531 121.964844 71.714844 C 123.277344 72.625 123.660156 74.445312 124.824219 75.523438 C 126.023438 76.636719 127.582031 76.953125 128.972656 77.707031 C 130.496094 78.53125 131.550781 79.941406 132.601562 81.269531 C 132.925781 81.628906 133.253906 81.980469 133.605469 82.316406 C 132.828125 80.816406 132.117188 79.28125 131.476562 77.714844 C 130.832031 76.132812 130.273438 74.515625 129.523438 72.976562 C 128.78125 71.445312 127.496094 70.152344 126.972656 68.515625 C 126.519531 67.097656 126.738281 65.558594 126.394531 64.121094 C 125.84375 61.835938 124.71875 59.765625 123.929688 57.566406 C 123.371094 56.015625 123.121094 54.300781 122.382812 52.824219 C 121.25 50.558594 117.996094 50.011719 116.652344 47.410156 C 115.777344 45.707031 115.175781 43.894531 114.476562 42.117188 C 113.1875 38.832031 111.386719 36.03125 108.960938 33.472656 Z M 117.5 156.972656 C 115.3125 157.148438 112.992188 157.21875 110.894531 157.90625 C 109.292969 158.433594 107.835938 159.410156 106.390625 160.265625 C 104.210938 161.558594 102.050781 162.871094 99.898438 164.210938 C 97.652344 165.582031 95.316406 166.8125 93.089844 168.210938 C 94.570312 168.820312 96.191406 169.183594 97.734375 169.621094 C 100.773438 170.476562 103.804688 171.328125 106.722656 172.554688 C 108.679688 171.425781 110.679688 170.347656 112.765625 169.46875 C 118.777344 166.613281 125.335938 164.820312 131.785156 163.261719 C 134.625 162.574219 137.441406 161.875 140.339844 161.480469 C 137.394531 160.890625 134.445312 160.394531 131.515625 159.726562 C 127.679688 158.851562 121.203125 156.5 117.5 156.972656 Z M 105.542969 38.789062 C 102.367188 40.550781 98.953125 41.761719 96.113281 44.09375 C 93.179688 46.5 90.890625 49.78125 87.699219 51.839844 C 86.308594 52.734375 84.8125 53.535156 83.261719 54.109375 C 81.675781 54.695312 79.597656 54.957031 78.226562 55.949219 C 77.171875 56.714844 76.554688 57.996094 75.984375 59.128906 C 80.296875 58.121094 88.019531 54.605469 91.578125 51.996094 C 92.804688 51.097656 93.914062 50.042969 95.089844 49.085938 C 97.878906 46.8125 100.867188 44.53125 103.964844 42.707031 C 102.324219 45.109375 100.09375 46.546875 97.832031 48.285156 C 92.523438 52.363281 87.84375 55.753906 81.648438 58.476562 C 80.457031 59 79.210938 59.425781 77.960938 59.785156 C 77 60.0625 75.882812 60.230469 74.996094 60.691406 C 74.238281 61.078125 73.515625 61.570312 72.792969 62.023438 C 71.03125 63.132812 69.863281 63.910156 68.738281 65.699219 C 70.257812 65.519531 71.8125 65.382812 73.316406 65.09375 C 77.3125 64.398438 80.832031 63.367188 84.148438 60.953125 C 85.820312 59.734375 87.433594 58.425781 89.21875 57.367188 C 91.832031 55.8125 94.632812 54.753906 97.5 53.773438 C 94.738281 56.09375 91.230469 57.238281 88.144531 59.039062 C 84.722656 61.035156 81.8125 63.8125 78.003906 65.128906 C 74.953125 66.183594 70.628906 66.113281 68.011719 67.589844 C 66.789062 68.277344 66.289062 69.488281 65.9375 70.777344 C 68.476562 68.394531 70.382812 68.179688 73.714844 67.816406 C 75.410156 67.632812 77.097656 67.359375 78.742188 66.894531 C 82.285156 65.898438 85.21875 64.097656 88.183594 61.992188 C 89.351562 61.160156 90.472656 60.242188 91.75 59.585938 C 93.53125 58.671875 96.894531 58.117188 98.253906 56.882812 C 99.28125 55.949219 99.28125 54.109375 100.054688 52.945312 C 102.03125 49.964844 104.535156 47.949219 106.308594 44.625 C 106.222656 44.050781 105.609375 38.839844 105.542969 38.789062 Z M 90.886719 67.457031 C 86.976562 69.152344 83.734375 71.894531 79.875 73.648438 C 78.292969 74.363281 76.699219 74.628906 74.984375 74.84375 C 71.5625 75.273438 68.855469 75.835938 66.371094 78.417969 C 65.480469 79.34375 64.683594 80.351562 63.796875 81.277344 C 62.703125 82.417969 61.167969 83.078125 60.566406 84.597656 C 60.328125 85.191406 60.128906 85.859375 59.816406 86.417969 C 59.285156 87.355469 58.507812 88.191406 57.804688 89.003906 C 56.328125 90.714844 55.28125 92.25 54.484375 94.371094 C 57.367188 93.519531 60.351562 92.320312 62.945312 90.804688 C 64.816406 89.710938 66.578125 88.4375 68.511719 87.453125 C 70.832031 86.277344 73.347656 85.582031 75.734375 84.578125 C 79.652344 82.933594 83.75 79.925781 86.726562 76.886719 C 87.792969 75.285156 88.539062 73.613281 89.277344 71.851562 C 86.089844 73.566406 82.929688 75.332031 79.796875 77.148438 C 78.152344 78.105469 76.535156 79.132812 74.859375 80.035156 C 71.726562 81.71875 68.40625 83.019531 65.34375 84.84375 C 62.742188 86.386719 60.753906 88.71875 58.085938 90.140625 C 60.453125 87.964844 62.207031 85.625 64.960938 83.828125 C 67.859375 81.9375 71.089844 80.703125 74.128906 79.078125 C 76.785156 77.65625 79.246094 75.890625 81.894531 74.457031 C 84.359375 73.121094 87.246094 71.953125 89.378906 70.109375 C 90.210938 69.390625 90.746094 68.558594 91.089844 67.523438 Z M 19.320312 158.761719 C 20.378906 160.628906 23.074219 164.519531 24.792969 165.660156 C 25.816406 166.335938 27.113281 166.699219 28.261719 167.117188 C 28.132812 167.3125 28.035156 167.4375 27.980469 167.664062 C 28.59375 168.007812 29.21875 168.308594 29.863281 168.59375 C 29.890625 168.542969 29.910156 168.488281 29.941406 168.4375 C 30.125 168.128906 30.347656 168.152344 30.675781 168.074219 C 31.316406 168.160156 32.148438 168.605469 32.761719 168.847656 C 36.203125 170.210938 40.359375 171.738281 43.125 174.25 C 45.710938 173.445312 48.273438 172.574219 50.847656 171.722656 C 52.453125 171.191406 54.097656 170.738281 55.664062 170.101562 C 50.691406 168.773438 46.074219 166.535156 41.347656 164.558594 C 38.535156 163.382812 35.621094 162.421875 32.761719 161.355469 C 30.40625 160.472656 28.097656 159.476562 25.625 158.945312 C 23.515625 158.492188 21.4375 158.289062 19.320312 158.761719 Z M 21.394531 94.148438 C 19.886719 94.964844 18.285156 95.609375 16.714844 96.292969 C 12.15625 98.277344 7.359375 100.175781 2.570312 101.53125 C 2.523438 103.828125 2.558594 106.121094 2.667969 108.417969 C 2.78125 110.710938 2.96875 113 3.234375 115.28125 L 3.363281 115.566406 C 3.890625 115.570312 4.382812 114.980469 4.734375 114.636719 C 6.332031 113.066406 7.183594 110.835938 8.824219 109.363281 C 9.769531 108.519531 10.960938 107.941406 12.054688 107.316406 C 12.734375 106.929688 13.359375 106.535156 13.875 105.933594 C 14.917969 104.71875 15.382812 103 16.085938 101.582031 C 16.554688 100.636719 17.222656 99.746094 17.863281 98.910156 C 18.480469 98.109375 21.367188 94.980469 21.480469 94.230469 Z M 187.566406 84.996094 C 188.347656 87.511719 189.042969 90.007812 190.519531 92.234375 C 192.445312 95.132812 195.410156 96.832031 197.785156 99.289062 C 199.675781 101.246094 202.273438 105.40625 204.359375 106.679688 C 204.433594 106.722656 204.5625 106.777344 204.652344 106.78125 C 204.695312 103.0625 204.875 98.34375 204.417969 94.722656 C 202.488281 93.472656 200.664062 92.0625 198.726562 90.824219 C 196.363281 89.3125 193.914062 88.007812 191.40625 86.757812 C 190.167969 86.136719 188.886719 85.40625 187.566406 84.996094 Z M 29.128906 137.195312 C 28.011719 140.203125 27.148438 141.542969 24.859375 143.804688 C 25.5625 143.46875 27.253906 142.484375 27.980469 142.753906 C 28.015625 142.765625 28.042969 142.785156 28.074219 142.800781 C 28.128906 143.144531 27.972656 143.351562 27.773438 143.625 C 26.652344 145.171875 24.960938 146.238281 23.335938 147.179688 L 23.550781 147.160156 C 24.652344 147.058594 27.480469 146.023438 28.304688 146.347656 C 28.355469 146.566406 28.378906 146.484375 28.269531 146.660156 C 27.867188 147.289062 26.761719 147.917969 26.175781 148.410156 C 24.972656 149.425781 23.953125 150.65625 22.707031 151.621094 C 24.960938 151.078125 27.207031 150.515625 29.449219 149.925781 C 28.515625 150.480469 27.671875 151.171875 26.753906 151.753906 C 25.136719 152.769531 23.480469 153.679688 21.914062 154.785156 C 23.117188 154.535156 27.171875 153.132812 27.996094 153.292969 L 28.074219 153.460938 C 27.378906 154.664062 24.308594 155.457031 23.027344 155.800781 C 21.925781 156.09375 19.996094 156.636719 18.925781 156.0625 C 18.796875 155.996094 18.722656 155.902344 18.640625 155.785156 C 18.660156 155.515625 18.707031 155.417969 18.925781 155.246094 C 19.976562 154.40625 21.4375 154.082031 22.550781 153.238281 L 22.40625 153.253906 C 21.484375 153.347656 20.527344 153.207031 19.625 153.386719 C 18.597656 153.589844 17.59375 154.242188 16.585938 154.574219 C 17.136719 155.488281 17.761719 156.367188 18.359375 157.25 C 19.878906 157.15625 21.359375 157.070312 22.878906 157.214844 C 24.089844 157.320312 25.347656 157.550781 26.5625 157.417969 C 27.488281 157.320312 28.410156 156.976562 29.339844 156.964844 C 31.097656 156.949219 33.136719 157.578125 34.828125 158.042969 C 35.769531 158.304688 37.574219 159.019531 38.433594 158.410156 L 38.46875 158.207031 C 37.933594 157.746094 37.074219 157.761719 36.875 157 C 37.082031 156.355469 37.5625 156.113281 38.113281 155.789062 C 35.308594 155.136719 31.976562 154.996094 29.800781 152.902344 C 32.078125 153.230469 34.339844 153.625 36.53125 154.34375 C 34.347656 152.71875 31.546875 152.066406 29.4375 150.070312 C 31.757812 150.40625 34.019531 150.828125 36.257812 151.550781 C 34.9375 150.472656 33.746094 149.253906 32.429688 148.175781 C 31.492188 147.40625 30.453125 146.757812 29.429688 146.117188 C 31.035156 146.195312 32.617188 146.582031 34.128906 147.117188 C 33.296875 146.230469 30.699219 143.933594 30.585938 142.867188 C 30.730469 142.6875 30.652344 142.710938 30.859375 142.691406 C 31.984375 142.585938 33.464844 144.046875 34.347656 144.65625 C 33.324219 143.546875 32.164062 142.464844 31.328125 141.207031 C 30.632812 140.164062 29.921875 137.9375 29.128906 137.195312 Z M 170.753906 74.835938 C 169.875 76.535156 168.339844 78.0625 167.675781 79.835938 C 167.210938 81.082031 167.453125 82.410156 167.1875 83.683594 C 166.808594 85.484375 165.914062 87.238281 165.269531 88.960938 C 166.789062 90.023438 169.992188 94.554688 171.339844 96.191406 L 171.738281 96.644531 L 171.652344 96.617188 C 171.992188 96.550781 172.070312 96.351562 172.253906 96.066406 C 173.914062 93.546875 174.121094 90.53125 176.425781 88.378906 C 175.921875 86.691406 175.382812 85.074219 174.566406 83.507812 C 173.792969 82.027344 172.847656 80.632812 172.210938 79.085938 C 171.644531 77.710938 171.875 75.953125 170.753906 74.835938 Z M 45.210938 143.65625 C 45.1875 143.6875 45.164062 143.714844 45.144531 143.742188 C 44.4375 144.65625 43.976562 145.734375 43.261719 146.648438 C 42.394531 147.753906 41.242188 148.609375 40.261719 149.613281 C 41.855469 149.34375 43.136719 148.585938 44.65625 148.132812 C 43.472656 150.480469 42.089844 150.847656 40.171875 152.402344 C 41.949219 152.609375 43.566406 152.40625 45.261719 151.824219 C 44.242188 152.851562 43.027344 153.535156 41.855469 154.371094 C 40.664062 155.21875 39.511719 156.144531 38.292969 156.945312 C 40.832031 156.46875 43.363281 156.078125 45.867188 155.394531 C 43.847656 156.675781 41.429688 157.808594 39.722656 159.484375 C 40.636719 159.390625 41.546875 159.253906 42.449219 159.070312 C 43.351562 158.890625 44.242188 158.664062 45.121094 158.398438 C 43.359375 160.25 40.910156 160.914062 38.640625 161.941406 C 39.550781 162.285156 40.457031 162.636719 41.363281 163 C 42.792969 162.339844 44.910156 161.570312 46.496094 162.035156 C 47.816406 162.308594 48.972656 162.824219 50.242188 163.246094 C 51.09375 162.878906 51.855469 162.347656 52.695312 161.976562 C 51.203125 161.308594 46.863281 159.863281 46.078125 158.625 C 46.496094 158.398438 47.976562 158.90625 48.4375 159.046875 C 49.882812 159.472656 51.296875 160.019531 52.722656 160.507812 C 51.6875 159.695312 50.628906 158.882812 49.523438 158.167969 C 48.117188 157.257812 46.746094 156.589844 45.507812 155.433594 C 47.351562 156.195312 51.273438 156.820312 53.332031 157.164062 C 51.917969 156.300781 50.644531 155.277344 49.277344 154.347656 C 48.214844 153.625 46.796875 152.996094 45.917969 152.0625 L 45.894531 151.839844 C 46.558594 151.441406 49.78125 152.242188 50.675781 152.386719 C 48.804688 151.140625 47.050781 149.832031 45.628906 148.074219 C 46.621094 148.273438 47.617188 148.476562 48.609375 148.683594 C 47.867188 147.953125 47.207031 147.25 46.664062 146.359375 C 46.25 145.679688 45.71875 144.125 45.210938 143.65625 Z M 107.894531 137.949219 C 106.734375 140.320312 105.453125 142.449219 103.597656 144.359375 C 104.9375 143.691406 106.210938 143.121094 107.707031 142.925781 C 105.863281 147.484375 105.382812 148.351562 101.789062 151.640625 C 103.621094 151.324219 105.15625 151.394531 106.359375 149.699219 C 106.695312 149.226562 106.988281 148.726562 107.273438 148.226562 C 107.277344 148.773438 107.335938 149.425781 107.179688 149.953125 C 106.65625 151.691406 104.585938 153.453125 103.316406 154.75 C 102.691406 155.386719 102 155.976562 101.34375 156.585938 C 104.183594 156.367188 104.320312 156.289062 106.726562 154.761719 C 106.402344 155.636719 106.082031 156.101562 105.378906 156.710938 C 107.699219 156.746094 109.914062 156.375 112.210938 156.125 C 113.460938 155.984375 114.71875 155.863281 115.957031 155.644531 C 113.671875 153.960938 110.882812 152.839844 109.058594 150.585938 C 110.453125 151.1875 114.589844 153.128906 115.890625 153.113281 L 116.027344 153.003906 C 115.476562 152.359375 114.671875 151.8125 113.996094 151.300781 C 112.214844 149.957031 110.125 148.601562 108.667969 146.902344 C 110.3125 147.578125 111.808594 147.78125 113.519531 148.15625 C 111.886719 146.648438 110.050781 145.152344 108.9375 143.199219 L 108.984375 143.097656 C 109.902344 143.03125 111.816406 143.710938 112.910156 143.855469 C 111.757812 142.65625 110.613281 141.441406 109.570312 140.140625 C 109.019531 139.457031 108.527344 138.550781 107.894531 137.949219 Z M 149.941406 154.964844 C 145.804688 155.167969 142.140625 156.453125 138.300781 157.851562 C 137.175781 158.261719 136.003906 158.617188 134.902344 159.085938 C 136.960938 159.382812 138.984375 159.839844 141.050781 160.089844 C 143.820312 160.421875 146.570312 160.390625 149.351562 160.316406 C 152.769531 160.191406 156.25 160.003906 159.601562 159.269531 C 161.164062 158.925781 162.675781 158.382812 164.230469 158.03125 C 160.550781 156.96875 153.488281 154.617188 149.941406 154.964844 Z M 105.746094 27.636719 C 104.085938 30.589844 101.746094 32.738281 99.625 35.320312 C 98.734375 36.410156 98.105469 37.636719 97.277344 38.761719 C 99.007812 37.566406 100.6875 36.257812 102.304688 34.917969 C 103.667969 33.78125 104.953125 32.609375 106.441406 31.632812 C 104.402344 36.511719 95.507812 41.523438 91.109375 44.609375 C 89.675781 45.613281 88.300781 46.75 87 47.921875 C 86.109375 48.6875 85.222656 49.457031 84.210938 50.0625 C 81.683594 51.582031 81.285156 51.152344 79.515625 53.902344 C 81.890625 53.183594 84.148438 52.597656 86.292969 51.273438 C 88.242188 50.070312 90.03125 48.585938 91.664062 46.984375 C 93.25 45.425781 94.621094 43.84375 96.460938 42.542969 C 98.839844 40.859375 105.121094 38.519531 106.347656 36.308594 C 107.089844 34.980469 107.46875 33.324219 107.78125 31.84375 C 107.335938 31.046875 106.144531 27.9375 105.746094 27.636719 Z M 121.847656 39.277344 C 122.320312 42.125 123.757812 44.480469 125.042969 47.003906 C 125.589844 48.085938 126.007812 49.1875 126.769531 50.144531 C 128.03125 51.726562 129.515625 52.863281 130.5 54.6875 C 131.25 56.085938 130.746094 58.277344 132.175781 59.273438 C 133.21875 60 134.628906 60.027344 135.625 60.878906 C 136.375 61.519531 136.820312 62.421875 137.265625 63.28125 C 139.386719 67.382812 140.730469 67.128906 144.511719 68.984375 C 143.722656 67.3125 142.960938 65.242188 141.777344 63.8125 C 140.003906 61.667969 136.453125 60.90625 134.207031 58.113281 C 132.320312 55.761719 131.582031 52.960938 130.394531 50.261719 C 129.558594 48.363281 128.226562 46.789062 127.082031 45.082031 C 126.246094 43.835938 125.542969 42.5 124.515625 41.394531 C 123.726562 40.542969 122.816406 39.910156 121.847656 39.277344 Z M 47.703125 74.414062 C 48.574219 77.515625 52.003906 82.347656 53.957031 84.929688 C 54.792969 86.039062 55.777344 87.105469 56.503906 88.28125 C 57.035156 87.660156 57.574219 87.035156 58.054688 86.375 C 58.867188 84.960938 59.359375 83.460938 59.820312 81.90625 C 57.515625 80.359375 54.875 79.554688 52.542969 78.085938 C 50.808594 76.992188 49.542969 75.363281 47.703125 74.414062 Z M 25.402344 166.679688 C 26.984375 168.253906 28.355469 170.070312 29.890625 171.703125 C 31.585938 173.503906 33.441406 175.144531 35.128906 176.9375 C 37.515625 176.175781 40.054688 175.46875 42.316406 174.398438 C 39.289062 172.859375 36.292969 171.414062 33.183594 170.046875 C 32.085938 169.5625 30.984375 169.007812 29.863281 168.59375 C 29.21875 168.308594 28.59375 168.007812 27.980469 167.664062 C 27.117188 167.34375 26.257812 167.015625 25.402344 166.679688 Z M 93.046875 63.011719 C 89.027344 65.4375 85.429688 68.578125 81.027344 70.335938 C 75.375 72.597656 70.726562 70.796875 65.746094 74.878906 C 63.640625 76.605469 62.523438 78.824219 61.894531 81.453125 C 61.851562 81.632812 61.816406 81.808594 61.800781 81.992188 L 61.886719 82.089844 L 61.996094 81.984375 C 64.378906 79.773438 65.972656 76.792969 68.800781 75.054688 C 68.832031 75.035156 68.863281 75.015625 68.894531 74.996094 C 71.785156 73.324219 75.480469 74.0625 78.542969 72.820312 C 83.324219 70.882812 87.070312 66.949219 92.039062 65.449219 C 92.492188 64.753906 92.960938 64.050781 93.164062 63.234375 C 93.082031 63.027344 93.140625 63.089844 93.046875 63.011719 Z M 105.425781 23.734375 C 104.515625 25.226562 103.59375 26.628906 102.441406 27.953125 C 100.882812 29.746094 99.09375 31.347656 97.632812 33.21875 C 95.691406 35.703125 94.269531 38.734375 92.046875 40.976562 C 91.148438 41.882812 90.148438 42.46875 89.015625 43.046875 C 85.511719 44.828125 84.84375 45.71875 82.820312 49.148438 C 82.953125 49.277344 82.882812 49.246094 83.019531 49.28125 C 85.332031 48.226562 87.089844 46.046875 89.105469 44.535156 C 90.605469 43.414062 92.492188 42.550781 93.832031 41.238281 C 95.574219 39.539062 96.472656 37.171875 97.902344 35.238281 C 100.230469 32.097656 104.019531 29.59375 105.394531 25.839844 C 105.59375 25.296875 105.832031 24.351562 105.5 23.808594 C 105.484375 23.777344 105.453125 23.757812 105.425781 23.734375 Z M 95.324219 59.652344 C 91.546875 60.773438 89.273438 62.925781 86.039062 64.90625 C 83.578125 66.410156 80.773438 67.539062 78.003906 68.335938 C 73.507812 69.625 70.960938 68.449219 66.832031 71.609375 C 66.179688 72.105469 65.386719 72.621094 64.976562 73.34375 C 64.847656 73.566406 64.796875 73.632812 64.820312 73.890625 L 64.933594 73.910156 C 65.949219 73.101562 66.957031 72.371094 68.152344 71.847656 C 70.390625 70.859375 72.925781 70.761719 75.324219 70.457031 C 77.28125 70.210938 79.289062 69.820312 81.132812 69.109375 C 84.714844 67.726562 87.570312 64.949219 90.773438 62.914062 C 91.78125 62.273438 94.023438 61.359375 94.6875 60.792969 C 95.019531 60.511719 95.238281 60.152344 95.460938 59.785156 L 95.410156 59.65625 Z M 19.773438 139.824219 C 19.585938 140.15625 19.421875 140.476562 19.277344 140.828125 C 18.675781 142.285156 17.65625 143.550781 16.640625 144.734375 C 17.210938 144.367188 18.546875 143.449219 19.25 143.605469 C 19.285156 143.613281 19.316406 143.628906 19.347656 143.640625 C 19.441406 143.902344 19.417969 144.027344 19.296875 144.28125 C 18.871094 145.210938 18.023438 146.023438 17.300781 146.726562 C 18.011719 146.753906 18.839844 146.730469 19.476562 147.078125 L 19.484375 147.203125 L 19.398438 147.277344 L 19.335938 147.15625 L 19.300781 147.160156 C 19.289062 147.199219 19.28125 147.246094 19.265625 147.285156 C 19.125 147.585938 16.171875 150.089844 15.628906 150.695312 C 16.542969 150.632812 17.457031 150.507812 18.371094 150.453125 C 20.84375 150.046875 22.117188 150.453125 24.1875 148.683594 C 23.28125 148.601562 21.253906 147.953125 20.675781 147.222656 C 20.546875 147.058594 20.585938 147.132812 20.621094 146.894531 C 21.203125 146.460938 22.164062 146.550781 22.867188 146.445312 C 22.0625 145.53125 21.117188 144.753906 20.378906 143.78125 C 21.019531 143.800781 21.664062 143.800781 22.304688 143.835938 C 21.625 142.832031 20.585938 140.5 19.773438 139.824219 Z M 169.558594 71.054688 C 168.277344 72.28125 167.875 73.652344 167.035156 75.152344 C 165.074219 78.65625 161.847656 80.941406 158.53125 83.027344 L 159.503906 83.796875 C 159.796875 83.957031 159.902344 84.011719 160.230469 83.910156 C 161.0625 83.65625 161.851562 83.085938 162.574219 82.613281 C 166.082031 80.332031 167.691406 77.984375 169.449219 74.246094 C 169.835938 73.425781 170.199219 72.476562 169.894531 71.570312 C 169.832031 71.375 169.722656 71.179688 169.558594 71.054688 Z M 25.617188 89.074219 C 23.21875 90.105469 7.316406 97.59375 6.398438 98.710938 L 6.523438 98.804688 L 6.632812 98.753906 C 7.925781 98.183594 9.296875 97.773438 10.617188 97.265625 C 12.699219 96.460938 14.742188 95.53125 16.789062 94.640625 C 18.898438 93.722656 21.109375 92.851562 23.066406 91.632812 C 24.046875 91.019531 25.046875 90.289062 25.710938 89.328125 L 25.726562 89.152344 Z M 165.542969 74.75 C 163.996094 75.828125 162.367188 76.90625 160.640625 77.664062 C 158.671875 78.535156 156.523438 79.105469 154.480469 79.78125 C 154.988281 80.28125 155.484375 80.789062 156.042969 81.226562 L 157.335938 82.261719 C 159.53125 80.765625 164.589844 77.203125 165.691406 74.863281 Z M 126.828125 151.484375 C 125.851562 153.363281 124.988281 154.671875 123.113281 155.777344 C 125.046875 156.496094 127.074219 157.03125 129.050781 157.621094 C 128.355469 156.898438 127.601562 156.1875 126.988281 155.394531 C 126.53125 154.808594 126.210938 154.25 125.953125 153.546875 C 128.363281 155.574219 128.59375 155.476562 131.574219 156.011719 C 129.785156 154.660156 128.519531 152.898438 126.828125 151.484375 Z M 165.785156 82.074219 C 164.242188 83.125 162.6875 84.039062 161.042969 84.929688 C 161.585938 85.457031 162.136719 85.976562 162.703125 86.480469 L 164.167969 87.667969 C 164.960938 86.261719 166.132812 83.949219 166.03125 82.34375 L 165.890625 82.089844 Z M 55.058594 156.804688 C 54.640625 157.414062 54.324219 157.910156 53.550781 158.066406 C 52.835938 158.210938 51.890625 158 51.160156 157.925781 C 52.140625 158.632812 53.109375 159.390625 54.136719 160.023438 C 54.628906 159.707031 55.15625 159.503906 55.726562 159.386719 C 57.179688 159.449219 58.632812 159.480469 60.089844 159.480469 C 58.734375 158.636719 56.550781 157.296875 55.058594 156.804688 Z M 55.121094 153.636719 C 54.476562 154.445312 53.574219 154.742188 52.71875 155.265625 C 53.464844 155.910156 54.300781 156.574219 55.335938 156.53125 C 56.003906 156.503906 56.542969 156.488281 57.210938 156.582031 C 57.953125 156.628906 58.839844 156.59375 59.515625 156.933594 L 59.574219 156.878906 C 59.40625 156.613281 55.792969 154.148438 55.121094 153.636719 Z M 126.933594 147.171875 C 126.175781 148.65625 125.296875 149.992188 124.273438 151.300781 C 125.136719 151.027344 126.894531 150.082031 127.75 150.578125 C 128.03125 150.742188 128.304688 151.042969 128.539062 151.269531 C 129.148438 151.929688 129.769531 152.453125 130.488281 152.984375 C 129.8125 151.441406 128 148.496094 126.933594 147.171875 Z M 19.882812 150.796875 C 18.683594 151.285156 16.738281 151.84375 15.847656 152.78125 L 15.875 152.9375 C 16.433594 153.101562 16.808594 153.035156 17.367188 152.882812 C 18.871094 152.539062 20.253906 152.023438 21.652344 151.390625 C 21.066406 151.167969 20.484375 150.96875 19.882812 150.796875 Z M 32.628906 159.703125 C 34.089844 160.347656 35.570312 160.886719 37.085938 161.398438 C 37.394531 161.121094 37.703125 160.855469 38.046875 160.613281 C 38.25 160.511719 38.4375 160.417969 38.625 160.289062 C 37.78125 159.683594 33.777344 159.605469 32.628906 159.703125 Z M 36.875 153.035156 L 36.613281 153.195312 C 36.785156 153.625 37.292969 153.820312 37.703125 154 C 38.414062 154.316406 39.085938 154.582031 39.847656 154.324219 L 40.21875 153.972656 C 40.195312 153.738281 40.191406 153.726562 40.011719 153.582031 C 39.367188 153.054688 37.6875 152.964844 36.875 153.035156 Z M 12.785156 147.402344 C 13.113281 148.058594 13.460938 148.703125 13.828125 149.335938 C 14.347656 149.09375 14.679688 148.8125 15.097656 148.429688 C 15.386719 148.105469 15.597656 147.769531 15.808594 147.394531 C 14.875 147.425781 13.699219 147.601562 12.785156 147.402344 Z M 80.386719 93.359375 C 80.433594 92.9375 80.46875 92.511719 80.542969 92.09375 C 80.542969 91.34375 80.492188 90.535156 80.65625 89.804688 C 80.511719 89.847656 80.394531 89.84375 80.308594 89.980469 C 79.945312 90.554688 80.34375 92.632812 80.386719 93.359375 Z M 35.207031 99.796875 C 35.394531 99.171875 35.414062 98.511719 35.394531 97.863281 C 35.390625 97.828125 35.382812 97.796875 35.378906 97.761719 C 35.285156 97.105469 35.273438 96.4375 35.25 95.773438 C 35.210938 96.550781 34.917969 99.230469 35.207031 99.796875 Z M 35.207031 99.796875 " fill-opacity="1" fill-rule="nonzero"/></g><path fill="#000000" d="M 35.207031 99.796875 C 34.917969 99.230469 35.210938 96.550781 35.25 95.773438 C 35.273438 96.4375 35.285156 97.105469 35.378906 97.761719 C 35.382812 97.796875 35.390625 97.828125 35.394531 97.863281 C 35.414062 98.511719 35.394531 99.171875 35.207031 99.796875 Z M 35.207031 99.796875 " fill-opacity="1" fill-rule="nonzero"/><path fill="#000000" d="M 80.386719 93.359375 C 80.34375 92.632812 79.945312 90.554688 80.308594 89.980469 C 80.394531 89.84375 80.511719 89.847656 80.65625 89.804688 C 80.492188 90.535156 80.542969 91.34375 80.542969 92.09375 C 80.46875 92.511719 80.433594 92.9375 80.386719 93.359375 Z M 80.386719 93.359375 " fill-opacity="1" fill-rule="nonzero"/><path fill="#000000" d="M 28.261719 167.117188 C 29.074219 167.417969 29.878906 167.738281 30.675781 168.074219 C 30.347656 168.152344 30.125 168.128906 29.941406 168.4375 C 29.910156 168.488281 29.890625 168.542969 29.863281 168.59375 C 29.21875 168.308594 28.59375 168.007812 27.980469 167.664062 C 28.035156 167.4375 28.132812 167.3125 28.261719 167.117188 Z M 28.261719 167.117188 " fill-opacity="1" fill-rule="nonzero"/><path fill="#000000" d="M 81.171875 59.980469 L 81.429688 60.003906 L 81.414062 60.179688 C 79.839844 61.828125 75.011719 63.703125 72.730469 64.085938 C 72.601562 64.066406 72.511719 64.03125 72.394531 63.980469 C 72.339844 63.789062 72.296875 63.789062 72.410156 63.609375 C 73.226562 62.324219 79.476562 60.425781 81.171875 59.980469 Z M 81.171875 59.980469 " fill-opacity="1" fill-rule="nonzero"/><path fill="#000000" d="M 71.507812 147.433594 C 72.804688 147.628906 74.1875 148.351562 75.320312 148.984375 C 76.316406 149.542969 77.714844 150.28125 78.035156 151.441406 C 77.632812 151.445312 77.210938 151.457031 76.8125 151.386719 C 74.765625 151.027344 72.683594 149.035156 71.507812 147.433594 Z M 71.507812 147.433594 " fill-opacity="1" fill-rule="nonzero"/><path fill="#000000" d="M 70.15625 147.179688 C 70.4375 147.191406 70.5 147.171875 70.722656 147.335938 C 70.703125 147.449219 70.707031 147.46875 70.644531 147.582031 C 69.917969 148.859375 64.921875 151.164062 63.394531 151.492188 C 63.179688 151.441406 63.054688 151.386719 62.875 151.253906 L 62.890625 151.035156 C 63.835938 149.601562 68.390625 147.902344 70.15625 147.179688 Z M 70.15625 147.179688 " fill-opacity="1" fill-rule="nonzero"/><path fill="#000000" d="M 70.375 138.476562 C 70.570312 138.480469 70.746094 138.515625 70.9375 138.558594 C 72.308594 139.636719 72.679688 143.09375 73.886719 144.808594 C 75.039062 146.441406 77.183594 147.042969 78.011719 148.566406 L 77.945312 148.785156 C 77.371094 148.984375 76.296875 148.558594 75.742188 148.320312 C 73.246094 147.261719 71.953125 144.800781 71.007812 142.410156 C 70.980469 142.328125 70.914062 142.257812 70.863281 142.191406 C 70.160156 142.890625 69.984375 144.238281 69.308594 145.054688 C 68.34375 146.222656 66.6875 146.871094 65.894531 148.140625 L 66.089844 148.40625 C 65.9375 148.460938 65.792969 148.507812 65.636719 148.53125 C 65.109375 148.605469 64.277344 148.679688 63.832031 148.378906 C 63.609375 147.398438 67.0625 145.523438 67.816406 144.757812 C 69.09375 143.457031 69.496094 141.933594 69.867188 140.207031 C 69.996094 139.609375 70.09375 139.023438 70.375 138.476562 Z M 70.375 138.476562 " fill-opacity="1" fill-rule="nonzero"/></g></g></g></g></svg>