<svg xmlns="http://www.w3.org/2000/svg" xmlns:xlink="http://www.w3.org/1999/xlink" width="301" zoomAndPan="magnify" viewBox="0 0 225.75 119.249998" height="159" preserveAspectRatio="xMidYMid meet" version="1.2"><defs/><g id="dc1b1edd86"><g style="fill:#bfbfbf;fill-opacity:1;"><g transform="translate(7.734668, 59.345666)"><path style="stroke:none" d="M 1.226562 -15.984375 C 1.226562 -18.289062 1.851562 -19.992188 3.101562 -21.085938 C 4.308594 -22.144531 6.164062 -22.675781 8.675781 -22.675781 C 10.511719 -22.675781 12.011719 -22.179688 13.175781 -21.1875 C 14.308594 -20.222656 15.117188 -18.796875 15.601562 -16.90625 L 15.789062 -16.167969 L 12.058594 -13.363281 L 6.777344 -13.363281 L 12.785156 -17.867188 L 13.46875 -16.957031 L 12.382812 -16.617188 C 12.035156 -17.71875 11.574219 -18.46875 10.992188 -18.867188 C 10.386719 -19.28125 9.613281 -19.488281 8.675781 -19.488281 C 7.933594 -19.488281 7.320312 -19.445312 6.832031 -19.355469 C 6.390625 -19.273438 5.941406 -19.117188 5.488281 -18.875 C 5.167969 -18.707031 4.917969 -18.421875 4.742188 -18.015625 C 4.523438 -17.515625 4.414062 -16.835938 4.414062 -15.984375 C 4.414062 -15.449219 4.6875 -14.949219 5.234375 -14.492188 C 5.964844 -13.878906 6.863281 -13.351562 7.925781 -12.910156 C 9.105469 -12.425781 10.285156 -11.925781 11.472656 -11.421875 C 12.785156 -10.859375 13.898438 -10.136719 14.816406 -9.253906 C 15.871094 -8.238281 16.394531 -7.054688 16.394531 -5.703125 C 16.394531 -3.363281 15.78125 -1.589844 14.554688 -0.375 C 13.332031 0.835938 11.351562 1.441406 8.613281 1.441406 C 6.390625 1.441406 4.617188 0.972656 3.289062 0.0351562 C 1.925781 -0.925781 1 -2.382812 0.503906 -4.332031 L 0.265625 -5.273438 L 3.242188 -6.546875 L 3.5625 -5.246094 C 3.894531 -3.898438 4.425781 -2.988281 5.15625 -2.515625 C 5.945312 -2 7.101562 -1.746094 8.613281 -1.746094 C 10.289062 -1.746094 11.496094 -2.035156 12.230469 -2.621094 C 12.882812 -3.140625 13.210938 -4.167969 13.210938 -5.703125 C 13.210938 -6.238281 12.9375 -6.738281 12.386719 -7.195312 C 11.660156 -7.808594 10.757812 -8.335938 9.683594 -8.773438 C 8.496094 -9.261719 7.3125 -9.761719 6.132812 -10.269531 C 4.832031 -10.828125 3.722656 -11.550781 2.804688 -12.4375 C 1.753906 -13.449219 1.226562 -14.632812 1.226562 -15.984375 Z M 3.503906 -15.984375 C 3.503906 -15.277344 3.796875 -14.640625 4.382812 -14.074219 C 5.101562 -13.382812 5.984375 -12.808594 7.03125 -12.359375 C 8.199219 -11.855469 9.371094 -11.363281 10.546875 -10.878906 C 11.839844 -10.351562 12.941406 -9.703125 13.851562 -8.941406 C 14.941406 -8.023438 15.484375 -6.945312 15.484375 -5.703125 C 15.484375 -3.4375 14.871094 -1.816406 13.644531 -0.839844 C 12.496094 0.0742188 10.820312 0.53125 8.613281 0.53125 C 6.652344 0.53125 5.085938 0.152344 3.914062 -0.609375 C 2.683594 -1.410156 1.828125 -2.773438 1.351562 -4.703125 L 2.457031 -4.972656 L 2.90625 -3.929688 L 2.054688 -3.566406 L 1.609375 -4.609375 L 2.710938 -4.890625 C 3.066406 -3.484375 3.695312 -2.460938 4.597656 -1.824219 C 5.535156 -1.164062 6.875 -0.835938 8.613281 -0.835938 C 10.730469 -0.835938 12.175781 -1.21875 12.957031 -1.992188 C 13.730469 -2.761719 14.121094 -3.996094 14.121094 -5.703125 C 14.121094 -6.410156 13.828125 -7.046875 13.238281 -7.613281 C 12.519531 -8.304688 11.632812 -8.875 10.578125 -9.328125 C 9.398438 -9.832031 8.226562 -10.324219 7.058594 -10.808594 C 5.777344 -11.339844 4.679688 -11.984375 3.773438 -12.75 C 2.683594 -13.664062 2.136719 -14.742188 2.136719 -15.984375 C 2.136719 -17.15625 2.3125 -18.136719 2.660156 -18.929688 C 3.046875 -19.820312 3.636719 -20.472656 4.429688 -20.890625 C 5.089844 -21.238281 5.753906 -21.472656 6.425781 -21.59375 C 7.046875 -21.707031 7.796875 -21.765625 8.675781 -21.765625 C 10.082031 -21.765625 11.28125 -21.425781 12.273438 -20.746094 C 13.289062 -20.050781 14.050781 -18.902344 14.554688 -17.296875 L 14.792969 -16.527344 L 10.875 -13.589844 L 10.191406 -14.5 L 10.191406 -15.636719 L 11.679688 -15.636719 L 11.679688 -14.5 L 10.992188 -15.40625 L 13.816406 -17.53125 L 14.5 -16.621094 L 13.398438 -16.339844 C 13.03125 -17.765625 12.464844 -18.804688 11.699219 -19.457031 C 10.960938 -20.085938 9.953125 -20.398438 8.675781 -20.398438 C 6.738281 -20.398438 5.378906 -20.058594 4.601562 -19.375 C 3.871094 -18.734375 3.503906 -17.601562 3.503906 -15.984375 Z M 3.503906 -15.984375 "/></g></g><g style="fill:#bfbfbf;fill-opacity:1;"><g transform="translate(24.742892, 59.345666)"><path style="stroke:none" d="M 3.550781 -2.046875 L 14.710938 -2.046875 L 14.710938 -0.910156 L 13.640625 -0.519531 L 7.210938 -18.207031 L 8.28125 -18.59375 L 9.351562 -18.207031 L 2.3125 1.136719 L -1.078125 1.136719 L 8.28125 -24.589844 L 17.640625 1.136719 L 2.410156 1.136719 L 2.410156 -2.046875 Z M 3.550781 0.226562 L 3.550781 -0.910156 L 4.6875 -0.910156 L 4.6875 0 L 3.550781 0 L 3.550781 -1.136719 L 16.015625 -1.136719 L 16.015625 0 L 14.945312 0.390625 L 7.210938 -20.875 L 8.28125 -21.261719 L 9.351562 -20.875 L 1.613281 0.390625 L 0.546875 0 L 0.546875 -1.136719 L 1.515625 -1.136719 L 1.515625 0 L 0.449219 -0.390625 L 8.28125 -21.921875 L 16.335938 0.226562 Z M 3.550781 0.226562 "/></g></g><g style="fill:#bfbfbf;fill-opacity:1;"><g transform="translate(41.29635, 59.345666)"><path style="stroke:none" d="M 17.21875 -3.453125 C 16.59375 -1.917969 15.699219 -0.726562 14.535156 0.128906 C 13.34375 1.003906 11.632812 1.441406 9.402344 1.441406 C 6.53125 1.441406 4.421875 0.523438 3.085938 -1.316406 C 1.828125 -3.042969 1.199219 -5.648438 1.199219 -9.128906 L 1.199219 -12.101562 C 1.199219 -15.585938 1.828125 -18.191406 3.085938 -19.917969 C 4.421875 -21.753906 6.53125 -22.675781 9.402344 -22.675781 C 11.632812 -22.675781 13.34375 -22.238281 14.535156 -21.359375 C 15.699219 -20.507812 16.59375 -19.3125 17.21875 -17.78125 L 17.625 -16.789062 L 14.742188 -15.402344 L 14.289062 -16.535156 C 13.90625 -17.511719 13.371094 -18.253906 12.695312 -18.761719 C 12.046875 -19.246094 10.949219 -19.488281 9.402344 -19.488281 C 8.542969 -19.488281 7.820312 -19.382812 7.238281 -19.175781 C 6.703125 -18.984375 6.214844 -18.652344 5.777344 -18.183594 C 5.34375 -17.71875 5.011719 -17.011719 4.773438 -16.0625 C 4.515625 -15.007812 4.382812 -13.6875 4.382812 -12.101562 L 4.382812 -9.128906 C 4.382812 -7.542969 4.515625 -6.226562 4.773438 -5.171875 C 5.011719 -4.222656 5.34375 -3.515625 5.777344 -3.050781 C 6.214844 -2.578125 6.703125 -2.246094 7.238281 -2.058594 C 7.820312 -1.847656 8.542969 -1.746094 9.402344 -1.746094 C 10.949219 -1.746094 12.046875 -1.988281 12.695312 -2.472656 C 13.371094 -2.980469 13.90625 -3.722656 14.289062 -4.695312 L 14.742188 -5.832031 L 17.625 -4.441406 Z M 15.113281 -4.3125 L 16.167969 -3.882812 L 15.675781 -2.859375 L 14.855469 -3.25 L 15.347656 -4.277344 L 16.40625 -3.859375 C 15.863281 -2.484375 15.078125 -1.417969 14.058594 -0.652344 C 13.007812 0.136719 11.457031 0.53125 9.402344 0.53125 C 8.28125 0.53125 7.304688 0.382812 6.472656 0.0859375 C 5.589844 -0.230469 4.804688 -0.757812 4.113281 -1.5 C 3.410156 -2.25 2.894531 -3.292969 2.566406 -4.625 C 2.261719 -5.859375 2.109375 -7.359375 2.109375 -9.128906 L 2.109375 -12.101562 C 2.109375 -13.875 2.261719 -15.375 2.566406 -16.609375 C 2.894531 -17.941406 3.410156 -18.984375 4.113281 -19.734375 C 4.804688 -20.476562 5.589844 -21.003906 6.472656 -21.320312 C 7.304688 -21.617188 8.28125 -21.765625 9.402344 -21.765625 C 11.457031 -21.765625 13.007812 -21.371094 14.058594 -20.582031 C 15.078125 -19.816406 15.863281 -18.746094 16.40625 -17.375 L 15.347656 -16.957031 L 14.855469 -17.980469 L 15.675781 -18.375 L 16.167969 -17.351562 L 15.113281 -16.917969 C 14.648438 -18.058594 14.007812 -18.925781 13.1875 -19.527344 C 12.398438 -20.109375 11.136719 -20.398438 9.402344 -20.398438 C 7.300781 -20.398438 5.808594 -19.792969 4.921875 -18.578125 C 3.957031 -17.25 3.472656 -15.089844 3.472656 -12.101562 L 3.472656 -9.128906 C 3.472656 -6.140625 3.957031 -3.984375 4.921875 -2.65625 C 5.808594 -1.441406 7.300781 -0.835938 9.402344 -0.835938 C 11.136719 -0.835938 12.398438 -1.125 13.1875 -1.707031 C 14.007812 -2.308594 14.648438 -3.175781 15.113281 -4.3125 Z M 15.113281 -4.3125 "/></g></g><g style="fill:#bfbfbf;fill-opacity:1;"><g transform="translate(59.092835, 59.345666)"><path style="stroke:none" d="M 5.367188 -2.046875 L 13.742188 -2.046875 L 13.742188 -0.910156 L 12.671875 -0.519531 L 8.671875 -11.492188 L 11.203125 -12.9375 C 11.726562 -13.226562 12.109375 -13.582031 12.351562 -14.007812 C 12.601562 -14.445312 12.722656 -14.984375 12.722656 -15.621094 C 12.722656 -16.222656 12.617188 -16.738281 12.398438 -17.164062 C 12.191406 -17.570312 11.875 -17.914062 11.449219 -18.195312 C 10.445312 -18.855469 8.863281 -19.183594 6.703125 -19.183594 L 3.914062 -19.183594 L 3.914062 -20.324219 L 5.050781 -20.324219 L 5.050781 1.136719 L 1.867188 1.136719 L 1.867188 -22.371094 L 6.703125 -22.371094 C 9.617188 -22.371094 11.851562 -21.808594 13.40625 -20.683594 C 15.074219 -19.476562 15.910156 -17.789062 15.910156 -15.621094 C 15.910156 -14.410156 15.648438 -13.34375 15.121094 -12.425781 C 14.59375 -11.5 13.8125 -10.746094 12.78125 -10.167969 L 11.746094 -9.59375 L 11.191406 -10.585938 L 12.261719 -10.976562 L 16.667969 1.136719 L 4.230469 1.136719 L 4.230469 -2.046875 Z M 5.367188 0.226562 L 5.367188 -0.910156 L 6.507812 -0.910156 L 6.507812 0 L 5.367188 0 L 5.367188 -1.136719 L 15.046875 -1.136719 L 15.046875 0 L 13.976562 0.390625 L 9.792969 -11.105469 L 11.667969 -12.15625 C 12.335938 -12.527344 12.828125 -12.996094 13.148438 -13.554688 C 13.472656 -14.121094 13.632812 -14.8125 13.632812 -15.621094 C 13.632812 -17.015625 13.113281 -18.085938 12.074219 -18.839844 C 10.917969 -19.675781 9.128906 -20.09375 6.703125 -20.09375 L 3.003906 -20.09375 L 3.003906 -21.234375 L 4.140625 -21.234375 L 4.140625 0 L 3.003906 0 L 3.003906 -1.136719 L 3.914062 -1.136719 L 3.914062 0 L 2.773438 0 L 2.773438 -21.460938 L 6.703125 -21.460938 C 9.316406 -21.460938 11.3125 -21.007812 12.695312 -20.097656 C 13.460938 -19.597656 14.039062 -18.960938 14.429688 -18.191406 C 14.808594 -17.445312 15 -16.585938 15 -15.621094 C 15 -14.582031 14.777344 -13.667969 14.328125 -12.882812 C 13.871094 -12.085938 13.207031 -11.445312 12.332031 -10.964844 L 10.636719 -9.992188 L 10.070312 -10.980469 L 11.140625 -11.371094 L 15.367188 0.226562 Z M 5.367188 0.226562 "/></g></g><g style="fill:#bfbfbf;fill-opacity:1;"><g transform="translate(75.767564, 59.345666)"><path style="stroke:none" d="M 13.890625 -9.964844 L 2.125 -9.964844 L 13.363281 -21.128906 L 14.164062 -20.324219 L 14.164062 -19.183594 L 3.914062 -19.183594 L 3.914062 -20.324219 L 5.050781 -20.324219 L 5.050781 -0.910156 L 3.914062 -0.910156 L 3.914062 -2.046875 L 16.820312 -2.046875 L 16.820312 1.136719 L 1.867188 1.136719 L 1.867188 -22.371094 L 19.140625 -22.371094 L 7.898438 -11.203125 L 7.097656 -12.011719 L 7.097656 -13.148438 L 15.03125 -13.148438 L 15.03125 -9.964844 Z M 13.890625 -12.238281 L 13.890625 -11.101562 L 12.753906 -11.101562 L 12.753906 -12.011719 L 13.890625 -12.011719 L 13.890625 -10.875 L 4.339844 -10.875 L 15.578125 -22.039062 L 16.378906 -21.234375 L 16.378906 -20.09375 L 3.003906 -20.09375 L 3.003906 -21.234375 L 4.140625 -21.234375 L 4.140625 0 L 3.003906 0 L 3.003906 -1.136719 L 15.683594 -1.136719 L 15.683594 0 L 14.542969 0 L 14.542969 -0.910156 L 15.683594 -0.910156 L 15.683594 0.226562 L 2.773438 0.226562 L 2.773438 -21.460938 L 16.925781 -21.460938 L 5.683594 -10.292969 L 4.882812 -11.101562 L 4.882812 -12.238281 Z M 13.890625 -12.238281 "/></g></g><g style="fill:#bfbfbf;fill-opacity:1;"><g transform="translate(93.230553, 59.345666)"><path style="stroke:none" d="M 5.914062 1.136719 L 1.867188 1.136719 L 1.867188 -22.371094 L 5.914062 -22.371094 C 9.152344 -22.371094 11.898438 -21.179688 14.144531 -18.796875 C 16.371094 -16.4375 17.488281 -13.707031 17.488281 -10.617188 C 17.488281 -7.523438 16.371094 -4.796875 14.144531 -2.433594 C 11.898438 -0.0546875 9.152344 1.136719 5.914062 1.136719 Z M 5.914062 -1.136719 C 8.5 -1.136719 10.691406 -2.089844 12.488281 -3.996094 C 14.304688 -5.921875 15.210938 -8.128906 15.210938 -10.617188 C 15.210938 -13.105469 14.304688 -15.3125 12.488281 -17.238281 C 10.691406 -19.140625 8.5 -20.09375 5.914062 -20.09375 L 3.003906 -20.09375 L 3.003906 -21.234375 L 4.140625 -21.234375 L 4.140625 0 L 3.003906 0 L 3.003906 -1.136719 Z M 5.914062 -2.046875 C 8.238281 -2.046875 10.210938 -2.90625 11.839844 -4.621094 C 13.480469 -6.351562 14.300781 -8.351562 14.300781 -10.617188 C 14.300781 -12.882812 13.480469 -14.882812 11.839844 -16.613281 C 10.210938 -18.328125 8.238281 -19.183594 5.914062 -19.183594 L 3.914062 -19.183594 L 3.914062 -20.324219 L 5.050781 -20.324219 L 5.050781 -0.910156 L 3.914062 -0.910156 L 3.914062 -2.046875 Z M 5.914062 0.226562 L 2.773438 0.226562 L 2.773438 -21.460938 L 5.914062 -21.460938 C 8.890625 -21.460938 11.414062 -20.367188 13.488281 -18.179688 C 15.546875 -16.007812 16.578125 -13.488281 16.578125 -10.617188 C 16.578125 -7.746094 15.546875 -5.226562 13.488281 -3.054688 C 11.414062 -0.867188 8.890625 0.226562 5.914062 0.226562 Z M 5.914062 0.226562 "/></g></g><g style="fill:#bfbfbf;fill-opacity:1;"><g transform="translate(111.208951, 59.345666)"><path style="stroke:none" d=""/></g></g><g style="fill:#bfbfbf;fill-opacity:1;"><g transform="translate(120.152664, 59.345666)"><path style="stroke:none" d="M 1.226562 -15.984375 C 1.226562 -18.289062 1.851562 -19.992188 3.101562 -21.085938 C 4.308594 -22.144531 6.164062 -22.675781 8.675781 -22.675781 C 10.511719 -22.675781 12.011719 -22.179688 13.175781 -21.1875 C 14.308594 -20.222656 15.117188 -18.796875 15.601562 -16.90625 L 15.789062 -16.167969 L 12.058594 -13.363281 L 6.777344 -13.363281 L 12.785156 -17.867188 L 13.46875 -16.957031 L 12.382812 -16.617188 C 12.035156 -17.71875 11.574219 -18.46875 10.992188 -18.867188 C 10.386719 -19.28125 9.613281 -19.488281 8.675781 -19.488281 C 7.933594 -19.488281 7.320312 -19.445312 6.832031 -19.355469 C 6.390625 -19.273438 5.941406 -19.117188 5.488281 -18.875 C 5.167969 -18.707031 4.917969 -18.421875 4.742188 -18.015625 C 4.523438 -17.515625 4.414062 -16.835938 4.414062 -15.984375 C 4.414062 -15.449219 4.6875 -14.949219 5.234375 -14.492188 C 5.964844 -13.878906 6.863281 -13.351562 7.925781 -12.910156 C 9.105469 -12.425781 10.285156 -11.925781 11.472656 -11.421875 C 12.785156 -10.859375 13.898438 -10.136719 14.816406 -9.253906 C 15.871094 -8.238281 16.394531 -7.054688 16.394531 -5.703125 C 16.394531 -3.363281 15.78125 -1.589844 14.554688 -0.375 C 13.332031 0.835938 11.351562 1.441406 8.613281 1.441406 C 6.390625 1.441406 4.617188 0.972656 3.289062 0.0351562 C 1.925781 -0.925781 1 -2.382812 0.503906 -4.332031 L 0.265625 -5.273438 L 3.242188 -6.546875 L 3.5625 -5.246094 C 3.894531 -3.898438 4.425781 -2.988281 5.15625 -2.515625 C 5.945312 -2 7.101562 -1.746094 8.613281 -1.746094 C 10.289062 -1.746094 11.496094 -2.035156 12.230469 -2.621094 C 12.882812 -3.140625 13.210938 -4.167969 13.210938 -5.703125 C 13.210938 -6.238281 12.9375 -6.738281 12.386719 -7.195312 C 11.660156 -7.808594 10.757812 -8.335938 9.683594 -8.773438 C 8.496094 -9.261719 7.3125 -9.761719 6.132812 -10.269531 C 4.832031 -10.828125 3.722656 -11.550781 2.804688 -12.4375 C 1.753906 -13.449219 1.226562 -14.632812 1.226562 -15.984375 Z M 3.503906 -15.984375 C 3.503906 -15.277344 3.796875 -14.640625 4.382812 -14.074219 C 5.101562 -13.382812 5.984375 -12.808594 7.03125 -12.359375 C 8.199219 -11.855469 9.371094 -11.363281 10.546875 -10.878906 C 11.839844 -10.351562 12.941406 -9.703125 13.851562 -8.941406 C 14.941406 -8.023438 15.484375 -6.945312 15.484375 -5.703125 C 15.484375 -3.4375 14.871094 -1.816406 13.644531 -0.839844 C 12.496094 0.0742188 10.820312 0.53125 8.613281 0.53125 C 6.652344 0.53125 5.085938 0.152344 3.914062 -0.609375 C 2.683594 -1.410156 1.828125 -2.773438 1.351562 -4.703125 L 2.457031 -4.972656 L 2.90625 -3.929688 L 2.054688 -3.566406 L 1.609375 -4.609375 L 2.710938 -4.890625 C 3.066406 -3.484375 3.695312 -2.460938 4.597656 -1.824219 C 5.535156 -1.164062 6.875 -0.835938 8.613281 -0.835938 C 10.730469 -0.835938 12.175781 -1.21875 12.957031 -1.992188 C 13.730469 -2.761719 14.121094 -3.996094 14.121094 -5.703125 C 14.121094 -6.410156 13.828125 -7.046875 13.238281 -7.613281 C 12.519531 -8.304688 11.632812 -8.875 10.578125 -9.328125 C 9.398438 -9.832031 8.226562 -10.324219 7.058594 -10.808594 C 5.777344 -11.339844 4.679688 -11.984375 3.773438 -12.75 C 2.683594 -13.664062 2.136719 -14.742188 2.136719 -15.984375 C 2.136719 -17.15625 2.3125 -18.136719 2.660156 -18.929688 C 3.046875 -19.820312 3.636719 -20.472656 4.429688 -20.890625 C 5.089844 -21.238281 5.753906 -21.472656 6.425781 -21.59375 C 7.046875 -21.707031 7.796875 -21.765625 8.675781 -21.765625 C 10.082031 -21.765625 11.28125 -21.425781 12.273438 -20.746094 C 13.289062 -20.050781 14.050781 -18.902344 14.554688 -17.296875 L 14.792969 -16.527344 L 10.875 -13.589844 L 10.191406 -14.5 L 10.191406 -15.636719 L 11.679688 -15.636719 L 11.679688 -14.5 L 10.992188 -15.40625 L 13.816406 -17.53125 L 14.5 -16.621094 L 13.398438 -16.339844 C 13.03125 -17.765625 12.464844 -18.804688 11.699219 -19.457031 C 10.960938 -20.085938 9.953125 -20.398438 8.675781 -20.398438 C 6.738281 -20.398438 5.378906 -20.058594 4.601562 -19.375 C 3.871094 -18.734375 3.503906 -17.601562 3.503906 -15.984375 Z M 3.503906 -15.984375 "/></g></g><g style="fill:#bfbfbf;fill-opacity:1;"><g transform="translate(137.160888, 59.345666)"><path style="stroke:none" d="M 16.757812 -21.234375 L 16.757812 -19.183594 L 8.492188 -19.183594 L 8.492188 -20.324219 L 9.632812 -20.324219 L 9.632812 1.136719 L 6.445312 1.136719 L 6.445312 -20.324219 L 7.582031 -20.324219 L 7.582031 -19.183594 L -0.683594 -19.183594 L -0.683594 -22.371094 L 16.757812 -22.371094 Z M 14.484375 -21.234375 L 15.621094 -21.234375 L 15.621094 -20.09375 L 0.453125 -20.09375 L 0.453125 -21.234375 L 1.59375 -21.234375 L 1.59375 -20.324219 L 0.453125 -20.324219 L 0.453125 -21.460938 L 8.722656 -21.460938 L 8.722656 0 L 7.582031 0 L 7.582031 -1.136719 L 8.492188 -1.136719 L 8.492188 0 L 7.355469 0 L 7.355469 -21.460938 L 15.621094 -21.460938 L 15.621094 -20.324219 L 14.484375 -20.324219 Z M 14.484375 -21.234375 "/></g></g><g style="fill:#bfbfbf;fill-opacity:1;"><g transform="translate(153.229267, 59.345666)"><path style="stroke:none" d="M 15.722656 -1.316406 C 14.382812 0.523438 12.277344 1.441406 9.402344 1.441406 C 6.53125 1.441406 4.421875 0.523438 3.085938 -1.316406 C 1.828125 -3.042969 1.199219 -5.648438 1.199219 -9.128906 L 1.199219 -12.101562 C 1.199219 -15.585938 1.828125 -18.191406 3.085938 -19.917969 C 4.421875 -21.753906 6.53125 -22.675781 9.402344 -22.675781 C 12.277344 -22.675781 14.382812 -21.753906 15.722656 -19.917969 C 16.980469 -18.191406 17.609375 -15.585938 17.609375 -12.101562 L 17.609375 -9.128906 C 17.609375 -5.648438 16.980469 -3.042969 15.722656 -1.316406 Z M 13.882812 -2.65625 C 14.851562 -3.984375 15.332031 -6.140625 15.332031 -9.128906 L 15.332031 -12.101562 C 15.332031 -15.089844 14.851562 -17.25 13.882812 -18.578125 C 12.996094 -19.792969 11.503906 -20.398438 9.402344 -20.398438 C 7.300781 -20.398438 5.808594 -19.792969 4.921875 -18.578125 C 3.957031 -17.25 3.472656 -15.089844 3.472656 -12.101562 L 3.472656 -9.128906 C 3.472656 -6.140625 3.957031 -3.984375 4.921875 -2.65625 C 5.808594 -1.441406 7.300781 -0.835938 9.402344 -0.835938 C 11.503906 -0.835938 12.996094 -1.441406 13.882812 -2.65625 Z M 11.570312 -19.175781 C 10.984375 -19.382812 10.261719 -19.488281 9.402344 -19.488281 C 8.542969 -19.488281 7.820312 -19.382812 7.238281 -19.175781 C 6.703125 -18.984375 6.214844 -18.652344 5.777344 -18.183594 C 5.34375 -17.71875 5.011719 -17.011719 4.773438 -16.0625 C 4.515625 -15.007812 4.382812 -13.6875 4.382812 -12.101562 L 4.382812 -9.128906 C 4.382812 -7.542969 4.515625 -6.226562 4.773438 -5.171875 C 5.011719 -4.222656 5.34375 -3.515625 5.777344 -3.050781 C 6.214844 -2.578125 6.703125 -2.246094 7.238281 -2.058594 C 7.820312 -1.847656 8.542969 -1.746094 9.402344 -1.746094 C 10.261719 -1.746094 10.984375 -1.847656 11.570312 -2.058594 C 12.101562 -2.246094 12.589844 -2.578125 13.03125 -3.050781 C 13.460938 -3.515625 13.796875 -4.222656 14.03125 -5.171875 C 14.292969 -6.226562 14.421875 -7.542969 14.421875 -9.128906 L 14.421875 -12.101562 C 14.421875 -13.6875 14.292969 -15.007812 14.03125 -16.0625 C 13.796875 -17.011719 13.460938 -17.71875 13.03125 -18.183594 C 12.589844 -18.652344 12.101562 -18.984375 11.570312 -19.175781 Z M 12.332031 -21.320312 C 13.214844 -21.003906 14 -20.476562 14.695312 -19.734375 C 15.394531 -18.984375 15.910156 -17.941406 16.242188 -16.609375 C 16.546875 -15.375 16.699219 -13.875 16.699219 -12.101562 L 16.699219 -9.128906 C 16.699219 -7.359375 16.546875 -5.859375 16.242188 -4.625 C 15.910156 -3.292969 15.394531 -2.25 14.695312 -1.5 C 14 -0.757812 13.214844 -0.230469 12.332031 0.0859375 C 11.503906 0.382812 10.527344 0.53125 9.402344 0.53125 C 8.28125 0.53125 7.304688 0.382812 6.472656 0.0859375 C 5.589844 -0.230469 4.804688 -0.757812 4.113281 -1.5 C 3.410156 -2.25 2.894531 -3.292969 2.566406 -4.625 C 2.261719 -5.859375 2.109375 -7.359375 2.109375 -9.128906 L 2.109375 -12.101562 C 2.109375 -13.875 2.261719 -15.375 2.566406 -16.609375 C 2.894531 -17.941406 3.410156 -18.984375 4.113281 -19.734375 C 4.804688 -20.476562 5.589844 -21.003906 6.472656 -21.320312 C 7.304688 -21.617188 8.28125 -21.765625 9.402344 -21.765625 C 10.527344 -21.765625 11.503906 -21.617188 12.332031 -21.320312 Z M 12.332031 -21.320312 "/></g></g><g style="fill:#bfbfbf;fill-opacity:1;"><g transform="translate(172.026239, 59.345666)"><path style="stroke:none" d="M 5.367188 -2.046875 L 14.773438 -2.046875 L 14.773438 -0.910156 L 13.789062 -0.339844 L 2.929688 -19.117188 L 3.914062 -19.6875 L 5.050781 -19.6875 L 5.050781 1.136719 L 1.867188 1.136719 L 1.867188 -22.371094 L 4.722656 -22.371094 L 16.394531 -2.175781 L 15.410156 -1.609375 L 14.269531 -1.609375 L 14.269531 -22.371094 L 17.457031 -22.371094 L 17.457031 1.136719 L 4.230469 1.136719 L 4.230469 -2.046875 Z M 5.367188 0.226562 L 5.367188 -0.910156 L 6.507812 -0.910156 L 6.507812 0 L 5.367188 0 L 5.367188 -1.136719 L 16.320312 -1.136719 L 16.320312 0 L 15.179688 0 L 15.179688 -21.234375 L 16.320312 -21.234375 L 16.320312 -20.09375 L 15.410156 -20.09375 L 15.410156 -21.234375 L 16.546875 -21.234375 L 16.546875 2.632812 L 3.078125 -20.664062 L 4.066406 -21.234375 L 4.066406 -20.09375 L 3.003906 -20.09375 L 3.003906 -21.234375 L 4.140625 -21.234375 L 4.140625 0 L 3.003906 0 L 3.003906 -1.136719 L 3.914062 -1.136719 L 3.914062 0 L 2.773438 0 L 2.773438 -23.925781 L 16.746094 0.226562 Z M 5.367188 0.226562 "/></g></g><g style="fill:#bfbfbf;fill-opacity:1;"><g transform="translate(191.338605, 59.345666)"><path style="stroke:none" d="M 13.890625 -9.964844 L 2.125 -9.964844 L 13.363281 -21.128906 L 14.164062 -20.324219 L 14.164062 -19.183594 L 3.914062 -19.183594 L 3.914062 -20.324219 L 5.050781 -20.324219 L 5.050781 -0.910156 L 3.914062 -0.910156 L 3.914062 -2.046875 L 16.820312 -2.046875 L 16.820312 1.136719 L 1.867188 1.136719 L 1.867188 -22.371094 L 19.140625 -22.371094 L 7.898438 -11.203125 L 7.097656 -12.011719 L 7.097656 -13.148438 L 15.03125 -13.148438 L 15.03125 -9.964844 Z M 13.890625 -12.238281 L 13.890625 -11.101562 L 12.753906 -11.101562 L 12.753906 -12.011719 L 13.890625 -12.011719 L 13.890625 -10.875 L 4.339844 -10.875 L 15.578125 -22.039062 L 16.378906 -21.234375 L 16.378906 -20.09375 L 3.003906 -20.09375 L 3.003906 -21.234375 L 4.140625 -21.234375 L 4.140625 0 L 3.003906 0 L 3.003906 -1.136719 L 15.683594 -1.136719 L 15.683594 0 L 14.542969 0 L 14.542969 -0.910156 L 15.683594 -0.910156 L 15.683594 0.226562 L 2.773438 0.226562 L 2.773438 -21.460938 L 16.925781 -21.460938 L 5.683594 -10.292969 L 4.882812 -11.101562 L 4.882812 -12.238281 Z M 13.890625 -12.238281 "/></g></g><g style="fill:#bfbfbf;fill-opacity:1;"><g transform="translate(208.810169, 59.345666)"><path style="stroke:none" d=""/></g></g><g style="fill:#1a1b1f;fill-opacity:1;"><g transform="translate(7.734668, 59.345666)"><path style="stroke:none" d="M 2.359375 -15.984375 C 2.359375 -17.941406 2.851562 -19.351562 3.84375 -20.21875 C 4.84375 -21.09375 6.453125 -21.53125 8.671875 -21.53125 C 10.234375 -21.53125 11.488281 -21.125 12.4375 -20.3125 C 13.382812 -19.507812 14.070312 -18.28125 14.5 -16.625 L 11.671875 -14.5 L 10.1875 -14.5 L 13.46875 -16.953125 C 13.039062 -18.304688 12.425781 -19.253906 11.625 -19.796875 C 10.832031 -20.347656 9.847656 -20.625 8.671875 -20.625 C 7.859375 -20.625 7.175781 -20.570312 6.625 -20.46875 C 6.070312 -20.363281 5.515625 -20.164062 4.953125 -19.875 C 4.398438 -19.582031 3.984375 -19.113281 3.703125 -18.46875 C 3.421875 -17.820312 3.28125 -16.992188 3.28125 -15.984375 C 3.28125 -15.097656 3.6875 -14.3125 4.5 -13.625 C 5.320312 -12.9375 6.316406 -12.347656 7.484375 -11.859375 C 8.660156 -11.367188 9.835938 -10.867188 11.015625 -10.359375 C 12.203125 -9.859375 13.203125 -9.210938 14.015625 -8.421875 C 14.835938 -7.640625 15.25 -6.734375 15.25 -5.703125 C 15.25 -3.679688 14.75 -2.175781 13.75 -1.1875 C 12.75 -0.195312 11.035156 0.296875 8.609375 0.296875 C 6.628906 0.296875 5.070312 -0.0976562 3.9375 -0.890625 C 2.8125 -1.691406 2.035156 -2.929688 1.609375 -4.609375 L 2.453125 -4.96875 C 2.859375 -3.332031 3.550781 -2.195312 4.53125 -1.5625 C 5.507812 -0.925781 6.867188 -0.609375 8.609375 -0.609375 C 10.554688 -0.609375 12 -0.976562 12.9375 -1.71875 C 13.875 -2.46875 14.34375 -3.796875 14.34375 -5.703125 C 14.34375 -6.585938 13.929688 -7.375 13.109375 -8.0625 C 12.296875 -8.75 11.296875 -9.332031 10.109375 -9.8125 C 8.929688 -10.300781 7.753906 -10.800781 6.578125 -11.3125 C 5.410156 -11.820312 4.414062 -12.46875 3.59375 -13.25 C 2.769531 -14.039062 2.359375 -14.953125 2.359375 -15.984375 Z M 2.359375 -15.984375 "/></g></g><g style="fill:#1a1b1f;fill-opacity:1;"><g transform="translate(24.742892, 59.345666)"><path style="stroke:none" d="M 3.546875 -0.90625 L 14.703125 -0.90625 L 8.28125 -18.59375 L 1.515625 0 L 0.546875 0 L 8.28125 -21.265625 L 16.015625 0 L 3.546875 0 Z M 3.546875 -0.90625 "/></g></g><g style="fill:#1a1b1f;fill-opacity:1;"><g transform="translate(41.29635, 59.345666)"><path style="stroke:none" d="M 16.171875 -3.875 C 15.617188 -2.539062 14.847656 -1.507812 13.859375 -0.78125 C 12.867188 -0.0625 11.382812 0.296875 9.40625 0.296875 C 6.914062 0.296875 5.113281 -0.460938 4 -1.984375 C 2.882812 -3.515625 2.328125 -5.894531 2.328125 -9.125 L 2.328125 -12.09375 C 2.328125 -15.332031 2.882812 -17.710938 4 -19.234375 C 5.113281 -20.765625 6.914062 -21.53125 9.40625 -21.53125 C 11.382812 -21.53125 12.867188 -21.164062 13.859375 -20.4375 C 14.847656 -19.707031 15.617188 -18.675781 16.171875 -17.34375 L 15.34375 -16.953125 C 14.882812 -18.128906 14.226562 -19.035156 13.375 -19.671875 C 12.519531 -20.304688 11.195312 -20.625 9.40625 -20.625 C 8.414062 -20.625 7.566406 -20.492188 6.859375 -20.234375 C 6.148438 -19.984375 5.507812 -19.554688 4.9375 -18.953125 C 4.375 -18.347656 3.953125 -17.472656 3.671875 -16.328125 C 3.390625 -15.191406 3.25 -13.78125 3.25 -12.09375 L 3.25 -9.125 C 3.25 -7.445312 3.390625 -6.035156 3.671875 -4.890625 C 3.953125 -3.753906 4.375 -2.878906 4.9375 -2.265625 C 5.507812 -1.660156 6.148438 -1.234375 6.859375 -0.984375 C 7.566406 -0.734375 8.414062 -0.609375 9.40625 -0.609375 C 11.195312 -0.609375 12.519531 -0.925781 13.375 -1.5625 C 14.226562 -2.195312 14.882812 -3.101562 15.34375 -4.28125 Z M 16.171875 -3.875 "/></g></g><g style="fill:#1a1b1f;fill-opacity:1;"><g transform="translate(59.092835, 59.345666)"><path style="stroke:none" d="M 5.375 -0.90625 L 13.734375 -0.90625 L 10.0625 -10.984375 L 11.765625 -11.953125 C 13.160156 -12.722656 13.859375 -13.945312 13.859375 -15.625 C 13.859375 -18.75 11.472656 -20.3125 6.703125 -20.3125 L 3.90625 -20.3125 L 3.90625 0 L 3 0 L 3 -21.234375 L 6.703125 -21.234375 C 9.367188 -21.234375 11.378906 -20.738281 12.734375 -19.75 C 14.085938 -18.769531 14.765625 -17.394531 14.765625 -15.625 C 14.765625 -13.601562 13.914062 -12.113281 12.21875 -11.15625 L 11.1875 -10.578125 L 15.046875 0 L 5.375 0 Z M 5.375 -0.90625 "/></g></g><g style="fill:#1a1b1f;fill-opacity:1;"><g transform="translate(75.767564, 59.345666)"><path style="stroke:none" d="M 13.890625 -11.09375 L 4.890625 -11.09375 L 14.15625 -20.3125 L 3.90625 -20.3125 L 3.90625 -0.90625 L 15.671875 -0.90625 L 15.671875 0 L 3 0 L 3 -21.234375 L 16.375 -21.234375 L 7.09375 -12.015625 L 13.890625 -12.015625 Z M 13.890625 -11.09375 "/></g></g><g style="fill:#1a1b1f;fill-opacity:1;"><g transform="translate(93.230553, 59.345666)"><path style="stroke:none" d="M 5.90625 0 L 3 0 L 3 -21.234375 L 5.90625 -21.234375 C 8.820312 -21.234375 11.289062 -20.160156 13.3125 -18.015625 C 15.332031 -15.867188 16.34375 -13.398438 16.34375 -10.609375 C 16.34375 -7.816406 15.332031 -5.347656 13.3125 -3.203125 C 11.289062 -1.066406 8.820312 0 5.90625 0 Z M 5.90625 -0.90625 C 8.5625 -0.90625 10.8125 -1.878906 12.65625 -3.828125 C 14.507812 -5.785156 15.4375 -8.046875 15.4375 -10.609375 C 15.4375 -13.179688 14.507812 -15.441406 12.65625 -17.390625 C 10.8125 -19.335938 8.5625 -20.3125 5.90625 -20.3125 L 3.90625 -20.3125 L 3.90625 -0.90625 Z M 5.90625 -0.90625 "/></g></g><g style="fill:#1a1b1f;fill-opacity:1;"><g transform="translate(111.208951, 59.345666)"><path style="stroke:none" d=""/></g></g><g style="fill:#1a1b1f;fill-opacity:1;"><g transform="translate(120.152664, 59.345666)"><path style="stroke:none" d="M 2.359375 -15.984375 C 2.359375 -17.941406 2.851562 -19.351562 3.84375 -20.21875 C 4.84375 -21.09375 6.453125 -21.53125 8.671875 -21.53125 C 10.234375 -21.53125 11.488281 -21.125 12.4375 -20.3125 C 13.382812 -19.507812 14.070312 -18.28125 14.5 -16.625 L 11.671875 -14.5 L 10.1875 -14.5 L 13.46875 -16.953125 C 13.039062 -18.304688 12.425781 -19.253906 11.625 -19.796875 C 10.832031 -20.347656 9.847656 -20.625 8.671875 -20.625 C 7.859375 -20.625 7.175781 -20.570312 6.625 -20.46875 C 6.070312 -20.363281 5.515625 -20.164062 4.953125 -19.875 C 4.398438 -19.582031 3.984375 -19.113281 3.703125 -18.46875 C 3.421875 -17.820312 3.28125 -16.992188 3.28125 -15.984375 C 3.28125 -15.097656 3.6875 -14.3125 4.5 -13.625 C 5.320312 -12.9375 6.316406 -12.347656 7.484375 -11.859375 C 8.660156 -11.367188 9.835938 -10.867188 11.015625 -10.359375 C 12.203125 -9.859375 13.203125 -9.210938 14.015625 -8.421875 C 14.835938 -7.640625 15.25 -6.734375 15.25 -5.703125 C 15.25 -3.679688 14.75 -2.175781 13.75 -1.1875 C 12.75 -0.195312 11.035156 0.296875 8.609375 0.296875 C 6.628906 0.296875 5.070312 -0.0976562 3.9375 -0.890625 C 2.8125 -1.691406 2.035156 -2.929688 1.609375 -4.609375 L 2.453125 -4.96875 C 2.859375 -3.332031 3.550781 -2.195312 4.53125 -1.5625 C 5.507812 -0.925781 6.867188 -0.609375 8.609375 -0.609375 C 10.554688 -0.609375 12 -0.976562 12.9375 -1.71875 C 13.875 -2.46875 14.34375 -3.796875 14.34375 -5.703125 C 14.34375 -6.585938 13.929688 -7.375 13.109375 -8.0625 C 12.296875 -8.75 11.296875 -9.332031 10.109375 -9.8125 C 8.929688 -10.300781 7.753906 -10.800781 6.578125 -11.3125 C 5.410156 -11.820312 4.414062 -12.46875 3.59375 -13.25 C 2.769531 -14.039062 2.359375 -14.953125 2.359375 -15.984375 Z M 2.359375 -15.984375 "/></g></g><g style="fill:#1a1b1f;fill-opacity:1;"><g transform="translate(137.160888, 59.345666)"><path style="stroke:none" d="M 15.625 -21.234375 L 15.625 -20.3125 L 8.484375 -20.3125 L 8.484375 0 L 7.578125 0 L 7.578125 -20.3125 L 0.453125 -20.3125 L 0.453125 -21.234375 Z M 15.625 -21.234375 "/></g></g><g style="fill:#1a1b1f;fill-opacity:1;"><g transform="translate(153.229267, 59.345666)"><path style="stroke:none" d="M 14.796875 -1.984375 C 13.679688 -0.460938 11.878906 0.296875 9.390625 0.296875 C 6.910156 0.296875 5.113281 -0.460938 4 -1.984375 C 2.882812 -3.515625 2.328125 -5.894531 2.328125 -9.125 L 2.328125 -12.09375 C 2.328125 -15.332031 2.882812 -17.710938 4 -19.234375 C 5.113281 -20.765625 6.910156 -21.53125 9.390625 -21.53125 C 11.878906 -21.53125 13.679688 -20.765625 14.796875 -19.234375 C 15.910156 -17.710938 16.46875 -15.332031 16.46875 -12.09375 L 16.46875 -9.125 C 16.46875 -5.894531 15.910156 -3.515625 14.796875 -1.984375 Z M 11.953125 -20.234375 C 11.242188 -20.492188 10.394531 -20.625 9.40625 -20.625 C 8.414062 -20.625 7.566406 -20.492188 6.859375 -20.234375 C 6.148438 -19.984375 5.507812 -19.554688 4.9375 -18.953125 C 4.375 -18.347656 3.953125 -17.472656 3.671875 -16.328125 C 3.390625 -15.191406 3.25 -13.78125 3.25 -12.09375 L 3.25 -9.125 C 3.25 -7.445312 3.390625 -6.035156 3.671875 -4.890625 C 3.953125 -3.753906 4.375 -2.878906 4.9375 -2.265625 C 5.507812 -1.660156 6.148438 -1.234375 6.859375 -0.984375 C 7.566406 -0.734375 8.414062 -0.609375 9.40625 -0.609375 C 10.394531 -0.609375 11.242188 -0.734375 11.953125 -0.984375 C 12.660156 -1.234375 13.296875 -1.660156 13.859375 -2.265625 C 14.421875 -2.878906 14.84375 -3.753906 15.125 -4.890625 C 15.414062 -6.035156 15.5625 -7.445312 15.5625 -9.125 L 15.5625 -12.09375 C 15.5625 -13.78125 15.414062 -15.191406 15.125 -16.328125 C 14.84375 -17.472656 14.421875 -18.347656 13.859375 -18.953125 C 13.296875 -19.554688 12.660156 -19.984375 11.953125 -20.234375 Z M 11.953125 -20.234375 "/></g></g><g style="fill:#1a1b1f;fill-opacity:1;"><g transform="translate(172.026239, 59.345666)"><path style="stroke:none" d="M 5.375 -0.90625 L 14.765625 -0.90625 L 3.90625 -19.6875 L 3.90625 0 L 3 0 L 3 -21.234375 L 4.0625 -21.234375 L 15.40625 -1.609375 L 15.40625 -21.234375 L 16.3125 -21.234375 L 16.3125 0 L 5.375 0 Z M 5.375 -0.90625 "/></g></g><g style="fill:#1a1b1f;fill-opacity:1;"><g transform="translate(191.338605, 59.345666)"><path style="stroke:none" d="M 13.890625 -11.09375 L 4.890625 -11.09375 L 14.15625 -20.3125 L 3.90625 -20.3125 L 3.90625 -0.90625 L 15.671875 -0.90625 L 15.671875 0 L 3 0 L 3 -21.234375 L 16.375 -21.234375 L 7.09375 -12.015625 L 13.890625 -12.015625 Z M 13.890625 -11.09375 "/></g></g><g style="fill:#1a1b1f;fill-opacity:1;"><g transform="translate(208.810169, 59.345666)"><path style="stroke:none" d=""/></g></g><g style="fill:#bfbfbf;fill-opacity:1;"><g transform="translate(80.466402, 74.811604)"><path style="stroke:none" d="M 0.757812 -9.863281 C 0.757812 -11.285156 1.144531 -12.332031 1.914062 -13.007812 C 2.65625 -13.664062 3.804688 -13.988281 5.351562 -13.988281 C 6.484375 -13.988281 7.410156 -13.683594 8.128906 -13.074219 C 8.828125 -12.476562 9.324219 -11.597656 9.625 -10.429688 L 9.742188 -9.976562 L 7.4375 -8.242188 L 4.183594 -8.242188 L 7.886719 -11.023438 L 8.308594 -10.460938 L 7.640625 -10.25 C 7.425781 -10.933594 7.140625 -11.394531 6.78125 -11.640625 C 6.40625 -11.894531 5.929688 -12.023438 5.351562 -12.023438 C 4.894531 -12.023438 4.515625 -11.996094 4.214844 -11.941406 C 3.941406 -11.890625 3.667969 -11.792969 3.386719 -11.644531 C 3.1875 -11.542969 3.035156 -11.363281 2.925781 -11.113281 C 2.789062 -10.804688 2.722656 -10.386719 2.722656 -9.863281 C 2.722656 -9.53125 2.890625 -9.222656 3.230469 -8.941406 C 3.679688 -8.5625 4.234375 -8.238281 4.890625 -7.964844 C 5.617188 -7.664062 6.347656 -7.359375 7.078125 -7.046875 C 7.886719 -6.699219 8.574219 -6.253906 9.140625 -5.707031 C 9.789062 -5.082031 10.113281 -4.351562 10.113281 -3.519531 C 10.113281 -2.074219 9.738281 -0.980469 8.980469 -0.230469 C 8.226562 0.515625 7.003906 0.890625 5.316406 0.890625 C 3.945312 0.890625 2.847656 0.601562 2.027344 0.0234375 C 1.1875 -0.570312 0.617188 -1.46875 0.3125 -2.671875 L 0.164062 -3.253906 L 2 -4.039062 L 2.195312 -3.238281 C 2.402344 -2.40625 2.730469 -1.84375 3.179688 -1.550781 C 3.667969 -1.234375 4.378906 -1.078125 5.316406 -1.078125 C 6.347656 -1.078125 7.09375 -1.257812 7.542969 -1.617188 C 7.949219 -1.9375 8.148438 -2.570312 8.148438 -3.519531 C 8.148438 -3.847656 7.980469 -4.15625 7.640625 -4.441406 C 7.191406 -4.816406 6.636719 -5.140625 5.972656 -5.414062 C 5.242188 -5.714844 4.511719 -6.023438 3.78125 -6.335938 C 2.980469 -6.679688 2.296875 -7.125 1.730469 -7.671875 C 1.082031 -8.296875 0.757812 -9.027344 0.757812 -9.863281 Z M 2.160156 -9.863281 C 2.160156 -9.425781 2.34375 -9.03125 2.703125 -8.683594 C 3.148438 -8.253906 3.691406 -7.902344 4.339844 -7.625 C 5.058594 -7.3125 5.78125 -7.011719 6.507812 -6.710938 C 7.304688 -6.386719 7.984375 -5.988281 8.542969 -5.515625 C 9.21875 -4.949219 9.554688 -4.285156 9.554688 -3.519531 C 9.554688 -2.121094 9.175781 -1.121094 8.417969 -0.515625 C 7.710938 0.046875 6.675781 0.328125 5.316406 0.328125 C 4.101562 0.328125 3.136719 0.09375 2.414062 -0.375 C 1.65625 -0.867188 1.128906 -1.710938 0.835938 -2.902344 L 1.515625 -3.070312 L 1.792969 -2.425781 L 1.269531 -2.199219 L 0.992188 -2.84375 L 1.671875 -3.015625 C 1.890625 -2.148438 2.28125 -1.519531 2.835938 -1.125 C 3.414062 -0.71875 4.242188 -0.515625 5.316406 -0.515625 C 6.621094 -0.515625 7.511719 -0.753906 7.992188 -1.230469 C 8.472656 -1.703125 8.710938 -2.464844 8.710938 -3.519531 C 8.710938 -3.957031 8.53125 -4.347656 8.167969 -4.695312 C 7.726562 -5.125 7.175781 -5.476562 6.527344 -5.753906 C 5.800781 -6.066406 5.074219 -6.371094 4.355469 -6.667969 C 3.5625 -6.996094 2.886719 -7.394531 2.328125 -7.863281 C 1.65625 -8.429688 1.320312 -9.09375 1.320312 -9.863281 C 1.320312 -10.582031 1.425781 -11.1875 1.640625 -11.679688 C 1.878906 -12.226562 2.246094 -12.628906 2.730469 -12.886719 C 3.140625 -13.101562 3.550781 -13.246094 3.964844 -13.320312 C 4.347656 -13.390625 4.8125 -13.425781 5.351562 -13.425781 C 6.21875 -13.425781 6.960938 -13.21875 7.574219 -12.800781 C 8.199219 -12.371094 8.667969 -11.660156 8.980469 -10.671875 L 9.128906 -10.195312 L 6.707031 -8.382812 L 6.289062 -8.945312 L 6.289062 -9.648438 L 7.203125 -9.648438 L 7.203125 -8.945312 L 6.78125 -9.503906 L 8.523438 -10.816406 L 8.945312 -10.253906 L 8.265625 -10.082031 C 8.039062 -10.960938 7.691406 -11.601562 7.21875 -12.003906 C 6.761719 -12.390625 6.140625 -12.585938 5.351562 -12.585938 C 4.15625 -12.585938 3.320312 -12.375 2.839844 -11.953125 C 2.386719 -11.558594 2.160156 -10.859375 2.160156 -9.863281 Z M 2.160156 -9.863281 "/></g></g><g style="fill:#bfbfbf;fill-opacity:1;"><g transform="translate(90.954596, 74.811604)"><path style="stroke:none" d="M 10.625 -2.128906 C 10.238281 -1.183594 9.683594 -0.449219 8.96875 0.078125 C 8.234375 0.617188 7.175781 0.890625 5.800781 0.890625 C 4.027344 0.890625 2.730469 0.320312 1.902344 -0.8125 C 1.128906 -1.878906 0.738281 -3.484375 0.738281 -5.632812 L 0.738281 -7.464844 C 0.738281 -9.613281 1.128906 -11.222656 1.902344 -12.285156 C 2.730469 -13.421875 4.027344 -13.988281 5.800781 -13.988281 C 7.175781 -13.988281 8.234375 -13.71875 8.96875 -13.179688 C 9.683594 -12.652344 10.238281 -11.914062 10.625 -10.96875 L 10.875 -10.359375 L 9.09375 -9.5 L 8.816406 -10.203125 C 8.578125 -10.804688 8.25 -11.261719 7.832031 -11.574219 C 7.433594 -11.875 6.753906 -12.023438 5.800781 -12.023438 C 5.269531 -12.023438 4.824219 -11.957031 4.464844 -11.832031 C 4.136719 -11.710938 3.835938 -11.507812 3.5625 -11.21875 C 3.296875 -10.929688 3.089844 -10.496094 2.945312 -9.910156 C 2.785156 -9.257812 2.703125 -8.445312 2.703125 -7.464844 L 2.703125 -5.632812 C 2.703125 -4.65625 2.785156 -3.839844 2.945312 -3.191406 C 3.089844 -2.605469 3.296875 -2.167969 3.5625 -1.882812 C 3.835938 -1.589844 4.136719 -1.386719 4.464844 -1.269531 C 4.824219 -1.140625 5.269531 -1.078125 5.800781 -1.078125 C 6.753906 -1.078125 7.433594 -1.226562 7.832031 -1.523438 C 8.25 -1.839844 8.578125 -2.296875 8.816406 -2.898438 L 9.09375 -3.597656 L 10.875 -2.742188 Z M 9.324219 -2.660156 L 9.972656 -2.394531 L 9.667969 -1.761719 L 9.164062 -2.007812 L 9.46875 -2.636719 L 10.121094 -2.378906 C 9.785156 -1.535156 9.304688 -0.875 8.671875 -0.402344 C 8.023438 0.0859375 7.066406 0.328125 5.800781 0.328125 C 5.109375 0.328125 4.507812 0.234375 3.992188 0.0546875 C 3.449219 -0.140625 2.964844 -0.46875 2.539062 -0.925781 C 2.105469 -1.386719 1.785156 -2.03125 1.582031 -2.851562 C 1.394531 -3.613281 1.300781 -4.539062 1.300781 -5.632812 L 1.300781 -7.464844 C 1.300781 -8.558594 1.394531 -9.484375 1.582031 -10.246094 C 1.785156 -11.070312 2.105469 -11.710938 2.539062 -12.175781 C 2.964844 -12.632812 3.449219 -12.957031 3.992188 -13.152344 C 4.507812 -13.335938 5.109375 -13.425781 5.800781 -13.425781 C 7.066406 -13.425781 8.023438 -13.183594 8.671875 -12.695312 C 9.304688 -12.226562 9.785156 -11.566406 10.121094 -10.71875 L 9.46875 -10.460938 L 9.164062 -11.09375 L 9.667969 -11.335938 L 9.972656 -10.703125 L 9.324219 -10.4375 C 9.039062 -11.140625 8.640625 -11.675781 8.136719 -12.046875 C 7.648438 -12.40625 6.871094 -12.585938 5.800781 -12.585938 C 4.503906 -12.585938 3.582031 -12.210938 3.039062 -11.460938 C 2.441406 -10.640625 2.144531 -9.308594 2.144531 -7.464844 L 2.144531 -5.632812 C 2.144531 -3.789062 2.441406 -2.457031 3.039062 -1.640625 C 3.582031 -0.890625 4.503906 -0.515625 5.800781 -0.515625 C 6.871094 -0.515625 7.648438 -0.695312 8.136719 -1.050781 C 8.640625 -1.421875 9.039062 -1.960938 9.324219 -2.660156 Z M 9.324219 -2.660156 "/></g></g><g style="fill:#bfbfbf;fill-opacity:1;"><g transform="translate(101.928881, 74.811604)"><path style="stroke:none" d="M 8.570312 -6.148438 L 1.308594 -6.148438 L 8.246094 -13.035156 L 8.738281 -12.539062 L 8.738281 -11.835938 L 2.414062 -11.835938 L 2.414062 -12.539062 L 3.117188 -12.539062 L 3.117188 -0.5625 L 2.414062 -0.5625 L 2.414062 -1.261719 L 10.375 -1.261719 L 10.375 0.703125 L 1.152344 0.703125 L 1.152344 -13.800781 L 11.808594 -13.800781 L 4.875 -6.914062 L 4.378906 -7.410156 L 4.378906 -8.113281 L 9.273438 -8.113281 L 9.273438 -6.148438 Z M 8.570312 -7.550781 L 8.570312 -6.847656 L 7.867188 -6.847656 L 7.867188 -7.410156 L 8.570312 -7.410156 L 8.570312 -6.707031 L 2.675781 -6.707031 L 9.609375 -13.597656 L 10.105469 -13.097656 L 10.105469 -12.398438 L 1.851562 -12.398438 L 1.851562 -13.097656 L 2.554688 -13.097656 L 2.554688 0 L 1.851562 0 L 1.851562 -0.703125 L 9.675781 -0.703125 L 9.675781 0 L 8.972656 0 L 8.972656 -0.5625 L 9.675781 -0.5625 L 9.675781 0.140625 L 1.710938 0.140625 L 1.710938 -13.238281 L 10.441406 -13.238281 L 3.507812 -6.351562 L 3.011719 -6.847656 L 3.011719 -7.550781 Z M 8.570312 -7.550781 "/></g></g><g style="fill:#bfbfbf;fill-opacity:1;"><g transform="translate(112.697509, 74.811604)"><path style="stroke:none" d="M 3.3125 -1.261719 L 9.113281 -1.261719 L 9.113281 -0.5625 L 8.503906 -0.210938 L 1.804688 -11.792969 L 2.414062 -12.144531 L 3.117188 -12.144531 L 3.117188 0.703125 L 1.152344 0.703125 L 1.152344 -13.800781 L 2.914062 -13.800781 L 10.113281 -1.34375 L 9.507812 -0.992188 L 8.804688 -0.992188 L 8.804688 -13.800781 L 10.769531 -13.800781 L 10.769531 0.703125 L 2.609375 0.703125 L 2.609375 -1.261719 Z M 3.3125 0.140625 L 3.3125 -0.5625 L 4.015625 -0.5625 L 4.015625 0 L 3.3125 0 L 3.3125 -0.703125 L 10.066406 -0.703125 L 10.066406 0 L 9.367188 0 L 9.367188 -13.097656 L 10.066406 -13.097656 L 10.066406 -12.398438 L 9.507812 -12.398438 L 9.507812 -13.097656 L 10.207031 -13.097656 L 10.207031 1.625 L 1.898438 -12.75 L 2.507812 -13.097656 L 2.507812 -12.398438 L 1.851562 -12.398438 L 1.851562 -13.097656 L 2.554688 -13.097656 L 2.554688 0 L 1.851562 0 L 1.851562 -0.703125 L 2.414062 -0.703125 L 2.414062 0 L 1.710938 0 L 1.710938 -14.761719 L 10.332031 0.140625 Z M 3.3125 0.140625 "/></g></g><g style="fill:#bfbfbf;fill-opacity:1;"><g transform="translate(124.606568, 74.811604)"><path style="stroke:none" d="M 10.339844 -13.097656 L 10.339844 -11.835938 L 5.238281 -11.835938 L 5.238281 -12.539062 L 5.941406 -12.539062 L 5.941406 0.703125 L 3.976562 0.703125 L 3.976562 -12.539062 L 4.679688 -12.539062 L 4.679688 -11.835938 L -0.421875 -11.835938 L -0.421875 -13.800781 L 10.339844 -13.800781 Z M 8.933594 -13.097656 L 9.636719 -13.097656 L 9.636719 -12.398438 L 0.28125 -12.398438 L 0.28125 -13.097656 L 0.984375 -13.097656 L 0.984375 -12.539062 L 0.28125 -12.539062 L 0.28125 -13.238281 L 5.378906 -13.238281 L 5.378906 0 L 4.679688 0 L 4.679688 -0.703125 L 5.238281 -0.703125 L 5.238281 0 L 4.539062 0 L 4.539062 -13.238281 L 9.636719 -13.238281 L 9.636719 -12.539062 L 8.933594 -12.539062 Z M 8.933594 -13.097656 "/></g></g><g style="fill:#bfbfbf;fill-opacity:1;"><g transform="translate(134.515199, 74.811604)"><path style="stroke:none" d="M 0.757812 -9.863281 C 0.757812 -11.285156 1.144531 -12.332031 1.914062 -13.007812 C 2.65625 -13.664062 3.804688 -13.988281 5.351562 -13.988281 C 6.484375 -13.988281 7.410156 -13.683594 8.128906 -13.074219 C 8.828125 -12.476562 9.324219 -11.597656 9.625 -10.429688 L 9.742188 -9.976562 L 7.4375 -8.242188 L 4.183594 -8.242188 L 7.886719 -11.023438 L 8.308594 -10.460938 L 7.640625 -10.25 C 7.425781 -10.933594 7.140625 -11.394531 6.78125 -11.640625 C 6.40625 -11.894531 5.929688 -12.023438 5.351562 -12.023438 C 4.894531 -12.023438 4.515625 -11.996094 4.214844 -11.941406 C 3.941406 -11.890625 3.667969 -11.792969 3.386719 -11.644531 C 3.1875 -11.542969 3.035156 -11.363281 2.925781 -11.113281 C 2.789062 -10.804688 2.722656 -10.386719 2.722656 -9.863281 C 2.722656 -9.53125 2.890625 -9.222656 3.230469 -8.941406 C 3.679688 -8.5625 4.234375 -8.238281 4.890625 -7.964844 C 5.617188 -7.664062 6.347656 -7.359375 7.078125 -7.046875 C 7.886719 -6.699219 8.574219 -6.253906 9.140625 -5.707031 C 9.789062 -5.082031 10.113281 -4.351562 10.113281 -3.519531 C 10.113281 -2.074219 9.738281 -0.980469 8.980469 -0.230469 C 8.226562 0.515625 7.003906 0.890625 5.316406 0.890625 C 3.945312 0.890625 2.847656 0.601562 2.027344 0.0234375 C 1.1875 -0.570312 0.617188 -1.46875 0.3125 -2.671875 L 0.164062 -3.253906 L 2 -4.039062 L 2.195312 -3.238281 C 2.402344 -2.40625 2.730469 -1.84375 3.179688 -1.550781 C 3.667969 -1.234375 4.378906 -1.078125 5.316406 -1.078125 C 6.347656 -1.078125 7.09375 -1.257812 7.542969 -1.617188 C 7.949219 -1.9375 8.148438 -2.570312 8.148438 -3.519531 C 8.148438 -3.847656 7.980469 -4.15625 7.640625 -4.441406 C 7.191406 -4.816406 6.636719 -5.140625 5.972656 -5.414062 C 5.242188 -5.714844 4.511719 -6.023438 3.78125 -6.335938 C 2.980469 -6.679688 2.296875 -7.125 1.730469 -7.671875 C 1.082031 -8.296875 0.757812 -9.027344 0.757812 -9.863281 Z M 2.160156 -9.863281 C 2.160156 -9.425781 2.34375 -9.03125 2.703125 -8.683594 C 3.148438 -8.253906 3.691406 -7.902344 4.339844 -7.625 C 5.058594 -7.3125 5.78125 -7.011719 6.507812 -6.710938 C 7.304688 -6.386719 7.984375 -5.988281 8.542969 -5.515625 C 9.21875 -4.949219 9.554688 -4.285156 9.554688 -3.519531 C 9.554688 -2.121094 9.175781 -1.121094 8.417969 -0.515625 C 7.710938 0.046875 6.675781 0.328125 5.316406 0.328125 C 4.101562 0.328125 3.136719 0.09375 2.414062 -0.375 C 1.65625 -0.867188 1.128906 -1.710938 0.835938 -2.902344 L 1.515625 -3.070312 L 1.792969 -2.425781 L 1.269531 -2.199219 L 0.992188 -2.84375 L 1.671875 -3.015625 C 1.890625 -2.148438 2.28125 -1.519531 2.835938 -1.125 C 3.414062 -0.71875 4.242188 -0.515625 5.316406 -0.515625 C 6.621094 -0.515625 7.511719 -0.753906 7.992188 -1.230469 C 8.472656 -1.703125 8.710938 -2.464844 8.710938 -3.519531 C 8.710938 -3.957031 8.53125 -4.347656 8.167969 -4.695312 C 7.726562 -5.125 7.175781 -5.476562 6.527344 -5.753906 C 5.800781 -6.066406 5.074219 -6.371094 4.355469 -6.667969 C 3.5625 -6.996094 2.886719 -7.394531 2.328125 -7.863281 C 1.65625 -8.429688 1.320312 -9.09375 1.320312 -9.863281 C 1.320312 -10.582031 1.425781 -11.1875 1.640625 -11.679688 C 1.878906 -12.226562 2.246094 -12.628906 2.730469 -12.886719 C 3.140625 -13.101562 3.550781 -13.246094 3.964844 -13.320312 C 4.347656 -13.390625 4.8125 -13.425781 5.351562 -13.425781 C 6.21875 -13.425781 6.960938 -13.21875 7.574219 -12.800781 C 8.199219 -12.371094 8.667969 -11.660156 8.980469 -10.671875 L 9.128906 -10.195312 L 6.707031 -8.382812 L 6.289062 -8.945312 L 6.289062 -9.648438 L 7.203125 -9.648438 L 7.203125 -8.945312 L 6.78125 -9.503906 L 8.523438 -10.816406 L 8.945312 -10.253906 L 8.265625 -10.082031 C 8.039062 -10.960938 7.691406 -11.601562 7.21875 -12.003906 C 6.761719 -12.390625 6.140625 -12.585938 5.351562 -12.585938 C 4.15625 -12.585938 3.320312 -12.375 2.839844 -11.953125 C 2.386719 -11.558594 2.160156 -10.859375 2.160156 -9.863281 Z M 2.160156 -9.863281 "/></g></g><g style="fill:#1a1b1f;fill-opacity:1;"><g transform="translate(80.466402, 74.811604)"><path style="stroke:none" d="M 1.453125 -9.859375 C 1.453125 -11.078125 1.757812 -11.953125 2.375 -12.484375 C 2.988281 -13.023438 3.984375 -13.296875 5.359375 -13.296875 C 6.316406 -13.296875 7.085938 -13.046875 7.671875 -12.546875 C 8.253906 -12.046875 8.679688 -11.285156 8.953125 -10.265625 L 7.203125 -8.953125 L 6.296875 -8.953125 L 8.3125 -10.46875 C 8.050781 -11.300781 7.671875 -11.882812 7.171875 -12.21875 C 6.679688 -12.5625 6.078125 -12.734375 5.359375 -12.734375 C 4.859375 -12.734375 4.4375 -12.703125 4.09375 -12.640625 C 3.75 -12.578125 3.40625 -12.453125 3.0625 -12.265625 C 2.71875 -12.085938 2.457031 -11.796875 2.28125 -11.390625 C 2.101562 -10.992188 2.015625 -10.484375 2.015625 -9.859375 C 2.015625 -9.316406 2.265625 -8.832031 2.765625 -8.40625 C 3.273438 -7.976562 3.890625 -7.613281 4.609375 -7.3125 C 5.335938 -7.019531 6.066406 -6.71875 6.796875 -6.40625 C 7.535156 -6.09375 8.15625 -5.691406 8.65625 -5.203125 C 9.164062 -4.710938 9.421875 -4.148438 9.421875 -3.515625 C 9.421875 -2.265625 9.109375 -1.332031 8.484375 -0.71875 C 7.867188 -0.113281 6.8125 0.1875 5.3125 0.1875 C 4.09375 0.1875 3.132812 -0.0546875 2.4375 -0.546875 C 1.738281 -1.046875 1.253906 -1.8125 0.984375 -2.84375 L 1.515625 -3.0625 C 1.765625 -2.050781 2.191406 -1.347656 2.796875 -0.953125 C 3.398438 -0.566406 4.238281 -0.375 5.3125 -0.375 C 6.507812 -0.375 7.398438 -0.601562 7.984375 -1.0625 C 8.566406 -1.53125 8.859375 -2.347656 8.859375 -3.515625 C 8.859375 -4.066406 8.601562 -4.550781 8.09375 -4.96875 C 7.59375 -5.394531 6.972656 -5.757812 6.234375 -6.0625 C 5.503906 -6.363281 4.773438 -6.671875 4.046875 -6.984375 C 3.328125 -7.296875 2.710938 -7.691406 2.203125 -8.171875 C 1.703125 -8.660156 1.453125 -9.222656 1.453125 -9.859375 Z M 1.453125 -9.859375 "/></g></g><g style="fill:#1a1b1f;fill-opacity:1;"><g transform="translate(90.954596, 74.811604)"><path style="stroke:none" d="M 9.984375 -2.390625 C 9.640625 -1.566406 9.160156 -0.929688 8.546875 -0.484375 C 7.941406 -0.0351562 7.023438 0.1875 5.796875 0.1875 C 4.265625 0.1875 3.15625 -0.28125 2.46875 -1.21875 C 1.78125 -2.164062 1.4375 -3.640625 1.4375 -5.640625 L 1.4375 -7.46875 C 1.4375 -9.46875 1.78125 -10.9375 2.46875 -11.875 C 3.15625 -12.820312 4.265625 -13.296875 5.796875 -13.296875 C 7.023438 -13.296875 7.941406 -13.066406 8.546875 -12.609375 C 9.160156 -12.160156 9.640625 -11.523438 9.984375 -10.703125 L 9.46875 -10.46875 C 9.1875 -11.1875 8.78125 -11.742188 8.25 -12.140625 C 7.726562 -12.535156 6.910156 -12.734375 5.796875 -12.734375 C 5.191406 -12.734375 4.671875 -12.65625 4.234375 -12.5 C 3.796875 -12.34375 3.398438 -12.078125 3.046875 -11.703125 C 2.703125 -11.328125 2.441406 -10.785156 2.265625 -10.078125 C 2.085938 -9.367188 2 -8.5 2 -7.46875 L 2 -5.640625 C 2 -4.597656 2.085938 -3.722656 2.265625 -3.015625 C 2.441406 -2.316406 2.703125 -1.78125 3.046875 -1.40625 C 3.398438 -1.03125 3.796875 -0.765625 4.234375 -0.609375 C 4.671875 -0.453125 5.191406 -0.375 5.796875 -0.375 C 6.910156 -0.375 7.726562 -0.566406 8.25 -0.953125 C 8.78125 -1.347656 9.1875 -1.910156 9.46875 -2.640625 Z M 9.984375 -2.390625 "/></g></g><g style="fill:#1a1b1f;fill-opacity:1;"><g transform="translate(101.928881, 74.811604)"><path style="stroke:none" d="M 8.578125 -6.84375 L 3.015625 -6.84375 L 8.734375 -12.546875 L 2.421875 -12.546875 L 2.421875 -0.5625 L 9.671875 -0.5625 L 9.671875 0 L 1.859375 0 L 1.859375 -13.109375 L 10.109375 -13.109375 L 4.375 -7.40625 L 8.578125 -7.40625 Z M 8.578125 -6.84375 "/></g></g><g style="fill:#1a1b1f;fill-opacity:1;"><g transform="translate(112.697509, 74.811604)"><path style="stroke:none" d="M 3.3125 -0.5625 L 9.109375 -0.5625 L 2.421875 -12.15625 L 2.421875 0 L 1.859375 0 L 1.859375 -13.109375 L 2.515625 -13.109375 L 9.515625 -0.984375 L 9.515625 -13.109375 L 10.078125 -13.109375 L 10.078125 0 L 3.3125 0 Z M 3.3125 -0.5625 "/></g></g><g style="fill:#1a1b1f;fill-opacity:1;"><g transform="translate(124.606568, 74.811604)"><path style="stroke:none" d="M 9.640625 -13.109375 L 9.640625 -12.546875 L 5.234375 -12.546875 L 5.234375 0 L 4.671875 0 L 4.671875 -12.546875 L 0.28125 -12.546875 L 0.28125 -13.109375 Z M 9.640625 -13.109375 "/></g></g><g style="fill:#1a1b1f;fill-opacity:1;"><g transform="translate(134.515199, 74.811604)"><path style="stroke:none" d="M 1.453125 -9.859375 C 1.453125 -11.078125 1.757812 -11.953125 2.375 -12.484375 C 2.988281 -13.023438 3.984375 -13.296875 5.359375 -13.296875 C 6.316406 -13.296875 7.085938 -13.046875 7.671875 -12.546875 C 8.253906 -12.046875 8.679688 -11.285156 8.953125 -10.265625 L 7.203125 -8.953125 L 6.296875 -8.953125 L 8.3125 -10.46875 C 8.050781 -11.300781 7.671875 -11.882812 7.171875 -12.21875 C 6.679688 -12.5625 6.078125 -12.734375 5.359375 -12.734375 C 4.859375 -12.734375 4.4375 -12.703125 4.09375 -12.640625 C 3.75 -12.578125 3.40625 -12.453125 3.0625 -12.265625 C 2.71875 -12.085938 2.457031 -11.796875 2.28125 -11.390625 C 2.101562 -10.992188 2.015625 -10.484375 2.015625 -9.859375 C 2.015625 -9.316406 2.265625 -8.832031 2.765625 -8.40625 C 3.273438 -7.976562 3.890625 -7.613281 4.609375 -7.3125 C 5.335938 -7.019531 6.066406 -6.71875 6.796875 -6.40625 C 7.535156 -6.09375 8.15625 -5.691406 8.65625 -5.203125 C 9.164062 -4.710938 9.421875 -4.148438 9.421875 -3.515625 C 9.421875 -2.265625 9.109375 -1.332031 8.484375 -0.71875 C 7.867188 -0.113281 6.8125 0.1875 5.3125 0.1875 C 4.09375 0.1875 3.132812 -0.0546875 2.4375 -0.546875 C 1.738281 -1.046875 1.253906 -1.8125 0.984375 -2.84375 L 1.515625 -3.0625 C 1.765625 -2.050781 2.191406 -1.347656 2.796875 -0.953125 C 3.398438 -0.566406 4.238281 -0.375 5.3125 -0.375 C 6.507812 -0.375 7.398438 -0.601562 7.984375 -1.0625 C 8.566406 -1.53125 8.859375 -2.347656 8.859375 -3.515625 C 8.859375 -4.066406 8.601562 -4.550781 8.09375 -4.96875 C 7.59375 -5.394531 6.972656 -5.757812 6.234375 -6.0625 C 5.503906 -6.363281 4.773438 -6.671875 4.046875 -6.984375 C 3.328125 -7.296875 2.710938 -7.691406 2.203125 -8.171875 C 1.703125 -8.660156 1.453125 -9.222656 1.453125 -9.859375 Z M 1.453125 -9.859375 "/></g></g></g></svg>