<svg xmlns="http://www.w3.org/2000/svg" xmlns:xlink="http://www.w3.org/1999/xlink" width="276" zoomAndPan="magnify" viewBox="0 0 206.87999 207.000001" height="276" preserveAspectRatio="xMidYMid meet" version="1.2"><defs><clipPath id="4a0fd9b34d"><path d="M 0.4375 0 L 206.324219 0 L 206.324219 206.003906 L 0.4375 206.003906 Z M 0.4375 0 "/></clipPath><filter x="0%" y="0%" width="100%" filterUnits="objectBoundingBox" id="8bde26c51b" height="100%"><feColorMatrix values="0 0 0 0 1 0 0 0 0 1 0 0 0 0 1 0 0 0 1 0" type="matrix" in="SourceGraphic"/></filter><clipPath id="9a4fd9b045"><path d="M 0.4375 0 L 206.324219 0 L 206.324219 206.003906 L 0.4375 206.003906 Z M 0.4375 0 "/></clipPath><clipPath id="45530197f9"><path d="M 79 147 L 128 147 L 128 206.003906 L 79 206.003906 Z M 79 147 "/></clipPath><clipPath id="bd4655adac"><path d="M 0.4375 35 L 45 35 L 45 107 L 0.4375 107 Z M 0.4375 35 "/></clipPath><clipPath id="1c3597297b"><path d="M 162 35 L 206.324219 35 L 206.324219 107 L 162 107 Z M 162 35 "/></clipPath><clipPath id="be53808b36"><path d="M 0.4375 67 L 45 67 L 45 139 L 0.4375 139 Z M 0.4375 67 "/></clipPath><clipPath id="e4f0399773"><path d="M 162 67 L 206.324219 67 L 206.324219 139 L 162 139 Z M 162 67 "/></clipPath><clipPath id="6236ae0c05"><path d="M 0.4375 99 L 45 99 L 45 171 L 0.4375 171 Z M 0.4375 99 "/></clipPath><clipPath id="c5a8ea6dc9"><path d="M 162 99 L 206.324219 99 L 206.324219 171 L 162 171 Z M 162 99 "/></clipPath><clipPath id="cd30097fa8"><path d="M 56 163 L 123 163 L 123 206.003906 L 56 206.003906 Z M 56 163 "/></clipPath><clipPath id="e0247f80c5"><path d="M 84 163 L 151 163 L 151 206.003906 L 84 206.003906 Z M 84 163 "/></clipPath><clipPath id="ea4a970f6c"><rect x="0" width="207" y="0" height="207"/></clipPath></defs><g id="3fde5ac0bc"><g clip-rule="nonzero" clip-path="url(#4a0fd9b34d)"><g mask="url(#82266b5b99)" transform="matrix(1,0,0,1,0,0.00000000000000119)"><g clip-path="url(#ea4a970f6c)"><g clip-rule="nonzero" clip-path="url(#9a4fd9b045)"><path style="fill:none;stroke-width:6;stroke-linecap:butt;stroke-linejoin:miter;stroke:#000000;stroke-opacity:1;stroke-miterlimit:10;" d="M 950.0064 500.006563 C 950.0064 507.359395 949.817426 514.729406 949.456656 522.082238 C 949.095886 529.43507 948.563321 536.770723 947.824602 544.106375 C 947.103062 551.442028 946.209728 558.743321 945.127418 566.027435 C 944.045109 573.311549 942.791004 580.561304 941.347925 587.79388 C 939.922025 595.009276 938.307151 602.190312 936.520482 609.33699 C 934.716633 616.483668 932.758168 623.578808 930.627908 630.622408 C 928.480469 637.683189 926.178414 644.658071 923.687385 651.598595 C 921.213535 658.539119 918.567889 665.410924 915.750449 672.214012 C 912.933009 679.0171 909.943773 685.73429 906.799922 692.399941 C 903.638892 699.065593 900.340425 705.628167 896.870163 712.122023 C 893.399901 718.61588 889.757844 725.023838 885.978351 731.3459 C 882.198858 737.667961 878.24757 743.886945 874.158845 750.002852 C 870.070121 756.135938 865.826781 762.148768 861.446005 768.058521 C 857.048049 773.985454 852.529837 779.792129 847.857009 785.478549 C 843.184181 791.164968 838.373918 796.74831 833.426217 802.194216 C 828.478517 807.657301 823.410561 812.982951 818.205168 818.205523 C 812.982596 823.410916 807.656946 828.478872 802.193861 833.426572 C 796.747955 838.374272 791.164613 843.184536 785.478194 847.857364 C 779.791774 852.530192 773.985099 857.048404 768.058166 861.44636 C 762.148413 865.827136 756.135583 870.070476 750.002497 874.1592 C 743.88659 878.247925 737.667606 882.199213 731.345545 885.978706 C 725.023483 889.758199 718.615525 893.400256 712.121668 896.870518 C 705.627812 900.34078 699.065238 903.639247 692.399586 906.800277 C 685.733935 909.944128 679.016745 912.933364 672.213657 915.750804 C 665.410569 918.568244 658.538764 921.213889 651.59824 923.68774 C 644.657716 926.178769 637.682834 928.480824 630.622053 930.628263 C 623.578453 932.758523 616.483313 934.716988 609.336635 936.520837 C 602.189958 938.307506 595.008921 939.92238 587.793525 941.34828 C 580.560949 942.791359 573.311194 944.045464 566.02708 945.127773 C 558.742966 946.210083 551.441673 947.103417 544.10602 947.824957 C 536.770368 948.546496 529.434715 949.096241 522.081883 949.457011 C 514.729051 949.81778 507.35904 950.006755 500.006208 950.006755 C 492.636196 950.006755 485.283364 949.81778 477.913352 949.457011 C 470.56052 949.096241 463.224868 948.546496 455.889215 947.824957 C 448.570742 947.103417 441.252269 946.210083 433.968155 945.127773 C 426.684041 944.045464 419.434286 942.791359 412.201711 941.34828 C 404.986315 939.92238 397.805278 938.307506 390.6586 936.520837 C 383.511922 934.716988 376.416783 932.758523 369.373182 930.628263 C 362.329582 928.480824 355.337519 926.178769 348.396996 923.68774 C 341.473651 921.213889 334.601846 918.568244 327.798758 915.750804 C 320.995671 912.933364 314.261301 909.944128 307.59565 906.800277 C 300.947178 903.639247 294.367424 900.34078 287.873567 896.870518 C 281.379711 893.400256 274.971752 889.758199 268.649691 885.978706 C 262.344809 882.199213 256.108646 878.247925 249.992739 874.1592 C 243.876832 870.070476 237.846822 865.827136 231.937069 861.44636 C 226.027317 857.048404 220.220641 852.530192 214.517042 847.857364 C 208.830623 843.184536 203.247281 838.374272 197.801375 833.426572 C 192.338289 828.478872 187.01264 823.410916 181.807247 818.205523 C 176.601855 812.982951 171.516718 807.657301 166.569018 802.194216 C 161.621318 796.74831 156.811054 791.164968 152.138226 785.478549 C 147.465399 779.792129 142.947186 773.985454 138.549231 768.058521 C 134.168455 762.148768 129.925115 756.135938 125.83639 750.002852 C 121.747666 743.886945 117.813557 737.667961 114.016885 731.3459 C 110.237392 725.023838 106.612514 718.61588 103.142252 712.122023 C 99.67199 705.628167 96.356344 699.065593 93.212493 692.399941 C 90.051462 685.73429 87.079407 679.0171 84.261966 672.214012 C 81.427346 665.410924 78.781701 658.539119 76.307851 651.598595 C 73.816822 644.658071 71.514767 637.683189 69.384507 630.622408 C 67.237068 623.578808 65.278603 616.483668 63.491934 609.33699 C 61.688085 602.190312 60.09039 595.009276 58.647311 587.79388 C 57.204231 580.561304 55.950127 573.311549 54.867818 566.027435 C 53.785508 558.743321 52.892173 551.442028 52.170634 544.106375 C 51.449094 536.770723 50.89935 529.43507 50.53858 522.082238 C 50.17781 514.729406 50.006015 507.359395 50.006015 500.006563 C 50.006015 492.636551 50.17781 485.283719 50.53858 477.913707 C 50.89935 470.560875 51.449094 463.225223 52.170634 455.88957 C 52.892173 448.571097 53.785508 441.252624 54.867818 433.96851 C 55.950127 426.684396 57.204231 419.434641 58.647311 412.202066 C 60.09039 404.98667 61.688085 397.805633 63.491934 390.658955 C 65.278603 383.512277 67.237068 376.417138 69.384507 369.373537 C 71.514767 362.329937 73.816822 355.337874 76.307851 348.397351 C 78.781701 341.474006 81.427346 334.602201 84.261966 327.799113 C 87.079407 320.996026 90.051462 314.261656 93.212493 307.596005 C 96.356344 300.947533 99.67199 294.367779 103.142252 287.873922 C 106.612514 281.380066 110.237392 274.972107 114.016885 268.650046 C 117.813557 262.345164 121.747666 256.109001 125.83639 249.993094 C 129.925115 243.877187 134.168455 237.847177 138.549231 231.937424 C 142.947186 226.027672 147.465399 220.220996 152.138226 214.517397 C 156.811054 208.830978 161.621318 203.247636 166.569018 197.80173 C 171.516718 192.338644 176.601855 187.012995 181.807247 181.807602 C 187.01264 176.602209 192.338289 171.517073 197.801375 166.569373 C 203.247281 161.621673 208.830623 156.811409 214.517042 152.138581 C 220.220641 147.465754 226.027317 142.947541 231.937069 138.549586 C 237.846822 134.16881 243.876832 129.92547 249.992739 125.836745 C 256.108646 121.748021 262.344809 117.813912 268.649691 114.01724 C 274.971752 110.237746 281.379711 106.612869 287.873567 103.142607 C 294.367424 99.672345 300.947178 96.356699 307.59565 93.212848 C 314.261301 90.051817 320.995671 87.079761 327.798758 84.262321 C 334.601846 81.427701 341.473651 78.782056 348.396996 76.308206 C 355.337519 73.817177 362.329582 71.515122 369.373182 69.384862 C 376.416783 67.237423 383.511922 65.278958 390.6586 63.492289 C 397.805278 61.68844 404.986315 60.090745 412.201711 58.647666 C 419.434286 57.204586 426.684041 55.950482 433.968155 54.868173 C 441.252269 53.785863 448.570742 52.892528 455.889215 52.170989 C 463.224868 51.449449 470.56052 50.899705 477.913352 50.538935 C 485.283364 50.178165 492.636196 50.00637 500.006208 50.00637 C 507.35904 50.00637 514.729051 50.178165 522.081883 50.538935 C 529.434715 50.899705 536.770368 51.449449 544.10602 52.170989 C 551.441673 52.892528 558.742966 53.785863 566.02708 54.868173 C 573.311194 55.950482 580.560949 57.204586 587.793525 58.647666 C 595.008921 60.090745 602.189958 61.68844 609.336635 63.492289 C 616.483313 65.278958 623.578453 67.237423 630.622053 69.384862 C 637.682834 71.515122 644.674896 73.817177 651.59824 76.308206 C 658.538764 78.782056 665.410569 81.427701 672.213657 84.262321 C 679.016745 87.079761 685.733935 90.051817 692.399586 93.212848 C 699.065238 96.356699 705.627812 99.672345 712.121668 103.142607 C 718.615525 106.612869 725.023483 110.237746 731.345545 114.01724 C 737.667606 117.813912 743.88659 121.748021 750.002497 125.836745 C 756.135583 129.92547 762.148413 134.16881 768.058166 138.549586 C 773.985099 142.947541 779.791774 147.465754 785.478194 152.138581 C 791.164613 156.811409 796.747955 161.621673 802.193861 166.569373 C 807.656946 171.517073 812.982596 176.602209 818.205168 181.807602 C 823.410561 187.012995 828.478517 192.338644 833.426217 197.80173 C 838.373918 203.247636 843.184181 208.830978 847.857009 214.517397 C 852.529837 220.220996 857.048049 226.027672 861.446005 231.937424 C 865.826781 237.847177 870.070121 243.877187 874.158845 249.993094 C 878.24757 256.109001 882.198858 262.345164 885.978351 268.650046 C 889.757844 274.972107 893.399901 281.380066 896.870163 287.873922 C 900.340425 294.367779 903.638892 300.947533 906.799922 307.596005 C 909.943773 314.261656 912.933009 320.996026 915.750449 327.799113 C 918.567889 334.602201 921.213535 341.474006 923.687385 348.397351 C 926.178414 355.337874 928.480469 362.329937 930.627908 369.373537 C 932.758168 376.417138 934.716633 383.512277 936.520482 390.658955 C 938.307151 397.805633 939.922025 404.98667 941.347925 412.202066 C 942.791004 419.434641 944.045109 426.684396 945.127418 433.96851 C 946.209728 441.252624 947.103062 448.571097 947.824602 455.88957 C 948.563321 463.225223 949.095886 470.560875 949.456656 477.913707 C 949.817426 485.283719 950.0064 492.636551 950.0064 500.006563 Z M 950.0064 500.006563 " transform="matrix(0.227378,0,0,0.227378,-10.249193,-10.686773)"/><path style="fill:none;stroke-width:6;stroke-linecap:butt;stroke-linejoin:miter;stroke:#000000;stroke-opacity:1;stroke-miterlimit:10;" d="M 923.49841 500.006563 C 923.49841 506.929907 923.326615 513.853251 922.983024 520.776595 C 922.656614 527.699939 922.141228 534.606104 921.454048 541.512269 C 920.784047 548.401254 919.925071 555.290239 918.91148 562.144865 C 917.897888 568.999491 916.712502 575.819758 915.35532 582.622846 C 914.015318 589.425934 912.486341 596.177483 910.802749 602.894673 C 909.119157 609.629042 907.280949 616.294694 905.270945 622.943166 C 903.243763 629.574458 901.079144 636.154212 898.74273 642.665248 C 896.406316 649.193463 893.915287 655.67014 891.269641 662.060919 C 888.606817 668.468878 885.806556 674.808119 882.8345 681.061462 C 879.879624 687.331984 876.752952 693.516609 873.488844 699.632517 C 870.224737 705.748424 866.806013 711.778433 863.249854 717.722545 C 859.676515 723.666657 855.982919 729.524871 852.134708 735.280008 C 848.269318 741.052325 844.28367 746.704385 840.160587 752.270548 C 836.037504 757.85389 831.759805 763.299796 827.361849 768.659804 C 822.981073 774.019813 818.445681 779.276744 813.790033 784.413419 C 809.134384 789.532914 804.35848 794.566511 799.462318 799.462673 C 794.566157 804.358835 789.532559 809.134739 784.413064 813.790388 C 779.276389 818.446036 774.019458 822.981428 768.659449 827.362204 C 763.299441 831.76016 757.853535 836.037859 752.270193 840.160942 C 746.70403 844.284025 741.05197 848.269673 735.279653 852.135063 C 729.524516 855.983274 723.666302 859.67687 717.72219 863.250209 C 711.778078 866.806368 705.748069 870.225092 699.632162 873.489199 C 693.516255 876.753307 687.331629 879.879979 681.061107 882.834855 C 674.807764 885.806911 668.468523 888.607172 662.060564 891.269996 C 655.669785 893.915642 649.193108 896.406671 642.664893 898.743085 C 636.153857 901.079499 629.574103 903.244118 622.942811 905.2713 C 616.311518 907.281304 609.628687 909.119512 602.894318 910.803104 C 596.177128 912.486696 589.425579 914.015673 582.622491 915.355675 C 575.819403 916.712857 568.999136 917.898243 562.14451 918.911835 C 555.289884 919.925426 548.400899 920.784402 541.511914 921.454403 C 534.605749 922.141583 527.699584 922.656969 520.77624 922.983379 C 513.852896 923.32697 506.929552 923.498765 500.006208 923.498765 C 493.065684 923.498765 486.14234 923.32697 479.218996 922.983379 C 472.295651 922.656969 465.389487 922.141583 458.483322 921.454403 C 451.594337 920.784402 444.722531 919.925426 437.867905 918.911835 C 430.996099 917.898243 424.175832 916.712857 417.372745 915.355675 C 410.586837 914.015673 403.818108 912.486696 397.100918 910.803104 C 390.366549 909.119512 383.700897 907.281304 377.069605 905.2713 C 370.438312 903.244118 363.858558 901.079499 357.330343 898.743085 C 350.802128 896.406671 344.34263 893.915642 337.934672 891.269996 C 331.526713 888.607172 325.187472 885.806911 318.934129 882.834855 C 312.663606 879.879979 306.478981 876.753307 300.363074 873.489199 C 294.247167 870.225092 288.217158 866.806368 282.273046 863.250209 C 276.328934 859.67687 270.47072 855.983274 264.715582 852.135063 C 258.960445 848.269673 253.291206 844.284025 247.725043 840.160942 C 242.15888 836.037859 236.695795 831.76016 231.335786 827.362204 C 225.975778 822.981428 220.736026 818.446036 215.599352 813.790388 C 210.462677 809.134739 205.446259 804.358835 200.532918 799.462673 C 195.636756 794.566511 190.860851 789.532914 186.205203 784.413419 C 181.549555 779.276744 177.031342 774.019813 172.633387 768.659804 C 168.235431 763.299796 163.974912 757.85389 159.834649 752.270548 C 155.711565 746.704385 151.725918 741.052325 147.877707 735.280008 C 144.029496 729.524871 140.318721 723.666657 136.745382 717.722545 C 133.189222 711.778433 129.770499 705.748424 126.506391 699.632517 C 123.242284 693.516609 120.115612 687.331984 117.160736 681.061462 C 114.18868 674.808119 111.388419 668.468878 108.742774 662.060919 C 106.079949 655.67014 103.58892 649.193463 101.252506 642.665248 C 98.916092 636.154212 96.751473 629.574458 94.74147 622.943166 C 92.731467 616.294694 90.876079 609.629042 89.192487 602.894673 C 87.508894 596.177483 85.997097 589.425934 84.639916 582.622846 C 83.282734 575.819758 82.097347 568.999491 81.083756 562.144865 C 80.070165 555.290239 79.211189 548.401254 78.541188 541.512269 C 77.854007 534.606104 77.355802 527.699939 77.012211 520.776595 C 76.668621 513.853251 76.496826 506.929907 76.496826 500.006563 C 76.496826 493.066039 76.668621 486.142695 77.012211 479.21935 C 77.355802 472.296006 77.854007 465.389842 78.541188 458.483677 C 79.211189 451.594692 80.070165 444.722886 81.083756 437.851081 C 82.097347 430.996454 83.282734 424.176187 84.639916 417.3731 C 85.997097 410.587192 87.508894 403.818463 89.192487 397.101273 C 90.876079 390.366904 92.731467 383.701252 94.74147 377.06996 C 96.751473 370.438667 98.916092 363.858913 101.252506 357.330698 C 103.58892 350.802483 106.079949 344.342985 108.742774 337.935026 C 111.388419 331.527068 114.18868 325.187827 117.160736 318.934484 C 120.115612 312.663961 123.242284 306.479336 126.506391 300.363429 C 129.770499 294.247522 133.189222 288.217513 136.745382 282.273401 C 140.318721 276.329289 144.029496 270.471075 147.877707 264.715937 C 151.725918 258.9608 155.711565 253.29156 159.834649 247.725398 C 163.974912 242.159235 168.235431 236.69615 172.633387 231.336141 C 177.031342 225.976133 181.549555 220.736381 186.205203 215.599707 C 190.860851 210.463032 195.636756 205.446614 200.532918 200.533273 C 205.446259 195.637111 210.462677 190.861206 215.599352 186.205558 C 220.736026 181.54991 225.975778 177.031697 231.335786 172.633742 C 236.695795 168.235786 242.15888 163.975267 247.725043 159.835004 C 253.291206 155.71192 258.960445 151.726273 264.715582 147.878062 C 270.47072 144.029851 276.328934 140.319076 282.273046 136.745737 C 288.217158 133.189577 294.247167 129.770854 300.363074 126.506746 C 306.478981 123.242639 312.663606 120.115967 318.934129 117.161091 C 325.187472 114.189035 331.526713 111.388774 337.934672 108.743129 C 344.34263 106.080304 350.802128 103.589275 357.330343 101.252861 C 363.858558 98.916447 370.438312 96.751828 377.069605 94.741825 C 383.700897 92.731822 390.366549 90.876434 397.100918 89.192842 C 403.818108 87.509249 410.586837 85.997452 417.372745 84.64027 C 424.175832 83.283089 430.996099 82.097702 437.867905 81.084111 C 444.722531 80.07052 451.594337 79.211544 458.483322 78.541543 C 465.389487 77.854362 472.295651 77.356156 479.218996 77.012566 C 486.14234 76.668976 493.065684 76.497181 500.006208 76.497181 C 506.929552 76.497181 513.852896 76.668976 520.77624 77.012566 C 527.699584 77.356156 534.605749 77.854362 541.511914 78.541543 C 548.400899 79.211544 555.289884 80.07052 562.14451 81.084111 C 568.999136 82.097702 575.819403 83.283089 582.622491 84.64027 C 589.425579 85.997452 596.177128 87.509249 602.894318 89.192842 C 609.628687 90.876434 616.311518 92.731822 622.942811 94.741825 C 629.574103 96.751828 636.153857 98.916447 642.664893 101.252861 C 649.193108 103.589275 655.669785 106.080304 662.060564 108.743129 C 668.468523 111.388774 674.807764 114.189035 681.061107 117.161091 C 687.331629 120.115967 693.516255 123.242639 699.632162 126.506746 C 705.748069 129.770854 711.778078 133.189577 717.72219 136.745737 C 723.666302 140.319076 729.524516 144.029851 735.279653 147.878062 C 741.05197 151.726273 746.70403 155.71192 752.270193 159.835004 C 757.853535 163.975267 763.299441 168.235786 768.659449 172.633742 C 774.019458 177.031697 779.276389 181.54991 784.413064 186.205558 C 789.532559 190.861206 794.566157 195.637111 799.462318 200.533273 C 804.35848 205.446614 809.134384 210.463032 813.790033 215.599707 C 818.445681 220.736381 822.981073 225.976133 827.361849 231.336141 C 831.759805 236.69615 836.037504 242.159235 840.160587 247.725398 C 844.28367 253.29156 848.269318 258.9608 852.134708 264.715937 C 855.982919 270.471075 859.676515 276.329289 863.249854 282.273401 C 866.806013 288.217513 870.224737 294.247522 873.488844 300.363429 C 876.752952 306.479336 879.879624 312.663961 882.8345 318.934484 C 885.806556 325.187827 888.606817 331.527068 891.269641 337.935026 C 893.915287 344.342985 896.406316 350.802483 898.74273 357.330698 C 901.079144 363.858913 903.243763 370.438667 905.270945 377.06996 C 907.280949 383.701252 909.119157 390.366904 910.802749 397.101273 C 912.486341 403.818463 914.015318 410.587192 915.35532 417.3731 C 916.712502 424.176187 917.897888 430.996454 918.91148 437.851081 C 919.925071 444.722886 920.784047 451.594692 921.454048 458.483677 C 922.141228 465.389842 922.656614 472.296006 922.983024 479.21935 C 923.326615 486.142695 923.49841 493.066039 923.49841 500.006563 Z M 923.49841 500.006563 " transform="matrix(0.227378,0,0,0.227378,-10.249193,-10.686773)"/></g><path style="fill:none;stroke-width:6;stroke-linecap:butt;stroke-linejoin:miter;stroke:#000000;stroke-opacity:1;stroke-miterlimit:10;" d="M 257.173776 359.959164 C 231.232709 315.034734 233.002199 261.709522 257.173776 219.774328 C 281.345352 261.709522 283.114842 315.034734 257.173776 359.959164 Z M 257.173776 359.959164 " transform="matrix(0.227378,0,0,0.227378,-10.249193,-10.686773)"/><path style="fill:none;stroke-width:6;stroke-linecap:butt;stroke-linejoin:miter;stroke:#000000;stroke-opacity:1;stroke-miterlimit:10;" d="M 257.173776 500.418871 C 231.232709 455.494442 233.002199 402.16923 257.173776 360.234036 C 281.345352 402.16923 283.114842 455.494442 257.173776 500.418871 Z M 257.173776 500.418871 " transform="matrix(0.227378,0,0,0.227378,-10.249193,-10.686773)"/><path style="fill:none;stroke-width:6;stroke-linecap:butt;stroke-linejoin:miter;stroke:#000000;stroke-opacity:1;stroke-miterlimit:10;" d="M 257.173776 640.895758 C 231.232709 595.954149 233.002199 542.646117 257.173776 500.710923 C 281.345352 542.646117 283.114842 595.954149 257.173776 640.895758 Z M 257.173776 640.895758 " transform="matrix(0.227378,0,0,0.227378,-10.249193,-10.686773)"/><path style="fill:none;stroke-width:6;stroke-linecap:butt;stroke-linejoin:miter;stroke:#000000;stroke-opacity:1;stroke-miterlimit:10;" d="M 257.173776 781.355465 C 231.232709 736.413856 233.002199 683.105824 257.173776 641.17063 C 281.345352 683.105824 283.114842 736.413856 257.173776 781.355465 Z M 257.173776 781.355465 " transform="matrix(0.227378,0,0,0.227378,-10.249193,-10.686773)"/><path style="fill:none;stroke-width:6;stroke-linecap:butt;stroke-linejoin:miter;stroke:#000000;stroke-opacity:1;stroke-miterlimit:10;" d="M 500.006208 219.482277 C 474.065141 174.557847 475.834631 121.232636 500.006208 79.314621 C 524.177784 121.232636 525.947274 174.557847 500.006208 219.482277 Z M 500.006208 219.482277 " transform="matrix(0.227378,0,0,0.227378,-10.249193,-10.686773)"/><path style="fill:none;stroke-width:6;stroke-linecap:butt;stroke-linejoin:miter;stroke:#000000;stroke-opacity:1;stroke-miterlimit:10;" d="M 500.006208 359.959164 C 474.065141 315.034734 475.834631 261.709522 500.006208 219.774328 C 524.177784 261.709522 525.947274 315.034734 500.006208 359.959164 Z M 500.006208 359.959164 " transform="matrix(0.227378,0,0,0.227378,-10.249193,-10.686773)"/><path style="fill:none;stroke-width:6;stroke-linecap:butt;stroke-linejoin:miter;stroke:#000000;stroke-opacity:1;stroke-miterlimit:10;" d="M 500.006208 500.418871 C 474.065141 455.494442 475.834631 402.16923 500.006208 360.234036 C 524.177784 402.16923 525.947274 455.494442 500.006208 500.418871 Z M 500.006208 500.418871 " transform="matrix(0.227378,0,0,0.227378,-10.249193,-10.686773)"/><path style="fill:none;stroke-width:6;stroke-linecap:butt;stroke-linejoin:miter;stroke:#000000;stroke-opacity:1;stroke-miterlimit:10;" d="M 500.006208 640.895758 C 474.065141 595.954149 475.834631 542.646117 500.006208 500.710923 C 524.177784 542.646117 525.947274 595.954149 500.006208 640.895758 Z M 500.006208 640.895758 " transform="matrix(0.227378,0,0,0.227378,-10.249193,-10.686773)"/><path style="fill:none;stroke-width:6;stroke-linecap:butt;stroke-linejoin:miter;stroke:#000000;stroke-opacity:1;stroke-miterlimit:10;" d="M 500.006208 781.355465 C 474.065141 736.413856 475.834631 683.105824 500.006208 641.17063 C 524.177784 683.105824 525.947274 736.413856 500.006208 781.355465 Z M 500.006208 781.355465 " transform="matrix(0.227378,0,0,0.227378,-10.249193,-10.686773)"/><g clip-rule="nonzero" clip-path="url(#45530197f9)"><path style="fill:none;stroke-width:6;stroke-linecap:butt;stroke-linejoin:miter;stroke:#000000;stroke-opacity:1;stroke-miterlimit:10;" d="M 498.786462 919.684913 C 474.11668 875.207151 476.212581 822.91271 500.006208 781.647517 C 523.782655 822.91271 525.878556 875.207151 501.208774 919.684913 C 500.693388 920.612606 499.301848 920.612606 498.786462 919.684913 Z M 498.786462 919.684913 " transform="matrix(0.227378,0,0,0.227378,-10.249193,-10.686773)"/></g><path style="fill:none;stroke-width:6;stroke-linecap:butt;stroke-linejoin:miter;stroke:#000000;stroke-opacity:1;stroke-miterlimit:10;" d="M 742.82146 359.959164 C 716.880394 315.034734 718.649884 261.709522 742.82146 219.774328 C 766.993036 261.709522 768.762526 315.034734 742.82146 359.959164 Z M 742.82146 359.959164 " transform="matrix(0.227378,0,0,0.227378,-10.249193,-10.686773)"/><path style="fill:none;stroke-width:6;stroke-linecap:butt;stroke-linejoin:miter;stroke:#000000;stroke-opacity:1;stroke-miterlimit:10;" d="M 742.82146 500.418871 C 716.880394 455.494442 718.649884 402.16923 742.82146 360.234036 C 766.993036 402.16923 768.762526 455.494442 742.82146 500.418871 Z M 742.82146 500.418871 " transform="matrix(0.227378,0,0,0.227378,-10.249193,-10.686773)"/><path style="fill:none;stroke-width:6;stroke-linecap:butt;stroke-linejoin:miter;stroke:#000000;stroke-opacity:1;stroke-miterlimit:10;" d="M 742.82146 640.895758 C 716.880394 595.954149 718.649884 542.646117 742.82146 500.710923 C 766.993036 542.646117 768.762526 595.954149 742.82146 640.895758 Z M 742.82146 640.895758 " transform="matrix(0.227378,0,0,0.227378,-10.249193,-10.686773)"/><path style="fill:none;stroke-width:6;stroke-linecap:butt;stroke-linejoin:miter;stroke:#000000;stroke-opacity:1;stroke-miterlimit:10;" d="M 742.82146 781.355465 C 716.880394 736.413856 718.649884 683.105824 742.82146 641.17063 C 766.993036 683.105824 768.762526 736.413856 742.82146 781.355465 Z M 742.82146 781.355465 " transform="matrix(0.227378,0,0,0.227378,-10.249193,-10.686773)"/><path style="fill:none;stroke-width:6;stroke-linecap:butt;stroke-linejoin:miter;stroke:#000000;stroke-opacity:1;stroke-miterlimit:10;" d="M 500.006208 219.636892 C 451.594337 219.602533 404.522468 194.486084 378.598581 149.544475 C 430.463535 149.544475 475.765913 177.736057 500.006208 219.636892 Z M 500.006208 219.636892 " transform="matrix(0.227378,0,0,0.227378,-10.249193,-10.686773)"/><path style="fill:none;stroke-width:6;stroke-linecap:butt;stroke-linejoin:miter;stroke:#000000;stroke-opacity:1;stroke-miterlimit:10;" d="M 500.006208 79.452057 C 475.765913 121.352892 430.463535 149.544475 378.598581 149.544475 C 404.522468 104.602866 451.594337 79.486416 500.006208 79.452057 Z M 500.006208 79.452057 " transform="matrix(0.227378,0,0,0.227378,-10.249193,-10.686773)"/><path style="fill:none;stroke-width:6;stroke-linecap:butt;stroke-linejoin:miter;stroke:#000000;stroke-opacity:1;stroke-miterlimit:10;" d="M 378.598581 149.544475 C 352.657515 194.468904 305.585646 219.602533 257.173776 219.636892 C 281.396891 177.736057 326.716449 149.544475 378.598581 149.544475 Z M 378.598581 149.544475 " transform="matrix(0.227378,0,0,0.227378,-10.249193,-10.686773)"/><path style="fill:none;stroke-width:6;stroke-linecap:butt;stroke-linejoin:miter;stroke:#000000;stroke-opacity:1;stroke-miterlimit:10;" d="M 378.598581 289.71213 C 354.427005 247.794116 352.657515 194.468904 378.598581 149.544475 C 404.522468 194.468904 402.752978 247.794116 378.598581 289.71213 Z M 378.598581 289.71213 " transform="matrix(0.227378,0,0,0.227378,-10.249193,-10.686773)"/><path style="fill:none;stroke-width:6;stroke-linecap:butt;stroke-linejoin:miter;stroke:#000000;stroke-opacity:1;stroke-miterlimit:10;" d="M 621.413834 149.544475 C 647.3549 194.468904 645.58541 247.794116 621.413834 289.71213 C 597.242257 247.794116 595.472768 194.468904 621.413834 149.544475 Z M 621.413834 149.544475 " transform="matrix(0.227378,0,0,0.227378,-10.249193,-10.686773)"/><path style="fill:none;stroke-width:6;stroke-linecap:butt;stroke-linejoin:miter;stroke:#000000;stroke-opacity:1;stroke-miterlimit:10;" d="M 742.82146 219.636892 C 694.426769 219.602533 647.3549 194.486084 621.413834 149.544475 C 673.295966 149.544475 718.598345 177.736057 742.82146 219.636892 Z M 742.82146 219.636892 " transform="matrix(0.227378,0,0,0.227378,-10.249193,-10.686773)"/><path style="fill:none;stroke-width:6;stroke-linecap:butt;stroke-linejoin:miter;stroke:#000000;stroke-opacity:1;stroke-miterlimit:10;" d="M 621.413834 149.544475 C 569.531701 149.544475 524.229323 121.352892 500.006208 79.434878 C 548.400899 79.486416 595.472768 104.602866 621.413834 149.544475 Z M 621.413834 149.544475 " transform="matrix(0.227378,0,0,0.227378,-10.249193,-10.686773)"/><path style="fill:none;stroke-width:6;stroke-linecap:butt;stroke-linejoin:miter;stroke:#000000;stroke-opacity:1;stroke-miterlimit:10;" d="M 621.413834 149.544475 C 595.472768 194.468904 548.400899 219.602533 500.006208 219.636892 C 524.229323 177.736057 569.531701 149.544475 621.413834 149.544475 Z M 621.413834 149.544475 " transform="matrix(0.227378,0,0,0.227378,-10.249193,-10.686773)"/><path style="fill:none;stroke-width:6;stroke-linecap:butt;stroke-linejoin:miter;stroke:#000000;stroke-opacity:1;stroke-miterlimit:10;" d="M 257.173776 359.821727 C 208.779084 359.787368 161.707216 334.653739 135.76615 289.71213 C 187.648282 289.72931 232.950661 317.920893 257.173776 359.821727 Z M 257.173776 359.821727 " transform="matrix(0.227378,0,0,0.227378,-10.249193,-10.686773)"/><path style="fill:none;stroke-width:6;stroke-linecap:butt;stroke-linejoin:miter;stroke:#000000;stroke-opacity:1;stroke-miterlimit:10;" d="M 257.173776 219.636892 C 232.950661 261.537727 187.648282 289.72931 135.76615 289.72931 C 161.707216 244.787701 208.761905 219.671251 257.173776 219.636892 Z M 257.173776 219.636892 " transform="matrix(0.227378,0,0,0.227378,-10.249193,-10.686773)"/><g clip-rule="nonzero" clip-path="url(#bd4655adac)"><path style="fill:none;stroke-width:6;stroke-linecap:butt;stroke-linejoin:miter;stroke:#000000;stroke-opacity:1;stroke-miterlimit:10;" d="M 135.76615 429.896965 C 111.594573 387.961772 109.825083 334.653739 135.76615 289.71213 C 161.707216 334.653739 159.937726 387.961772 135.76615 429.896965 Z M 135.76615 429.896965 " transform="matrix(0.227378,0,0,0.227378,-10.249193,-10.686773)"/></g><path style="fill:none;stroke-width:6;stroke-linecap:butt;stroke-linejoin:miter;stroke:#000000;stroke-opacity:1;stroke-miterlimit:10;" d="M 378.598581 289.72931 C 430.463535 289.72931 475.765913 317.920893 500.006208 359.821727 C 451.594337 359.787368 404.522468 334.653739 378.598581 289.72931 Z M 378.598581 289.72931 " transform="matrix(0.227378,0,0,0.227378,-10.249193,-10.686773)"/><path style="fill:none;stroke-width:6;stroke-linecap:butt;stroke-linejoin:miter;stroke:#000000;stroke-opacity:1;stroke-miterlimit:10;" d="M 378.598581 289.72931 C 404.522468 244.80488 451.594337 219.671251 500.006208 219.636892 C 475.765913 261.537727 430.463535 289.72931 378.598581 289.72931 Z M 378.598581 289.72931 " transform="matrix(0.227378,0,0,0.227378,-10.249193,-10.686773)"/><path style="fill:none;stroke-width:6;stroke-linecap:butt;stroke-linejoin:miter;stroke:#000000;stroke-opacity:1;stroke-miterlimit:10;" d="M 378.598581 289.72931 C 326.716449 289.72931 281.41407 261.537727 257.173776 219.636892 C 305.585646 219.671251 352.657515 244.787701 378.598581 289.72931 Z M 378.598581 289.72931 " transform="matrix(0.227378,0,0,0.227378,-10.249193,-10.686773)"/><path style="fill:none;stroke-width:6;stroke-linecap:butt;stroke-linejoin:miter;stroke:#000000;stroke-opacity:1;stroke-miterlimit:10;" d="M 378.598581 289.72931 C 352.657515 334.653739 305.585646 359.787368 257.173776 359.821727 C 281.396891 317.920893 326.716449 289.72931 378.598581 289.72931 Z M 378.598581 289.72931 " transform="matrix(0.227378,0,0,0.227378,-10.249193,-10.686773)"/><path style="fill:none;stroke-width:6;stroke-linecap:butt;stroke-linejoin:miter;stroke:#000000;stroke-opacity:1;stroke-miterlimit:10;" d="M 378.598581 429.896965 C 354.427005 387.961772 352.657515 334.653739 378.598581 289.71213 C 404.522468 334.653739 402.752978 387.961772 378.598581 429.896965 Z M 378.598581 429.896965 " transform="matrix(0.227378,0,0,0.227378,-10.249193,-10.686773)"/><path style="fill:none;stroke-width:6;stroke-linecap:butt;stroke-linejoin:miter;stroke:#000000;stroke-opacity:1;stroke-miterlimit:10;" d="M 742.82146 359.821727 C 694.426769 359.787368 647.3549 334.653739 621.413834 289.71213 C 673.295966 289.72931 718.598345 317.920893 742.82146 359.821727 Z M 742.82146 359.821727 " transform="matrix(0.227378,0,0,0.227378,-10.249193,-10.686773)"/><path style="fill:none;stroke-width:6;stroke-linecap:butt;stroke-linejoin:miter;stroke:#000000;stroke-opacity:1;stroke-miterlimit:10;" d="M 742.82146 219.636892 C 718.598345 261.537727 673.295966 289.72931 621.413834 289.72931 C 647.3549 244.787701 694.426769 219.671251 742.82146 219.636892 Z M 742.82146 219.636892 " transform="matrix(0.227378,0,0,0.227378,-10.249193,-10.686773)"/><path style="fill:none;stroke-width:6;stroke-linecap:butt;stroke-linejoin:miter;stroke:#000000;stroke-opacity:1;stroke-miterlimit:10;" d="M 621.413834 289.72931 C 569.531701 289.72931 524.229323 261.537727 500.006208 219.636892 C 548.400899 219.671251 595.472768 244.787701 621.413834 289.72931 Z M 621.413834 289.72931 " transform="matrix(0.227378,0,0,0.227378,-10.249193,-10.686773)"/><path style="fill:none;stroke-width:6;stroke-linecap:butt;stroke-linejoin:miter;stroke:#000000;stroke-opacity:1;stroke-miterlimit:10;" d="M 621.413834 289.72931 C 595.472768 334.653739 548.400899 359.787368 500.006208 359.821727 C 524.229323 317.920893 569.531701 289.72931 621.413834 289.72931 Z M 621.413834 289.72931 " transform="matrix(0.227378,0,0,0.227378,-10.249193,-10.686773)"/><path style="fill:none;stroke-width:6;stroke-linecap:butt;stroke-linejoin:miter;stroke:#000000;stroke-opacity:1;stroke-miterlimit:10;" d="M 621.413834 429.896965 C 597.242257 387.961772 595.472768 334.653739 621.413834 289.71213 C 647.3549 334.653739 645.58541 387.961772 621.413834 429.896965 Z M 621.413834 429.896965 " transform="matrix(0.227378,0,0,0.227378,-10.249193,-10.686773)"/><path style="fill:none;stroke-width:6;stroke-linecap:butt;stroke-linejoin:miter;stroke:#000000;stroke-opacity:1;stroke-miterlimit:10;" d="M 864.229086 289.72931 C 812.346954 289.72931 767.044575 261.537727 742.82146 219.636892 C 791.233331 219.671251 838.305199 244.787701 864.229086 289.72931 Z M 864.229086 289.72931 " transform="matrix(0.227378,0,0,0.227378,-10.249193,-10.686773)"/><path style="fill:none;stroke-width:6;stroke-linecap:butt;stroke-linejoin:miter;stroke:#000000;stroke-opacity:1;stroke-miterlimit:10;" d="M 864.229086 289.72931 C 838.28802 334.653739 791.216151 359.787368 742.82146 359.821727 C 767.044575 317.920893 812.346954 289.72931 864.229086 289.72931 Z M 864.229086 289.72931 " transform="matrix(0.227378,0,0,0.227378,-10.249193,-10.686773)"/><g clip-rule="nonzero" clip-path="url(#1c3597297b)"><path style="fill:none;stroke-width:6;stroke-linecap:butt;stroke-linejoin:miter;stroke:#000000;stroke-opacity:1;stroke-miterlimit:10;" d="M 864.229086 429.896965 C 840.05751 387.961772 838.28802 334.653739 864.229086 289.71213 C 890.170153 334.653739 888.417842 387.961772 864.229086 429.896965 Z M 864.229086 429.896965 " transform="matrix(0.227378,0,0,0.227378,-10.249193,-10.686773)"/></g><path style="fill:none;stroke-width:6;stroke-linecap:butt;stroke-linejoin:miter;stroke:#000000;stroke-opacity:1;stroke-miterlimit:10;" d="M 257.173776 500.006563 C 208.779084 499.972204 161.707216 474.855754 135.76615 429.914145 C 187.648282 429.914145 232.950661 458.105728 257.173776 500.006563 Z M 257.173776 500.006563 " transform="matrix(0.227378,0,0,0.227378,-10.249193,-10.686773)"/><path style="fill:none;stroke-width:6;stroke-linecap:butt;stroke-linejoin:miter;stroke:#000000;stroke-opacity:1;stroke-miterlimit:10;" d="M 257.173776 359.821727 C 232.950661 401.722562 187.648282 429.914145 135.76615 429.914145 C 161.707216 384.972536 208.761905 359.856086 257.173776 359.821727 Z M 257.173776 359.821727 " transform="matrix(0.227378,0,0,0.227378,-10.249193,-10.686773)"/><g clip-rule="nonzero" clip-path="url(#be53808b36)"><path style="fill:none;stroke-width:6;stroke-linecap:butt;stroke-linejoin:miter;stroke:#000000;stroke-opacity:1;stroke-miterlimit:10;" d="M 135.76615 570.081801 C 111.594573 528.163786 109.825083 474.838574 135.76615 429.914145 C 161.707216 474.838574 159.937726 528.163786 135.76615 570.081801 Z M 135.76615 570.081801 " transform="matrix(0.227378,0,0,0.227378,-10.249193,-10.686773)"/></g><path style="fill:none;stroke-width:6;stroke-linecap:butt;stroke-linejoin:miter;stroke:#000000;stroke-opacity:1;stroke-miterlimit:10;" d="M 378.598581 429.914145 C 430.463535 429.914145 475.765913 458.105728 500.006208 500.006563 C 451.594337 499.972204 404.522468 474.838574 378.598581 429.914145 Z M 378.598581 429.914145 " transform="matrix(0.227378,0,0,0.227378,-10.249193,-10.686773)"/><path style="fill:none;stroke-width:6;stroke-linecap:butt;stroke-linejoin:miter;stroke:#000000;stroke-opacity:1;stroke-miterlimit:10;" d="M 378.598581 429.914145 C 404.522468 384.972536 451.594337 359.856086 500.006208 359.804548 C 475.765913 401.722562 430.463535 429.914145 378.598581 429.914145 Z M 378.598581 429.914145 " transform="matrix(0.227378,0,0,0.227378,-10.249193,-10.686773)"/><path style="fill:none;stroke-width:6;stroke-linecap:butt;stroke-linejoin:miter;stroke:#000000;stroke-opacity:1;stroke-miterlimit:10;" d="M 378.598581 429.914145 C 326.716449 429.914145 281.41407 401.722562 257.173776 359.804548 C 305.585646 359.856086 352.657515 384.972536 378.598581 429.914145 Z M 378.598581 429.914145 " transform="matrix(0.227378,0,0,0.227378,-10.249193,-10.686773)"/><path style="fill:none;stroke-width:6;stroke-linecap:butt;stroke-linejoin:miter;stroke:#000000;stroke-opacity:1;stroke-miterlimit:10;" d="M 378.598581 429.914145 C 352.657515 474.838574 305.585646 499.972204 257.173776 500.006563 C 281.396891 458.105728 326.716449 429.914145 378.598581 429.914145 Z M 378.598581 429.914145 " transform="matrix(0.227378,0,0,0.227378,-10.249193,-10.686773)"/><path style="fill:none;stroke-width:6;stroke-linecap:butt;stroke-linejoin:miter;stroke:#000000;stroke-opacity:1;stroke-miterlimit:10;" d="M 378.598581 570.081801 C 354.427005 528.163786 352.657515 474.838574 378.598581 429.914145 C 404.522468 474.838574 402.752978 528.163786 378.598581 570.081801 Z M 378.598581 570.081801 " transform="matrix(0.227378,0,0,0.227378,-10.249193,-10.686773)"/><path style="fill:none;stroke-width:6;stroke-linecap:butt;stroke-linejoin:miter;stroke:#000000;stroke-opacity:1;stroke-miterlimit:10;" d="M 742.82146 500.006563 C 694.426769 499.972204 647.3549 474.855754 621.413834 429.914145 C 673.295966 429.914145 718.598345 458.105728 742.82146 500.006563 Z M 742.82146 500.006563 " transform="matrix(0.227378,0,0,0.227378,-10.249193,-10.686773)"/><path style="fill:none;stroke-width:6;stroke-linecap:butt;stroke-linejoin:miter;stroke:#000000;stroke-opacity:1;stroke-miterlimit:10;" d="M 742.82146 359.821727 C 718.598345 401.722562 673.295966 429.914145 621.413834 429.914145 C 647.3549 384.972536 694.426769 359.856086 742.82146 359.821727 Z M 742.82146 359.821727 " transform="matrix(0.227378,0,0,0.227378,-10.249193,-10.686773)"/><path style="fill:none;stroke-width:6;stroke-linecap:butt;stroke-linejoin:miter;stroke:#000000;stroke-opacity:1;stroke-miterlimit:10;" d="M 621.413834 429.914145 C 569.531701 429.914145 524.229323 401.722562 500.006208 359.804548 C 548.400899 359.856086 595.472768 384.972536 621.413834 429.914145 Z M 621.413834 429.914145 " transform="matrix(0.227378,0,0,0.227378,-10.249193,-10.686773)"/><path style="fill:none;stroke-width:6;stroke-linecap:butt;stroke-linejoin:miter;stroke:#000000;stroke-opacity:1;stroke-miterlimit:10;" d="M 621.413834 429.914145 C 595.472768 474.838574 548.400899 499.972204 500.006208 500.006563 C 524.229323 458.105728 569.531701 429.914145 621.413834 429.914145 Z M 621.413834 429.914145 " transform="matrix(0.227378,0,0,0.227378,-10.249193,-10.686773)"/><path style="fill:none;stroke-width:6;stroke-linecap:butt;stroke-linejoin:miter;stroke:#000000;stroke-opacity:1;stroke-miterlimit:10;" d="M 621.413834 570.081801 C 597.242257 528.163786 595.472768 474.838574 621.413834 429.914145 C 647.3549 474.838574 645.58541 528.163786 621.413834 570.081801 Z M 621.413834 570.081801 " transform="matrix(0.227378,0,0,0.227378,-10.249193,-10.686773)"/><path style="fill:none;stroke-width:6;stroke-linecap:butt;stroke-linejoin:miter;stroke:#000000;stroke-opacity:1;stroke-miterlimit:10;" d="M 864.229086 429.914145 C 812.346954 429.914145 767.044575 401.722562 742.82146 359.804548 C 791.233331 359.856086 838.305199 384.972536 864.229086 429.914145 Z M 864.229086 429.914145 " transform="matrix(0.227378,0,0,0.227378,-10.249193,-10.686773)"/><path style="fill:none;stroke-width:6;stroke-linecap:butt;stroke-linejoin:miter;stroke:#000000;stroke-opacity:1;stroke-miterlimit:10;" d="M 864.229086 429.914145 C 838.28802 474.838574 791.216151 499.972204 742.82146 500.006563 C 767.044575 458.105728 812.346954 429.914145 864.229086 429.914145 Z M 864.229086 429.914145 " transform="matrix(0.227378,0,0,0.227378,-10.249193,-10.686773)"/><g clip-rule="nonzero" clip-path="url(#e4f0399773)"><path style="fill:none;stroke-width:6;stroke-linecap:butt;stroke-linejoin:miter;stroke:#000000;stroke-opacity:1;stroke-miterlimit:10;" d="M 864.229086 570.081801 C 840.05751 528.163786 838.28802 474.838574 864.229086 429.914145 C 890.170153 474.838574 888.417842 528.163786 864.229086 570.081801 Z M 864.229086 570.081801 " transform="matrix(0.227378,0,0,0.227378,-10.249193,-10.686773)"/></g><path style="fill:none;stroke-width:6;stroke-linecap:butt;stroke-linejoin:miter;stroke:#000000;stroke-opacity:1;stroke-miterlimit:10;" d="M 257.173776 640.191398 C 208.779084 640.157039 161.707216 615.02341 135.76615 570.081801 C 187.648282 570.09898 232.950661 598.290563 257.173776 640.191398 Z M 257.173776 640.191398 " transform="matrix(0.227378,0,0,0.227378,-10.249193,-10.686773)"/><path style="fill:none;stroke-width:6;stroke-linecap:butt;stroke-linejoin:miter;stroke:#000000;stroke-opacity:1;stroke-miterlimit:10;" d="M 257.173776 500.006563 C 232.950661 541.907397 187.648282 570.09898 135.76615 570.09898 C 161.707216 525.157371 208.761905 500.040922 257.173776 500.006563 Z M 257.173776 500.006563 " transform="matrix(0.227378,0,0,0.227378,-10.249193,-10.686773)"/><g clip-rule="nonzero" clip-path="url(#6236ae0c05)"><path style="fill:none;stroke-width:6;stroke-linecap:butt;stroke-linejoin:miter;stroke:#000000;stroke-opacity:1;stroke-miterlimit:10;" d="M 135.76615 710.266636 C 111.594573 668.331442 109.825083 615.02341 135.76615 570.081801 C 161.707216 615.02341 159.937726 668.331442 135.76615 710.266636 Z M 135.76615 710.266636 " transform="matrix(0.227378,0,0,0.227378,-10.249193,-10.686773)"/></g><path style="fill:none;stroke-width:6;stroke-linecap:butt;stroke-linejoin:miter;stroke:#000000;stroke-opacity:1;stroke-miterlimit:10;" d="M 378.598581 570.09898 C 352.657515 615.02341 305.585646 640.157039 257.173776 640.191398 C 281.396891 598.290563 326.716449 570.09898 378.598581 570.09898 Z M 378.598581 570.09898 " transform="matrix(0.227378,0,0,0.227378,-10.249193,-10.686773)"/><path style="fill:none;stroke-width:6;stroke-linecap:butt;stroke-linejoin:miter;stroke:#000000;stroke-opacity:1;stroke-miterlimit:10;" d="M 378.598581 570.09898 C 430.463535 570.09898 475.765913 598.290563 500.006208 640.191398 C 451.594337 640.157039 404.522468 615.02341 378.598581 570.09898 Z M 378.598581 570.09898 " transform="matrix(0.227378,0,0,0.227378,-10.249193,-10.686773)"/><path style="fill:none;stroke-width:6;stroke-linecap:butt;stroke-linejoin:miter;stroke:#000000;stroke-opacity:1;stroke-miterlimit:10;" d="M 378.598581 570.09898 C 404.522468 525.157371 451.594337 500.040922 500.006208 500.006563 C 475.765913 541.907397 430.463535 570.09898 378.598581 570.09898 Z M 378.598581 570.09898 " transform="matrix(0.227378,0,0,0.227378,-10.249193,-10.686773)"/><path style="fill:none;stroke-width:6;stroke-linecap:butt;stroke-linejoin:miter;stroke:#000000;stroke-opacity:1;stroke-miterlimit:10;" d="M 378.598581 570.09898 C 326.716449 570.09898 281.41407 541.907397 257.173776 500.006563 C 305.585646 500.040922 352.657515 525.157371 378.598581 570.09898 Z M 378.598581 570.09898 " transform="matrix(0.227378,0,0,0.227378,-10.249193,-10.686773)"/><path style="fill:none;stroke-width:6;stroke-linecap:butt;stroke-linejoin:miter;stroke:#000000;stroke-opacity:1;stroke-miterlimit:10;" d="M 378.598581 710.266636 C 354.427005 668.331442 352.657515 615.02341 378.598581 570.081801 C 404.522468 615.02341 402.752978 668.331442 378.598581 710.266636 Z M 378.598581 710.266636 " transform="matrix(0.227378,0,0,0.227378,-10.249193,-10.686773)"/><path style="fill:none;stroke-width:6;stroke-linecap:butt;stroke-linejoin:miter;stroke:#000000;stroke-opacity:1;stroke-miterlimit:10;" d="M 742.82146 640.191398 C 694.426769 640.157039 647.3549 615.02341 621.413834 570.081801 C 673.295966 570.09898 718.598345 598.290563 742.82146 640.191398 Z M 742.82146 640.191398 " transform="matrix(0.227378,0,0,0.227378,-10.249193,-10.686773)"/><path style="fill:none;stroke-width:6;stroke-linecap:butt;stroke-linejoin:miter;stroke:#000000;stroke-opacity:1;stroke-miterlimit:10;" d="M 742.82146 500.006563 C 718.598345 541.907397 673.295966 570.09898 621.413834 570.09898 C 647.3549 525.157371 694.426769 500.040922 742.82146 500.006563 Z M 742.82146 500.006563 " transform="matrix(0.227378,0,0,0.227378,-10.249193,-10.686773)"/><path style="fill:none;stroke-width:6;stroke-linecap:butt;stroke-linejoin:miter;stroke:#000000;stroke-opacity:1;stroke-miterlimit:10;" d="M 621.413834 570.09898 C 569.531701 570.09898 524.229323 541.907397 500.006208 500.006563 C 548.400899 500.040922 595.472768 525.157371 621.413834 570.09898 Z M 621.413834 570.09898 " transform="matrix(0.227378,0,0,0.227378,-10.249193,-10.686773)"/><path style="fill:none;stroke-width:6;stroke-linecap:butt;stroke-linejoin:miter;stroke:#000000;stroke-opacity:1;stroke-miterlimit:10;" d="M 621.413834 570.09898 C 595.472768 615.02341 548.400899 640.157039 500.006208 640.191398 C 524.229323 598.290563 569.531701 570.09898 621.413834 570.09898 Z M 621.413834 570.09898 " transform="matrix(0.227378,0,0,0.227378,-10.249193,-10.686773)"/><path style="fill:none;stroke-width:6;stroke-linecap:butt;stroke-linejoin:miter;stroke:#000000;stroke-opacity:1;stroke-miterlimit:10;" d="M 621.413834 710.266636 C 597.242257 668.331442 595.472768 615.02341 621.413834 570.081801 C 647.3549 615.02341 645.58541 668.331442 621.413834 710.266636 Z M 621.413834 710.266636 " transform="matrix(0.227378,0,0,0.227378,-10.249193,-10.686773)"/><path style="fill:none;stroke-width:6;stroke-linecap:butt;stroke-linejoin:miter;stroke:#000000;stroke-opacity:1;stroke-miterlimit:10;" d="M 864.229086 570.09898 C 812.346954 570.09898 767.044575 541.907397 742.82146 500.006563 C 791.233331 500.040922 838.305199 525.157371 864.229086 570.09898 Z M 864.229086 570.09898 " transform="matrix(0.227378,0,0,0.227378,-10.249193,-10.686773)"/><path style="fill:none;stroke-width:6;stroke-linecap:butt;stroke-linejoin:miter;stroke:#000000;stroke-opacity:1;stroke-miterlimit:10;" d="M 864.229086 570.09898 C 838.28802 615.02341 791.216151 640.157039 742.82146 640.191398 C 767.044575 598.290563 812.346954 570.09898 864.229086 570.09898 Z M 864.229086 570.09898 " transform="matrix(0.227378,0,0,0.227378,-10.249193,-10.686773)"/><g clip-rule="nonzero" clip-path="url(#c5a8ea6dc9)"><path style="fill:none;stroke-width:6;stroke-linecap:butt;stroke-linejoin:miter;stroke:#000000;stroke-opacity:1;stroke-miterlimit:10;" d="M 864.229086 710.266636 C 840.05751 668.331442 838.28802 615.02341 864.229086 570.081801 C 890.170153 615.02341 888.417842 668.331442 864.229086 710.266636 Z M 864.229086 710.266636 " transform="matrix(0.227378,0,0,0.227378,-10.249193,-10.686773)"/></g><path style="fill:none;stroke-width:6;stroke-linecap:butt;stroke-linejoin:miter;stroke:#000000;stroke-opacity:1;stroke-miterlimit:10;" d="M 257.173776 780.376233 C 208.779084 780.341874 161.707216 755.225424 135.76615 710.283815 C 187.648282 710.283815 232.950661 738.475398 257.173776 780.376233 Z M 257.173776 780.376233 " transform="matrix(0.227378,0,0,0.227378,-10.249193,-10.686773)"/><path style="fill:none;stroke-width:6;stroke-linecap:butt;stroke-linejoin:miter;stroke:#000000;stroke-opacity:1;stroke-miterlimit:10;" d="M 257.173776 640.174218 C 232.950661 682.075053 187.648282 710.283815 135.76615 710.283815 C 161.707216 665.342206 208.761905 640.225757 257.173776 640.174218 Z M 257.173776 640.174218 " transform="matrix(0.227378,0,0,0.227378,-10.249193,-10.686773)"/><path style="fill:none;stroke-width:6;stroke-linecap:butt;stroke-linejoin:miter;stroke:#000000;stroke-opacity:1;stroke-miterlimit:10;" d="M 378.598581 710.283815 C 352.657515 755.208245 305.585646 780.341874 257.173776 780.376233 C 281.396891 738.475398 326.716449 710.283815 378.598581 710.283815 Z M 378.598581 710.283815 " transform="matrix(0.227378,0,0,0.227378,-10.249193,-10.686773)"/><path style="fill:none;stroke-width:6;stroke-linecap:butt;stroke-linejoin:miter;stroke:#000000;stroke-opacity:1;stroke-miterlimit:10;" d="M 378.598581 710.283815 C 430.463535 710.283815 475.765913 738.475398 500.006208 780.376233 C 451.594337 780.341874 404.522468 755.208245 378.598581 710.283815 Z M 378.598581 710.283815 " transform="matrix(0.227378,0,0,0.227378,-10.249193,-10.686773)"/><path style="fill:none;stroke-width:6;stroke-linecap:butt;stroke-linejoin:miter;stroke:#000000;stroke-opacity:1;stroke-miterlimit:10;" d="M 378.598581 710.283815 C 404.522468 665.342206 451.594337 640.225757 500.006208 640.174218 C 475.765913 682.092233 430.463535 710.283815 378.598581 710.283815 Z M 378.598581 710.283815 " transform="matrix(0.227378,0,0,0.227378,-10.249193,-10.686773)"/><path style="fill:none;stroke-width:6;stroke-linecap:butt;stroke-linejoin:miter;stroke:#000000;stroke-opacity:1;stroke-miterlimit:10;" d="M 378.598581 710.283815 C 326.716449 710.283815 281.41407 682.092233 257.173776 640.174218 C 305.585646 640.225757 352.657515 665.342206 378.598581 710.283815 Z M 378.598581 710.283815 " transform="matrix(0.227378,0,0,0.227378,-10.249193,-10.686773)"/><path style="fill:none;stroke-width:6;stroke-linecap:butt;stroke-linejoin:miter;stroke:#000000;stroke-opacity:1;stroke-miterlimit:10;" d="M 378.598581 850.451471 C 354.427005 808.533456 352.657515 755.208245 378.598581 710.283815 C 404.522468 755.208245 402.752978 808.533456 378.598581 850.451471 Z M 378.598581 850.451471 " transform="matrix(0.227378,0,0,0.227378,-10.249193,-10.686773)"/><path style="fill:none;stroke-width:6;stroke-linecap:butt;stroke-linejoin:miter;stroke:#000000;stroke-opacity:1;stroke-miterlimit:10;" d="M 742.82146 780.376233 C 694.426769 780.341874 647.3549 755.225424 621.413834 710.283815 C 673.295966 710.283815 718.598345 738.475398 742.82146 780.376233 Z M 742.82146 780.376233 " transform="matrix(0.227378,0,0,0.227378,-10.249193,-10.686773)"/><path style="fill:none;stroke-width:6;stroke-linecap:butt;stroke-linejoin:miter;stroke:#000000;stroke-opacity:1;stroke-miterlimit:10;" d="M 742.82146 640.174218 C 718.598345 682.075053 673.295966 710.283815 621.413834 710.283815 C 647.3549 665.342206 694.426769 640.225757 742.82146 640.174218 Z M 742.82146 640.174218 " transform="matrix(0.227378,0,0,0.227378,-10.249193,-10.686773)"/><path style="fill:none;stroke-width:6;stroke-linecap:butt;stroke-linejoin:miter;stroke:#000000;stroke-opacity:1;stroke-miterlimit:10;" d="M 621.413834 710.283815 C 569.531701 710.283815 524.229323 682.092233 500.006208 640.174218 C 548.400899 640.225757 595.472768 665.342206 621.413834 710.283815 Z M 621.413834 710.283815 " transform="matrix(0.227378,0,0,0.227378,-10.249193,-10.686773)"/><path style="fill:none;stroke-width:6;stroke-linecap:butt;stroke-linejoin:miter;stroke:#000000;stroke-opacity:1;stroke-miterlimit:10;" d="M 621.413834 710.283815 C 595.472768 755.208245 548.400899 780.341874 500.006208 780.376233 C 524.229323 738.475398 569.531701 710.283815 621.413834 710.283815 Z M 621.413834 710.283815 " transform="matrix(0.227378,0,0,0.227378,-10.249193,-10.686773)"/><path style="fill:none;stroke-width:6;stroke-linecap:butt;stroke-linejoin:miter;stroke:#000000;stroke-opacity:1;stroke-miterlimit:10;" d="M 621.413834 850.451471 C 597.242257 808.533456 595.472768 755.208245 621.413834 710.283815 C 647.3549 755.208245 645.58541 808.533456 621.413834 850.451471 Z M 621.413834 850.451471 " transform="matrix(0.227378,0,0,0.227378,-10.249193,-10.686773)"/><path style="fill:none;stroke-width:6;stroke-linecap:butt;stroke-linejoin:miter;stroke:#000000;stroke-opacity:1;stroke-miterlimit:10;" d="M 864.229086 710.283815 C 812.346954 710.283815 767.044575 682.092233 742.82146 640.174218 C 791.233331 640.225757 838.305199 665.342206 864.229086 710.283815 Z M 864.229086 710.283815 " transform="matrix(0.227378,0,0,0.227378,-10.249193,-10.686773)"/><path style="fill:none;stroke-width:6;stroke-linecap:butt;stroke-linejoin:miter;stroke:#000000;stroke-opacity:1;stroke-miterlimit:10;" d="M 864.229086 710.283815 C 838.28802 755.208245 791.216151 780.341874 742.82146 780.376233 C 767.044575 738.475398 812.346954 710.283815 864.229086 710.283815 Z M 864.229086 710.283815 " transform="matrix(0.227378,0,0,0.227378,-10.249193,-10.686773)"/><g clip-rule="nonzero" clip-path="url(#cd30097fa8)"><path style="fill:none;stroke-width:6;stroke-linecap:butt;stroke-linejoin:miter;stroke:#000000;stroke-opacity:1;stroke-miterlimit:10;" d="M 500.006208 920.561068 C 451.594337 920.526709 404.522468 895.39308 378.598581 850.451471 C 430.463535 850.46865 475.765913 878.660233 500.006208 920.561068 Z M 500.006208 920.561068 " transform="matrix(0.227378,0,0,0.227378,-10.249193,-10.686773)"/></g><path style="fill:none;stroke-width:6;stroke-linecap:butt;stroke-linejoin:miter;stroke:#000000;stroke-opacity:1;stroke-miterlimit:10;" d="M 500.006208 780.376233 C 475.765913 822.277068 430.463535 850.46865 378.598581 850.46865 C 404.522468 805.527041 451.594337 780.393412 500.006208 780.376233 Z M 500.006208 780.376233 " transform="matrix(0.227378,0,0,0.227378,-10.249193,-10.686773)"/><path style="fill:none;stroke-width:6;stroke-linecap:butt;stroke-linejoin:miter;stroke:#000000;stroke-opacity:1;stroke-miterlimit:10;" d="M 378.598581 850.46865 C 326.716449 850.46865 281.41407 822.277068 257.173776 780.376233 C 305.585646 780.393412 352.657515 805.527041 378.598581 850.46865 Z M 378.598581 850.46865 " transform="matrix(0.227378,0,0,0.227378,-10.249193,-10.686773)"/><path style="fill:none;stroke-width:6;stroke-linecap:butt;stroke-linejoin:miter;stroke:#000000;stroke-opacity:1;stroke-miterlimit:10;" d="M 742.82146 780.376233 C 718.598345 822.277068 673.295966 850.46865 621.413834 850.46865 C 647.3549 805.527041 694.426769 780.393412 742.82146 780.376233 Z M 742.82146 780.376233 " transform="matrix(0.227378,0,0,0.227378,-10.249193,-10.686773)"/><path style="fill:none;stroke-width:6;stroke-linecap:butt;stroke-linejoin:miter;stroke:#000000;stroke-opacity:1;stroke-miterlimit:10;" d="M 621.413834 850.46865 C 569.531701 850.46865 524.229323 822.277068 500.006208 780.376233 C 548.400899 780.393412 595.472768 805.527041 621.413834 850.46865 Z M 621.413834 850.46865 " transform="matrix(0.227378,0,0,0.227378,-10.249193,-10.686773)"/><g clip-rule="nonzero" clip-path="url(#e0247f80c5)"><path style="fill:none;stroke-width:6;stroke-linecap:butt;stroke-linejoin:miter;stroke:#000000;stroke-opacity:1;stroke-miterlimit:10;" d="M 621.413834 850.46865 C 595.472768 895.39308 548.400899 920.526709 500.006208 920.578247 C 524.229323 878.660233 569.531701 850.46865 621.413834 850.46865 Z M 621.413834 850.46865 " transform="matrix(0.227378,0,0,0.227378,-10.249193,-10.686773)"/></g></g><mask id="82266b5b99"><g filter="url(#8bde26c51b)"><rect x="0" width="206.87999" y="0" height="207.000001" style="fill:#000000;fill-opacity:0.37;stroke:none;"/></g></mask></g></g></g></svg>